<svg xmlns="http://www.w3.org/2000/svg" xmlns:xlink="http://www.w3.org/1999/xlink" width="345.25" height="284.094" viewBox="0 0 345.25 284.094">
  <defs>
    <linearGradient id="linear-gradient" x1="0.198" y1="0.945" x2="0.802" y2="0.055" gradientUnits="objectBoundingBox">
      <stop offset="0.035" stop-color="#878787"/>
      <stop offset="0.861" stop-color="#fff"/>
    </linearGradient>
    <linearGradient id="linear-gradient-2" x1="0.198" y1="0.946" x2="0.802" y2="0.054" gradientUnits="objectBoundingBox">
      <stop offset="0" stop-color="#fff"/>
      <stop offset="0.732" stop-color="#d1d1d1"/>
    </linearGradient>
    <linearGradient id="linear-gradient-3" x1="0.201" y1="0.957" x2="0.799" y2="0.043" xlink:href="#linear-gradient"/>
    <linearGradient id="linear-gradient-4" x1="0.204" y1="0.968" x2="0.796" y2="0.032" xlink:href="#linear-gradient-2"/>
    <linearGradient id="linear-gradient-5" x1="0.202" y1="0.959" x2="0.798" y2="0.041" xlink:href="#linear-gradient"/>
    <linearGradient id="linear-gradient-6" x1="0.204" y1="0.968" x2="0.796" y2="0.032" xlink:href="#linear-gradient-2"/>
    <linearGradient id="linear-gradient-7" x1="0.198" y1="0.953" x2="0.802" y2="0.048" xlink:href="#linear-gradient"/>
    <linearGradient id="linear-gradient-8" x1="0.204" y1="0.968" x2="0.796" y2="0.032" xlink:href="#linear-gradient-2"/>
  </defs>
  <g id="Group_476" data-name="Group 476" transform="translate(-160 -1631.235)">
    <g id="Group_59" data-name="Group 59" transform="translate(-60.666 49.533)" style="mix-blend-mode: multiply;isolation: isolate">
      <path id="Path_291" data-name="Path 291" d="M301.226,1626.243c-84.664,71.9-106.48,124.978-46.816,191.46,22.508,25.085,104.727,91.1,241.1,5.866,104.959-65.6,69.97-159.931,38.378-194.9C522.735,1616.327,388.393,1552.221,301.226,1626.243Z" fill="#fff" opacity="0"/>
      <path id="Path_292" data-name="Path 292" d="M301.76,1626.471c-41.068,34.764-67.175,65.222-76.128,94.94-9.365,31.141.159,61.283,30.371,94.668a145.508,145.508,0,0,0,26.531,22.261c.18.119.372.241.553.359a155.775,155.775,0,0,0,85.92,24.8c34.983-.128,77.725-10.822,126.792-41.624,41.612-26.135,60.846-57.1,66.953-86.918,9.075-43.967-11.192-85.616-29.984-106.356-6.07-6.654-44.988-26.865-93.124-34.339-7.658-1.184-15.551-2.046-23.581-2.48C377.661,1589.7,336.024,1597.469,301.76,1626.471Z" fill="#fcfcfc" opacity="0.024"/>
      <path id="Path_293" data-name="Path 293" d="M302.293,1626.7c-40.753,34.386-66.6,64.655-75.329,94.179-9.131,31,.709,60.794,30.632,93.577a152.128,152.128,0,0,0,26.466,21.946c.175.116.375.239.551.354A156.49,156.49,0,0,0,370.04,1861.2c34.866-.124,77.747-10.562,126.046-41.021,41-25.882,59.9-56.767,65.85-86.455,8.848-43.428-11.525-84.674-30.29-105.195-6.3-6.891-44.842-26.779-92.457-34.066-7.6-1.155-15.444-1.986-23.418-2.393C377.69,1590.113,336.315,1598,302.293,1626.7Z" fill="#f9f9f9" opacity="0.049"/>
      <path id="Path_294" data-name="Path 294" d="M302.826,1626.927c-40.439,34.009-66.025,64.089-74.531,93.418-8.9,30.85,1.261,60.305,30.893,92.487a159.581,159.581,0,0,0,26.4,21.631c.171.112.378.236.55.349a157.255,157.255,0,0,0,84.934,24.094c34.748-.121,77.769-10.3,125.3-40.418,40.391-25.629,58.878-56.452,64.746-85.994,8.524-42.908-11.9-83.7-30.6-104.033-6.544-7.117-44.7-26.693-91.789-33.793a233.605,233.605,0,0,0-23.256-2.306C377.719,1590.527,336.607,1598.528,302.826,1626.927Z" fill="#f6f6f6" opacity="0.073"/>
      <path id="Path_295" data-name="Path 295" d="M303.36,1627.155c-40.125,33.631-65.451,63.522-73.733,92.657-8.662,30.7,1.812,59.816,31.154,91.4a167.607,167.607,0,0,0,26.336,21.316c.166.11.381.234.548.344a158.034,158.034,0,0,0,84.44,23.742c34.632-.118,77.791-10.044,124.555-39.816,39.781-25.375,57.9-56.125,63.643-85.531,8.267-42.374-12.269-82.717-30.9-102.872-6.787-7.343-44.551-26.607-91.122-33.52a231.493,231.493,0,0,0-23.093-2.22C377.749,1590.942,336.9,1599.057,303.36,1627.155Z" fill="#f3f3f3" opacity="0.098"/>
      <path id="Path_296" data-name="Path 296" d="M303.893,1627.383c-39.81,33.253-64.876,62.956-72.934,91.9-8.428,30.558,2.362,59.327,31.414,90.3a176.641,176.641,0,0,0,26.271,21c.162.107.384.233.547.339a158.846,158.846,0,0,0,83.947,23.39c34.514-.115,77.813-9.786,123.809-39.214,39.171-25.121,56.934-55.8,62.539-85.069,8.012-41.839-12.646-81.734-31.205-101.71-7.032-7.569-44.406-26.521-90.456-33.248a229.227,229.227,0,0,0-22.93-2.132C377.778,1591.357,337.19,1599.586,303.893,1627.383Z" fill="#f0f0f0" opacity="0.122"/>
      <path id="Path_297" data-name="Path 297" d="M304.427,1627.611c-39.5,32.876-64.3,62.39-72.136,91.135-8.194,30.412,2.913,58.838,31.675,89.214,5.579,5.566,15.722,13.764,26.206,20.687.157.1.387.23.545.333a159.692,159.692,0,0,0,83.454,23.037c34.4-.111,77.835-9.526,123.063-38.61,38.561-24.868,55.963-55.473,61.435-84.607,7.759-41.305-13.026-80.75-31.51-100.55-7.276-7.793-44.26-26.434-89.789-32.974a226.755,226.755,0,0,0-22.767-2.045C377.807,1591.771,337.481,1600.115,304.427,1627.611Z" fill="#ededed" opacity="0.146"/>
      <path id="Path_298" data-name="Path 298" d="M304.96,1627.839c-39.182,32.5-63.727,61.823-71.337,90.374-7.96,30.267,3.463,58.349,31.936,88.124,5.6,5.485,15.956,13.646,26.14,20.371.153.1.391.228.544.328a160.568,160.568,0,0,0,82.96,22.685c34.28-.108,77.857-9.267,122.317-38.008,37.952-24.614,54.994-55.146,60.333-84.144,7.506-40.77-13.408-79.763-31.816-99.389-7.521-8.017-44.114-26.348-89.122-32.7a224.324,224.324,0,0,0-22.6-1.958C377.836,1592.186,337.773,1600.644,304.96,1627.839Z" fill="#eaeaea" opacity="0.171"/>
      <path id="Path_299" data-name="Path 299" d="M305.493,1628.067c-38.867,32.12-63.152,61.257-70.538,89.614-7.726,30.12,4.014,57.859,32.2,87.032,5.631,5.405,16.191,13.529,26.076,20.056.148.1.393.226.543.324a161.488,161.488,0,0,0,82.466,22.332c34.162-.105,77.879-9.009,121.571-37.406,37.342-24.36,54.024-54.819,59.229-83.682,7.255-40.234-13.793-78.774-32.121-98.227-7.766-8.242-43.956-26.358-88.455-32.428a217.5,217.5,0,0,0-22.44-1.872C377.866,1592.6,338.064,1601.173,305.493,1628.067Z" fill="#e7e7e7" opacity="0.195"/>
      <path id="Path_300" data-name="Path 300" d="M306.027,1628.3c-38.554,31.743-62.636,60.675-69.741,88.853-7.553,29.958,4.566,57.37,32.458,85.941,5.656,5.326,16.425,13.412,26.01,19.741.144.1.4.224.542.319a162.425,162.425,0,0,0,81.972,21.979,222.644,222.644,0,0,0,120.826-36.8c36.731-24.108,53.056-54.492,58.126-83.22,7.005-39.7-14.18-77.784-32.427-97.066-8.012-8.466-43.809-26.282-87.788-32.155a214.566,214.566,0,0,0-22.277-1.785C377.895,1593.015,338.356,1601.7,306.027,1628.3Z" fill="#e4e4e4" opacity="0.22"/>
      <path id="Path_301" data-name="Path 301" d="M306.56,1628.523c-38.239,31.365-62.066,60.108-68.942,88.092-7.325,29.812,5.116,56.881,32.719,84.851,5.682,5.245,16.659,13.294,25.945,19.426.139.092.4.221.54.313a163.425,163.425,0,0,0,81.479,21.627,220.55,220.55,0,0,0,120.08-36.2c36.121-23.854,52.088-54.164,57.022-82.758,6.758-39.162-14.568-76.79-32.732-95.9-8.258-8.689-43.662-26.2-87.12-31.882a211.948,211.948,0,0,0-22.115-1.7C377.924,1593.43,338.647,1602.231,306.56,1628.523Z" fill="#e1e1e1" opacity="0.244"/>
      <path id="Path_302" data-name="Path 302" d="M307.094,1628.751c-37.925,30.987-61.5,59.541-68.144,87.331-7.1,29.665,5.667,56.392,32.979,83.76,5.708,5.165,16.894,13.177,25.88,19.111.135.089.4.22.539.308a164.445,164.445,0,0,0,80.986,21.275c33.811-.1,77.945-8.232,119.334-35.6,35.511-23.6,51.121-53.836,55.918-82.3,6.512-38.625-14.958-75.8-33.037-94.743-8.5-8.913-43.516-26.127-86.453-31.61a208.994,208.994,0,0,0-21.952-1.61C377.954,1593.844,338.939,1602.76,307.094,1628.751Z" fill="#dedede" opacity="0.268"/>
      <path id="Path_303" data-name="Path 303" d="M307.627,1628.979c-37.611,30.61-60.926,58.974-67.345,86.57-6.867,29.519,6.217,55.9,33.24,82.669,5.734,5.085,17.128,13.06,25.815,18.8.13.086.406.218.537.3a165.533,165.533,0,0,0,80.492,20.922c33.694-.093,77.968-7.973,118.589-34.995,34.9-23.347,50.154-53.508,54.815-81.834,6.266-38.087-15.35-74.8-33.343-93.581-8.752-9.135-43.369-26.049-85.786-31.337a206.679,206.679,0,0,0-21.789-1.524C377.983,1594.259,339.23,1603.289,307.627,1628.979Z" fill="#dbdbdb" opacity="0.293"/>
      <path id="Path_304" data-name="Path 304" d="M308.16,1629.207c-37.3,30.232-60.355,58.407-66.546,85.809-6.637,29.372,6.768,55.415,33.5,81.578,5.759,5.006,17.362,12.944,25.749,18.482.126.083.409.215.536.3a166.634,166.634,0,0,0,80,20.569c33.577-.089,77.989-7.713,117.843-34.392,34.291-23.093,49.189-53.18,53.711-81.371,6.024-37.55-15.743-73.8-33.648-92.421-9-9.357-43.223-25.969-85.119-31.063a204.044,204.044,0,0,0-21.626-1.437C378.012,1594.674,339.522,1603.818,308.16,1629.207Z" fill="#d8d8d8" opacity="0.317"/>
      <path id="Path_305" data-name="Path 305" d="M308.694,1629.435c-36.983,29.854-59.785,57.84-65.749,85.048-6.406,29.226,7.319,54.926,33.762,80.488,5.786,4.925,17.6,12.826,25.685,18.166.121.08.412.213.534.293a167.792,167.792,0,0,0,79.505,20.217c33.46-.086,78.012-7.455,117.1-33.79,33.681-22.839,48.224-52.851,52.607-80.909,5.782-37.011-16.137-72.806-33.953-91.259-9.248-9.578-43.077-25.89-84.452-30.79a201.186,201.186,0,0,0-21.463-1.35C378.042,1595.088,339.813,1604.347,308.694,1629.435Z" fill="#d5d5d5" opacity="0.341"/>
      <path id="Path_306" data-name="Path 306" d="M309.227,1629.663c-36.668,29.477-59.213,57.274-64.95,84.287-6.176,29.08,7.87,54.437,34.023,79.4,5.811,4.845,17.832,12.709,25.62,17.851.116.077.415.211.532.288,20.477,10.8,47.638,19.953,79.012,19.865,33.343-.083,78.034-7.2,116.351-33.187,33.072-22.586,47.262-52.522,51.505-80.447,5.542-36.473-16.533-71.807-34.259-90.1-9.5-9.8-42.931-25.81-83.785-30.517a198.64,198.64,0,0,0-21.3-1.263C378.071,1595.5,340.105,1604.876,309.227,1629.663Z" fill="#d2d2d2" opacity="0.366"/>
      <path id="Path_307" data-name="Path 307" d="M309.76,1629.891c-36.353,29.1-58.641,56.707-64.151,83.526-5.945,28.935,8.421,53.948,34.284,78.306,5.837,4.766,18.066,12.592,25.554,17.536.112.074.418.209.531.283,20.506,10.648,47.55,19.6,78.519,19.512,33.225-.079,78.055-6.936,115.6-32.584,32.461-22.333,46.3-52.193,50.4-79.984,5.3-35.934-16.93-70.807-34.564-88.937-9.746-10.02-42.785-25.729-83.118-30.245a196.6,196.6,0,0,0-21.136-1.176C378.1,1595.918,340.4,1605.405,309.76,1629.891Z" fill="#cfcfcf" opacity="0.39"/>
      <path id="Path_308" data-name="Path 308" d="M310.294,1630.119c-36.04,28.721-58.069,56.141-63.353,82.765-5.714,28.789,8.971,53.459,34.544,77.215,5.863,4.686,18.3,12.475,25.49,17.222.107.071.421.207.529.278,20.535,10.494,47.463,19.241,78.025,19.159,33.108-.076,78.078-6.678,114.86-31.982,31.851-22.079,45.338-51.863,49.3-79.522,5.067-35.394-17.328-69.805-34.87-87.775-10-10.24-42.639-25.647-82.451-29.972a193.833,193.833,0,0,0-20.973-1.089C378.129,1596.332,340.688,1605.934,310.294,1630.119Z" fill="#ccc" opacity="0.415"/>
      <path id="Path_309" data-name="Path 309" d="M310.827,1630.348c-35.725,28.343-57.5,55.574-62.554,82-5.482,28.643,9.522,52.97,34.805,76.125,5.888,4.605,18.535,12.357,25.424,16.906.1.068.424.205.528.273,20.564,10.34,47.375,18.885,77.532,18.807,32.991-.073,78.1-6.419,114.114-31.379,31.241-21.826,44.377-51.534,48.194-79.06,4.832-34.855-17.727-68.8-35.174-86.614-10.247-10.46-42.495-25.565-81.784-29.7a191.6,191.6,0,0,0-20.811-1C378.159,1596.747,340.979,1606.463,310.827,1630.348Z" fill="#c9c9c9" opacity="0.439"/>
      <path id="Path_310" data-name="Path 310" d="M311.361,1630.576c-35.411,27.965-56.924,55.008-61.756,81.242-5.25,28.5,10.072,52.481,35.066,75.034,5.914,4.526,18.769,12.24,25.359,16.591.1.065.427.2.527.268,20.592,10.186,47.286,18.529,77.038,18.455,32.873-.07,78.121-6.16,113.368-30.777,30.631-21.572,43.418-51.2,47.09-78.6,4.6-34.314-18.126-67.8-35.479-85.453-10.5-10.678-42.349-25.481-81.117-29.425a189.1,189.1,0,0,0-20.648-.915C378.188,1597.162,341.271,1606.992,311.361,1630.576Z" fill="#c6c6c6" opacity="0.463"/>
      <path id="Path_311" data-name="Path 311" d="M311.894,1630.8c-35.1,27.587-56.35,54.442-60.958,80.481-5.017,28.352,10.624,51.992,35.327,73.943,5.94,4.446,19,12.123,25.294,16.277.094.062.431.2.526.262,20.622,10.033,47.2,18.174,76.544,18.1,32.757-.066,78.193-5.83,112.623-30.174,30.064-21.257,42.46-50.872,45.987-78.135,4.368-33.774-18.527-66.8-35.785-84.292-10.749-10.9-42.2-25.4-80.45-29.152a186.886,186.886,0,0,0-20.485-.829C378.217,1597.576,341.562,1607.521,311.894,1630.8Z" fill="#c3c3c3" opacity="0.488"/>
      <path id="Path_312" data-name="Path 312" d="M312.427,1631.032c-34.782,27.21-55.775,53.876-60.159,79.72-4.784,28.207,11.174,51.5,35.588,72.853,5.966,4.365,19.238,12.005,25.229,15.961.089.059.433.2.524.257,20.651,9.879,47.111,17.818,76.051,17.75,32.639-.064,78.216-5.571,111.877-29.571,29.455-21,41.5-50.542,44.883-77.674,4.139-33.232-18.929-65.79-36.09-83.13-11-11.115-42.058-25.313-79.783-28.879a184.44,184.44,0,0,0-20.322-.742C378.247,1597.991,341.854,1608.05,312.427,1631.032Z" fill="#c1c1c1" opacity="0.512"/>
      <path id="Path_313" data-name="Path 313" d="M312.961,1631.26c-34.468,26.832-55.2,53.31-59.361,78.959-4.551,28.062,11.725,51.014,35.848,71.762,5.992,4.286,19.473,11.888,25.164,15.646.085.056.437.2.523.253,20.68,9.725,47.023,17.461,75.557,17.4,32.523-.061,78.24-5.311,111.132-28.969,28.846-20.748,40.549-50.211,43.78-77.211,3.911-32.692-19.331-64.785-36.4-81.969-11.254-11.332-41.913-25.228-79.116-28.607a182.475,182.475,0,0,0-20.159-.654C378.276,1598.405,342.145,1608.579,312.961,1631.26Z" fill="#bebebe" opacity="0.537"/>
      <path id="Path_314" data-name="Path 314" d="M313.494,1631.488c-34.154,26.454-54.627,52.744-58.562,78.2-4.317,27.917,12.276,50.525,36.109,70.671,6.018,4.206,19.707,11.771,25.1,15.331.081.054.439.2.521.248,20.709,9.571,46.936,17.106,75.064,17.045,32.4-.058,78.262-5.052,110.385-28.367,28.238-20.494,39.6-49.88,42.677-76.749,3.686-32.15-19.734-63.778-36.7-80.807-11.507-11.549-41.768-25.142-78.449-28.334a180.548,180.548,0,0,0-20-.568C378.3,1598.82,342.437,1609.108,313.494,1631.488Z" fill="#bbb" opacity="0.561"/>
      <path id="Path_315" data-name="Path 315" d="M314.028,1631.716c-33.84,26.077-54.052,52.179-57.764,77.437-4.082,27.772,12.826,50.036,36.37,69.58,6.043,4.126,19.941,11.654,25.033,15.017.077.05.443.192.52.242,20.739,9.418,46.848,16.75,74.571,16.692,32.288-.054,78.284-4.792,109.639-27.763,27.628-20.241,38.644-49.549,41.573-76.287,3.463-31.608-20.137-62.772-37.006-79.646-11.761-11.765-41.623-25.055-77.782-28.061a178.1,178.1,0,0,0-19.832-.481C378.335,1599.235,342.728,1609.637,314.028,1631.716Z" fill="#b8b8b8" opacity="0.585"/>
      <path id="Path_316" data-name="Path 316" d="M314.561,1631.944c-33.525,25.7-53.476,51.613-56.965,76.676-3.847,27.627,13.377,49.547,36.63,68.49,6.07,4.046,20.176,11.536,24.969,14.7.072.047.446.19.518.237,20.768,9.264,46.76,16.394,74.077,16.34,32.171-.051,78.307-4.534,108.894-27.161,27.018-19.987,37.694-49.217,40.47-75.824,3.241-31.067-20.542-61.764-37.312-78.485-12.016-11.981-41.478-24.967-77.115-27.788a176.237,176.237,0,0,0-19.669-.394C378.364,1599.649,343.02,1610.166,314.561,1631.944Z" fill="#b5b5b5" opacity="0.61"/>
      <path id="Path_317" data-name="Path 317" d="M315.094,1632.172c-33.211,25.321-52.9,51.048-56.167,75.915-3.611,27.482,13.928,49.058,36.892,67.4,6.1,3.966,20.41,11.42,24.9,14.386.068.045.449.188.517.233,20.8,9.11,46.673,16.038,73.584,15.987,32.053-.048,78.329-4.276,108.148-26.559,26.408-19.734,36.745-48.885,39.366-75.362,3.022-30.524-20.946-60.756-37.617-77.324-12.271-12.194-41.333-24.877-76.447-27.514a174.123,174.123,0,0,0-19.507-.307C378.393,1600.064,343.311,1610.695,315.094,1632.172Z" fill="#b2b2b2" opacity="0.634"/>
      <path id="Path_318" data-name="Path 318" d="M315.628,1632.4c-32.9,24.944-52.323,50.482-55.369,75.154-3.375,27.338,14.479,48.569,37.153,66.308,6.121,3.886,20.644,11.3,24.838,14.072.063.041.452.185.515.227,20.826,8.956,46.585,15.682,73.09,15.634,31.937-.044,78.351-4.017,107.4-25.955,25.8-19.482,35.8-48.554,38.262-74.9,2.8-29.982-21.351-59.747-37.922-76.163-12.527-12.409-41.189-24.788-75.78-27.242a172.231,172.231,0,0,0-19.344-.22C378.422,1600.479,343.6,1611.224,315.628,1632.4Z" fill="#afafaf" opacity="0.659"/>
      <path id="Path_319" data-name="Path 319" d="M316.161,1632.628c-32.583,24.566-51.745,49.917-54.57,74.393-3.138,27.193,15.03,48.08,37.413,65.217,6.147,3.806,20.879,11.186,24.773,13.757.059.038.455.183.514.222,20.855,8.8,46.5,15.326,72.6,15.282,31.819-.041,78.373-3.76,106.657-25.353,25.187-19.229,34.853-48.222,37.159-74.438,2.589-29.439-21.757-58.737-38.228-75-12.783-12.622-41.044-24.7-75.113-26.969a170.613,170.613,0,0,0-19.181-.133C378.452,1600.893,343.894,1611.753,316.161,1632.628Z" fill="#acacac" opacity="0.683"/>
      <path id="Path_320" data-name="Path 320" d="M316.694,1632.856c-32.268,24.188-51.167,49.352-53.771,73.632-2.9,27.048,15.58,47.592,37.674,64.127,6.172,3.726,21.113,11.068,24.708,13.441.054.036.458.182.512.217,20.885,8.649,46.41,14.971,72.1,14.93,31.7-.038,78.393-3.5,105.911-24.751,24.577-18.976,33.91-47.889,36.055-73.975,2.376-28.9-22.163-57.728-38.533-73.84-13.04-12.835-40.9-24.606-74.446-26.7a168.519,168.519,0,0,0-19.018-.046C378.481,1601.308,344.186,1612.282,316.694,1632.856Z" fill="#a9a9a9" opacity="0.707"/>
      <path id="Path_321" data-name="Path 321" d="M317.228,1633.084c-31.954,23.811-50.59,48.786-52.973,72.871-2.663,26.9,16.131,47.1,37.935,63.036,6.2,3.646,21.348,10.951,24.642,13.126.05.033.462.18.511.212,20.914,8.5,46.322,14.615,71.61,14.578,31.585-.035,78.415-3.247,105.166-24.148,23.965-18.726,32.969-47.558,34.952-73.514,2.165-28.354-22.57-56.717-38.839-72.678-13.3-13.047-40.755-24.513-73.779-26.423a166.7,166.7,0,0,0-18.855.041C378.51,1601.723,344.477,1612.811,317.228,1633.084Z" fill="#a6a6a6" opacity="0.732"/>
      <path id="Path_322" data-name="Path 322" d="M317.761,1633.312c-31.64,23.433-50.01,48.221-52.175,72.11-2.424,26.759,16.682,46.614,38.2,61.945,6.224,3.566,21.583,10.834,24.578,12.812.045.029.464.177.51.207,20.942,8.341,46.233,14.258,71.116,14.224,31.468-.032,78.435-2.99,104.419-23.545,23.355-18.474,32.032-47.225,33.849-73.051,1.956-27.811-22.976-55.707-39.144-71.517-13.556-13.258-40.61-24.42-73.112-26.15a165.1,165.1,0,0,0-18.691.127C378.54,1602.137,344.769,1613.34,317.761,1633.312Z" fill="#a3a3a3" opacity="0.756"/>
      <path id="Path_323" data-name="Path 323" d="M318.3,1633.54c-31.326,23.055-49.432,47.655-51.377,71.349-2.185,26.614,17.233,46.125,38.457,60.855,6.25,3.486,21.817,10.716,24.512,12.5.041.027.468.175.509.2,20.971,8.188,46.146,13.9,70.623,13.872,31.35-.029,78.454-2.735,103.673-22.943,22.743-18.223,31.1-46.893,32.745-72.589,1.75-27.268-23.383-54.695-39.448-70.355-13.817-13.469-40.466-24.325-72.446-25.878a163.541,163.541,0,0,0-18.528.215C378.569,1602.552,345.06,1613.869,318.3,1633.54Z" fill="#a0a0a0" opacity="0.78"/>
      <path id="Path_324" data-name="Path 324" d="M318.828,1633.768c-31.011,22.678-48.851,47.09-50.578,70.588-1.945,26.47,17.783,45.636,38.718,59.764,6.275,3.406,22.051,10.6,24.447,12.181.036.024.471.173.507.2,21,8.034,46.058,13.547,70.129,13.52,31.234-.026,78.474-2.48,102.928-22.34,22.131-17.974,30.163-46.561,31.642-72.127,1.546-26.726-23.792-53.684-39.754-69.2-14.077-13.677-40.322-24.229-71.778-25.6a162.032,162.032,0,0,0-18.366.3C378.6,1602.966,345.352,1614.4,318.828,1633.768Z" fill="#9d9d9d" opacity="0.805"/>
      <path id="Path_325" data-name="Path 325" d="M319.361,1634c-30.7,22.3-48.27,46.524-49.779,69.827-1.7,26.325,18.334,45.147,38.978,58.673,6.3,3.326,22.286,10.482,24.383,11.867.031.02.473.171.505.191,21.03,7.881,45.97,13.191,69.636,13.167,31.116-.022,78.493-2.225,102.182-21.737,21.518-17.724,29.232-46.229,30.538-71.664,1.344-26.184-24.2-52.672-40.059-68.034-14.337-13.886-40.177-24.132-71.111-25.331a160.243,160.243,0,0,0-18.2.389C378.627,1603.381,345.643,1614.927,319.361,1634Z" fill="#9a9a9a" opacity="0.829"/>
      <path id="Path_326" data-name="Path 326" d="M319.895,1634.224c-30.383,21.922-47.69,45.959-48.981,69.066-1.463,26.18,18.885,44.658,39.239,57.582,6.327,3.247,22.52,10.365,24.317,11.552.027.018.477.169.5.186,21.059,7.727,45.883,12.836,69.142,12.815,31-.019,78.475-2.016,101.437-21.135,20.87-17.515,28.3-45.9,29.434-71.2,1.145-25.641-24.607-51.659-40.364-66.872-14.6-14.094-40.032-24.034-70.444-25.058a158.913,158.913,0,0,0-18.04.475C378.657,1603.8,345.935,1615.456,319.895,1634.224Z" fill="#979797" opacity="0.854"/>
      <path id="Path_327" data-name="Path 327" d="M320.428,1634.452c-30.068,21.545-47.063,45.4-48.182,68.3-1.171,26.037,19.435,44.169,39.5,56.492,6.354,3.166,22.755,10.247,24.253,11.236.022.015.479.167.5.182,21.088,7.572,45.8,12.479,68.649,12.462,30.882-.016,78.5-1.758,100.691-20.532,20.26-17.262,27.38-45.565,28.331-70.74.948-25.1-25.016-50.646-40.67-65.711-14.861-14.3-39.887-23.935-69.777-24.785a157.432,157.432,0,0,0-17.877.562C378.686,1604.21,346.226,1615.985,320.428,1634.452Z" fill="#949494" opacity="0.878"/>
      <path id="Path_328" data-name="Path 328" d="M320.961,1634.68c-29.754,21.167-46.488,44.829-47.384,67.544-.936,25.892,19.987,43.68,39.761,55.4,6.379,3.086,22.989,10.13,24.187,10.922.018.011.483.164.5.176,21.117,7.419,45.707,12.123,68.156,12.11,30.764-.013,78.518-1.5,99.945-19.93,19.65-17.008,26.459-45.233,27.227-70.278.753-24.557-25.425-49.632-40.975-64.549-15.124-14.508-39.742-23.835-69.11-24.512a156.143,156.143,0,0,0-17.714.649C378.715,1604.625,346.518,1616.514,320.961,1634.68Z" fill="#919191" opacity="0.902"/>
      <path id="Path_329" data-name="Path 329" d="M321.495,1634.908c-29.44,20.789-45.914,44.263-46.586,66.783-.7,25.746,20.537,43.191,40.022,54.31,6.4,3.007,23.223,10.013,24.122,10.607.013.009.486.162.5.171,21.147,7.265,45.62,11.768,67.662,11.757,30.648-.009,78.541-1.239,99.2-19.327,19.041-16.755,25.543-44.9,26.125-69.815.561-24.016-25.835-48.619-41.281-63.388-15.388-14.713-39.6-23.679-68.443-24.24a157.729,157.729,0,0,0-17.551.737C378.745,1605.04,346.809,1617.043,321.495,1634.908Z" fill="#8e8e8e" opacity="0.927"/>
      <path id="Path_330" data-name="Path 330" d="M322.028,1635.136c-29.126,20.412-45.339,43.7-45.787,66.022-.468,25.6,21.088,42.7,40.282,53.219,6.431,2.927,23.458,9.9,24.057,10.292.009.006.489.16.5.166,21.176,7.112,45.532,11.412,67.169,11.405,30.53-.006,78.562-.981,98.453-18.724,18.431-16.5,24.629-44.571,25.021-69.354.371-23.474-26.269-47.578-41.586-62.226-15.678-14.891-39.453-23.593-67.776-23.967a155.77,155.77,0,0,0-17.387.823C378.774,1605.454,347.1,1617.572,322.028,1635.136Z" fill="#8b8b8b" opacity="0.951"/>
      <path id="Path_331" data-name="Path 331" d="M322.562,1635.364c-28.812,20.034-44.765,43.13-44.989,65.261-.234,25.454,21.639,42.213,40.543,52.129,6.456,2.846,23.692,9.779,23.992,9.976,0,0,.492.159.5.162,21.2,6.957,45.444,11.055,66.675,11.052,30.414,0,78.585-.722,97.708-18.122,17.82-16.248,23.765-44.239,23.917-68.891.227-22.934-26.665-46.577-41.891-61.066-15.931-15.106-39.307-23.506-67.109-23.693a153.577,153.577,0,0,0-17.224.91C378.8,1605.869,347.392,1618.1,322.562,1635.364Z" fill="#888" opacity="0.976"/>
      <path id="Path_332" data-name="Path 332" d="M343.635,1760.792l.495.156c21.234,6.8,45.357,10.7,66.182,10.7,30.3,0,78.606-.462,96.962-17.519,17.21-15.994,22.814-43.909,22.814-68.429,0-22.394-27.063-45.576-42.2-59.9-16.184-15.323-39.161-23.42-66.441-23.42a151.933,151.933,0,0,0-17.062,1c-25.555,2.911-56.7,15.258-81.293,32.22-28.5,19.656-44.19,42.563-44.19,64.5,0,25.308,22.189,41.724,40.8,51.038C326.191,1753.9,343.635,1760.792,343.635,1760.792Z" fill="#858585"/>
    </g>
    <path id="Path_333" data-name="Path 333" d="M413.144,1784.764c-82.434,0-149.5-45.547-149.5-101.53S330.71,1581.7,413.144,1581.7s149.5,45.548,149.5,101.532S495.581,1784.764,413.144,1784.764Z" transform="translate(-60.666 49.533)" fill="url(#linear-gradient)"/>
    <path id="Path_334" data-name="Path 334" d="M561.3,1683.234c0,55.328-66.334,100.182-148.158,100.182s-148.151-44.854-148.151-100.182,66.331-100.186,148.151-100.186S561.3,1627.9,561.3,1683.234Z" transform="translate(-60.666 49.533)" fill="url(#linear-gradient-2)"/>
    <g id="Group_61" data-name="Group 61" transform="translate(-60.666 49.533)">
      <g id="Group_60" data-name="Group 60" style="mix-blend-mode: multiply;isolation: isolate">
        <path id="Path_335" data-name="Path 335" d="M486.847,1816.83c4.137,9.732-5.067,18.121-15.948,21.36-8.816,2.621-20.4.866-23.943-2.889-4.069-4.308-4.041-13.229,2.064-19.816,6.745-7.278,25.893-7.836,32.345-4.03C481.365,1811.455,485.225,1813.541,486.847,1816.83Z" fill="#fff" opacity="0"/>
        <path id="Path_336" data-name="Path 336" d="M486.817,1816.945c4.007,9.6-5.093,17.855-15.859,21.021-8.778,2.563-20.227.754-23.7-3.035-3.979-4.33-3.815-13.139,2.319-19.572,6.73-7.106,25.542-7.582,31.879-3.771C481.461,1811.588,485.255,1813.678,486.817,1816.945Z" fill="#fcfcfc" opacity="0.024" style="mix-blend-mode: multiply;isolation: isolate"/>
        <path id="Path_337" data-name="Path 337" d="M486.788,1817.06c3.877,9.457-5.12,17.59-15.77,20.682-8.741,2.505-20.051.635-23.449-3.182-3.88-4.358-3.567-13.029,2.574-19.327,6.739-6.911,25.192-7.328,31.414-3.513C481.557,1811.72,485.285,1813.816,486.788,1817.06Z" fill="#f9f9f9" opacity="0.049" style="mix-blend-mode: multiply;isolation: isolate"/>
        <path id="Path_338" data-name="Path 338" d="M486.758,1817.175c3.748,9.319-5.138,17.35-15.68,20.343-8.7,2.469-19.879.52-23.2-3.328-3.785-4.382-3.33-12.929,2.83-19.083,6.735-6.728,24.842-7.074,30.948-3.254C481.653,1811.853,485.315,1813.953,486.758,1817.175Z" fill="#f6f6f6" opacity="0.073" style="mix-blend-mode: multiply;isolation: isolate"/>
        <path id="Path_339" data-name="Path 339" d="M486.728,1817.29c3.618,9.181-5.162,17.092-15.591,20-8.658,2.417-19.7.405-22.955-3.474-3.691-4.406-3.1-12.829,3.085-18.839,6.73-6.545,24.491-6.819,30.482-3C481.749,1811.985,485.345,1814.09,486.728,1817.29Z" fill="#f3f3f3" opacity="0.098" style="mix-blend-mode: multiply;isolation: isolate"/>
        <path id="Path_340" data-name="Path 340" d="M486.7,1817.4c3.488,9.044-5.187,16.835-15.5,19.666-8.62,2.365-19.533.291-22.709-3.621-3.6-4.429-2.859-12.729,3.341-18.595,6.724-6.361,24.14-6.564,30.017-2.736C481.846,1812.118,485.375,1814.227,486.7,1817.4Z" fill="#f0f0f0" opacity="0.122" style="mix-blend-mode: multiply;isolation: isolate"/>
        <path id="Path_341" data-name="Path 341" d="M486.669,1817.519c3.359,8.906-5.211,16.576-15.412,19.327-8.581,2.313-19.361.176-22.462-3.767-3.5-4.453-2.625-12.629,3.6-18.351,6.719-6.179,23.79-6.31,29.552-2.478C481.942,1812.25,485.4,1814.364,486.669,1817.519Z" fill="#ededed" opacity="0.146" style="mix-blend-mode: multiply;isolation: isolate"/>
        <path id="Path_342" data-name="Path 342" d="M486.639,1817.634c3.229,8.769-5.236,16.317-15.323,18.988-8.542,2.261-19.188.062-22.215-3.914-3.407-4.475-2.391-12.529,3.851-18.106,6.712-6,23.439-6.056,29.086-2.219C482.038,1812.383,485.435,1814.5,486.639,1817.634Z" fill="#eaeaea" opacity="0.171" style="mix-blend-mode: multiply;isolation: isolate"/>
        <path id="Path_343" data-name="Path 343" d="M486.61,1817.749c3.1,8.631-5.261,16.058-15.234,18.649-8.5,2.209-19.016-.051-21.968-4.06-3.314-4.5-2.158-12.43,4.106-17.862,6.7-5.814,23.089-5.8,28.62-1.961C482.134,1812.515,485.465,1814.638,486.61,1817.749Z" fill="#e7e7e7" opacity="0.195" style="mix-blend-mode: multiply;isolation: isolate"/>
        <path id="Path_344" data-name="Path 344" d="M486.58,1817.864c2.97,8.493-5.286,15.8-15.144,18.31-8.465,2.156-18.844-.165-21.722-4.206-3.219-4.521-1.925-12.331,4.362-17.618,6.7-5.632,22.738-5.548,28.154-1.7A12.171,12.171,0,0,1,486.58,1817.864Z" fill="#e4e4e4" opacity="0.22" style="mix-blend-mode: multiply;isolation: isolate"/>
        <path id="Path_345" data-name="Path 345" d="M486.55,1817.978c2.84,8.356-5.311,15.539-15.054,17.972-8.427,2.1-18.673-.278-21.475-4.353-3.126-4.543-1.694-12.231,4.616-17.373,6.687-5.45,22.388-5.294,27.689-1.443A11.907,11.907,0,0,1,486.55,1817.978Z" fill="#e1e1e1" opacity="0.244" style="mix-blend-mode: multiply;isolation: isolate"/>
        <path id="Path_346" data-name="Path 346" d="M486.52,1818.093c2.711,8.218-5.336,15.279-14.965,17.633-8.388,2.05-18.5-.391-21.228-4.5-3.032-4.565-1.462-12.132,4.872-17.13,6.677-5.268,22.037-5.039,27.224-1.184A11.653,11.653,0,0,1,486.52,1818.093Z" fill="#dedede" opacity="0.268" style="mix-blend-mode: multiply;isolation: isolate"/>
        <path id="Path_347" data-name="Path 347" d="M486.491,1818.208c2.581,8.081-5.362,15.018-14.876,17.294-8.35,2-18.329-.5-20.982-4.645-2.938-4.587-1.231-12.033,5.128-16.886,6.667-5.087,21.686-4.784,26.758-.925A11.4,11.4,0,0,1,486.491,1818.208Z" fill="#dbdbdb" opacity="0.293" style="mix-blend-mode: multiply;isolation: isolate"/>
        <path id="Path_348" data-name="Path 348" d="M486.461,1818.323c2.451,7.943-5.387,14.757-14.786,16.955-8.313,1.943-18.157-.617-20.735-4.792-2.846-4.608-1-11.934,5.383-16.641,6.655-4.907,21.335-4.53,26.292-.667A11.154,11.154,0,0,1,486.461,1818.323Z" fill="#d8d8d8" opacity="0.317" style="mix-blend-mode: multiply;isolation: isolate"/>
        <path id="Path_349" data-name="Path 349" d="M486.431,1818.438c2.322,7.805-5.412,14.495-14.7,16.616-8.274,1.889-17.985-.729-20.488-4.938-2.752-4.63-.772-11.836,5.638-16.4,6.644-4.727,20.986-4.276,25.827-.408A10.906,10.906,0,0,1,486.431,1818.438Z" fill="#d5d5d5" opacity="0.341" style="mix-blend-mode: multiply;isolation: isolate"/>
        <path id="Path_350" data-name="Path 350" d="M486.4,1818.553c2.192,7.667-5.439,14.233-14.608,16.276-8.236,1.836-17.814-.84-20.241-5.084-2.66-4.65-.544-11.738,5.893-16.152,6.63-4.547,20.635-4.022,25.361-.15A10.673,10.673,0,0,1,486.4,1818.553Z" fill="#d2d2d2" opacity="0.366" style="mix-blend-mode: multiply;isolation: isolate"/>
        <path id="Path_351" data-name="Path 351" d="M486.372,1818.667c2.062,7.53-5.464,13.972-14.518,15.938-8.2,1.781-17.644-.952-19.995-5.23-2.567-4.671-.315-11.641,6.149-15.908,6.617-4.368,20.284-3.768,24.9.109A10.439,10.439,0,0,1,486.372,1818.667Z" fill="#cfcfcf" opacity="0.39" style="mix-blend-mode: multiply;isolation: isolate"/>
        <path id="Path_352" data-name="Path 352" d="M486.342,1818.782c1.933,7.393-5.49,13.709-14.429,15.6-8.161,1.726-17.473-1.064-19.747-5.376-2.476-4.692-.089-11.545,6.4-15.665,6.6-4.189,19.933-3.513,24.429.368A10.21,10.21,0,0,1,486.342,1818.782Z" fill="#ccc" opacity="0.415" style="mix-blend-mode: multiply;isolation: isolate"/>
        <path id="Path_353" data-name="Path 353" d="M486.312,1818.9c1.8,7.255-5.516,13.446-14.339,15.26-8.124,1.671-17.3-1.176-19.5-5.523-2.383-4.712.138-11.448,6.659-15.42,6.587-4.012,19.583-3.259,23.965.627A9.981,9.981,0,0,1,486.312,1818.9Z" fill="#c9c9c9" opacity="0.439" style="mix-blend-mode: multiply;isolation: isolate"/>
        <path id="Path_354" data-name="Path 354" d="M486.283,1819.012c1.673,7.117-5.543,13.182-14.25,14.921-8.087,1.616-17.133-1.287-19.254-5.669-2.292-4.732.363-11.353,6.914-15.176,6.571-3.835,19.232-3.005,23.5.885A9.773,9.773,0,0,1,486.283,1819.012Z" fill="#c6c6c6" opacity="0.463" style="mix-blend-mode: multiply;isolation: isolate"/>
        <path id="Path_355" data-name="Path 355" d="M486.253,1819.127c1.544,6.979-5.569,12.918-14.16,14.582-8.05,1.56-16.963-1.4-19.008-5.815-2.2-4.753.589-11.258,7.17-14.932,6.554-3.659,18.882-2.75,23.033,1.144A9.554,9.554,0,0,1,486.253,1819.127Z" fill="#c3c3c3" opacity="0.488" style="mix-blend-mode: multiply;isolation: isolate"/>
        <path id="Path_356" data-name="Path 356" d="M486.223,1819.241c1.415,6.842-5.6,12.654-14.071,14.244-8.012,1.5-16.793-1.51-18.761-5.962-2.109-4.772.814-11.164,7.426-14.687,6.537-3.484,18.531-2.5,22.567,1.4A9.345,9.345,0,0,1,486.223,1819.241Z" fill="#c1c1c1" opacity="0.512" style="mix-blend-mode: multiply;isolation: isolate"/>
        <path id="Path_357" data-name="Path 357" d="M486.194,1819.356c1.284,6.705-5.623,12.389-13.982,13.905-7.975,1.447-16.624-1.621-18.514-6.108-2.019-4.792,1.037-11.071,7.68-14.443,6.52-3.31,18.181-2.242,22.1,1.661A9.142,9.142,0,0,1,486.194,1819.356Z" fill="#bebebe" opacity="0.537" style="mix-blend-mode: multiply;isolation: isolate"/>
        <path id="Path_358" data-name="Path 358" d="M486.164,1819.471c1.155,6.567-5.649,12.124-13.892,13.566-7.938,1.39-16.455-1.732-18.268-6.255-1.928-4.811,1.261-10.978,7.936-14.2,6.5-3.135,17.83-1.987,21.636,1.921A8.944,8.944,0,0,1,486.164,1819.471Z" fill="#bbb" opacity="0.561" style="mix-blend-mode: multiply;isolation: isolate"/>
        <path id="Path_359" data-name="Path 359" d="M486.134,1819.586c1.026,6.429-5.676,11.858-13.8,13.227-7.9,1.332-16.286-1.842-18.02-6.4-1.839-4.83,1.483-10.887,8.191-13.955,6.481-2.963,17.479-1.733,21.171,2.179A8.753,8.753,0,0,1,486.134,1819.586Z" fill="#b8b8b8" opacity="0.585" style="mix-blend-mode: multiply;isolation: isolate"/>
        <path id="Path_360" data-name="Path 360" d="M486.105,1819.7c.895,6.291-5.7,11.591-13.714,12.888-7.864,1.274-16.117-1.953-17.774-6.547-1.748-4.85,1.7-10.8,8.447-13.711,6.462-2.792,17.129-1.479,20.705,2.438A8.568,8.568,0,0,1,486.105,1819.7Z" fill="#b5b5b5" opacity="0.61" style="mix-blend-mode: multiply;isolation: isolate"/>
        <path id="Path_361" data-name="Path 361" d="M486.075,1819.815c.766,6.154-5.73,11.325-13.624,12.55-7.828,1.215-15.95-2.064-17.527-6.694-1.66-4.869,1.926-10.708,8.7-13.466,6.442-2.622,16.779-1.225,20.24,2.7A8.388,8.388,0,0,1,486.075,1819.815Z" fill="#b2b2b2" opacity="0.634" style="mix-blend-mode: multiply;isolation: isolate"/>
        <path id="Path_362" data-name="Path 362" d="M486.045,1819.93c.637,6.016-5.757,11.057-13.535,12.211s-15.781-2.174-17.28-6.84c-1.57-4.888,2.148-10.621,8.957-13.222,6.422-2.453,16.428-.971,19.774,2.955A8.21,8.21,0,0,1,486.045,1819.93Z" fill="#afafaf" opacity="0.659" style="mix-blend-mode: multiply;isolation: isolate"/>
        <path id="Path_363" data-name="Path 363" d="M486.015,1820.045c.507,5.879-5.784,10.789-13.445,11.872-7.754,1.1-15.614-2.285-17.033-6.986-1.482-4.908,2.369-10.535,9.212-12.978,6.4-2.286,16.077-.716,19.308,3.213A8.044,8.044,0,0,1,486.015,1820.045Z" fill="#acacac" opacity="0.683" style="mix-blend-mode: multiply;isolation: isolate"/>
        <path id="Path_364" data-name="Path 364" d="M485.986,1820.16c.377,5.741-5.812,10.521-13.356,11.533-7.718,1.036-15.447-2.4-16.787-7.133-1.393-4.926,2.59-10.45,9.468-12.734,6.38-2.118,15.726-.461,18.842,3.473A7.889,7.889,0,0,1,485.986,1820.16Z" fill="#a9a9a9" opacity="0.707" style="mix-blend-mode: multiply;isolation: isolate"/>
        <path id="Path_365" data-name="Path 365" d="M485.956,1820.275c.248,5.6-5.839,10.251-13.266,11.194-7.682.975-15.281-2.506-16.541-7.279-1.3-4.946,2.811-10.366,9.723-12.49,6.359-1.953,15.376-.207,18.377,3.731A7.742,7.742,0,0,1,485.956,1820.275Z" fill="#a6a6a6" opacity="0.732" style="mix-blend-mode: multiply;isolation: isolate"/>
        <path id="Path_366" data-name="Path 366" d="M485.926,1820.389c.118,5.466-5.866,9.983-13.177,10.856-7.645.913-15.114-2.616-16.293-7.425-1.218-4.965,3.031-10.285,9.978-12.246,6.338-1.789,15.026.047,17.912,3.99A7.594,7.594,0,0,1,485.926,1820.389Z" fill="#a3a3a3" opacity="0.756" style="mix-blend-mode: multiply;isolation: isolate"/>
        <path id="Path_367" data-name="Path 367" d="M485.9,1820.5c-.012,5.328-5.894,9.712-13.088,10.517-7.609.851-14.948-2.727-16.047-7.572-1.13-4.984,3.252-10.2,10.234-12,6.317-1.626,14.675.3,17.446,4.248A7.46,7.46,0,0,1,485.9,1820.5Z" fill="#a0a0a0" opacity="0.78" style="mix-blend-mode: multiply;isolation: isolate"/>
        <path id="Path_368" data-name="Path 368" d="M485.867,1820.619c-.141,5.191-5.921,9.441-13,10.178-7.573.788-14.783-2.838-15.8-7.718-1.043-5,3.472-10.125,10.489-11.757,6.3-1.465,14.324.555,16.98,4.507A7.326,7.326,0,0,1,485.867,1820.619Z" fill="#9d9d9d" opacity="0.805" style="mix-blend-mode: multiply;isolation: isolate"/>
        <path id="Path_369" data-name="Path 369" d="M485.837,1820.734c-.271,5.053-5.948,9.17-12.909,9.839-7.536.724-14.617-2.948-15.553-7.865-.956-5.022,3.693-10.047,10.744-11.512,6.276-1.3,13.974.809,16.515,4.765A7.2,7.2,0,0,1,485.837,1820.734Z" fill="#9a9a9a" opacity="0.829" style="mix-blend-mode: multiply;isolation: isolate"/>
        <path id="Path_370" data-name="Path 370" d="M485.807,1820.849c-.4,4.915-5.975,8.9-12.819,9.5-7.5.66-14.452-3.059-15.306-8.011-.87-5.042,3.913-9.972,11-11.269,6.256-1.144,13.623,1.064,16.049,5.025A7.086,7.086,0,0,1,485.807,1820.849Z" fill="#979797" opacity="0.854" style="mix-blend-mode: multiply;isolation: isolate"/>
        <path id="Path_371" data-name="Path 371" d="M485.778,1820.963c-.531,4.778-6,8.626-12.73,9.162-7.463.595-14.288-3.17-15.06-8.157-.784-5.062,4.135-9.9,11.255-11.025,6.236-.987,13.273,1.319,15.583,5.284A6.98,6.98,0,0,1,485.778,1820.963Z" fill="#949494" opacity="0.878" style="mix-blend-mode: multiply;isolation: isolate"/>
        <path id="Path_372" data-name="Path 372" d="M485.748,1821.078c-.66,4.64-6.03,8.353-12.641,8.823-7.426.528-14.123-3.281-14.813-8.3-.7-5.081,4.358-9.825,11.511-10.78,6.217-.83,12.922,1.573,15.118,5.542A6.884,6.884,0,0,1,485.748,1821.078Z" fill="#919191" opacity="0.902" style="mix-blend-mode: multiply;isolation: isolate"/>
        <path id="Path_373" data-name="Path 373" d="M485.718,1821.193c-.789,4.5-6.056,8.079-12.551,8.484-7.39.461-13.959-3.392-14.566-8.45-.613-5.1,4.58-9.754,11.765-10.536,6.2-.675,12.572,1.827,14.653,5.8A6.791,6.791,0,0,1,485.718,1821.193Z" fill="#8e8e8e" opacity="0.927" style="mix-blend-mode: multiply;isolation: isolate"/>
        <path id="Path_374" data-name="Path 374" d="M485.689,1821.308c-.92,4.365-6.084,7.8-12.462,8.145-7.354.393-13.795-3.5-14.32-8.6-.527-5.122,4.8-9.685,12.021-10.292,6.181-.52,12.221,2.081,14.187,6.059A6.713,6.713,0,0,1,485.689,1821.308Z" fill="#8b8b8b" opacity="0.951" style="mix-blend-mode: multiply;isolation: isolate"/>
        <path id="Path_375" data-name="Path 375" d="M485.659,1821.423c-1.049,4.227-6.111,7.518-12.372,7.806-7.318.312-13.638-3.614-14.073-8.743s5.028-9.617,12.276-10.047c6.164-.367,11.87,2.335,13.721,6.318A6.644,6.644,0,0,1,485.659,1821.423Z" fill="#888" opacity="0.976" style="mix-blend-mode: multiply;isolation: isolate"/>
        <path id="Path_376" data-name="Path 376" d="M485.629,1821.538c-1.178,4.089-6.137,7.253-12.283,7.467-7.28.254-13.469-3.726-13.826-8.889s5.253-9.554,12.532-9.8c6.148-.216,11.519,2.59,13.255,6.577A6.58,6.58,0,0,1,485.629,1821.538Z" fill="#858585" style="mix-blend-mode: multiply;isolation: isolate"/>
      </g>
      <path id="Path_377" data-name="Path 377" d="M474.059,1829.509c-9.063,0-16.437-4.814-16.437-10.735s7.374-10.74,16.437-10.74,16.44,4.818,16.44,10.74S483.123,1829.509,474.059,1829.509Z" fill="url(#linear-gradient-3)"/>
      <path id="Path_378" data-name="Path 378" d="M489.576,1818.774c0,5.42-6.949,9.812-15.517,9.812s-15.513-4.392-15.513-9.812,6.947-9.816,15.513-9.816S489.576,1813.355,489.576,1818.774Z" fill="url(#linear-gradient-4)"/>
    </g>
    <g id="Group_63" data-name="Group 63" transform="translate(-60.666 49.533)">
      <g id="Group_62" data-name="Group 62" style="mix-blend-mode: multiply;isolation: isolate">
        <path id="Path_379" data-name="Path 379" d="M468.336,1791.9c5.407,12.719-2.14,22.938-16.36,27.167-11.518,3.425-26.924-1.817-31.558-6.724-5.315-5.63-5.322-14.851,2.654-23.461,8.815-9.506,29.67-8.977,38.1-4C461.17,1784.881,466.219,1787.6,468.336,1791.9Z" fill="#fff" opacity="0"/>
        <path id="Path_380" data-name="Path 380" d="M468.3,1792.051c5.238,12.54-2.283,22.61-16.352,26.743-11.47,3.349-26.7-1.892-31.229-6.844-5.2-5.657-5.025-14.793,2.988-23.2,8.8-9.281,29.314-8.675,37.591-3.7C461.3,1785.054,466.258,1787.781,468.3,1792.051Z" fill="#fcfcfc" opacity="0.024" style="mix-blend-mode: multiply;isolation: isolate"/>
        <path id="Path_381" data-name="Path 381" d="M468.258,1792.2c5.069,12.36-2.426,22.281-16.345,26.318-11.42,3.274-26.469-1.966-30.9-6.962-5.079-5.685-4.7-14.712,3.323-22.942,8.8-9.03,28.957-8.374,37.084-3.388C461.421,1785.227,466.3,1787.961,468.258,1792.2Z" fill="#f9f9f9" opacity="0.049" style="mix-blend-mode: multiply;isolation: isolate"/>
        <path id="Path_382" data-name="Path 382" d="M468.219,1792.351c4.9,12.18-2.56,21.985-16.337,25.894-11.364,3.224-26.227-2.053-30.571-7.082-4.944-5.726-4.392-14.64,3.658-22.682,8.8-8.791,28.6-8.072,36.578-3.081C461.547,1785.4,466.336,1788.14,468.219,1792.351Z" fill="#f6f6f6" opacity="0.073" style="mix-blend-mode: multiply;isolation: isolate"/>
        <path id="Path_383" data-name="Path 383" d="M468.18,1792.5c4.73,12-2.7,21.666-16.329,25.469-11.313,3.157-26-2.131-30.242-7.2-4.821-5.757-4.083-14.569,3.993-22.422,8.793-8.551,28.244-7.771,36.071-2.774C461.673,1785.573,466.375,1788.319,468.18,1792.5Z" fill="#f3f3f3" opacity="0.098" style="mix-blend-mode: multiply;isolation: isolate"/>
        <path id="Path_384" data-name="Path 384" d="M468.142,1792.651c4.56,11.82-2.843,21.347-16.323,25.045-11.261,3.089-25.763-2.209-29.912-7.321-4.7-5.788-3.775-14.5,4.327-22.162,8.786-8.312,27.888-7.469,35.564-2.467C461.8,1785.746,466.414,1788.5,468.142,1792.651Z" fill="#f0f0f0" opacity="0.122" style="mix-blend-mode: multiply;isolation: isolate"/>
        <path id="Path_385" data-name="Path 385" d="M468.1,1792.8c4.391,11.64-2.984,21.027-16.315,24.62-11.211,3.021-25.531-2.286-29.583-7.44-4.574-5.818-3.468-14.426,4.662-21.9,8.778-8.073,27.531-7.167,35.057-2.158C461.924,1785.92,466.453,1788.678,468.1,1792.8Z" fill="#ededed" opacity="0.146" style="mix-blend-mode: multiply;isolation: isolate"/>
        <path id="Path_386" data-name="Path 386" d="M468.064,1792.951c4.222,11.46-3.125,20.707-16.307,24.195-11.161,2.954-25.3-2.363-29.254-7.559-4.452-5.848-3.161-14.355,5-21.643,8.77-7.834,27.175-6.865,34.551-1.851C462.05,1786.093,466.493,1788.857,468.064,1792.951Z" fill="#eaeaea" opacity="0.171" style="mix-blend-mode: multiply;isolation: isolate"/>
        <path id="Path_387" data-name="Path 387" d="M468.025,1793.1c4.052,11.281-3.267,20.387-16.3,23.771-11.11,2.885-25.068-2.44-28.925-7.679-4.329-5.878-2.855-14.284,5.331-21.383,8.759-7.6,26.818-6.564,34.043-1.544C462.175,1786.266,466.532,1789.036,468.025,1793.1Z" fill="#e7e7e7" opacity="0.195" style="mix-blend-mode: multiply;isolation: isolate"/>
        <path id="Path_388" data-name="Path 388" d="M467.986,1793.251c3.883,11.1-3.408,20.066-16.292,23.346-11.059,2.816-24.836-2.516-28.6-7.8-4.2-5.908-2.549-14.214,5.666-21.124,8.749-7.358,26.462-6.262,33.537-1.237C462.3,1786.439,466.571,1789.215,467.986,1793.251Z" fill="#e4e4e4" opacity="0.22" style="mix-blend-mode: multiply;isolation: isolate"/>
        <path id="Path_389" data-name="Path 389" d="M467.947,1793.4c3.714,10.921-3.55,19.744-16.284,22.922-11.009,2.747-24.6-2.593-28.267-7.917-4.083-5.937-2.245-14.144,6-20.864,8.737-7.121,26.1-5.961,33.03-.93C462.427,1786.612,466.61,1789.4,467.947,1793.4Z" fill="#e1e1e1" opacity="0.244" style="mix-blend-mode: multiply;isolation: isolate"/>
        <path id="Path_390" data-name="Path 390" d="M467.908,1793.551c3.545,10.741-3.692,19.422-16.276,22.5-10.96,2.678-24.374-2.668-27.938-8.036-3.961-5.965-1.942-14.073,6.335-20.6,8.725-6.884,25.748-5.66,32.523-.622C462.552,1786.786,466.649,1789.574,467.908,1793.551Z" fill="#dedede" opacity="0.268" style="mix-blend-mode: multiply;isolation: isolate"/>
        <path id="Path_391" data-name="Path 391" d="M467.87,1793.7c3.375,10.561-3.835,19.1-16.27,22.073-10.909,2.608-24.142-2.744-27.608-8.156-3.839-5.994-1.64-14,6.67-20.344,8.71-6.647,25.391-5.358,32.016-.315C462.678,1786.959,466.688,1789.753,467.87,1793.7Z" fill="#dbdbdb" opacity="0.293" style="mix-blend-mode: multiply;isolation: isolate"/>
        <path id="Path_392" data-name="Path 392" d="M467.831,1793.851c3.205,10.381-3.978,18.777-16.262,21.648-10.86,2.538-23.911-2.819-27.279-8.275-3.718-6.022-1.338-13.934,7-20.084,8.7-6.411,25.035-5.057,31.51-.008C462.8,1787.132,466.727,1789.933,467.831,1793.851Z" fill="#d8d8d8" opacity="0.317" style="mix-blend-mode: multiply;isolation: isolate"/>
        <path id="Path_393" data-name="Path 393" d="M467.792,1794c3.036,10.2-4.12,18.453-16.254,21.223-10.81,2.468-23.681-2.893-26.951-8.394-3.6-6.049-1.037-13.865,7.34-19.825,8.68-6.175,24.678-4.754,31,.3C462.929,1787.305,466.766,1790.112,467.792,1794Z" fill="#d5d5d5" opacity="0.341" style="mix-blend-mode: multiply;isolation: isolate"/>
        <path id="Path_394" data-name="Path 394" d="M467.753,1794.151c2.867,10.022-4.263,18.129-16.246,20.8-10.761,2.4-23.451-2.969-26.622-8.513-3.474-6.077-.738-13.8,7.674-19.566,8.663-5.94,24.322-4.453,30.5.607C463.055,1787.478,466.8,1790.291,467.753,1794.151Z" fill="#d2d2d2" opacity="0.366" style="mix-blend-mode: multiply;isolation: isolate"/>
        <path id="Path_395" data-name="Path 395" d="M467.714,1794.3c2.7,9.842-4.406,17.8-16.239,20.374-10.711,2.326-23.22-3.043-26.292-8.632-3.354-6.1-.439-13.729,8.009-19.306,8.645-5.707,23.965-4.151,29.989.914C463.181,1787.651,466.844,1790.47,467.714,1794.3Z" fill="#cfcfcf" opacity="0.39" style="mix-blend-mode: multiply;isolation: isolate"/>
        <path id="Path_396" data-name="Path 396" d="M467.675,1794.451c2.528,9.662-4.549,17.48-16.231,19.95-10.662,2.254-22.991-3.117-25.963-8.752-3.234-6.131-.141-13.662,8.343-19.046,8.627-5.474,23.609-3.85,29.482,1.222C463.306,1787.825,466.883,1790.65,467.675,1794.451Z" fill="#ccc" opacity="0.415" style="mix-blend-mode: multiply;isolation: isolate"/>
        <path id="Path_397" data-name="Path 397" d="M467.636,1794.6c2.359,9.482-4.692,17.154-16.223,19.525-10.614,2.182-22.762-3.191-25.634-8.871-3.114-6.158.156-13.6,8.678-18.786,8.606-5.242,23.252-3.548,28.975,1.529C463.432,1788,466.922,1790.829,467.636,1794.6Z" fill="#c9c9c9" opacity="0.439" style="mix-blend-mode: multiply;isolation: isolate"/>
        <path id="Path_398" data-name="Path 398" d="M467.6,1794.752c2.189,9.3-4.837,16.827-16.217,19.1-10.564,2.109-22.532-3.265-25.3-8.991-2.994-6.184.451-13.53,9.012-18.526,8.586-5.011,22.9-3.247,28.469,1.836C463.558,1788.171,466.961,1791.008,467.6,1794.752Z" fill="#c6c6c6" opacity="0.463" style="mix-blend-mode: multiply;isolation: isolate"/>
        <path id="Path_399" data-name="Path 399" d="M467.559,1794.9c2.02,9.121-4.98,16.5-16.209,18.675-10.516,2.037-22.3-3.338-24.976-9.11-2.874-6.21.747-13.465,9.348-18.266,8.564-4.781,22.539-2.945,27.961,2.143C463.683,1788.344,467,1791.188,467.559,1794.9Z" fill="#c3c3c3" opacity="0.488" style="mix-blend-mode: multiply;isolation: isolate"/>
        <path id="Path_400" data-name="Path 400" d="M467.52,1795.052c1.851,8.942-5.124,16.173-16.2,18.251-10.467,1.963-22.076-3.412-24.647-9.23-2.756-6.235,1.042-13.4,9.682-18.006,8.542-4.552,22.183-2.644,27.455,2.45C463.809,1788.517,467.039,1791.367,467.52,1795.052Z" fill="#c1c1c1" opacity="0.512" style="mix-blend-mode: multiply;isolation: isolate"/>
        <path id="Path_401" data-name="Path 401" d="M467.481,1795.2c1.681,8.762-5.268,15.845-16.193,17.826-10.419,1.889-21.848-3.485-24.318-9.348-2.637-6.262,1.335-13.34,10.017-17.747,8.518-4.324,21.826-2.342,26.948,2.758C463.935,1788.691,467.078,1791.546,467.481,1795.2Z" fill="#bebebe" opacity="0.537" style="mix-blend-mode: multiply;isolation: isolate"/>
        <path id="Path_402" data-name="Path 402" d="M467.442,1795.352c1.512,8.582-5.412,15.516-16.186,17.4-10.37,1.815-21.62-3.557-23.988-9.467-2.519-6.287,1.627-13.279,10.351-17.488,8.494-4.1,21.47-2.04,26.441,3.066C464.06,1788.864,467.117,1791.725,467.442,1795.352Z" fill="#bbb" opacity="0.561" style="mix-blend-mode: multiply;isolation: isolate"/>
        <path id="Path_403" data-name="Path 403" d="M467.4,1795.5c1.343,8.4-5.556,15.187-16.178,16.977-10.322,1.739-21.393-3.631-23.659-9.587-2.4-6.313,1.919-13.219,10.686-17.228,8.469-3.872,21.113-1.738,25.934,3.373C464.186,1789.037,467.156,1791.905,467.4,1795.5Z" fill="#b8b8b8" opacity="0.585" style="mix-blend-mode: multiply;isolation: isolate"/>
        <path id="Path_404" data-name="Path 404" d="M467.365,1795.652c1.173,8.222-5.7,14.857-16.171,16.552-10.274,1.664-21.167-3.7-23.33-9.706-2.285-6.338,2.21-13.161,11.02-16.968,8.444-3.648,20.757-1.437,25.428,3.68C464.312,1789.21,467.2,1792.084,467.365,1795.652Z" fill="#b5b5b5" opacity="0.61" style="mix-blend-mode: multiply;isolation: isolate"/>
        <path id="Path_405" data-name="Path 405" d="M467.326,1795.8c1,8.042-5.846,14.527-16.164,16.128-10.226,1.587-20.94-3.776-23-9.826-2.167-6.363,2.5-13.1,11.356-16.708,8.417-3.426,20.4-1.136,24.92,3.987C464.437,1789.383,467.234,1792.263,467.326,1795.8Z" fill="#b2b2b2" opacity="0.634" style="mix-blend-mode: multiply;isolation: isolate"/>
        <path id="Path_406" data-name="Path 406" d="M467.287,1795.952c.834,7.862-5.99,14.195-16.156,15.7s-20.714-3.849-22.672-9.945c-2.051-6.388,2.792-13.049,11.69-16.448,8.391-3.2,20.044-.834,24.414,4.294C464.563,1789.556,467.273,1792.443,467.287,1795.952Z" fill="#afafaf" opacity="0.659" style="mix-blend-mode: multiply;isolation: isolate"/>
        <path id="Path_407" data-name="Path 407" d="M467.248,1796.1c.665,7.683-6.135,13.863-16.148,15.279-10.13,1.431-20.489-3.922-22.343-10.065-1.936-6.413,3.082-12.995,12.025-16.188,8.364-2.986,19.686-.533,23.907,4.6A10.485,10.485,0,0,1,467.248,1796.1Z" fill="#acacac" opacity="0.683" style="mix-blend-mode: multiply;isolation: isolate"/>
        <path id="Path_408" data-name="Path 408" d="M467.209,1796.252c.5,7.5-6.279,13.531-16.14,14.854-10.083,1.353-20.264-3.994-22.014-10.183-1.82-6.439,3.371-12.945,12.359-15.929,8.337-2.769,19.33-.231,23.4,4.909A10.276,10.276,0,0,1,467.209,1796.252Z" fill="#a9a9a9" opacity="0.707" style="mix-blend-mode: multiply;isolation: isolate"/>
        <path id="Path_409" data-name="Path 409" d="M467.17,1796.4c.327,7.323-6.424,13.2-16.133,14.429-10.035,1.274-20.039-4.066-21.684-10.3-1.7-6.464,3.66-12.9,12.694-15.669,8.309-2.553,18.973.07,22.893,5.216A10.077,10.077,0,0,1,467.17,1796.4Z" fill="#a6a6a6" opacity="0.732" style="mix-blend-mode: multiply;isolation: isolate"/>
        <path id="Path_410" data-name="Path 410" d="M467.131,1796.552c.158,7.143-6.569,12.863-16.125,14.005-9.987,1.193-19.815-4.139-21.355-10.422-1.591-6.488,3.949-12.847,13.028-15.409,8.282-2.338,18.617.372,22.387,5.523A9.892,9.892,0,0,1,467.131,1796.552Z" fill="#a3a3a3" opacity="0.756" style="mix-blend-mode: multiply;isolation: isolate"/>
        <path id="Path_411" data-name="Path 411" d="M467.093,1796.7c-.013,6.963-6.715,12.528-16.118,13.58-9.94,1.112-19.592-4.211-21.027-10.541-1.476-6.513,4.239-12.8,13.364-15.15,8.255-2.124,18.26.674,21.879,5.831A9.715,9.715,0,0,1,467.093,1796.7Z" fill="#a0a0a0" opacity="0.78" style="mix-blend-mode: multiply;isolation: isolate"/>
        <path id="Path_412" data-name="Path 412" d="M467.054,1796.852c-.182,6.783-6.859,12.193-16.111,13.156-9.892,1.03-19.368-4.284-20.7-10.661-1.363-6.539,4.528-12.757,13.7-14.89,8.228-1.913,17.9.976,21.373,6.139A9.542,9.542,0,0,1,467.054,1796.852Z" fill="#9d9d9d" opacity="0.805" style="mix-blend-mode: multiply;isolation: isolate"/>
        <path id="Path_413" data-name="Path 413" d="M467.015,1797c-.351,6.6-7,11.856-16.1,12.731-9.844.947-19.145-4.356-20.368-10.78-1.249-6.564,4.818-12.715,14.033-14.63,8.2-1.7,17.547,1.277,20.866,6.446A9.383,9.383,0,0,1,467.015,1797Z" fill="#9a9a9a" opacity="0.829" style="mix-blend-mode: multiply;isolation: isolate"/>
        <path id="Path_414" data-name="Path 414" d="M466.976,1797.152c-.52,6.424-7.149,11.519-16.1,12.307-9.8.862-18.923-4.43-20.039-10.9-1.137-6.589,5.108-12.675,14.367-14.37,8.175-1.5,17.191,1.579,20.36,6.753A9.237,9.237,0,0,1,466.976,1797.152Z" fill="#979797" opacity="0.854" style="mix-blend-mode: multiply;isolation: isolate"/>
        <path id="Path_415" data-name="Path 415" d="M466.937,1797.3c-.689,6.244-7.293,11.181-16.087,11.882-9.75.777-18.7-4.5-19.71-11.018-1.024-6.615,5.4-12.639,14.7-14.111,8.149-1.29,16.834,1.88,19.852,7.06A9.1,9.1,0,0,1,466.937,1797.3Z" fill="#949494" opacity="0.878" style="mix-blend-mode: multiply;isolation: isolate"/>
        <path id="Path_416" data-name="Path 416" d="M466.9,1797.452c-.859,6.064-7.438,10.842-16.08,11.458-9.7.69-18.479-4.576-19.381-11.138-.911-6.641,5.69-12.6,15.037-13.851,8.125-1.085,16.478,2.182,19.346,7.367A8.97,8.97,0,0,1,466.9,1797.452Z" fill="#919191" opacity="0.902" style="mix-blend-mode: multiply;isolation: isolate"/>
        <path id="Path_417" data-name="Path 417" d="M466.859,1797.6c-1.028,5.884-7.582,10.5-16.072,11.033-9.654.6-18.259-4.649-19.052-11.257-.8-6.667,5.982-12.569,15.372-13.591,8.1-.882,16.121,2.483,18.839,7.674A8.855,8.855,0,0,1,466.859,1797.6Z" fill="#8e8e8e" opacity="0.927" style="mix-blend-mode: multiply;isolation: isolate"/>
        <path id="Path_418" data-name="Path 418" d="M466.821,1797.752c-1.2,5.7-7.727,10.162-16.065,10.608-9.606.515-18.038-4.722-18.723-11.376-.689-6.693,6.275-12.538,15.706-13.331,8.078-.68,15.765,2.785,18.332,7.982A8.748,8.748,0,0,1,466.821,1797.752Z" fill="#8b8b8b" opacity="0.951" style="mix-blend-mode: multiply;isolation: isolate"/>
        <path id="Path_419" data-name="Path 419" d="M466.782,1797.9c-1.367,5.523-7.872,9.807-16.058,10.183-9.558.409-17.825-4.8-18.393-11.5-.586-6.718,6.569-12.508,16.041-13.071,8.055-.48,15.408,3.086,17.825,8.289A8.656,8.656,0,0,1,466.782,1797.9Z" fill="#888" opacity="0.976" style="mix-blend-mode: multiply;isolation: isolate"/>
        <path id="Path_420" data-name="Path 420" d="M466.743,1798.053c-1.536,5.344-8.015,9.479-16.05,9.758-9.509.334-17.6-4.869-18.064-11.615s6.864-12.481,16.375-12.812c8.035-.279,15.052,3.388,17.319,8.6A8.574,8.574,0,0,1,466.743,1798.053Z" fill="#858585" style="mix-blend-mode: multiply;isolation: isolate"/>
      </g>
      <path id="Path_421" data-name="Path 421" d="M449.234,1808.723c-11.705,0-21.224-6.176-21.224-13.763s9.519-13.769,21.224-13.769,21.22,6.177,21.22,13.769S460.935,1808.723,449.234,1808.723Z" fill="url(#linear-gradient-5)"/>
      <path id="Path_422" data-name="Path 422" d="M469.531,1794.96c0,7.089-9.089,12.837-20.3,12.837s-20.3-5.748-20.3-12.837,9.089-12.843,20.3-12.843S469.531,1787.865,469.531,1794.96Z" fill="url(#linear-gradient-6)"/>
    </g>
    <g id="Group_65" data-name="Group 65" transform="translate(-60.666 49.533)">
      <g id="Group_64" data-name="Group 64" style="mix-blend-mode: multiply;isolation: isolate">
        <path id="Path_423" data-name="Path 423" d="M502.754,1835.643c2.423,5.7-3.543,11.992-9.912,13.886-5.16,1.535-13.887-.554-15.961-2.752-2.381-2.521-1.648-8.251,1.926-12.11,3.948-4.257,16.962-4.4,20.738-2.169A8.532,8.532,0,0,1,502.754,1835.643Z" fill="#fff" opacity="0"/>
        <path id="Path_424" data-name="Path 424" d="M502.737,1835.71c2.346,5.62-3.544,11.8-9.846,13.654-5.138,1.5-13.74-.593-15.769-2.812-2.329-2.533-1.533-8.186,2.058-11.955,3.94-4.156,16.713-4.252,20.421-2.022A8.374,8.374,0,0,1,502.737,1835.71Z" fill="#fcfcfc" opacity="0.024" style="mix-blend-mode: multiply;isolation: isolate"/>
        <path id="Path_425" data-name="Path 425" d="M502.719,1835.777c2.271,5.54-3.545,11.615-9.779,13.422-5.116,1.467-13.589-.637-15.577-2.871-2.27-2.551-1.407-8.111,2.19-11.8,3.943-4.044,16.463-4.108,20.1-1.875A8.2,8.2,0,0,1,502.719,1835.777Z" fill="#f9f9f9" opacity="0.049" style="mix-blend-mode: multiply;isolation: isolate"/>
        <path id="Path_426" data-name="Path 426" d="M502.7,1835.844c2.2,5.459-3.543,11.44-9.713,13.19-5.091,1.445-13.441-.678-15.385-2.931-2.215-2.565-1.286-8.04,2.322-11.644,3.941-3.937,16.214-3.964,19.788-1.728A8.042,8.042,0,0,1,502.7,1835.844Z" fill="#f6f6f6" opacity="0.073" style="mix-blend-mode: multiply;isolation: isolate"/>
        <path id="Path_427" data-name="Path 427" d="M502.685,1835.911c2.118,5.379-3.543,11.255-9.647,12.958-5.068,1.415-13.292-.719-15.193-2.991-2.159-2.578-1.166-7.969,2.454-11.488,3.938-3.83,15.964-3.82,19.471-1.582A7.888,7.888,0,0,1,502.685,1835.911Z" fill="#f3f3f3" opacity="0.098" style="mix-blend-mode: multiply;isolation: isolate"/>
        <path id="Path_428" data-name="Path 428" d="M502.667,1835.979c2.043,5.3-3.543,11.07-9.58,12.726-5.045,1.384-13.144-.761-15-3.051-2.1-2.593-1.045-7.9,2.586-11.334,3.935-3.722,15.716-3.675,19.155-1.434A7.721,7.721,0,0,1,502.667,1835.979Z" fill="#f0f0f0" opacity="0.122" style="mix-blend-mode: multiply;isolation: isolate"/>
        <path id="Path_429" data-name="Path 429" d="M502.65,1836.046c1.967,5.217-3.543,10.885-9.514,12.494-5.023,1.353-12.995-.8-14.81-3.111-2.048-2.606-.925-7.828,2.718-11.178,3.932-3.615,15.467-3.531,18.838-1.287A7.556,7.556,0,0,1,502.65,1836.046Z" fill="#ededed" opacity="0.146" style="mix-blend-mode: multiply;isolation: isolate"/>
        <path id="Path_430" data-name="Path 430" d="M502.632,1836.113c1.892,5.137-3.543,10.7-9.447,12.262-5,1.323-12.847-.843-14.618-3.17-1.993-2.62-.806-7.758,2.85-11.023,3.928-3.509,15.217-3.387,18.522-1.141A7.409,7.409,0,0,1,502.632,1836.113Z" fill="#eaeaea" opacity="0.171" style="mix-blend-mode: multiply;isolation: isolate"/>
        <path id="Path_431" data-name="Path 431" d="M502.615,1836.18c1.815,5.056-3.544,10.515-9.381,12.03-4.977,1.292-12.7-.883-14.426-3.23-1.938-2.633-.687-7.686,2.982-10.868,3.923-3.4,14.968-3.242,18.2-.993A7.248,7.248,0,0,1,502.615,1836.18Z" fill="#e7e7e7" opacity="0.195" style="mix-blend-mode: multiply;isolation: isolate"/>
        <path id="Path_432" data-name="Path 432" d="M502.6,1836.247c1.739,4.976-3.545,10.329-9.315,11.8-4.955,1.262-12.55-.924-14.234-3.29-1.883-2.646-.568-7.616,3.114-10.712,3.918-3.295,14.718-3.1,17.888-.846A7.1,7.1,0,0,1,502.6,1836.247Z" fill="#e4e4e4" opacity="0.22" style="mix-blend-mode: multiply;isolation: isolate"/>
        <path id="Path_433" data-name="Path 433" d="M502.58,1836.315c1.664,4.894-3.545,10.142-9.248,11.565-4.932,1.231-12.4-.964-14.042-3.349-1.829-2.659-.45-7.546,3.246-10.557,3.913-3.189,14.469-2.954,17.572-.7A6.953,6.953,0,0,1,502.58,1836.315Z" fill="#e1e1e1" opacity="0.244" style="mix-blend-mode: multiply;isolation: isolate"/>
        <path id="Path_434" data-name="Path 434" d="M502.563,1836.382c1.587,4.814-3.546,9.957-9.182,11.334-4.91,1.2-12.254-1-13.85-3.41-1.774-2.672-.332-7.475,3.378-10.4,3.907-3.083,14.22-2.81,17.255-.553A6.8,6.8,0,0,1,502.563,1836.382Z" fill="#dedede" opacity="0.268" style="mix-blend-mode: multiply;isolation: isolate"/>
        <path id="Path_435" data-name="Path 435" d="M502.546,1836.449c1.511,4.734-3.547,9.77-9.116,11.1-4.888,1.168-12.106-1.045-13.658-3.47-1.719-2.684-.215-7.4,3.509-10.246,3.9-2.976,13.971-2.665,16.939-.406A6.66,6.66,0,0,1,502.546,1836.449Z" fill="#dbdbdb" opacity="0.293" style="mix-blend-mode: multiply;isolation: isolate"/>
        <path id="Path_436" data-name="Path 436" d="M502.528,1836.516c1.436,4.653-3.547,9.584-9.049,10.87-4.865,1.137-11.958-1.085-13.467-3.529-1.664-2.7-.1-7.335,3.642-10.091,3.9-2.871,13.722-2.521,16.622-.259A6.511,6.511,0,0,1,502.528,1836.516Z" fill="#d8d8d8" opacity="0.317" style="mix-blend-mode: multiply;isolation: isolate"/>
        <path id="Path_437" data-name="Path 437" d="M502.511,1836.583c1.36,4.573-3.548,9.4-8.983,10.638-4.843,1.105-11.81-1.125-13.275-3.589-1.61-2.709.02-7.265,3.774-9.935,3.888-2.765,13.473-2.377,16.306-.112A6.372,6.372,0,0,1,502.511,1836.583Z" fill="#d5d5d5" opacity="0.341" style="mix-blend-mode: multiply;isolation: isolate"/>
        <path id="Path_438" data-name="Path 438" d="M502.493,1836.651c1.284,4.491-3.549,9.21-8.916,10.405-4.821,1.074-11.663-1.165-13.083-3.648-1.556-2.722.136-7.2,3.906-9.78,3.88-2.661,13.223-2.233,15.989.034A6.226,6.226,0,0,1,502.493,1836.651Z" fill="#d2d2d2" opacity="0.366" style="mix-blend-mode: multiply;isolation: isolate"/>
        <path id="Path_439" data-name="Path 439" d="M502.476,1836.718c1.208,4.411-3.55,9.023-8.85,10.173-4.8,1.042-11.515-1.2-12.891-3.708-1.5-2.734.252-7.126,4.038-9.625,3.872-2.555,12.974-2.088,15.672.182A6.1,6.1,0,0,1,502.476,1836.718Z" fill="#cfcfcf" opacity="0.39" style="mix-blend-mode: multiply;isolation: isolate"/>
        <path id="Path_440" data-name="Path 440" d="M502.459,1836.785c1.132,4.33-3.552,8.836-8.784,9.941-4.777,1.01-11.368-1.243-12.7-3.768-1.448-2.745.367-7.057,4.17-9.469,3.863-2.451,12.724-1.944,15.356.329A5.958,5.958,0,0,1,502.459,1836.785Z" fill="#ccc" opacity="0.415" style="mix-blend-mode: multiply;isolation: isolate"/>
        <path id="Path_441" data-name="Path 441" d="M502.441,1836.852c1.056,4.25-3.553,8.648-8.717,9.71-4.755.977-11.221-1.284-12.507-3.828-1.394-2.758.482-6.989,4.3-9.314,3.854-2.347,12.475-1.8,15.039.475A5.828,5.828,0,0,1,502.441,1836.852Z" fill="#c9c9c9" opacity="0.439" style="mix-blend-mode: multiply;isolation: isolate"/>
        <path id="Path_442" data-name="Path 442" d="M502.424,1836.919c.98,4.17-3.554,8.46-8.651,9.478-4.733.944-11.074-1.323-12.315-3.888-1.341-2.769.6-6.92,4.433-9.158s12.227-1.656,14.723.622A5.707,5.707,0,0,1,502.424,1836.919Z" fill="#c6c6c6" opacity="0.463" style="mix-blend-mode: multiply;isolation: isolate"/>
        <path id="Path_443" data-name="Path 443" d="M502.406,1836.987c.9,4.088-3.555,8.271-8.584,9.245-4.711.912-10.927-1.362-12.123-3.948-1.287-2.781.711-6.852,4.565-9,3.836-2.14,11.977-1.511,14.406.769A5.576,5.576,0,0,1,502.406,1836.987Z" fill="#c3c3c3" opacity="0.488" style="mix-blend-mode: multiply;isolation: isolate"/>
        <path id="Path_444" data-name="Path 444" d="M502.389,1837.054c.829,4.008-3.557,8.083-8.518,9.013-4.69.879-10.78-1.4-11.931-4.007-1.234-2.793.825-6.785,4.7-8.848,3.826-2.038,11.728-1.367,14.09.916A5.457,5.457,0,0,1,502.389,1837.054Z" fill="#c1c1c1" opacity="0.512" style="mix-blend-mode: multiply;isolation: isolate"/>
        <path id="Path_445" data-name="Path 445" d="M502.372,1837.121c.752,3.927-3.559,7.894-8.452,8.781-4.668.846-10.633-1.44-11.74-4.067-1.18-2.8.939-6.718,4.83-8.692,3.815-1.936,11.478-1.223,13.773,1.063A5.337,5.337,0,0,1,502.372,1837.121Z" fill="#bebebe" opacity="0.537" style="mix-blend-mode: multiply;isolation: isolate"/>
        <path id="Path_446" data-name="Path 446" d="M502.354,1837.188c.677,3.847-3.56,7.7-8.385,8.549-4.646.813-10.487-1.479-11.548-4.126-1.127-2.816,1.052-6.652,4.962-8.537,3.8-1.835,11.229-1.079,13.456,1.209A5.223,5.223,0,0,1,502.354,1837.188Z" fill="#bbb" opacity="0.561" style="mix-blend-mode: multiply;isolation: isolate"/>
        <path id="Path_447" data-name="Path 447" d="M502.337,1837.255c.6,3.766-3.562,7.516-8.319,8.317-4.625.779-10.341-1.518-11.356-4.186-1.075-2.827,1.165-6.586,5.094-8.382,3.793-1.733,10.98-.934,13.14,1.357A5.108,5.108,0,0,1,502.337,1837.255Z" fill="#b8b8b8" opacity="0.585" style="mix-blend-mode: multiply;isolation: isolate"/>
        <path id="Path_448" data-name="Path 448" d="M502.32,1837.322c.524,3.686-3.564,7.327-8.253,8.086-4.6.744-10.195-1.557-11.164-4.247-1.023-2.838,1.278-6.521,5.226-8.226,3.781-1.633,10.73-.79,12.823,1.5A5,5,0,0,1,502.32,1837.322Z" fill="#b5b5b5" opacity="0.61" style="mix-blend-mode: multiply;isolation: isolate"/>
        <path id="Path_449" data-name="Path 449" d="M502.3,1837.39c.449,3.6-3.565,7.136-8.186,7.853-4.582.71-10.049-1.6-10.972-4.306-.97-2.85,1.39-6.457,5.357-8.071,3.771-1.534,10.482-.645,12.507,1.65A4.9,4.9,0,0,1,502.3,1837.39Z" fill="#b2b2b2" opacity="0.634" style="mix-blend-mode: multiply;isolation: isolate"/>
        <path id="Path_450" data-name="Path 450" d="M502.285,1837.457c.373,3.524-3.567,6.946-8.12,7.621s-9.9-1.635-10.78-4.366c-.918-2.861,1.5-6.393,5.489-7.916,3.759-1.434,10.232-.5,12.19,1.8A4.8,4.8,0,0,1,502.285,1837.457Z" fill="#afafaf" opacity="0.659" style="mix-blend-mode: multiply;isolation: isolate"/>
        <path id="Path_451" data-name="Path 451" d="M502.267,1837.524c.3,3.444-3.568,6.756-8.053,7.389-4.539.641-9.758-1.674-10.588-4.426-.867-2.871,1.614-6.33,5.621-7.76,3.746-1.336,9.983-.356,11.874,1.944A4.705,4.705,0,0,1,502.267,1837.524Z" fill="#acacac" opacity="0.683" style="mix-blend-mode: multiply;isolation: isolate"/>
        <path id="Path_452" data-name="Path 452" d="M502.25,1837.591c.221,3.363-3.571,6.565-7.988,7.157-4.516.606-9.612-1.712-10.395-4.485-.815-2.883,1.725-6.268,5.753-7.6,3.734-1.239,9.734-.212,11.557,2.091A4.607,4.607,0,0,1,502.25,1837.591Z" fill="#a9a9a9" opacity="0.707" style="mix-blend-mode: multiply;isolation: isolate"/>
        <path id="Path_453" data-name="Path 453" d="M502.233,1837.658c.145,3.283-3.573,6.374-7.922,6.925-4.495.57-9.467-1.751-10.2-4.545-.764-2.894,1.837-6.207,5.885-7.449,3.722-1.143,9.484-.068,11.24,2.238A4.519,4.519,0,0,1,502.233,1837.658Z" fill="#a6a6a6" opacity="0.732" style="mix-blend-mode: multiply;isolation: isolate"/>
        <path id="Path_454" data-name="Path 454" d="M502.215,1837.726c.07,3.2-3.574,6.182-7.855,6.692-4.474.534-9.322-1.789-10.012-4.6-.711-2.906,1.949-6.147,6.018-7.295,3.709-1.046,9.235.077,10.924,2.385A4.432,4.432,0,0,1,502.215,1837.726Z" fill="#a3a3a3" opacity="0.756" style="mix-blend-mode: multiply;isolation: isolate"/>
        <path id="Path_455" data-name="Path 455" d="M502.2,1837.793c-.007,3.121-3.576,5.99-7.789,6.461-4.453.5-9.177-1.829-9.82-4.665-.66-2.917,2.061-6.087,6.15-7.139,3.7-.951,8.985.221,10.607,2.532A4.356,4.356,0,0,1,502.2,1837.793Z" fill="#a0a0a0" opacity="0.78" style="mix-blend-mode: multiply;isolation: isolate"/>
        <path id="Path_456" data-name="Path 456" d="M502.18,1837.86c-.082,3.041-3.578,5.8-7.722,6.229-4.431.46-9.033-1.868-9.628-4.725-.61-2.928,2.172-6.028,6.281-6.983,3.686-.856,8.737.365,10.291,2.679A4.271,4.271,0,0,1,502.18,1837.86Z" fill="#9d9d9d" opacity="0.805" style="mix-blend-mode: multiply;isolation: isolate"/>
        <path id="Path_457" data-name="Path 457" d="M502.163,1837.927c-.158,2.96-3.58,5.606-7.656,6-4.41.423-8.889-1.907-9.436-4.784-.559-2.94,2.284-5.971,6.413-6.828,3.674-.763,8.488.509,9.974,2.825A4.205,4.205,0,0,1,502.163,1837.927Z" fill="#9a9a9a" opacity="0.829" style="mix-blend-mode: multiply;isolation: isolate"/>
        <path id="Path_458" data-name="Path 458" d="M502.146,1837.994c-.235,2.88-3.582,5.413-7.59,5.765-4.389.386-8.745-1.945-9.244-4.844-.509-2.951,2.4-5.914,6.545-6.673,3.662-.669,8.238.654,9.658,2.973A4.145,4.145,0,0,1,502.146,1837.994Z" fill="#979797" opacity="0.854" style="mix-blend-mode: multiply;isolation: isolate"/>
        <path id="Path_459" data-name="Path 459" d="M502.128,1838.062c-.31,2.8-3.583,5.219-7.523,5.532-4.367.348-8.6-1.984-9.052-4.9-.458-2.962,2.508-5.858,6.677-6.517,3.65-.577,7.989.8,9.341,3.119A4.079,4.079,0,0,1,502.128,1838.062Z" fill="#949494" opacity="0.878" style="mix-blend-mode: multiply;isolation: isolate"/>
        <path id="Path_460" data-name="Path 460" d="M502.111,1838.129c-.386,2.718-3.586,5.025-7.457,5.3-4.346.309-8.457-2.023-8.86-4.963-.408-2.974,2.621-5.8,6.809-6.362,3.639-.485,7.739.942,9.024,3.266A4.023,4.023,0,0,1,502.111,1838.129Z" fill="#919191" opacity="0.902" style="mix-blend-mode: multiply;isolation: isolate"/>
        <path id="Path_461" data-name="Path 461" d="M502.094,1838.2c-.462,2.637-3.588,4.832-7.391,5.068-4.324.27-8.313-2.062-8.668-5.023-.358-2.985,2.733-5.75,6.941-6.206,3.628-.394,7.49,1.086,8.708,3.413A3.97,3.97,0,0,1,502.094,1838.2Z" fill="#8e8e8e" opacity="0.927" style="mix-blend-mode: multiply;isolation: isolate"/>
        <path id="Path_462" data-name="Path 462" d="M502.076,1838.263c-.538,2.557-3.589,4.637-7.324,4.837-4.3.229-8.17-2.1-8.477-5.083-.307-3,2.848-5.7,7.074-6.052,3.618-.3,7.241,1.231,8.391,3.56A3.923,3.923,0,0,1,502.076,1838.263Z" fill="#8b8b8b" opacity="0.951" style="mix-blend-mode: multiply;isolation: isolate"/>
        <path id="Path_463" data-name="Path 463" d="M502.059,1838.33c-.614,2.477-3.591,4.438-7.258,4.605-4.282.183-8.03-2.141-8.285-5.143s2.961-5.645,7.205-5.9c3.609-.214,6.992,1.375,8.075,3.707A3.876,3.876,0,0,1,502.059,1838.33Z" fill="#888" opacity="0.976" style="mix-blend-mode: multiply;isolation: isolate"/>
        <path id="Path_464" data-name="Path 464" d="M502.041,1838.4c-.689,2.4-3.591,4.248-7.191,4.372-4.26.149-7.884-2.181-8.093-5.2s3.076-5.592,7.337-5.74c3.6-.124,6.743,1.519,7.758,3.854A3.84,3.84,0,0,1,502.041,1838.4Z" fill="#858585" style="mix-blend-mode: multiply;isolation: isolate"/>
      </g>
      <path id="Path_465" data-name="Path 465" d="M493.982,1843.158c-5.612,0-10.007-2.93-10.007-6.671s4.395-6.672,10.007-6.672,10.006,2.931,10.006,6.672S499.594,1843.158,493.982,1843.158Z" fill="url(#linear-gradient-7)"/>
      <path id="Path_466" data-name="Path 466" d="M503.064,1836.487c0,3.174-4.065,5.745-9.082,5.745s-9.082-2.571-9.082-5.745,4.067-5.746,9.082-5.746S503.064,1833.313,503.064,1836.487Z" fill="url(#linear-gradient-8)"/>
    </g>
    <g id="Group_101" data-name="Group 101" transform="translate(-60.666 49.533)">
      <path id="Path_1347" data-name="Path 1347" d="M357.451,1654.43c0-1,.2-2.48,2.4-2.48,2,0,2.8.6,2.8,2.48v4.359h9.359v-4.359c0-1,.2-2.48,2.4-2.48,2,0,2.84.6,2.84,2.48v4.359h5.359a2.139,2.139,0,0,1,2.479,2.24c0,1.879-.919,2.479-2.479,2.479h-5.359v8.839h6.639a2.139,2.139,0,0,1,2.479,2.239c0,1.92-1,2.44-2.479,2.44H350.732a2.139,2.139,0,0,1-2.479-2.24c0-1.88,1-2.439,2.479-2.439h6.719v-8.839h-5.4a2.111,2.111,0,0,1-2.439-2.239c0-1.92.919-2.48,2.439-2.48h5.4Zm5.959,26.235c0,1.24-2,2.96-3.319,4.04a40.835,40.835,0,0,1-6.879,4.439,4.041,4.041,0,0,1-1.48.32,2.78,2.78,0,0,1-2.559-2.8c0-1.2.8-1.64,3-2.839a30.4,30.4,0,0,0,7.119-4.919,2.335,2.335,0,0,1,1.56-.68A2.706,2.706,0,0,1,363.41,1680.665Zm8.6-17.157H362.65v8.839h9.359Zm4.159,16.077a39.736,39.736,0,0,0,7.479,4.88c.84.479,1.8,1.039,1.8,2.239a2.777,2.777,0,0,1-2.6,2.76c-1.08,0-1.8-.44-4.759-2.32a29.748,29.748,0,0,1-5.719-4.479c-.84-.84-1.08-1.28-1.08-1.92a2.773,2.773,0,0,1,2.56-2.479C374.568,1678.266,374.729,1678.426,376.168,1679.585Z" fill="#009342" stroke="#fff" stroke-linecap="round" stroke-linejoin="round" stroke-width="4"/>
      <path id="Path_1348" data-name="Path 1348" d="M395.771,1687.544c0,.6,0,2.16-2.159,2.16-2.08,0-2.16-1.4-2.16-2.16v-16.517a1.737,1.737,0,0,1-1.32.68c-1.2,0-2.2-1.32-2.2-2.92a3.663,3.663,0,0,1,.76-2.2,32.643,32.643,0,0,0,4.719-12.278c.24-1.28.44-2.44,2.04-2.44a1.959,1.959,0,0,1,2.2,2.12,34.138,34.138,0,0,1-1.88,8.038Zm25.236-28.355c1.4,0,2.6,0,3.44,1.08.6.8.72,1.839.72,4.839,0,4.479,0,17.317-.84,20.916-.76,3.36-2.68,3.36-5.079,3.36a2.306,2.306,0,0,1-2.56-1.6,3.938,3.938,0,0,1-.12-1.76c-.6,1.56-1.48,3.56-3.239,3.56-.641,0-2.68-.32-2.52-2.36-3.519.48-11.718,1.08-12.558,1.08-1.48,0-1.959-1-1.959-2.16,0-1.879,1.239-2,2.119-2.04,1.52-.039,1.76-.039,4.8-.239v-1.88h-4.319a1.785,1.785,0,0,1-2.079-1.8c0-1.359.6-2.039,2.079-2.039h4.319v-1.52h-1.52c-3.639,0-4.479-.76-4.479-4.439v-4.24c0-3.639.8-4.439,4.479-4.439h1.52v-1.32h-4.479a1.781,1.781,0,0,1-2.08-1.839c0-1.4.56-2.08,2.08-2.08h4.479v-1.32c-1,.04-1.919.08-3.159.08-1.12,0-2.28,0-2.28-1.959,0-1.6.88-1.76,1.72-1.8,2.8-.08,6.559-.2,8.678-.52a21.528,21.528,0,0,1,3.04-.4c.84,0,1.72.36,1.72,2,0,1.44-.2,1.919-5.76,2.319v1.6h4.68a1.859,1.859,0,0,1,1.96,1.08,3.453,3.453,0,0,1,1.479-.16v-5.2c0-1.68.92-2.24,2.04-2.24a1.85,1.85,0,0,1,2.04,2.12v5.319Zm-17.8,9.158v-1.759h-1.48a.841.841,0,0,0-.959.959v.8Zm0,3.12h-2.439v.88a.847.847,0,0,0,.959.959h1.48Zm3.959,12.158c.641-.04,3.48-.32,4-.32a1.5,1.5,0,0,1,1.36.52c2.479-4.879,2.719-11.558,2.759-19.837-1.2,0-2.279,0-2.479-1.92a2.64,2.64,0,0,1-.96.12h-4.68v1.32h1.6c3.679,0,4.479.8,4.479,4.439v4.24c0,3.679-.84,4.439-4.479,4.439h-1.6v1.52h4.04c1.4,0,2.08.6,2.08,2a1.8,1.8,0,0,1-2.08,1.84h-4.04Zm0-15.278h2.52v-.8a.848.848,0,0,0-.96-.959h-1.56Zm0,3.12v1.839h1.56c.64,0,.96-.28.96-.959v-.88Zm11.119,12.718c1.52-.081,1.679-.081,1.92-.44.56-.96.719-6.919.759-8.359.12-4.919.12-6,.12-10.078,0-1.32-.319-1.32-1.759-1.32-.04,6.039-.12,13.838-2.36,20.877A1.376,1.376,0,0,1,418.288,1684.185Z" fill="#009342" stroke="#fff" stroke-linecap="round" stroke-linejoin="round" stroke-width="4"/>
      <path id="Path_1349" data-name="Path 1349" d="M452.809,1663.788a46.661,46.661,0,0,0,6.559-1.68,6.111,6.111,0,0,1,2.039-.48,2.249,2.249,0,0,1,2.16,2.44c0,1.52-.32,2.12-8.319,3.759.88,1.4,2.28,3.52,3.28,4.88,1.639,2.2,1.8,2.439,1.8,3.119a2.375,2.375,0,0,1-2.2,2.4,29.082,29.082,0,0,1-4.239-1.36c-.6-.2-2.32-.48-3.36-.68a1.677,1.677,0,0,1-1.68-1.84c0-.96.52-1.959,1.56-1.959.12,0,2.279.519,2.52.6-1.4-2-2.04-3.04-2.8-4.24a133.458,133.458,0,0,1-16.757,1.44c-.8,0-2.36,0-2.36-2.32,0-2.239,1.68-2.239,2.92-2.239a95.13,95.13,0,0,0,13.8-.96c-.959-1.68-1.039-1.8-1.559-2.76a89.121,89.121,0,0,1-10.758.72c-1.6,0-3.32,0-3.32-2.319,0-2.16,1.64-2.2,2.679-2.24,6.12-.16,6.8-.2,9.2-.4-.96-1.96-1.04-2.2-1.04-2.839,0-1.68,1.72-2.28,2.92-2.28,1.52,0,1.6.2,3.439,4.4,1-.16,3.28-.64,5.48-1.24a24.85,24.85,0,0,1,3.119-.759,2.245,2.245,0,0,1,2.2,2.319c0,1.12,0,2.2-8.758,3.8C452.169,1662.708,452.369,1663.068,452.809,1663.788Zm-4.24,19.357a48.123,48.123,0,0,0,6.2-.44c.439-.04,2.239-.32,2.479-.32a2.231,2.231,0,0,1,2.24,2.48,2.154,2.154,0,0,1-1.84,2.359,35.093,35.093,0,0,1-8.639.76c-4.6,0-15.317-.2-15.317-8.279,0-2.679,1.76-5.559,3.759-5.559,1.24,0,2.72,1.08,2.72,2.16,0,.48-.08.6-.72,1.52a2.527,2.527,0,0,0-.48,1.679C438.971,1682.7,444.65,1683.145,448.569,1683.145Z" fill="#009342" stroke="#fff" stroke-linecap="round" stroke-linejoin="round" stroke-width="4"/>
      <path id="Path_1350" data-name="Path 1350" d="M479.669,1681.232c-.672,1.68-2.016,4.788-4.676,4.788-2.52,0-5.824-3.64-5.824-9.184,0-6.748,5.04-12.264,12.74-12.264,7.56,0,11.508,5.376,11.508,11.06,0,8.484-7.784,11.676-9.016,11.676a1.568,1.568,0,0,1-1.54-1.624c0-.728.224-.9,1.736-1.652,2.912-1.428,5.628-3.864,5.628-8.428,0-1.176-.112-7.308-7.336-8.2A57.378,57.378,0,0,1,479.669,1681.232Zm-7.532-4.256c0,3.164,1.512,5.824,2.744,5.824,1.092,0,1.96-2.38,2.576-4.228a54.532,54.532,0,0,0,2.408-11.031A9.317,9.317,0,0,0,472.137,1676.976Z" fill="#333" stroke="#fff" stroke-linecap="round" stroke-linejoin="round" stroke-width="4"/>
      <path id="Path_1351" data-name="Path 1351" d="M378.117,1719.813c-1.54,1.624-3.612,3.079-4.592,3.079a1.214,1.214,0,0,1-1.176-1.316,54.191,54.191,0,0,1-5.18,1.653c-1.316,0-1.316-1.625-1.316-1.681a1.187,1.187,0,0,1,1.036-1.176c.364-.112,2.016-.559,2.324-.643v-8.289h-1.792a1.265,1.265,0,0,1-1.428-1.4,1.285,1.285,0,0,1,1.428-1.429h1.792v-4.984a1.268,1.268,0,0,1,1.4-1.456,1.281,1.281,0,0,1,1.456,1.456v4.984h1.54a1.145,1.145,0,0,1,1.176,1.288c0,.532-.084,1.54-1.176,1.54h-1.54v7.42a6.322,6.322,0,0,1,1.988-.616c.588,0,.924.308,1.092,1.036a11.51,11.51,0,0,0,2.632-3.108h-2.436a1.181,1.181,0,1,1,0-2.352h15.876a1.181,1.181,0,1,1,0,2.352H380.693a15.463,15.463,0,0,1-.9,1.512h8.708c1.2,0,3.024,0,3.024,2.408,0,1.624-.224,5.4-.924,6.8-.672,1.288-2.016,1.316-3.7,1.316-1.456,0-2.464,0-2.464-1.288a1.093,1.093,0,0,1,1.12-1.176c.084,0,1.708.084,1.848.084.9,0,1.092-.728,1.2-1.316a22.518,22.518,0,0,0,.364-3.836c0-.867-.42-.867-1.008-.867h-.448a15.891,15.891,0,0,1-5.18,7.5c-1.428,1.12-1.764,1.12-2.1,1.12a1.282,1.282,0,0,1-1.288-1.288c0-.532.056-.588,1.848-1.848a12.709,12.709,0,0,0,4.2-5.487h-2.044a16.862,16.862,0,0,1-6.552,6.579c-1.792,1.008-2.044,1.036-2.38,1.036a1.218,1.218,0,0,1-1.176-1.26c0-.644.42-.84.812-1.036,4.452-2.044,5.936-4.368,6.552-5.319Zm12.6-10.333c0,2.324-.56,2.912-2.912,2.912h-9.072c-2.38,0-2.912-.616-2.912-2.912v-3.444c0-2.3.5-2.911,2.912-2.911H387.8c2.3,0,2.912.56,2.912,2.911Zm-2.8-2.66v-.84c0-.448-.168-.784-.756-.784h-7.812a.689.689,0,0,0-.784.784v.84Zm0,1.848h-9.352v.9a.684.684,0,0,0,.784.784h7.812c.644,0,.756-.391.756-.784Z" fill="#333" stroke="#fff" stroke-linecap="round" stroke-linejoin="round" stroke-width="4"/>
      <path id="Path_1352" data-name="Path 1352" d="M406.341,1705.813c-3.668,4.087-9.492,7.531-10.78,7.531a1.707,1.707,0,0,1-1.512-1.792,1.4,1.4,0,0,1,.98-1.4c3.276-1.6,4.2-2.016,6.272-3.695a40.644,40.644,0,0,0,3.584-3.445,2.859,2.859,0,0,1,2.352-1.119c1.232,0,1.68.447,2.968,1.763a27.482,27.482,0,0,0,9.156,6.44c.532.252,1.12.5,1.12,1.456a1.684,1.684,0,0,1-1.456,1.821c-1.568,0-7.392-3.809-10.808-7.56-.616-.673-.7-.757-.952-.757C406.985,1705.056,406.761,1705.336,406.341,1705.813Zm11.2,18.843c0,2.548-1.064,3.3-3.3,3.3h-13.8c-2.212,0-3.3-.728-3.3-3.3v-5.628c0-2.6,1.12-3.3,3.3-3.3h13.8c2.184,0,3.3.7,3.3,3.3Zm-3.052-5.1a1.022,1.022,0,0,0-1.148-1.148H401.329a1.011,1.011,0,0,0-1.148,1.148v4.536a1.01,1.01,0,0,0,1.148,1.148h12.012a1.022,1.022,0,0,0,1.148-1.148Zm-1.652-9.128a1.247,1.247,0,0,1,1.456,1.288c0,1.036-.476,1.428-1.456,1.428H401.693a1.257,1.257,0,0,1-1.456-1.288c0-1.007.5-1.428,1.456-1.428Z" fill="#333" stroke="#fff" stroke-linecap="round" stroke-linejoin="round" stroke-width="4"/>
      <path id="Path_1353" data-name="Path 1353" d="M425.633,1704.413a1.286,1.286,0,0,1,1.372-.925c.616,0,1.6.281,1.6,1.288a6.947,6.947,0,0,1-.14,1.12,51.945,51.945,0,0,0-1.148,10.836,35.024,35.024,0,0,0,.9,8.12,4.58,4.58,0,0,1,.14.98c0,1.036-1.176,1.26-1.6,1.26a1.429,1.429,0,0,1-1.484-.98c-.336-1.008-1.008-3.724-1.008-9.883A55.729,55.729,0,0,1,425.633,1704.413Zm16.828,14.279a21.256,21.256,0,0,1,4.312,2.156,1.647,1.647,0,0,1,.868,1.4,1.5,1.5,0,0,1-1.344,1.6c-.336,0-.616-.112-1.288-.56a16.335,16.335,0,0,0-2.548-1.4,7.105,7.105,0,0,1-.532,2.968c-.812,1.54-2.716,2.184-4.872,2.184-3.724,0-6.188-1.932-6.188-4.732,0-1.988,1.344-4.76,5.852-4.76a13.556,13.556,0,0,1,2.688.336l-.14-6.328c-1.232.056-2.016.056-3.136.056-4.452,0-5.292-.112-5.292-1.624,0-1.232.644-1.512,1.68-1.512.644,0,3.472.112,4.06.112,1.288,0,1.932-.028,2.6-.056l-.084-3.808a1.393,1.393,0,0,1,1.568-1.595c1.12,0,1.484.644,1.512,1.567l.084,3.612c.532-.028,2.968-.336,3.36-.336,1.232,0,1.26,1.288,1.26,1.512,0,1.512-.7,1.568-4.564,1.876Zm-5.8,1.54c-1.652,0-3.024.672-3.024,2.016,0,1.176,1.148,2.072,3.052,2.072,2.772,0,2.772-1.4,2.772-3.612A7.642,7.642,0,0,0,436.665,1720.232Z" fill="#333" stroke="#fff" stroke-linecap="round" stroke-linejoin="round" stroke-width="4"/>
      <path id="Path_1354" data-name="Path 1354" d="M457.917,1704.972a8.169,8.169,0,0,1,5.04-1.68c4.228,0,7.056,2.716,7.056,6.188,0,2.744-1.484,3.977-3.472,5.628-1.792,1.512-1.876,2.072-2.1,3.584-.084.56-.2,1.344-1.6,1.344-1.428,0-1.6-.84-1.6-1.512a6.125,6.125,0,0,1,2.6-4.956c2.408-1.987,2.968-2.464,2.968-4,0-2.127-1.82-3.388-4-3.388a5.319,5.319,0,0,0-3.7,1.456c-.756.756-.9.9-1.428.9a1.449,1.449,0,0,1-1.4-1.568C456.293,1706.064,457.637,1705.168,457.917,1704.972Zm7,19.32a2.1,2.1,0,1,1-2.1-2.072A2.073,2.073,0,0,1,464.917,1724.292Z" fill="#333" stroke="#fff" stroke-linecap="round" stroke-linejoin="round" stroke-width="4"/>
    </g>
    <g id="Group_102" data-name="Group 102" transform="translate(-60.666 49.533)">
      <path id="Path_1355" data-name="Path 1355" d="M357.451,1654.43c0-1,.2-2.48,2.4-2.48,2,0,2.8.6,2.8,2.48v4.359h9.359v-4.359c0-1,.2-2.48,2.4-2.48,2,0,2.84.6,2.84,2.48v4.359h5.359a2.139,2.139,0,0,1,2.479,2.24c0,1.879-.919,2.479-2.479,2.479h-5.359v8.839h6.639a2.139,2.139,0,0,1,2.479,2.239c0,1.92-1,2.44-2.479,2.44H350.732a2.139,2.139,0,0,1-2.479-2.24c0-1.88,1-2.439,2.479-2.439h6.719v-8.839h-5.4a2.111,2.111,0,0,1-2.439-2.239c0-1.92.919-2.48,2.439-2.48h5.4Zm5.959,26.235c0,1.24-2,2.96-3.319,4.04a40.835,40.835,0,0,1-6.879,4.439,4.041,4.041,0,0,1-1.48.32,2.78,2.78,0,0,1-2.559-2.8c0-1.2.8-1.64,3-2.839a30.4,30.4,0,0,0,7.119-4.919,2.335,2.335,0,0,1,1.56-.68A2.706,2.706,0,0,1,363.41,1680.665Zm8.6-17.157H362.65v8.839h9.359Zm4.159,16.077a39.736,39.736,0,0,0,7.479,4.88c.84.479,1.8,1.039,1.8,2.239a2.777,2.777,0,0,1-2.6,2.76c-1.08,0-1.8-.44-4.759-2.32a29.748,29.748,0,0,1-5.719-4.479c-.84-.84-1.08-1.28-1.08-1.92a2.773,2.773,0,0,1,2.56-2.479C374.568,1678.266,374.729,1678.426,376.168,1679.585Z" fill="#009342"/>
      <path id="Path_1356" data-name="Path 1356" d="M395.771,1687.544c0,.6,0,2.16-2.159,2.16-2.08,0-2.16-1.4-2.16-2.16v-16.517a1.737,1.737,0,0,1-1.32.68c-1.2,0-2.2-1.32-2.2-2.92a3.663,3.663,0,0,1,.76-2.2,32.643,32.643,0,0,0,4.719-12.278c.24-1.28.44-2.44,2.04-2.44a1.959,1.959,0,0,1,2.2,2.12,34.138,34.138,0,0,1-1.88,8.038Zm25.236-28.355c1.4,0,2.6,0,3.44,1.08.6.8.72,1.839.72,4.839,0,4.479,0,17.317-.84,20.916-.76,3.36-2.68,3.36-5.079,3.36a2.306,2.306,0,0,1-2.56-1.6,3.938,3.938,0,0,1-.12-1.76c-.6,1.56-1.48,3.56-3.239,3.56-.641,0-2.68-.32-2.52-2.36-3.519.48-11.718,1.08-12.558,1.08-1.48,0-1.959-1-1.959-2.16,0-1.879,1.239-2,2.119-2.04,1.52-.039,1.76-.039,4.8-.239v-1.88h-4.319a1.785,1.785,0,0,1-2.079-1.8c0-1.359.6-2.039,2.079-2.039h4.319v-1.52h-1.52c-3.639,0-4.479-.76-4.479-4.439v-4.24c0-3.639.8-4.439,4.479-4.439h1.52v-1.32h-4.479a1.781,1.781,0,0,1-2.08-1.839c0-1.4.56-2.08,2.08-2.08h4.479v-1.32c-1,.04-1.919.08-3.159.08-1.12,0-2.28,0-2.28-1.959,0-1.6.88-1.76,1.72-1.8,2.8-.08,6.559-.2,8.678-.52a21.528,21.528,0,0,1,3.04-.4c.84,0,1.72.36,1.72,2,0,1.44-.2,1.919-5.76,2.319v1.6h4.68a1.859,1.859,0,0,1,1.96,1.08,3.453,3.453,0,0,1,1.479-.16v-5.2c0-1.68.92-2.24,2.04-2.24a1.85,1.85,0,0,1,2.04,2.12v5.319Zm-17.8,9.158v-1.759h-1.48a.841.841,0,0,0-.959.959v.8Zm0,3.12h-2.439v.88a.847.847,0,0,0,.959.959h1.48Zm3.959,12.158c.641-.04,3.48-.32,4-.32a1.5,1.5,0,0,1,1.36.52c2.479-4.879,2.719-11.558,2.759-19.837-1.2,0-2.279,0-2.479-1.92a2.64,2.64,0,0,1-.96.12h-4.68v1.32h1.6c3.679,0,4.479.8,4.479,4.439v4.24c0,3.679-.84,4.439-4.479,4.439h-1.6v1.52h4.04c1.4,0,2.08.6,2.08,2a1.8,1.8,0,0,1-2.08,1.84h-4.04Zm0-15.278h2.52v-.8a.848.848,0,0,0-.96-.959h-1.56Zm0,3.12v1.839h1.56c.64,0,.96-.28.96-.959v-.88Zm11.119,12.718c1.52-.081,1.679-.081,1.92-.44.56-.96.719-6.919.759-8.359.12-4.919.12-6,.12-10.078,0-1.32-.319-1.32-1.759-1.32-.04,6.039-.12,13.838-2.36,20.877A1.376,1.376,0,0,1,418.288,1684.185Z" fill="#009342"/>
      <path id="Path_1357" data-name="Path 1357" d="M452.809,1663.788a46.661,46.661,0,0,0,6.559-1.68,6.111,6.111,0,0,1,2.039-.48,2.249,2.249,0,0,1,2.16,2.44c0,1.52-.32,2.12-8.319,3.759.88,1.4,2.28,3.52,3.28,4.88,1.639,2.2,1.8,2.439,1.8,3.119a2.375,2.375,0,0,1-2.2,2.4,29.082,29.082,0,0,1-4.239-1.36c-.6-.2-2.32-.48-3.36-.68a1.677,1.677,0,0,1-1.68-1.84c0-.96.52-1.959,1.56-1.959.12,0,2.279.519,2.52.6-1.4-2-2.04-3.04-2.8-4.24a133.458,133.458,0,0,1-16.757,1.44c-.8,0-2.36,0-2.36-2.32,0-2.239,1.68-2.239,2.92-2.239a95.13,95.13,0,0,0,13.8-.96c-.959-1.68-1.039-1.8-1.559-2.76a89.121,89.121,0,0,1-10.758.72c-1.6,0-3.32,0-3.32-2.319,0-2.16,1.64-2.2,2.679-2.24,6.12-.16,6.8-.2,9.2-.4-.96-1.96-1.04-2.2-1.04-2.839,0-1.68,1.72-2.28,2.92-2.28,1.52,0,1.6.2,3.439,4.4,1-.16,3.28-.64,5.48-1.24a24.85,24.85,0,0,1,3.119-.759,2.245,2.245,0,0,1,2.2,2.319c0,1.12,0,2.2-8.758,3.8C452.169,1662.708,452.369,1663.068,452.809,1663.788Zm-4.24,19.357a48.123,48.123,0,0,0,6.2-.44c.439-.04,2.239-.32,2.479-.32a2.231,2.231,0,0,1,2.24,2.48,2.154,2.154,0,0,1-1.84,2.359,35.093,35.093,0,0,1-8.639.76c-4.6,0-15.317-.2-15.317-8.279,0-2.679,1.76-5.559,3.759-5.559,1.24,0,2.72,1.08,2.72,2.16,0,.48-.08.6-.72,1.52a2.527,2.527,0,0,0-.48,1.679C438.971,1682.7,444.65,1683.145,448.569,1683.145Z" fill="#009342"/>
      <path id="Path_1358" data-name="Path 1358" d="M479.669,1681.232c-.672,1.68-2.016,4.788-4.676,4.788-2.52,0-5.824-3.64-5.824-9.184,0-6.748,5.04-12.264,12.74-12.264,7.56,0,11.508,5.376,11.508,11.06,0,8.484-7.784,11.676-9.016,11.676a1.568,1.568,0,0,1-1.54-1.624c0-.728.224-.9,1.736-1.652,2.912-1.428,5.628-3.864,5.628-8.428,0-1.176-.112-7.308-7.336-8.2A57.378,57.378,0,0,1,479.669,1681.232Zm-7.532-4.256c0,3.164,1.512,5.824,2.744,5.824,1.092,0,1.96-2.38,2.576-4.228a54.532,54.532,0,0,0,2.408-11.031A9.317,9.317,0,0,0,472.137,1676.976Z" fill="#333"/>
      <path id="Path_1359" data-name="Path 1359" d="M378.117,1719.813c-1.54,1.624-3.612,3.079-4.592,3.079a1.214,1.214,0,0,1-1.176-1.316,54.191,54.191,0,0,1-5.18,1.653c-1.316,0-1.316-1.625-1.316-1.681a1.187,1.187,0,0,1,1.036-1.176c.364-.112,2.016-.559,2.324-.643v-8.289h-1.792a1.265,1.265,0,0,1-1.428-1.4,1.285,1.285,0,0,1,1.428-1.429h1.792v-4.984a1.268,1.268,0,0,1,1.4-1.456,1.281,1.281,0,0,1,1.456,1.456v4.984h1.54a1.145,1.145,0,0,1,1.176,1.288c0,.532-.084,1.54-1.176,1.54h-1.54v7.42a6.322,6.322,0,0,1,1.988-.616c.588,0,.924.308,1.092,1.036a11.51,11.51,0,0,0,2.632-3.108h-2.436a1.181,1.181,0,1,1,0-2.352h15.876a1.181,1.181,0,1,1,0,2.352H380.693a15.463,15.463,0,0,1-.9,1.512h8.708c1.2,0,3.024,0,3.024,2.408,0,1.624-.224,5.4-.924,6.8-.672,1.288-2.016,1.316-3.7,1.316-1.456,0-2.464,0-2.464-1.288a1.093,1.093,0,0,1,1.12-1.176c.084,0,1.708.084,1.848.084.9,0,1.092-.728,1.2-1.316a22.518,22.518,0,0,0,.364-3.836c0-.867-.42-.867-1.008-.867h-.448a15.891,15.891,0,0,1-5.18,7.5c-1.428,1.12-1.764,1.12-2.1,1.12a1.282,1.282,0,0,1-1.288-1.288c0-.532.056-.588,1.848-1.848a12.709,12.709,0,0,0,4.2-5.487h-2.044a16.862,16.862,0,0,1-6.552,6.579c-1.792,1.008-2.044,1.036-2.38,1.036a1.218,1.218,0,0,1-1.176-1.26c0-.644.42-.84.812-1.036,4.452-2.044,5.936-4.368,6.552-5.319Zm12.6-10.333c0,2.324-.56,2.912-2.912,2.912h-9.072c-2.38,0-2.912-.616-2.912-2.912v-3.444c0-2.3.5-2.911,2.912-2.911H387.8c2.3,0,2.912.56,2.912,2.911Zm-2.8-2.66v-.84c0-.448-.168-.784-.756-.784h-7.812a.689.689,0,0,0-.784.784v.84Zm0,1.848h-9.352v.9a.684.684,0,0,0,.784.784h7.812c.644,0,.756-.391.756-.784Z" fill="#333"/>
      <path id="Path_1360" data-name="Path 1360" d="M406.341,1705.813c-3.668,4.087-9.492,7.531-10.78,7.531a1.707,1.707,0,0,1-1.512-1.792,1.4,1.4,0,0,1,.98-1.4c3.276-1.6,4.2-2.016,6.272-3.695a40.644,40.644,0,0,0,3.584-3.445,2.859,2.859,0,0,1,2.352-1.119c1.232,0,1.68.447,2.968,1.763a27.482,27.482,0,0,0,9.156,6.44c.532.252,1.12.5,1.12,1.456a1.684,1.684,0,0,1-1.456,1.821c-1.568,0-7.392-3.809-10.808-7.56-.616-.673-.7-.757-.952-.757C406.985,1705.056,406.761,1705.336,406.341,1705.813Zm11.2,18.843c0,2.548-1.064,3.3-3.3,3.3h-13.8c-2.212,0-3.3-.728-3.3-3.3v-5.628c0-2.6,1.12-3.3,3.3-3.3h13.8c2.184,0,3.3.7,3.3,3.3Zm-3.052-5.1a1.022,1.022,0,0,0-1.148-1.148H401.329a1.011,1.011,0,0,0-1.148,1.148v4.536a1.01,1.01,0,0,0,1.148,1.148h12.012a1.022,1.022,0,0,0,1.148-1.148Zm-1.652-9.128a1.247,1.247,0,0,1,1.456,1.288c0,1.036-.476,1.428-1.456,1.428H401.693a1.257,1.257,0,0,1-1.456-1.288c0-1.007.5-1.428,1.456-1.428Z" fill="#333"/>
      <path id="Path_1361" data-name="Path 1361" d="M425.633,1704.413a1.286,1.286,0,0,1,1.372-.925c.616,0,1.6.281,1.6,1.288a6.947,6.947,0,0,1-.14,1.12,51.945,51.945,0,0,0-1.148,10.836,35.024,35.024,0,0,0,.9,8.12,4.58,4.58,0,0,1,.14.98c0,1.036-1.176,1.26-1.6,1.26a1.429,1.429,0,0,1-1.484-.98c-.336-1.008-1.008-3.724-1.008-9.883A55.729,55.729,0,0,1,425.633,1704.413Zm16.828,14.279a21.256,21.256,0,0,1,4.312,2.156,1.647,1.647,0,0,1,.868,1.4,1.5,1.5,0,0,1-1.344,1.6c-.336,0-.616-.112-1.288-.56a16.335,16.335,0,0,0-2.548-1.4,7.105,7.105,0,0,1-.532,2.968c-.812,1.54-2.716,2.184-4.872,2.184-3.724,0-6.188-1.932-6.188-4.732,0-1.988,1.344-4.76,5.852-4.76a13.556,13.556,0,0,1,2.688.336l-.14-6.328c-1.232.056-2.016.056-3.136.056-4.452,0-5.292-.112-5.292-1.624,0-1.232.644-1.512,1.68-1.512.644,0,3.472.112,4.06.112,1.288,0,1.932-.028,2.6-.056l-.084-3.808a1.393,1.393,0,0,1,1.568-1.595c1.12,0,1.484.644,1.512,1.567l.084,3.612c.532-.028,2.968-.336,3.36-.336,1.232,0,1.26,1.288,1.26,1.512,0,1.512-.7,1.568-4.564,1.876Zm-5.8,1.54c-1.652,0-3.024.672-3.024,2.016,0,1.176,1.148,2.072,3.052,2.072,2.772,0,2.772-1.4,2.772-3.612A7.642,7.642,0,0,0,436.665,1720.232Z" fill="#333"/>
      <path id="Path_1362" data-name="Path 1362" d="M457.917,1704.972a8.169,8.169,0,0,1,5.04-1.68c4.228,0,7.056,2.716,7.056,6.188,0,2.744-1.484,3.977-3.472,5.628-1.792,1.512-1.876,2.072-2.1,3.584-.084.56-.2,1.344-1.6,1.344-1.428,0-1.6-.84-1.6-1.512a6.125,6.125,0,0,1,2.6-4.956c2.408-1.987,2.968-2.464,2.968-4,0-2.127-1.82-3.388-4-3.388a5.319,5.319,0,0,0-3.7,1.456c-.756.756-.9.9-1.428.9a1.449,1.449,0,0,1-1.4-1.568C456.293,1706.064,457.637,1705.168,457.917,1704.972Zm7,19.32a2.1,2.1,0,1,1-2.1-2.072A2.073,2.073,0,0,1,464.917,1724.292Z" fill="#333"/>
    </g>
  </g>
</svg>
