<svg xmlns="http://www.w3.org/2000/svg" xmlns:xlink="http://www.w3.org/1999/xlink" width="355.112" height="284.094" viewBox="0 0 355.112 284.094">
  <defs>
    <linearGradient id="linear-gradient" x1="0.198" y1="0.945" x2="0.802" y2="0.055" gradientUnits="objectBoundingBox">
      <stop offset="0.035" stop-color="#878787"/>
      <stop offset="0.861" stop-color="#fff"/>
    </linearGradient>
    <linearGradient id="linear-gradient-2" x1="0.198" y1="0.946" x2="0.802" y2="0.054" gradientUnits="objectBoundingBox">
      <stop offset="0" stop-color="#fff"/>
      <stop offset="0.732" stop-color="#d1d1d1"/>
    </linearGradient>
    <linearGradient id="linear-gradient-3" x1="-18.275" y1="66.625" x2="-17.662" y2="65.763" xlink:href="#linear-gradient"/>
    <linearGradient id="linear-gradient-4" x1="-19.398" y1="72.334" x2="-18.789" y2="71.458" xlink:href="#linear-gradient-2"/>
    <linearGradient id="linear-gradient-5" x1="-13.969" y1="51.806" x2="-13.356" y2="50.941" xlink:href="#linear-gradient"/>
    <linearGradient id="linear-gradient-6" x1="-14.625" y1="55.19" x2="-14.016" y2="54.314" xlink:href="#linear-gradient-2"/>
    <linearGradient id="linear-gradient-7" x1="-30.321" y1="107.217" x2="-29.702" y2="106.363" xlink:href="#linear-gradient"/>
    <linearGradient id="linear-gradient-8" x1="-33.527" y1="123.455" x2="-32.918" y2="122.579" xlink:href="#linear-gradient-2"/>
  </defs>
  <g id="Group_475" data-name="Group 475" transform="translate(-89.02 -1856.561)">
    <g id="Group_66" data-name="Group 66" transform="translate(80.354 101.859)" style="mix-blend-mode: multiply;isolation: isolate">
      <path id="Path_467" data-name="Path 467" d="M89.226,1799.243c-84.664,71.9-106.48,124.978-46.816,191.46,22.508,25.085,104.727,91.1,241.1,5.866,104.959-65.6,69.97-159.931,38.378-194.9C310.735,1789.327,176.393,1725.221,89.226,1799.243Z" fill="#fff" opacity="0"/>
      <path id="Path_468" data-name="Path 468" d="M89.76,1799.471c-41.068,34.764-67.175,65.222-76.128,94.94-9.365,31.141.159,61.283,30.371,94.668a145.507,145.507,0,0,0,26.531,22.261c.18.119.372.241.553.359a155.775,155.775,0,0,0,85.92,24.8c34.983-.128,77.725-10.822,126.792-41.624,41.612-26.135,60.846-57.1,66.953-86.918,9.075-43.967-11.192-85.616-29.984-106.356-6.07-6.654-44.988-26.865-93.124-34.339-7.658-1.184-15.551-2.046-23.581-2.48C165.661,1762.7,124.024,1770.469,89.76,1799.471Z" fill="#fcfcfc" opacity="0.024"/>
      <path id="Path_469" data-name="Path 469" d="M90.293,1799.7c-40.753,34.386-66.6,64.655-75.329,94.179-9.131,31,.709,60.794,30.632,93.577A152.129,152.129,0,0,0,72.062,2009.4c.175.116.375.239.551.354A156.49,156.49,0,0,0,158.04,2034.2c34.866-.124,77.747-10.562,126.046-41.021,41-25.882,59.895-56.767,65.85-86.455,8.848-43.428-11.525-84.674-30.29-105.195-6.3-6.891-44.842-26.779-92.457-34.066-7.6-1.155-15.444-1.986-23.418-2.393C165.69,1763.113,124.315,1771,90.293,1799.7Z" fill="#f9f9f9" opacity="0.049"/>
      <path id="Path_470" data-name="Path 470" d="M90.826,1799.927c-40.439,34.009-66.025,64.089-74.531,93.418-8.9,30.85,1.261,60.305,30.893,92.487a159.58,159.58,0,0,0,26.4,21.631c.171.112.378.236.55.349a157.255,157.255,0,0,0,84.934,24.094c34.748-.121,77.769-10.3,125.3-40.418,40.391-25.629,58.878-56.452,64.746-85.994,8.524-42.908-11.895-83.7-30.6-104.033-6.544-7.117-44.7-26.693-91.789-33.793a233.606,233.606,0,0,0-23.256-2.306C165.719,1763.527,124.607,1771.528,90.826,1799.927Z" fill="#f6f6f6" opacity="0.073"/>
      <path id="Path_471" data-name="Path 471" d="M91.36,1800.155c-40.125,33.631-65.451,63.522-73.733,92.657-8.662,30.7,1.812,59.816,31.154,91.4a167.607,167.607,0,0,0,26.336,21.316c.166.11.381.234.548.344a158.034,158.034,0,0,0,84.44,23.742c34.632-.118,77.791-10.044,124.555-39.816,39.781-25.375,57.9-56.125,63.643-85.531,8.267-42.374-12.269-82.717-30.9-102.872-6.787-7.343-44.551-26.607-91.122-33.52a231.493,231.493,0,0,0-23.093-2.22C165.749,1763.942,124.9,1772.057,91.36,1800.155Z" fill="#f3f3f3" opacity="0.098"/>
      <path id="Path_472" data-name="Path 472" d="M91.893,1800.383c-39.81,33.253-64.876,62.956-72.934,91.9-8.428,30.558,2.362,59.327,31.414,90.3a176.641,176.641,0,0,0,26.271,21c.162.107.384.233.547.339a158.846,158.846,0,0,0,83.947,23.39c34.514-.115,77.813-9.786,123.809-39.214,39.171-25.121,56.934-55.8,62.539-85.069,8.012-41.839-12.646-81.734-31.2-101.71-7.032-7.569-44.406-26.521-90.456-33.248a229.226,229.226,0,0,0-22.93-2.132C165.778,1764.357,125.19,1772.586,91.893,1800.383Z" fill="#f0f0f0" opacity="0.122"/>
      <path id="Path_473" data-name="Path 473" d="M92.427,1800.611c-39.5,32.876-64.3,62.39-72.136,91.135-8.194,30.412,2.913,58.838,31.675,89.214,5.579,5.566,15.722,13.764,26.206,20.687.157.1.387.23.545.333a159.692,159.692,0,0,0,83.454,23.037c34.4-.111,77.835-9.526,123.063-38.61,38.561-24.868,55.963-55.473,61.435-84.607,7.759-41.305-13.026-80.75-31.51-100.55-7.276-7.793-44.26-26.434-89.789-32.974a226.755,226.755,0,0,0-22.767-2.045C165.807,1764.771,125.481,1773.115,92.427,1800.611Z" fill="#ededed" opacity="0.146"/>
      <path id="Path_474" data-name="Path 474" d="M92.96,1800.839c-39.182,32.5-63.727,61.823-71.337,90.374-7.96,30.267,3.463,58.349,31.936,88.124,5.6,5.485,15.956,13.646,26.14,20.371.153.1.391.228.544.328a160.568,160.568,0,0,0,82.96,22.685c34.28-.108,77.857-9.267,122.317-38.008,37.952-24.614,54.994-55.146,60.333-84.144,7.506-40.77-13.408-79.763-31.816-99.389-7.521-8.017-44.114-26.348-89.122-32.7a224.324,224.324,0,0,0-22.6-1.958C165.836,1765.186,125.773,1773.644,92.96,1800.839Z" fill="#eaeaea" opacity="0.171"/>
      <path id="Path_475" data-name="Path 475" d="M93.493,1801.067c-38.867,32.12-63.152,61.257-70.538,89.614-7.726,30.12,4.014,57.859,32.2,87.032,5.631,5.405,16.191,13.529,26.076,20.056.148.1.393.226.543.324a161.488,161.488,0,0,0,82.466,22.332c34.162-.105,77.879-9.009,121.571-37.406,37.342-24.36,54.024-54.819,59.229-83.682,7.255-40.234-13.793-78.774-32.121-98.227-7.766-8.242-43.956-26.358-88.455-32.428a217.5,217.5,0,0,0-22.44-1.872C165.866,1765.6,126.064,1774.173,93.493,1801.067Z" fill="#e7e7e7" opacity="0.195"/>
      <path id="Path_476" data-name="Path 476" d="M94.027,1801.3c-38.554,31.743-62.636,60.675-69.741,88.853-7.553,29.958,4.566,57.37,32.458,85.941,5.656,5.326,16.425,13.412,26.01,19.741.144.1.4.224.542.319a162.425,162.425,0,0,0,81.972,21.979,222.644,222.644,0,0,0,120.826-36.8c36.731-24.108,53.056-54.492,58.126-83.22,7.005-39.7-14.18-77.784-32.427-97.066-8.012-8.466-43.809-26.282-87.788-32.155a214.566,214.566,0,0,0-22.277-1.785C165.9,1766.015,126.356,1774.7,94.027,1801.3Z" fill="#e4e4e4" opacity="0.22"/>
      <path id="Path_477" data-name="Path 477" d="M94.56,1801.523c-38.239,31.365-62.066,60.108-68.942,88.092-7.325,29.812,5.116,56.881,32.719,84.851,5.682,5.245,16.659,13.294,25.945,19.426.139.092.4.221.54.313a163.425,163.425,0,0,0,81.479,21.627,220.55,220.55,0,0,0,120.08-36.2c36.121-23.854,52.088-54.164,57.022-82.758,6.758-39.162-14.568-76.79-32.732-95.9-8.258-8.689-43.662-26.2-87.12-31.882a211.948,211.948,0,0,0-22.115-1.7C165.924,1766.43,126.647,1775.231,94.56,1801.523Z" fill="#e1e1e1" opacity="0.244"/>
      <path id="Path_478" data-name="Path 478" d="M95.094,1801.751c-37.925,30.987-61.5,59.541-68.144,87.331-7.1,29.665,5.667,56.392,32.979,83.76,5.708,5.165,16.894,13.177,25.88,19.111.135.089.4.22.539.308a164.445,164.445,0,0,0,80.986,21.275c33.811-.1,77.945-8.232,119.334-35.6,35.511-23.6,51.121-53.836,55.918-82.3,6.512-38.625-14.958-75.8-33.037-94.743-8.5-8.913-43.516-26.127-86.453-31.61a208.993,208.993,0,0,0-21.952-1.61C165.954,1766.844,126.939,1775.76,95.094,1801.751Z" fill="#dedede" opacity="0.268"/>
      <path id="Path_479" data-name="Path 479" d="M95.627,1801.979c-37.611,30.61-60.926,58.974-67.345,86.57-6.867,29.519,6.217,55.9,33.24,82.669,5.734,5.085,17.128,13.06,25.815,18.8.13.086.406.218.537.3a165.533,165.533,0,0,0,80.492,20.922c33.694-.093,77.968-7.973,118.589-34.995,34.9-23.347,50.154-53.508,54.815-81.834,6.266-38.087-15.35-74.8-33.343-93.581-8.752-9.135-43.369-26.049-85.786-31.337a206.679,206.679,0,0,0-21.789-1.524C165.983,1767.259,127.23,1776.289,95.627,1801.979Z" fill="#dbdbdb" opacity="0.293"/>
      <path id="Path_480" data-name="Path 480" d="M96.16,1802.207c-37.3,30.232-60.355,58.407-66.546,85.809-6.637,29.372,6.768,55.415,33.5,81.578,5.759,5.006,17.362,12.944,25.749,18.482.126.083.409.215.536.3a166.634,166.634,0,0,0,80,20.569c33.577-.089,77.989-7.713,117.843-34.392,34.291-23.093,49.189-53.18,53.711-81.371,6.024-37.55-15.743-73.8-33.648-92.421-9-9.357-43.223-25.969-85.119-31.063a204.044,204.044,0,0,0-21.626-1.437C166.012,1767.674,127.522,1776.818,96.16,1802.207Z" fill="#d8d8d8" opacity="0.317"/>
      <path id="Path_481" data-name="Path 481" d="M96.694,1802.435c-36.983,29.854-59.785,57.84-65.749,85.048-6.406,29.226,7.319,54.926,33.762,80.488,5.786,4.925,17.6,12.826,25.685,18.166.121.08.412.213.534.293a167.792,167.792,0,0,0,79.5,20.217c33.46-.086,78.012-7.455,117.1-33.79,33.681-22.839,48.224-52.851,52.607-80.909,5.782-37.011-16.137-72.806-33.953-91.259-9.248-9.578-43.077-25.89-84.452-30.79a201.187,201.187,0,0,0-21.463-1.35C166.042,1768.088,127.813,1777.347,96.694,1802.435Z" fill="#d5d5d5" opacity="0.341"/>
      <path id="Path_482" data-name="Path 482" d="M97.227,1802.663c-36.668,29.477-59.213,57.274-64.95,84.287-6.176,29.08,7.87,54.437,34.023,79.4,5.811,4.845,17.832,12.709,25.62,17.851.116.077.415.211.532.288,20.477,10.8,47.638,19.953,79.012,19.865,33.343-.083,78.034-7.2,116.351-33.187,33.072-22.586,47.262-52.522,51.505-80.447,5.542-36.473-16.533-71.807-34.259-90.1-9.5-9.8-42.931-25.81-83.785-30.517a198.64,198.64,0,0,0-21.3-1.263C166.071,1768.5,128.1,1777.876,97.227,1802.663Z" fill="#d2d2d2" opacity="0.366"/>
      <path id="Path_483" data-name="Path 483" d="M97.76,1802.891c-36.353,29.1-58.641,56.707-64.151,83.526-5.945,28.935,8.421,53.948,34.284,78.306,5.837,4.766,18.066,12.592,25.554,17.536.112.074.418.209.531.283,20.506,10.648,47.55,19.6,78.519,19.512,33.225-.079,78.055-6.936,115.6-32.584,32.461-22.333,46.3-52.193,50.4-79.984,5.3-35.934-16.93-70.807-34.564-88.937-9.746-10.02-42.785-25.729-83.118-30.245a196.6,196.6,0,0,0-21.136-1.176C166.1,1768.918,128.4,1778.405,97.76,1802.891Z" fill="#cfcfcf" opacity="0.39"/>
      <path id="Path_484" data-name="Path 484" d="M98.294,1803.119c-36.04,28.721-58.069,56.141-63.353,82.765-5.714,28.789,8.971,53.459,34.544,77.215,5.863,4.686,18.3,12.475,25.49,17.222.107.071.421.207.529.278,20.535,10.494,47.463,19.241,78.025,19.159,33.108-.076,78.078-6.678,114.86-31.982,31.851-22.079,45.338-51.863,49.3-79.522,5.067-35.394-17.328-69.805-34.87-87.775-9.995-10.24-42.639-25.647-82.451-29.972a193.833,193.833,0,0,0-20.973-1.089C166.129,1769.332,128.688,1778.934,98.294,1803.119Z" fill="#ccc" opacity="0.415"/>
      <path id="Path_485" data-name="Path 485" d="M98.827,1803.348c-35.725,28.343-57.5,55.574-62.554,82-5.482,28.643,9.522,52.97,34.805,76.125,5.888,4.605,18.535,12.357,25.424,16.906.1.068.424.205.528.273,20.564,10.34,47.375,18.885,77.532,18.807,32.991-.073,78.1-6.419,114.114-31.379,31.241-21.826,44.377-51.534,48.194-79.06,4.832-34.855-17.727-68.8-35.174-86.614-10.247-10.46-42.5-25.565-81.784-29.7a191.6,191.6,0,0,0-20.811-1C166.159,1769.747,128.979,1779.463,98.827,1803.348Z" fill="#c9c9c9" opacity="0.439"/>
      <path id="Path_486" data-name="Path 486" d="M99.361,1803.576c-35.411,27.965-56.924,55.008-61.756,81.242-5.25,28.5,10.072,52.481,35.066,75.034,5.914,4.526,18.769,12.24,25.359,16.591.1.065.427.2.527.268,20.592,10.186,47.286,18.529,77.038,18.455,32.873-.07,78.121-6.16,113.368-30.777,30.631-21.572,43.418-51.2,47.09-78.6,4.6-34.314-18.126-67.8-35.479-85.453-10.5-10.678-42.349-25.481-81.117-29.425a189.1,189.1,0,0,0-20.648-.915C166.188,1770.162,129.271,1779.992,99.361,1803.576Z" fill="#c6c6c6" opacity="0.463"/>
      <path id="Path_487" data-name="Path 487" d="M99.894,1803.8c-35.1,27.587-56.35,54.442-60.958,80.481-5.017,28.352,10.624,51.992,35.327,73.943,5.94,4.446,19,12.123,25.294,16.277.094.062.431.2.526.262,20.622,10.033,47.2,18.174,76.544,18.1,32.757-.066,78.193-5.83,112.623-30.174,30.064-21.257,42.46-50.872,45.987-78.135,4.368-33.774-18.527-66.8-35.785-84.292-10.749-10.9-42.2-25.4-80.45-29.152a186.885,186.885,0,0,0-20.485-.829C166.217,1770.576,129.562,1780.521,99.894,1803.8Z" fill="#c3c3c3" opacity="0.488"/>
      <path id="Path_488" data-name="Path 488" d="M100.427,1804.032c-34.782,27.21-55.775,53.876-60.159,79.72-4.784,28.207,11.174,51.5,35.588,72.853,5.966,4.365,19.238,12.005,25.229,15.961.089.059.433.2.524.257,20.651,9.879,47.111,17.818,76.051,17.75,32.639-.064,78.216-5.571,111.877-29.571,29.455-21,41.5-50.542,44.883-77.674,4.139-33.232-18.929-65.79-36.09-83.13-11-11.115-42.058-25.313-79.783-28.879a184.439,184.439,0,0,0-20.322-.742C166.247,1770.991,129.854,1781.05,100.427,1804.032Z" fill="#c1c1c1" opacity="0.512"/>
      <path id="Path_489" data-name="Path 489" d="M100.961,1804.26c-34.468,26.832-55.2,53.31-59.361,78.959-4.551,28.062,11.725,51.014,35.848,71.762,5.992,4.286,19.473,11.888,25.164,15.646.085.056.437.2.523.253,20.68,9.725,47.023,17.461,75.557,17.4,32.523-.061,78.24-5.311,111.132-28.969,28.846-20.748,40.549-50.211,43.78-77.211,3.911-32.692-19.331-64.785-36.4-81.969-11.254-11.332-41.913-25.228-79.116-28.607a182.475,182.475,0,0,0-20.159-.654C166.276,1771.405,130.145,1781.579,100.961,1804.26Z" fill="#bebebe" opacity="0.537"/>
      <path id="Path_490" data-name="Path 490" d="M101.494,1804.488c-34.154,26.454-54.627,52.744-58.562,78.2-4.317,27.917,12.276,50.525,36.109,70.671,6.018,4.206,19.707,11.771,25.1,15.331.081.054.439.2.521.248,20.709,9.571,46.936,17.106,75.064,17.045,32.4-.058,78.262-5.052,110.385-28.367,28.238-20.494,39.6-49.88,42.677-76.749,3.686-32.15-19.734-63.778-36.7-80.807-11.507-11.549-41.768-25.142-78.449-28.334a180.548,180.548,0,0,0-20-.568C166.3,1771.82,130.437,1782.108,101.494,1804.488Z" fill="#bbb" opacity="0.561"/>
      <path id="Path_491" data-name="Path 491" d="M102.028,1804.716c-33.84,26.077-54.052,52.179-57.764,77.437-4.082,27.772,12.826,50.036,36.37,69.58,6.043,4.126,19.941,11.654,25.033,15.017.077.05.443.192.52.242,20.739,9.418,46.848,16.75,74.571,16.692,32.288-.054,78.284-4.792,109.639-27.763,27.628-20.241,38.644-49.549,41.573-76.287,3.463-31.608-20.137-62.772-37.006-79.646-11.761-11.765-41.623-25.055-77.782-28.061a178.1,178.1,0,0,0-19.832-.481C166.335,1772.235,130.728,1782.637,102.028,1804.716Z" fill="#b8b8b8" opacity="0.585"/>
      <path id="Path_492" data-name="Path 492" d="M102.561,1804.944c-33.525,25.7-53.476,51.613-56.965,76.676-3.847,27.627,13.377,49.547,36.63,68.49,6.07,4.046,20.176,11.536,24.969,14.7.072.047.446.19.518.237,20.768,9.264,46.76,16.394,74.077,16.34,32.171-.051,78.307-4.534,108.894-27.161,27.018-19.987,37.694-49.217,40.47-75.824,3.241-31.067-20.542-61.764-37.312-78.485-12.016-11.981-41.478-24.967-77.115-27.788a176.238,176.238,0,0,0-19.669-.394C166.364,1772.649,131.02,1783.166,102.561,1804.944Z" fill="#b5b5b5" opacity="0.61"/>
      <path id="Path_493" data-name="Path 493" d="M103.094,1805.172c-33.211,25.321-52.9,51.048-56.167,75.915-3.611,27.482,13.928,49.058,36.892,67.4,6.1,3.966,20.41,11.42,24.9,14.386.068.045.449.188.517.233,20.8,9.11,46.673,16.038,73.584,15.987,32.053-.048,78.329-4.276,108.148-26.559,26.408-19.734,36.745-48.885,39.366-75.362,3.022-30.524-20.946-60.756-37.617-77.324-12.271-12.194-41.333-24.877-76.447-27.514a174.122,174.122,0,0,0-19.507-.307C166.393,1773.064,131.311,1783.695,103.094,1805.172Z" fill="#b2b2b2" opacity="0.634"/>
      <path id="Path_494" data-name="Path 494" d="M103.628,1805.4c-32.9,24.944-52.323,50.482-55.369,75.154-3.375,27.338,14.479,48.569,37.153,66.308,6.121,3.886,20.644,11.3,24.838,14.072.063.041.452.185.515.227,20.826,8.956,46.585,15.682,73.09,15.634,31.937-.044,78.351-4.017,107.4-25.955,25.8-19.482,35.8-48.554,38.262-74.9,2.805-29.982-21.351-59.747-37.922-76.163-12.527-12.409-41.189-24.788-75.78-27.242a172.231,172.231,0,0,0-19.344-.22C166.422,1773.479,131.6,1784.224,103.628,1805.4Z" fill="#afafaf" opacity="0.659"/>
      <path id="Path_495" data-name="Path 495" d="M104.161,1805.628c-32.583,24.566-51.745,49.917-54.57,74.393-3.138,27.193,15.03,48.08,37.413,65.217,6.147,3.806,20.879,11.186,24.773,13.757.059.038.455.183.514.222,20.855,8.8,46.5,15.326,72.6,15.282,31.819-.041,78.373-3.76,106.657-25.353,25.187-19.229,34.853-48.222,37.159-74.438,2.589-29.439-21.757-58.737-38.228-75-12.783-12.622-41.044-24.7-75.113-26.969a170.613,170.613,0,0,0-19.181-.133C166.452,1773.893,131.894,1784.753,104.161,1805.628Z" fill="#acacac" opacity="0.683"/>
      <path id="Path_496" data-name="Path 496" d="M104.694,1805.856c-32.268,24.188-51.167,49.352-53.771,73.632-2.9,27.048,15.58,47.592,37.674,64.127,6.172,3.726,21.113,11.068,24.708,13.441.054.036.458.182.512.217,20.885,8.649,46.41,14.971,72.1,14.93,31.7-.038,78.393-3.5,105.911-24.751,24.577-18.976,33.91-47.889,36.055-73.975,2.376-28.9-22.163-57.728-38.533-73.84-13.04-12.835-40.9-24.606-74.446-26.7a168.52,168.52,0,0,0-19.018-.046C166.481,1774.308,132.186,1785.282,104.694,1805.856Z" fill="#a9a9a9" opacity="0.707"/>
      <path id="Path_497" data-name="Path 497" d="M105.228,1806.084c-31.954,23.811-50.59,48.786-52.973,72.871-2.663,26.9,16.131,47.1,37.935,63.036,6.2,3.646,21.348,10.951,24.642,13.126.05.033.462.18.511.212,20.914,8.5,46.322,14.615,71.61,14.578,31.585-.035,78.415-3.247,105.166-24.148,23.965-18.726,32.969-47.558,34.952-73.514,2.165-28.354-22.57-56.717-38.839-72.678-13.3-13.047-40.755-24.513-73.779-26.423a166.7,166.7,0,0,0-18.855.041C166.51,1774.723,132.477,1785.811,105.228,1806.084Z" fill="#a6a6a6" opacity="0.732"/>
      <path id="Path_498" data-name="Path 498" d="M105.761,1806.312c-31.64,23.433-50.01,48.221-52.175,72.11-2.424,26.759,16.682,46.614,38.2,61.945,6.224,3.566,21.583,10.834,24.578,12.812.045.029.464.177.51.207,20.942,8.341,46.233,14.258,71.116,14.224,31.468-.032,78.435-2.99,104.419-23.545,23.355-18.474,32.032-47.225,33.849-73.051,1.956-27.811-22.976-55.707-39.144-71.517-13.556-13.258-40.61-24.42-73.112-26.15a165.1,165.1,0,0,0-18.691.127C166.54,1775.137,132.769,1786.34,105.761,1806.312Z" fill="#a3a3a3" opacity="0.756"/>
      <path id="Path_499" data-name="Path 499" d="M106.295,1806.54c-31.326,23.055-49.432,47.655-51.377,71.349-2.185,26.614,17.233,46.125,38.457,60.855,6.25,3.486,21.817,10.716,24.512,12.5.041.027.468.175.509.2,20.971,8.188,46.146,13.9,70.623,13.872,31.35-.029,78.454-2.735,103.673-22.943,22.743-18.223,31.1-46.893,32.745-72.589,1.75-27.268-23.383-54.695-39.448-70.355-13.817-13.469-40.466-24.325-72.446-25.878a163.541,163.541,0,0,0-18.528.215C166.569,1775.552,133.06,1786.869,106.295,1806.54Z" fill="#a0a0a0" opacity="0.78"/>
      <path id="Path_500" data-name="Path 500" d="M106.828,1806.768c-31.011,22.678-48.851,47.09-50.578,70.588-1.945,26.47,17.783,45.636,38.718,59.764,6.275,3.406,22.051,10.6,24.447,12.181.036.024.471.173.507.2,21,8.034,46.058,13.547,70.129,13.52,31.234-.026,78.474-2.48,102.928-22.34,22.131-17.974,30.163-46.561,31.642-72.127,1.546-26.726-23.792-53.684-39.754-69.2-14.077-13.677-40.322-24.229-71.778-25.6a162.032,162.032,0,0,0-18.366.3C166.6,1775.966,133.352,1787.4,106.828,1806.768Z" fill="#9d9d9d" opacity="0.805"/>
      <path id="Path_501" data-name="Path 501" d="M107.361,1807c-30.7,22.3-48.27,46.524-49.779,69.827-1.705,26.325,18.334,45.147,38.978,58.673,6.3,3.326,22.286,10.482,24.383,11.867.031.02.473.171.5.191,21.03,7.881,45.97,13.191,69.636,13.167,31.116-.022,78.493-2.225,102.182-21.737,21.518-17.724,29.232-46.229,30.538-71.664,1.344-26.184-24.2-52.672-40.059-68.034-14.337-13.886-40.177-24.132-71.111-25.331a160.243,160.243,0,0,0-18.2.389C166.627,1776.381,133.643,1787.927,107.361,1807Z" fill="#9a9a9a" opacity="0.829"/>
      <path id="Path_502" data-name="Path 502" d="M107.895,1807.224c-30.383,21.922-47.69,45.959-48.981,69.066-1.463,26.18,18.885,44.658,39.239,57.582,6.327,3.247,22.52,10.365,24.317,11.552.027.018.477.169.5.186,21.059,7.727,45.883,12.836,69.142,12.815,31-.019,78.475-2.016,101.437-21.135,20.87-17.515,28.3-45.9,29.434-71.2,1.145-25.641-24.607-51.659-40.364-66.872-14.6-14.094-40.032-24.034-70.444-25.058a158.913,158.913,0,0,0-18.04.475C166.657,1776.8,133.935,1788.456,107.895,1807.224Z" fill="#979797" opacity="0.854"/>
      <path id="Path_503" data-name="Path 503" d="M108.428,1807.452c-30.068,21.545-47.063,45.4-48.182,68.3-1.171,26.037,19.435,44.169,39.5,56.492,6.354,3.166,22.755,10.247,24.253,11.236.022.015.479.167.5.182,21.088,7.572,45.795,12.479,68.649,12.462,30.882-.016,78.5-1.758,100.691-20.532,20.26-17.262,27.38-45.565,28.331-70.74.948-25.1-25.016-50.646-40.67-65.711-14.861-14.3-39.887-23.935-69.777-24.785a157.431,157.431,0,0,0-17.877.562C166.686,1777.21,134.226,1788.985,108.428,1807.452Z" fill="#949494" opacity="0.878"/>
      <path id="Path_504" data-name="Path 504" d="M108.961,1807.68c-29.754,21.167-46.488,44.829-47.384,67.544-.936,25.892,19.987,43.68,39.761,55.4,6.379,3.086,22.989,10.13,24.187,10.922.018.011.483.164.5.176,21.117,7.419,45.707,12.123,68.156,12.11,30.764-.013,78.518-1.5,99.945-19.93,19.65-17.008,26.459-45.233,27.227-70.278.753-24.557-25.425-49.632-40.975-64.549-15.124-14.508-39.742-23.835-69.11-24.512a156.143,156.143,0,0,0-17.714.649C166.715,1777.625,134.518,1789.514,108.961,1807.68Z" fill="#919191" opacity="0.902"/>
      <path id="Path_505" data-name="Path 505" d="M109.5,1807.908c-29.44,20.789-45.914,44.263-46.586,66.783-.7,25.746,20.537,43.191,40.022,54.31,6.4,3.007,23.223,10.013,24.122,10.607.013.009.486.162.5.171,21.147,7.265,45.62,11.768,67.662,11.757,30.648-.009,78.541-1.239,99.2-19.327,19.041-16.755,25.543-44.9,26.125-69.815.561-24.016-25.835-48.619-41.281-63.388-15.388-14.713-39.6-23.679-68.443-24.24a157.729,157.729,0,0,0-17.551.737C166.745,1778.04,134.809,1790.043,109.5,1807.908Z" fill="#8e8e8e" opacity="0.927"/>
      <path id="Path_506" data-name="Path 506" d="M110.028,1808.136c-29.126,20.412-45.339,43.7-45.787,66.022-.468,25.6,21.088,42.7,40.282,53.219,6.431,2.927,23.458,9.9,24.057,10.292.009.006.489.16.5.166,21.176,7.112,45.532,11.412,67.169,11.405,30.53-.006,78.562-.981,98.453-18.724,18.431-16.5,24.629-44.571,25.021-69.354.371-23.474-26.269-47.578-41.586-62.226-15.678-14.891-39.453-23.593-67.776-23.967a155.77,155.77,0,0,0-17.387.823C166.774,1778.454,135.1,1790.572,110.028,1808.136Z" fill="#8b8b8b" opacity="0.951"/>
      <path id="Path_507" data-name="Path 507" d="M110.562,1808.364c-28.812,20.034-44.765,43.13-44.989,65.261-.234,25.454,21.639,42.213,40.543,52.129,6.456,2.846,23.692,9.779,23.992,9.976,0,0,.492.159.5.162,21.205,6.957,45.444,11.055,66.675,11.052,30.414,0,78.585-.722,97.708-18.122,17.82-16.248,23.765-44.239,23.917-68.891.227-22.934-26.665-46.577-41.891-61.066-15.931-15.106-39.307-23.506-67.109-23.693a153.577,153.577,0,0,0-17.224.91C166.8,1778.869,135.392,1791.1,110.562,1808.364Z" fill="#888" opacity="0.976"/>
      <path id="Path_508" data-name="Path 508" d="M131.635,1933.792l.5.156c21.234,6.8,45.357,10.7,66.182,10.7,30.3,0,78.606-.462,96.962-17.519,17.21-15.994,22.814-43.909,22.814-68.429,0-22.394-27.063-45.576-42.2-59.9-16.184-15.323-39.161-23.42-66.441-23.42a151.933,151.933,0,0,0-17.062,1c-25.555,2.911-56.7,15.258-81.293,32.22-28.5,19.656-44.19,42.563-44.19,64.5,0,25.308,22.189,41.724,40.8,51.038C114.191,1926.9,131.635,1933.792,131.635,1933.792Z" fill="#858585"/>
    </g>
    <path id="Path_509" data-name="Path 509" d="M201.144,1957.764c-82.434,0-149.5-45.547-149.5-101.53S118.71,1754.7,201.144,1754.7s149.5,45.548,149.5,101.532S283.581,1957.764,201.144,1957.764Z" transform="translate(80.354 101.859)" fill="url(#linear-gradient)"/>
    <path id="Path_510" data-name="Path 510" d="M349.3,1856.234c0,55.328-66.334,100.182-148.158,100.182S52.993,1911.562,52.993,1856.234s66.331-100.186,148.151-100.186S349.3,1800.9,349.3,1856.234Z" transform="translate(80.354 101.859)" fill="url(#linear-gradient-2)"/>
    <g id="Group_68" data-name="Group 68" transform="translate(80.354 101.859)">
      <g id="Group_67" data-name="Group 67" style="mix-blend-mode: multiply;isolation: isolate">
        <path id="Path_511" data-name="Path 511" d="M345.807,1953.374c5.5,6.362.57,14.951-6.881,20.049-6.037,4.128-15.231,5.615-18.829,3.635-4.128-2.273-6.276-9.033-3.256-15.5,3.337-7.151,17.7-12.229,23.509-10.916A11.625,11.625,0,0,1,345.807,1953.374Z" fill="#fff" opacity="0"/>
        <path id="Path_512" data-name="Path 512" d="M345.813,1953.468c5.366,6.29.485,14.757-6.9,19.771-6.023,4.075-15.131,5.489-18.678,3.464-4.065-2.31-6.083-9.02-3-15.382,3.368-7.016,17.495-11.951,23.219-10.606A11.407,11.407,0,0,1,345.813,1953.468Z" fill="#fcfcfc" opacity="0.024" style="mix-blend-mode: multiply;isolation: isolate"/>
        <path id="Path_513" data-name="Path 513" d="M345.818,1953.562c5.235,6.217.4,14.563-6.91,19.493-6.009,4.022-15.026,5.356-18.527,3.293-4-2.356-5.868-9-2.75-15.259,3.421-6.871,17.291-11.673,22.929-10.3A11.174,11.174,0,0,1,345.818,1953.562Z" fill="#f9f9f9" opacity="0.049" style="mix-blend-mode: multiply;isolation: isolate"/>
        <path id="Path_514" data-name="Path 514" d="M345.824,1953.657c5.1,6.144.328,14.385-6.926,19.214-5.984,3.984-14.923,5.227-18.375,3.122-3.931-2.4-5.665-8.979-2.5-15.136,3.463-6.731,17.088-11.4,22.64-9.988A10.955,10.955,0,0,1,345.824,1953.657Z" fill="#f6f6f6" opacity="0.073" style="mix-blend-mode: multiply;isolation: isolate"/>
        <path id="Path_515" data-name="Path 515" d="M345.829,1953.751c4.972,6.071.248,14.2-6.94,18.936-5.967,3.935-14.82,5.1-18.224,2.951-3.865-2.438-5.463-8.96-2.245-15.013,3.5-6.591,16.884-11.118,22.35-9.679A10.737,10.737,0,0,1,345.829,1953.751Z" fill="#f3f3f3" opacity="0.098" style="mix-blend-mode: multiply;isolation: isolate"/>
        <path id="Path_516" data-name="Path 516" d="M345.834,1953.845c4.84,6,.167,14.006-6.954,18.658-5.951,3.886-14.718,4.969-18.073,2.78-3.8-2.479-5.26-8.942-1.993-14.89,3.545-6.452,16.681-10.84,22.061-9.371A10.517,10.517,0,0,1,345.834,1953.845Z" fill="#f0f0f0" opacity="0.122" style="mix-blend-mode: multiply;isolation: isolate"/>
        <path id="Path_517" data-name="Path 517" d="M345.84,1953.939c4.708,5.926.085,13.817-6.969,18.379-5.934,3.839-14.615,4.842-17.922,2.61-3.734-2.52-5.058-8.923-1.74-14.767,3.584-6.312,16.477-10.562,21.771-9.062A10.309,10.309,0,0,1,345.84,1953.939Z" fill="#ededed" opacity="0.146" style="mix-blend-mode: multiply;isolation: isolate"/>
        <path id="Path_518" data-name="Path 518" d="M345.845,1954.033c4.577,5.854,0,13.627-6.984,18.1-5.917,3.789-14.512,4.714-17.77,2.439-3.668-2.56-4.857-8.9-1.487-14.644,3.623-6.172,16.273-10.285,21.481-8.753A10.088,10.088,0,0,1,345.845,1954.033Z" fill="#eaeaea" opacity="0.171" style="mix-blend-mode: multiply;isolation: isolate"/>
        <path id="Path_519" data-name="Path 519" d="M345.851,1954.127c4.445,5.781-.079,13.437-7,17.823-5.9,3.74-14.409,4.585-17.619,2.268-3.6-2.6-4.656-8.885-1.235-14.521,3.662-6.032,16.07-10.007,21.192-8.444A9.885,9.885,0,0,1,345.851,1954.127Z" fill="#e7e7e7" opacity="0.195" style="mix-blend-mode: multiply;isolation: isolate"/>
        <path id="Path_520" data-name="Path 520" d="M345.856,1954.221c4.314,5.709-.16,13.247-7.013,17.545-5.885,3.691-14.307,4.458-17.468,2.1-3.537-2.641-4.456-8.868-.982-14.4,3.7-5.892,15.866-9.729,20.9-8.135A9.674,9.674,0,0,1,345.856,1954.221Z" fill="#e4e4e4" opacity="0.22" style="mix-blend-mode: multiply;isolation: isolate"/>
        <path id="Path_521" data-name="Path 521" d="M345.862,1954.316c4.182,5.635-.243,13.055-7.028,17.266-5.869,3.642-14.205,4.33-17.317,1.927-3.471-2.68-4.256-8.849-.729-14.277,3.737-5.752,15.662-9.451,20.612-7.825A9.473,9.473,0,0,1,345.862,1954.316Z" fill="#e1e1e1" opacity="0.244" style="mix-blend-mode: multiply;isolation: isolate"/>
        <path id="Path_522" data-name="Path 522" d="M345.867,1954.41c4.05,5.563-.325,12.864-7.043,16.988-5.852,3.592-14.1,4.2-17.165,1.756-3.406-2.719-4.057-8.83-.477-14.154,3.774-5.612,15.459-9.173,20.323-7.516A9.271,9.271,0,0,1,345.867,1954.41Z" fill="#dedede" opacity="0.268" style="mix-blend-mode: multiply;isolation: isolate"/>
        <path id="Path_523" data-name="Path 523" d="M345.872,1954.5c3.919,5.49-.407,12.673-7.057,16.71-5.836,3.542-14,4.075-17.014,1.585-3.341-2.759-3.858-8.811-.224-14.031,3.81-5.472,15.255-8.895,20.033-7.207A9.066,9.066,0,0,1,345.872,1954.5Z" fill="#dbdbdb" opacity="0.293" style="mix-blend-mode: multiply;isolation: isolate"/>
        <path id="Path_524" data-name="Path 524" d="M345.878,1954.6c3.787,5.418-.49,12.482-7.072,16.432-5.821,3.492-13.9,3.948-16.864,1.414-3.274-2.8-3.659-8.792.029-13.908,3.846-5.333,15.052-8.618,19.744-6.9A8.877,8.877,0,0,1,345.878,1954.6Z" fill="#d8d8d8" opacity="0.317" style="mix-blend-mode: multiply;isolation: isolate"/>
        <path id="Path_525" data-name="Path 525" d="M345.883,1954.692c3.656,5.345-.573,12.291-7.087,16.153-5.8,3.443-13.794,3.822-16.712,1.244-3.209-2.836-3.462-8.773.282-13.785,3.88-5.194,14.848-8.34,19.454-6.589A8.677,8.677,0,0,1,345.883,1954.692Z" fill="#d5d5d5" opacity="0.341" style="mix-blend-mode: multiply;isolation: isolate"/>
        <path id="Path_526" data-name="Path 526" d="M345.889,1954.786c3.524,5.272-.657,12.1-7.1,15.875-5.789,3.393-13.692,3.695-16.561,1.073-3.144-2.874-3.265-8.755.535-13.662,3.914-5.055,14.644-8.062,19.164-6.28A8.495,8.495,0,0,1,345.889,1954.786Z" fill="#d2d2d2" opacity="0.366" style="mix-blend-mode: multiply;isolation: isolate"/>
        <path id="Path_527" data-name="Path 527" d="M345.894,1954.88c3.392,5.2-.74,11.907-7.116,15.6-5.774,3.342-13.59,3.569-16.41.9-3.079-2.912-3.069-8.737.787-13.539,3.948-4.916,14.441-7.785,18.875-5.971A8.3,8.3,0,0,1,345.894,1954.88Z" fill="#cfcfcf" opacity="0.39" style="mix-blend-mode: multiply;isolation: isolate"/>
        <path id="Path_528" data-name="Path 528" d="M345.9,1954.975c3.26,5.126-.824,11.714-7.131,15.318-5.76,3.291-13.488,3.443-16.259.731-3.014-2.95-2.874-8.718,1.04-13.416,3.98-4.778,14.237-7.507,18.585-5.662A8.124,8.124,0,0,1,345.9,1954.975Z" fill="#ccc" opacity="0.415" style="mix-blend-mode: multiply;isolation: isolate"/>
        <path id="Path_529" data-name="Path 529" d="M345.9,1955.069c3.129,5.054-.907,11.521-7.146,15.04-5.744,3.24-13.385,3.317-16.107.56-2.95-2.988-2.679-8.7,1.293-13.293,4.011-4.639,14.033-7.229,18.295-5.353A7.94,7.94,0,0,1,345.9,1955.069Z" fill="#c9c9c9" opacity="0.439" style="mix-blend-mode: multiply;isolation: isolate"/>
        <path id="Path_530" data-name="Path 530" d="M345.91,1955.163c3,4.981-.991,11.328-7.16,14.762-5.729,3.189-13.284,3.191-15.956.389-2.885-3.025-2.485-8.683,1.545-13.171s13.83-6.951,18.006-5.043A7.766,7.766,0,0,1,345.91,1955.163Z" fill="#c6c6c6" opacity="0.463" style="mix-blend-mode: multiply;isolation: isolate"/>
        <path id="Path_531" data-name="Path 531" d="M345.916,1955.257c2.866,4.909-1.076,11.135-7.175,14.484-5.715,3.138-13.183,3.065-15.8.218-2.821-3.062-2.291-8.666,1.8-13.048,4.072-4.363,13.626-6.673,17.716-4.734A7.6,7.6,0,0,1,345.916,1955.257Z" fill="#c3c3c3" opacity="0.488" style="mix-blend-mode: multiply;isolation: isolate"/>
        <path id="Path_532" data-name="Path 532" d="M345.921,1955.351c2.735,4.836-1.16,10.941-7.189,14.206-5.7,3.086-13.081,2.94-15.654.047-2.757-3.1-2.1-8.649,2.05-12.925,4.1-4.227,13.423-6.395,17.427-4.425A7.43,7.43,0,0,1,345.921,1955.351Z" fill="#c1c1c1" opacity="0.512" style="mix-blend-mode: multiply;isolation: isolate"/>
        <path id="Path_533" data-name="Path 533" d="M345.927,1955.445c2.6,4.764-1.245,10.747-7.205,13.927-5.686,3.035-12.98,2.815-15.5-.122-2.693-3.137-1.907-8.634,2.3-12.8,4.131-4.09,13.219-6.118,17.137-4.116A7.274,7.274,0,0,1,345.927,1955.445Z" fill="#bebebe" opacity="0.537" style="mix-blend-mode: multiply;isolation: isolate"/>
        <path id="Path_534" data-name="Path 534" d="M345.932,1955.539c2.471,4.691-1.329,10.553-7.219,13.649-5.672,2.982-12.879,2.69-15.351-.293-2.63-3.174-1.715-8.619,2.556-12.68,4.159-3.955,13.015-5.84,16.847-3.807A7.112,7.112,0,0,1,345.932,1955.539Z" fill="#bbb" opacity="0.561" style="mix-blend-mode: multiply;isolation: isolate"/>
        <path id="Path_535" data-name="Path 535" d="M345.938,1955.634c2.339,4.618-1.415,10.357-7.234,13.37-5.658,2.93-12.778,2.565-15.2-.464-2.566-3.21-1.525-8.6,2.808-12.557,4.187-3.82,12.812-5.562,16.558-3.5A6.963,6.963,0,0,1,345.938,1955.634Z" fill="#b8b8b8" opacity="0.585" style="mix-blend-mode: multiply;isolation: isolate"/>
        <path id="Path_536" data-name="Path 536" d="M345.943,1955.728c2.208,4.545-1.5,10.162-7.249,13.092-5.644,2.877-12.677,2.44-15.048-.635-2.5-3.247-1.335-8.59,3.061-12.434,4.213-3.685,12.609-5.285,16.268-3.189A6.81,6.81,0,0,1,345.943,1955.728Z" fill="#b5b5b5" opacity="0.61" style="mix-blend-mode: multiply;isolation: isolate"/>
        <path id="Path_537" data-name="Path 537" d="M345.948,1955.822c2.077,4.473-1.584,9.967-7.263,12.814-5.631,2.823-12.577,2.316-14.9-.806-2.44-3.283-1.145-8.576,3.314-12.311,4.239-3.552,12.4-5.007,15.978-2.88A6.668,6.668,0,0,1,345.948,1955.822Z" fill="#b2b2b2" opacity="0.634" style="mix-blend-mode: multiply;isolation: isolate"/>
        <path id="Path_538" data-name="Path 538" d="M345.954,1955.916c1.944,4.4-1.671,9.771-7.278,12.536s-12.477,2.191-14.746-.977c-2.378-3.319-.956-8.563,3.566-12.188,4.265-3.419,12.2-4.73,15.689-2.571A6.536,6.536,0,0,1,345.954,1955.916Z" fill="#afafaf" opacity="0.659" style="mix-blend-mode: multiply;isolation: isolate"/>
        <path id="Path_539" data-name="Path 539" d="M345.959,1956.01c1.813,4.328-1.756,9.575-7.292,12.258-5.6,2.715-12.378,2.066-14.6-1.148-2.315-3.355-.768-8.552,3.819-12.066,4.29-3.286,12-4.451,15.4-2.261A6.4,6.4,0,0,1,345.959,1956.01Z" fill="#acacac" opacity="0.683" style="mix-blend-mode: multiply;isolation: isolate"/>
        <path id="Path_540" data-name="Path 540" d="M345.965,1956.1c1.681,4.255-1.842,9.379-7.308,11.98-5.591,2.66-12.277,1.942-14.443-1.319-2.253-3.391-.58-8.541,4.071-11.943,4.316-3.155,11.795-4.173,15.11-1.952A6.277,6.277,0,0,1,345.965,1956.1Z" fill="#a9a9a9" opacity="0.707" style="mix-blend-mode: multiply;isolation: isolate"/>
        <path id="Path_541" data-name="Path 541" d="M345.97,1956.2c1.55,4.183-1.928,9.182-7.322,11.7-5.579,2.606-12.178,1.819-14.292-1.489-2.191-3.427-.393-8.531,4.324-11.82,4.339-3.025,11.591-3.9,14.82-1.643A6.151,6.151,0,0,1,345.97,1956.2Z" fill="#a6a6a6" opacity="0.732" style="mix-blend-mode: multiply;isolation: isolate"/>
        <path id="Path_542" data-name="Path 542" d="M345.975,1956.293c1.419,4.109-2.014,8.983-7.336,11.422-5.566,2.551-12.079,1.694-14.141-1.66-2.129-3.463-.206-8.523,4.577-11.7,4.363-2.9,11.387-3.618,14.53-1.334A6.035,6.035,0,0,1,345.975,1956.293Z" fill="#a3a3a3" opacity="0.756" style="mix-blend-mode: multiply;isolation: isolate"/>
        <path id="Path_543" data-name="Path 543" d="M345.981,1956.387c1.287,4.037-2.1,8.786-7.351,11.144-5.554,2.495-11.981,1.57-13.99-1.831-2.068-3.5-.02-8.515,4.829-11.574,4.388-2.767,11.184-3.34,14.241-1.026A5.931,5.931,0,0,1,345.981,1956.387Z" fill="#a0a0a0" opacity="0.78" style="mix-blend-mode: multiply;isolation: isolate"/>
        <path id="Path_544" data-name="Path 544" d="M345.986,1956.481c1.155,3.964-2.187,8.588-7.366,10.866-5.541,2.438-11.882,1.446-13.839-2-2.006-3.534.167-8.509,5.083-11.451,4.411-2.64,10.98-3.063,13.951-.717A5.827,5.827,0,0,1,345.986,1956.481Z" fill="#9d9d9d" opacity="0.805" style="mix-blend-mode: multiply;isolation: isolate"/>
        <path id="Path_545" data-name="Path 545" d="M345.992,1956.575c1.023,3.891-2.274,8.389-7.381,10.588-5.529,2.381-11.783,1.322-13.688-2.172-1.945-3.571.353-8.505,5.336-11.329,4.434-2.513,10.776-2.785,13.661-.408A5.729,5.729,0,0,1,345.992,1956.575Z" fill="#9a9a9a" opacity="0.829" style="mix-blend-mode: multiply;isolation: isolate"/>
        <path id="Path_546" data-name="Path 546" d="M346,1956.669c.892,3.819-2.36,8.19-7.4,10.31-5.518,2.323-11.686,1.2-13.537-2.343-1.884-3.606.539-8.5,5.588-11.206,4.458-2.388,10.573-2.507,13.372-.1A5.638,5.638,0,0,1,346,1956.669Z" fill="#979797" opacity="0.854" style="mix-blend-mode: multiply;isolation: isolate"/>
        <path id="Path_547" data-name="Path 547" d="M346,1956.763c.76,3.746-2.448,7.99-7.411,10.032-5.505,2.265-11.587,1.074-13.385-2.514-1.824-3.642.725-8.5,5.841-11.083,4.481-2.264,10.369-2.23,13.082.21A5.558,5.558,0,0,1,346,1956.763Z" fill="#949494" opacity="0.878" style="mix-blend-mode: multiply;isolation: isolate"/>
        <path id="Path_548" data-name="Path 548" d="M346.008,1956.857c.629,3.674-2.534,7.79-7.425,9.754-5.494,2.205-11.49.95-13.234-2.685-1.764-3.678.91-8.5,6.093-10.961,4.505-2.14,10.166-1.951,12.794.52A5.476,5.476,0,0,1,346.008,1956.857Z" fill="#919191" opacity="0.902" style="mix-blend-mode: multiply;isolation: isolate"/>
        <path id="Path_549" data-name="Path 549" d="M346.013,1956.952c.5,3.6-2.621,7.588-7.439,9.474-5.483,2.147-11.393.827-13.083-2.855-1.7-3.713,1.1-8.5,6.346-10.838,4.529-2.017,9.962-1.673,12.5.829A5.4,5.4,0,0,1,346.013,1956.952Z" fill="#8e8e8e" opacity="0.927" style="mix-blend-mode: multiply;isolation: isolate"/>
        <path id="Path_550" data-name="Path 550" d="M346.019,1957.046c.365,3.528-2.709,7.387-7.454,9.2-5.472,2.086-11.3.7-12.932-3.026-1.644-3.749,1.282-8.5,6.6-10.715,4.553-1.9,9.758-1.4,12.214,1.138A5.34,5.34,0,0,1,346.019,1957.046Z" fill="#8b8b8b" opacity="0.951" style="mix-blend-mode: multiply;isolation: isolate"/>
        <path id="Path_551" data-name="Path 551" d="M346.024,1957.14c.234,3.455-2.8,7.178-7.469,8.918-5.464,2.016-11.2.58-12.78-3.2s1.468-8.5,6.851-10.592c4.578-1.776,9.555-1.118,11.925,1.447A5.283,5.283,0,0,1,346.024,1957.14Z" fill="#888" opacity="0.976" style="mix-blend-mode: multiply;isolation: isolate"/>
        <path id="Path_552" data-name="Path 552" d="M346.03,1957.234c.1,3.383-2.883,6.984-7.484,8.64-5.45,1.963-11.1.454-12.629-3.368s1.654-8.51,7.1-10.469c4.6-1.659,9.351-.84,11.635,1.756A5.232,5.232,0,0,1,346.03,1957.234Z" fill="#858585" style="mix-blend-mode: multiply;isolation: isolate"/>
      </g>
      <path id="Path_553" data-name="Path 553" d="M339.208,1966.083c-6.861,2.2-13.615.352-15.055-4.131s2.972-9.924,9.834-12.128,13.618-.35,15.058,4.134S346.07,1963.879,339.208,1966.083Z" fill="url(#linear-gradient-3)"/>
      <path id="Path_554" data-name="Path 554" d="M348.346,1954.182c1.318,4.1-2.875,9.118-9.362,11.2s-12.813.447-14.13-3.657,2.872-9.12,9.357-11.2S347.028,1950.079,348.346,1954.182Z" fill="url(#linear-gradient-4)"/>
    </g>
    <g id="Group_70" data-name="Group 70" transform="translate(80.354 101.859)">
      <g id="Group_69" data-name="Group 69" style="mix-blend-mode: multiply;isolation: isolate">
        <path id="Path_555" data-name="Path 555" d="M325.731,1939c7.186,8.315,3.957,17.887-5.78,24.547-7.888,5.393-20.826,5.17-25.528,2.582-5.393-2.97-7.64-9.95-3.7-18.407,4.362-9.341,20.28-14.011,27.87-12.294C318.6,1935.429,323.083,1936.261,325.731,1939Z" fill="#fff" opacity="0"/>
        <path id="Path_556" data-name="Path 556" d="M325.738,1939.124c7.014,8.22,3.769,17.673-5.878,24.223-7.869,5.325-20.671,5.059-25.307,2.413-5.31-3.02-7.4-9.979-3.379-18.293,4.4-9.166,20.084-13.7,27.562-11.938C318.736,1935.529,323.156,1936.387,325.738,1939.124Z" fill="#fcfcfc" opacity="0.024" style="mix-blend-mode: multiply;isolation: isolate"/>
        <path id="Path_557" data-name="Path 557" d="M325.745,1939.247c6.842,8.125,3.581,17.459-5.975,23.9-7.851,5.255-20.518,4.947-25.087,2.242-5.227-3.069-7.137-9.994-3.063-18.177,4.471-8.977,19.888-13.381,27.253-11.582C318.873,1935.63,323.229,1936.514,325.745,1939.247Z" fill="#f9f9f9" opacity="0.049" style="mix-blend-mode: multiply;isolation: isolate"/>
        <path id="Path_558" data-name="Path 558" d="M325.752,1939.37c6.671,8.03,3.407,17.267-6.073,23.577-7.819,5.2-20.356,4.823-24.867,2.071-5.135-3.132-6.885-10.015-2.745-18.061,4.524-8.8,19.69-13.066,26.943-11.227C319.01,1935.73,323.3,1936.64,325.752,1939.37Z" fill="#f6f6f6" opacity="0.073" style="mix-blend-mode: multiply;isolation: isolate"/>
        <path id="Path_559" data-name="Path 559" d="M325.759,1939.493c6.5,7.935,3.223,17.06-6.17,23.253-7.8,5.141-20.2,4.708-24.647,1.9-5.05-3.186-6.634-10.037-2.429-17.947,4.578-8.612,19.494-12.75,26.634-10.87C319.147,1935.831,323.376,1936.766,325.759,1939.493Z" fill="#f3f3f3" opacity="0.098" style="mix-blend-mode: multiply;isolation: isolate"/>
        <path id="Path_560" data-name="Path 560" d="M325.766,1939.616c6.327,7.84,3.039,16.853-6.268,22.93-7.775,5.077-20.042,4.593-24.426,1.731-4.964-3.239-6.383-10.058-2.113-17.831,4.631-8.429,19.3-12.436,26.326-10.515C319.285,1935.931,323.449,1936.892,325.766,1939.616Z" fill="#f0f0f0" opacity="0.122" style="mix-blend-mode: multiply;isolation: isolate"/>
        <path id="Path_561" data-name="Path 561" d="M325.773,1939.739c6.155,7.745,2.854,16.645-6.365,22.607-7.753,5.013-19.885,4.477-24.206,1.561-4.878-3.293-6.134-10.08-1.8-17.716,4.683-8.247,19.1-12.121,26.017-10.159C319.422,1936.032,323.522,1937.019,325.773,1939.739Z" fill="#ededed" opacity="0.146" style="mix-blend-mode: multiply;isolation: isolate"/>
        <path id="Path_562" data-name="Path 562" d="M325.78,1939.862c5.983,7.651,2.669,16.437-6.463,22.284-7.731,4.949-19.728,4.362-23.986,1.39-4.792-3.346-5.883-10.1-1.479-17.6,4.734-8.063,18.9-11.805,25.707-9.8C319.559,1936.132,323.6,1937.145,325.78,1939.862Z" fill="#eaeaea" opacity="0.171" style="mix-blend-mode: multiply;isolation: isolate"/>
        <path id="Path_563" data-name="Path 563" d="M325.787,1939.985c5.811,7.556,2.484,16.229-6.56,21.96-7.71,4.886-19.572,4.249-23.766,1.22-4.706-3.4-5.635-10.12-1.163-17.485,4.785-7.881,18.707-11.491,25.4-9.447C319.7,1936.233,323.668,1937.271,325.787,1939.985Z" fill="#e7e7e7" opacity="0.195" style="mix-blend-mode: multiply;isolation: isolate"/>
        <path id="Path_564" data-name="Path 564" d="M325.794,1940.108c5.639,7.461,2.3,16.021-6.657,21.637-7.689,4.821-19.415,4.134-23.546,1.05-4.621-3.45-5.387-10.142-.847-17.37,4.835-7.7,18.511-11.176,25.09-9.091C319.834,1936.334,323.741,1937.4,325.794,1940.108Z" fill="#e4e4e4" opacity="0.22" style="mix-blend-mode: multiply;isolation: isolate"/>
        <path id="Path_565" data-name="Path 565" d="M325.8,1940.232c5.467,7.365,2.113,15.811-6.755,21.313-7.667,4.757-19.258,4.02-23.326.879-4.534-3.5-5.139-10.162-.53-17.255,4.884-7.515,18.315-10.86,24.781-8.735C319.971,1936.434,323.815,1937.524,325.8,1940.232Z" fill="#e1e1e1" opacity="0.244" style="mix-blend-mode: multiply;isolation: isolate"/>
        <path id="Path_566" data-name="Path 566" d="M325.808,1940.355c5.295,7.27,1.927,15.6-6.852,20.99-7.647,4.692-19.1,3.906-23.106.709-4.449-3.554-4.892-10.183-.213-17.14,4.931-7.333,18.117-10.546,24.471-8.379C320.108,1936.535,323.888,1937.65,325.808,1940.355Z" fill="#dedede" opacity="0.268" style="mix-blend-mode: multiply;isolation: isolate"/>
        <path id="Path_567" data-name="Path 567" d="M325.816,1940.478c5.123,7.175,1.74,15.392-6.951,20.666-7.625,4.628-18.945,3.793-22.885.539-4.364-3.6-4.647-10.2.1-17.024,4.978-7.151,17.921-10.231,24.163-8.024C320.246,1936.635,323.961,1937.776,325.816,1940.478Z" fill="#dbdbdb" opacity="0.293" style="mix-blend-mode: multiply;isolation: isolate"/>
        <path id="Path_568" data-name="Path 568" d="M325.823,1940.6c4.951,7.08,1.554,15.182-7.048,20.343-7.6,4.562-18.789,3.68-22.665.368-4.279-3.655-4.4-10.224.419-16.909,5.025-6.968,17.725-9.915,23.854-7.667A11.555,11.555,0,0,1,325.823,1940.6Z" fill="#d8d8d8" opacity="0.317" style="mix-blend-mode: multiply;isolation: isolate"/>
        <path id="Path_569" data-name="Path 569" d="M325.83,1940.724c4.779,6.985,1.367,14.972-7.146,20.02-7.584,4.5-18.632,3.567-22.445.2-4.193-3.706-4.157-10.245.736-16.794,5.07-6.786,17.528-9.6,23.545-7.312A11.314,11.314,0,0,1,325.83,1940.724Z" fill="#d5d5d5" opacity="0.341" style="mix-blend-mode: multiply;isolation: isolate"/>
        <path id="Path_570" data-name="Path 570" d="M325.837,1940.847c4.607,6.89,1.18,14.762-7.243,19.7-7.564,4.431-18.476,3.454-22.225.027-4.108-3.756-3.913-10.266,1.053-16.678,5.114-6.6,17.331-9.286,23.235-6.956A11.063,11.063,0,0,1,325.837,1940.847Z" fill="#d2d2d2" opacity="0.366" style="mix-blend-mode: multiply;isolation: isolate"/>
        <path id="Path_571" data-name="Path 571" d="M325.844,1940.97c4.435,6.8.993,14.551-7.341,19.373-7.544,4.366-18.32,3.343-22-.142-4.024-3.806-3.671-10.288,1.369-16.564,5.158-6.423,17.134-8.97,22.927-6.6A10.817,10.817,0,0,1,325.844,1940.97Z" fill="#cfcfcf" opacity="0.39" style="mix-blend-mode: multiply;isolation: isolate"/>
        <path id="Path_572" data-name="Path 572" d="M325.851,1941.093c4.263,6.7.806,14.34-7.438,19.05-7.524,4.3-18.164,3.23-21.785-.313-3.938-3.855-3.428-10.309,1.686-16.448,5.2-6.242,16.938-8.655,22.618-6.244A10.577,10.577,0,0,1,325.851,1941.093Z" fill="#ccc" opacity="0.415" style="mix-blend-mode: multiply;isolation: isolate"/>
        <path id="Path_573" data-name="Path 573" d="M325.858,1941.216c4.091,6.605.618,14.128-7.535,18.727-7.505,4.233-18.009,3.118-21.565-.484-3.854-3.9-3.188-10.331,2-16.332,5.242-6.062,16.742-8.341,22.309-5.888A10.341,10.341,0,0,1,325.858,1941.216Z" fill="#c9c9c9" opacity="0.439" style="mix-blend-mode: multiply;isolation: isolate"/>
        <path id="Path_574" data-name="Path 574" d="M325.865,1941.339c3.919,6.51.43,13.916-7.633,18.4-7.485,4.166-17.853,3.007-21.344-.654-3.77-3.954-2.948-10.354,2.319-16.218,5.282-5.881,16.544-8.025,22-5.532A10.123,10.123,0,0,1,325.865,1941.339Z" fill="#c6c6c6" opacity="0.463" style="mix-blend-mode: multiply;isolation: isolate"/>
        <path id="Path_575" data-name="Path 575" d="M325.872,1941.462c3.747,6.415.242,13.7-7.73,18.08-7.467,4.1-17.7,2.9-21.124-.824-3.687-4-2.709-10.376,2.635-16.1,5.321-5.7,16.348-7.71,21.691-5.176A9.9,9.9,0,0,1,325.872,1941.462Z" fill="#c3c3c3" opacity="0.488" style="mix-blend-mode: multiply;isolation: isolate"/>
        <path id="Path_576" data-name="Path 576" d="M325.879,1941.585c3.576,6.32.053,13.491-7.828,17.757-7.447,4.031-17.543,2.785-20.9-.994-3.6-4.051-2.47-10.4,2.952-15.987,5.36-5.523,16.152-7.4,21.382-4.821A9.682,9.682,0,0,1,325.879,1941.585Z" fill="#c1c1c1" opacity="0.512" style="mix-blend-mode: multiply;isolation: isolate"/>
        <path id="Path_577" data-name="Path 577" d="M325.886,1941.708c3.4,6.225-.135,13.277-7.925,17.434-7.429,3.963-17.388,2.674-20.684-1.165-3.519-4.1-2.233-10.424,3.268-15.872,5.4-5.345,15.955-7.08,21.073-4.464A9.469,9.469,0,0,1,325.886,1941.708Z" fill="#bebebe" opacity="0.537" style="mix-blend-mode: multiply;isolation: isolate"/>
        <path id="Path_578" data-name="Path 578" d="M325.893,1941.831c3.232,6.13-.324,13.064-8.023,17.11-7.41,3.9-17.233,2.564-20.463-1.335-3.436-4.147-2-10.449,3.585-15.756,5.434-5.168,15.758-6.765,20.763-4.109A9.268,9.268,0,0,1,325.893,1941.831Z" fill="#bbb" opacity="0.561" style="mix-blend-mode: multiply;isolation: isolate"/>
        <path id="Path_579" data-name="Path 579" d="M325.9,1941.954c3.06,6.035-.514,12.849-8.12,16.787-7.392,3.827-17.08,2.453-20.244-1.505-3.353-4.195-1.761-10.475,3.9-15.641,5.47-4.991,15.562-6.451,20.455-3.753A9.066,9.066,0,0,1,325.9,1941.954Z" fill="#b8b8b8" opacity="0.585" style="mix-blend-mode: multiply;isolation: isolate"/>
        <path id="Path_580" data-name="Path 580" d="M325.907,1942.077c2.888,5.94-.7,12.635-8.218,16.464-7.374,3.758-16.925,2.343-20.023-1.676-3.27-4.243-1.526-10.5,4.218-15.526,5.506-4.815,15.365-6.135,20.146-3.4A8.871,8.871,0,0,1,325.907,1942.077Z" fill="#b5b5b5" opacity="0.61" style="mix-blend-mode: multiply;isolation: isolate"/>
        <path id="Path_581" data-name="Path 581" d="M325.915,1942.2c2.715,5.845-.894,12.42-8.316,16.141-7.356,3.688-16.772,2.232-19.8-1.846-3.188-4.291-1.292-10.53,4.534-15.411,5.54-4.641,15.169-5.82,19.837-3.041A8.692,8.692,0,0,1,325.915,1942.2Z" fill="#b2b2b2" opacity="0.634" style="mix-blend-mode: multiply;isolation: isolate"/>
        <path id="Path_582" data-name="Path 582" d="M325.922,1942.323c2.543,5.75-1.084,12.2-8.413,15.817s-16.619,2.123-19.583-2.016c-3.107-4.338-1.06-10.558,4.851-15.3,5.573-4.467,14.971-5.505,19.527-2.685A8.515,8.515,0,0,1,325.922,1942.323Z" fill="#afafaf" opacity="0.659" style="mix-blend-mode: multiply;isolation: isolate"/>
        <path id="Path_583" data-name="Path 583" d="M325.929,1942.446c2.371,5.655-1.274,11.988-8.511,15.494-7.321,3.547-16.465,2.013-19.363-2.187-3.024-4.384-.826-10.588,5.168-15.18,5.606-4.294,14.775-5.19,19.219-2.329A8.345,8.345,0,0,1,325.929,1942.446Z" fill="#acacac" opacity="0.683" style="mix-blend-mode: multiply;isolation: isolate"/>
        <path id="Path_584" data-name="Path 584" d="M325.936,1942.569c2.2,5.56-1.464,11.771-8.608,15.171-7.3,3.476-16.313,1.9-19.143-2.357-2.943-4.432-.6-10.62,5.484-15.065,5.639-4.123,14.579-4.875,18.91-1.973A8.173,8.173,0,0,1,325.936,1942.569Z" fill="#a9a9a9" opacity="0.707" style="mix-blend-mode: multiply;isolation: isolate"/>
        <path id="Path_585" data-name="Path 585" d="M325.943,1942.692c2.028,5.465-1.655,11.554-8.706,14.848-7.288,3.4-16.16,1.794-18.922-2.528-2.863-4.479-.364-10.652,5.8-14.949,5.671-3.953,14.382-4.56,18.6-1.618A8.016,8.016,0,0,1,325.943,1942.692Z" fill="#a6a6a6" opacity="0.732" style="mix-blend-mode: multiply;isolation: isolate"/>
        <path id="Path_586" data-name="Path 586" d="M325.95,1942.816c1.856,5.369-1.846,11.335-8.8,14.523-7.271,3.332-16.009,1.685-18.7-2.7-2.781-4.526-.133-10.687,6.118-14.835,5.7-3.783,14.185-4.245,18.291-1.261A7.868,7.868,0,0,1,325.95,1942.816Z" fill="#a3a3a3" opacity="0.756" style="mix-blend-mode: multiply;isolation: isolate"/>
        <path id="Path_587" data-name="Path 587" d="M325.957,1942.939c1.684,5.274-2.037,11.117-8.9,14.2-7.255,3.259-15.856,1.575-18.482-2.868-2.7-4.572.1-10.722,6.434-14.719,5.733-3.616,13.989-3.93,17.983-.906A7.728,7.728,0,0,1,325.957,1942.939Z" fill="#a0a0a0" opacity="0.78" style="mix-blend-mode: multiply;isolation: isolate"/>
        <path id="Path_588" data-name="Path 588" d="M325.964,1943.062c1.512,5.179-2.228,10.9-9,13.877-7.239,3.185-15.705,1.466-18.262-3.039-2.622-4.619.326-10.759,6.75-14.6,5.764-3.45,13.792-3.615,17.674-.55A7.591,7.591,0,0,1,325.964,1943.062Z" fill="#9d9d9d" opacity="0.805" style="mix-blend-mode: multiply;isolation: isolate"/>
        <path id="Path_589" data-name="Path 589" d="M325.971,1943.185c1.34,5.084-2.42,10.679-9.1,13.554-7.223,3.11-15.554,1.357-18.041-3.209-2.542-4.666.555-10.8,7.066-14.489,5.8-3.284,13.6-3.3,17.365-.193A7.461,7.461,0,0,1,325.971,1943.185Z" fill="#9a9a9a" opacity="0.829" style="mix-blend-mode: multiply;isolation: isolate"/>
        <path id="Path_590" data-name="Path 590" d="M325.978,1943.308c1.168,4.989-2.611,10.459-9.193,13.23-7.208,3.035-15.4,1.248-17.822-3.379-2.462-4.712.785-10.839,7.384-14.373,5.825-3.12,13.4-2.985,17.055.162A7.349,7.349,0,0,1,325.978,1943.308Z" fill="#979797" opacity="0.854" style="mix-blend-mode: multiply;isolation: isolate"/>
        <path id="Path_591" data-name="Path 591" d="M325.985,1943.431c1,4.894-2.8,10.238-9.29,12.907-7.193,2.959-15.254,1.139-17.6-3.549-2.384-4.76,1.014-10.881,7.7-14.258,5.856-2.958,13.2-2.67,16.747.518A7.232,7.232,0,0,1,325.985,1943.431Z" fill="#949494" opacity="0.878" style="mix-blend-mode: multiply;isolation: isolate"/>
        <path id="Path_592" data-name="Path 592" d="M325.992,1943.554c.824,4.8-2.995,10.017-9.388,12.584-7.177,2.882-15.1,1.029-17.381-3.72-2.3-4.806,1.243-10.925,8.016-14.143,5.887-2.8,13.006-2.355,16.438.874A7.132,7.132,0,0,1,325.992,1943.554Z" fill="#919191" opacity="0.902" style="mix-blend-mode: multiply;isolation: isolate"/>
        <path id="Path_593" data-name="Path 593" d="M326,1943.677c.653,4.7-3.187,9.8-9.485,12.261-7.163,2.8-14.954.92-17.162-3.891-2.226-4.852,1.473-10.97,8.333-14.027,5.919-2.637,12.809-2.04,16.129,1.23A7.037,7.037,0,0,1,326,1943.677Z" fill="#8e8e8e" opacity="0.927" style="mix-blend-mode: multiply;isolation: isolate"/>
        <path id="Path_594" data-name="Path 594" d="M326.006,1943.8c.481,4.609-3.379,9.572-9.583,11.937-7.147,2.725-14.8.811-16.941-4.06-2.149-4.9,1.7-11.018,8.65-13.912,5.95-2.479,12.612-1.725,15.82,1.585A6.956,6.956,0,0,1,326.006,1943.8Z" fill="#8b8b8b" opacity="0.951" style="mix-blend-mode: multiply;isolation: isolate"/>
        <path id="Path_595" data-name="Path 595" d="M326.014,1943.923c.308,4.514-3.575,9.339-9.681,11.614-7.138,2.634-14.662.7-16.721-4.231-2.077-4.944,1.932-11.067,8.966-13.8,5.982-2.321,12.416-1.409,15.511,1.942A6.886,6.886,0,0,1,326.014,1943.923Z" fill="#888" opacity="0.976" style="mix-blend-mode: multiply;isolation: isolate"/>
        <path id="Path_596" data-name="Path 596" d="M326.021,1944.046c.136,4.419-3.764,9.125-9.779,11.291-7.118,2.564-14.507.592-16.5-4.4s2.162-11.119,9.282-13.682c6.015-2.166,12.219-1.095,15.2,2.3A6.821,6.821,0,0,1,326.021,1944.046Z" fill="#858585" style="mix-blend-mode: multiply;isolation: isolate"/>
      </g>
      <path id="Path_597" data-name="Path 597" d="M315.36,1956.382c-8.862,2.846-17.571.485-19.416-5.26s3.859-12.738,12.721-15.584,17.567-.484,19.413,5.264S324.218,1953.537,315.36,1956.382Z" fill="url(#linear-gradient-5)"/>
      <path id="Path_598" data-name="Path 598" d="M327.38,1941.026c1.723,5.368-3.76,11.93-12.246,14.655s-16.768.584-18.491-4.783,3.758-11.933,12.247-14.659S325.655,1935.655,327.38,1941.026Z" fill="url(#linear-gradient-6)"/>
    </g>
    <g id="Group_72" data-name="Group 72" transform="translate(80.354 101.859)">
      <g id="Group_71" data-name="Group 71" style="mix-blend-mode: multiply;isolation: isolate">
        <path id="Path_599" data-name="Path 599" d="M362.425,1963.749c3.22,3.727.233,9.941-4.128,12.923-3.534,2.417-10.649,2.958-12.753,1.8-2.417-1.33-3.254-5.847-1.487-9.637,1.954-4.183,11.773-7.453,15.173-6.685A6.8,6.8,0,0,1,362.425,1963.749Z" fill="#fff" opacity="0"/>
        <path id="Path_600" data-name="Path 600" d="M362.428,1963.8c3.143,3.685.187,9.8-4.134,12.732-3.525,2.385-10.547,2.892-12.623,1.7-2.379-1.352-3.151-5.825-1.348-9.551,1.972-4.1,11.619-7.284,14.969-6.5A6.653,6.653,0,0,1,362.428,1963.8Z" fill="#fcfcfc" opacity="0.024" style="mix-blend-mode: multiply;isolation: isolate"/>
        <path id="Path_601" data-name="Path 601" d="M362.431,1963.859c3.066,3.642.14,9.656-4.14,12.54-3.517,2.355-10.443,2.822-12.492,1.614-2.339-1.38-3.037-5.8-1.211-9.466,2-4.021,11.465-7.114,14.765-6.308A6.526,6.526,0,0,1,362.431,1963.859Z" fill="#f9f9f9" opacity="0.049" style="mix-blend-mode: multiply;isolation: isolate"/>
        <path id="Path_602" data-name="Path 602" d="M362.434,1963.914c2.989,3.6.1,9.522-4.146,12.348-3.5,2.332-10.341,2.754-12.361,1.522-2.3-1.4-2.929-5.775-1.074-9.381,2.027-3.938,11.312-6.943,14.562-6.119A6.388,6.388,0,0,1,362.434,1963.914Z" fill="#f6f6f6" opacity="0.073" style="mix-blend-mode: multiply;isolation: isolate"/>
        <path id="Path_603" data-name="Path 603" d="M362.437,1963.969c2.912,3.557.055,9.383-4.152,12.156-3.494,2.3-10.239,2.687-12.23,1.43-2.262-1.427-2.821-5.75-.936-9.3,2.05-3.856,11.158-6.773,14.357-5.931A6.268,6.268,0,0,1,362.437,1963.969Z" fill="#f3f3f3" opacity="0.098" style="mix-blend-mode: multiply;isolation: isolate"/>
        <path id="Path_604" data-name="Path 604" d="M362.44,1964.024c2.835,3.515.01,9.243-4.158,11.965-3.484,2.274-10.136,2.619-12.1,1.338-2.223-1.452-2.712-5.726-.8-9.21,2.074-3.775,11.005-6.6,14.153-5.743A6.133,6.133,0,0,1,362.44,1964.024Z" fill="#f0f0f0" opacity="0.122" style="mix-blend-mode: multiply;isolation: isolate"/>
        <path id="Path_605" data-name="Path 605" d="M362.444,1964.08c2.757,3.471-.036,9.1-4.165,11.772-3.474,2.246-10.034,2.553-11.969,1.246-2.185-1.475-2.6-5.7-.66-9.124,2.1-3.693,10.851-6.434,13.949-5.555A6.013,6.013,0,0,1,362.444,1964.08Z" fill="#ededed" opacity="0.146" style="mix-blend-mode: multiply;isolation: isolate"/>
        <path id="Path_606" data-name="Path 606" d="M362.447,1964.135c2.681,3.429-.081,8.962-4.171,11.58-3.464,2.218-9.931,2.486-11.838,1.154-2.146-1.5-2.5-5.677-.523-9.038,2.121-3.611,10.7-6.264,13.745-5.367A5.891,5.891,0,0,1,362.447,1964.135Z" fill="#eaeaea" opacity="0.171" style="mix-blend-mode: multiply;isolation: isolate"/>
        <path id="Path_607" data-name="Path 607" d="M362.45,1964.19c2.6,3.386-.126,8.822-4.177,11.389-3.454,2.188-9.829,2.418-11.707,1.062-2.108-1.522-2.389-5.653-.385-8.953,2.143-3.529,10.543-6.094,13.541-5.179A5.766,5.766,0,0,1,362.45,1964.19Z" fill="#e7e7e7" opacity="0.195" style="mix-blend-mode: multiply;isolation: isolate"/>
        <path id="Path_608" data-name="Path 608" d="M362.453,1964.245c2.527,3.344-.172,8.682-4.183,11.2-3.445,2.16-9.727,2.352-11.577.97-2.069-1.545-2.282-5.628-.247-8.867,2.165-3.448,10.39-5.925,13.337-4.991A5.648,5.648,0,0,1,362.453,1964.245Z" fill="#e4e4e4" opacity="0.22" style="mix-blend-mode: multiply;isolation: isolate"/>
        <path id="Path_609" data-name="Path 609" d="M362.456,1964.3c2.45,3.3-.217,8.541-4.189,11.005-3.435,2.131-9.624,2.285-11.446.878-2.031-1.568-2.175-5.6-.109-8.781,2.187-3.366,10.236-5.755,13.133-4.8A5.521,5.521,0,0,1,362.456,1964.3Z" fill="#e1e1e1" opacity="0.244" style="mix-blend-mode: multiply;isolation: isolate"/>
        <path id="Path_610" data-name="Path 610" d="M362.46,1964.355c2.372,3.259-.264,8.4-4.2,10.813-3.426,2.1-9.522,2.219-11.315.787-1.993-1.592-2.069-5.579.028-8.7,2.209-3.284,10.083-5.585,12.929-4.615A5.416,5.416,0,0,1,362.46,1964.355Z" fill="#dedede" opacity="0.268" style="mix-blend-mode: multiply;isolation: isolate"/>
        <path id="Path_611" data-name="Path 611" d="M362.463,1964.41c2.295,3.216-.31,8.26-4.2,10.622-3.417,2.073-9.42,2.152-11.184.694-1.955-1.614-1.963-5.554.165-8.61,2.23-3.2,9.93-5.415,12.726-4.426A5.287,5.287,0,0,1,362.463,1964.41Z" fill="#dbdbdb" opacity="0.293" style="mix-blend-mode: multiply;isolation: isolate"/>
        <path id="Path_612" data-name="Path 612" d="M362.466,1964.465c2.218,3.174-.355,8.119-4.208,10.43-3.407,2.044-9.317,2.086-11.054.6-1.916-1.638-1.857-5.53.3-8.526,2.25-3.12,9.775-5.245,12.521-4.237A5.175,5.175,0,0,1,362.466,1964.465Z" fill="#d8d8d8" opacity="0.317" style="mix-blend-mode: multiply;isolation: isolate"/>
        <path id="Path_613" data-name="Path 613" d="M362.469,1964.52c2.141,3.131-.4,7.978-4.214,10.238-3.4,2.015-9.215,2.02-10.923.511-1.878-1.66-1.751-5.505.441-8.44,2.271-3.038,9.622-5.075,12.318-4.049A5.064,5.064,0,0,1,362.469,1964.52Z" fill="#d5d5d5" opacity="0.341" style="mix-blend-mode: multiply;isolation: isolate"/>
        <path id="Path_614" data-name="Path 614" d="M362.472,1964.575c2.064,3.089-.447,7.837-4.22,10.047-3.389,1.985-9.113,1.954-10.792.418-1.84-1.682-1.647-5.48.579-8.354,2.29-2.957,9.468-4.905,12.113-3.861A4.953,4.953,0,0,1,362.472,1964.575Z" fill="#d2d2d2" opacity="0.366" style="mix-blend-mode: multiply;isolation: isolate"/>
        <path id="Path_615" data-name="Path 615" d="M362.475,1964.631c1.988,3.045-.494,7.694-4.226,9.854-3.38,1.955-9.011,1.888-10.661.327-1.8-1.7-1.542-5.457.716-8.269,2.31-2.876,9.315-4.735,11.91-3.673A4.844,4.844,0,0,1,362.475,1964.631Z" fill="#cfcfcf" opacity="0.39" style="mix-blend-mode: multiply;isolation: isolate"/>
        <path id="Path_616" data-name="Path 616" d="M362.479,1964.686c1.91,3-.541,7.553-4.233,9.662-3.371,1.926-8.909,1.822-10.531.235-1.763-1.727-1.437-5.432.855-8.183,2.329-2.8,9.161-4.566,11.7-3.485A4.738,4.738,0,0,1,362.479,1964.686Z" fill="#ccc" opacity="0.415" style="mix-blend-mode: multiply;isolation: isolate"/>
        <path id="Path_617" data-name="Path 617" d="M362.482,1964.741c1.833,2.961-.587,7.411-4.239,9.47-3.363,1.9-8.807,1.757-10.4.143-1.726-1.748-1.334-5.408.992-8.1,2.348-2.714,9.008-4.4,11.5-3.3A4.636,4.636,0,0,1,362.482,1964.741Z" fill="#c9c9c9" opacity="0.439" style="mix-blend-mode: multiply;isolation: isolate"/>
        <path id="Path_618" data-name="Path 618" d="M362.485,1964.8c1.756,2.918-.634,7.269-4.245,9.279-3.354,1.866-8.706,1.691-10.269.051-1.688-1.771-1.231-5.385,1.13-8.012s8.853-4.226,11.3-3.109A4.54,4.54,0,0,1,362.485,1964.8Z" fill="#c6c6c6" opacity="0.463" style="mix-blend-mode: multiply;isolation: isolate"/>
        <path id="Path_619" data-name="Path 619" d="M362.488,1964.851c1.679,2.876-.68,7.127-4.251,9.087-3.345,1.836-8.6,1.626-10.138-.041-1.651-1.792-1.128-5.361,1.267-7.926s8.7-4.056,11.094-2.921A4.434,4.434,0,0,1,362.488,1964.851Z" fill="#c3c3c3" opacity="0.488" style="mix-blend-mode: multiply;isolation: isolate"/>
        <path id="Path_620" data-name="Path 620" d="M362.491,1964.906c1.6,2.833-.727,6.985-4.257,8.9-3.337,1.806-8.5,1.561-10.008-.133-1.613-1.814-1.025-5.337,1.406-7.84,2.4-2.473,8.546-3.887,10.889-2.733A4.339,4.339,0,0,1,362.491,1964.906Z" fill="#c1c1c1" opacity="0.512" style="mix-blend-mode: multiply;isolation: isolate"/>
        <path id="Path_621" data-name="Path 621" d="M362.494,1964.961c1.525,2.791-.774,6.842-4.263,8.7-3.328,1.775-8.4,1.495-9.877-.225-1.576-1.836-.923-5.315,1.543-7.755,2.418-2.394,8.393-3.717,10.686-2.545A4.24,4.24,0,0,1,362.494,1964.961Z" fill="#bebebe" opacity="0.537" style="mix-blend-mode: multiply;isolation: isolate"/>
        <path id="Path_622" data-name="Path 622" d="M362.5,1965.016c1.447,2.748-.822,6.7-4.27,8.512-3.32,1.745-8.3,1.43-9.746-.317-1.539-1.857-.821-5.292,1.68-7.67,2.435-2.313,8.24-3.546,10.482-2.356A4.159,4.159,0,0,1,362.5,1965.016Z" fill="#bbb" opacity="0.561" style="mix-blend-mode: multiply;isolation: isolate"/>
        <path id="Path_623" data-name="Path 623" d="M362.5,1965.071c1.37,2.706-.869,6.557-4.276,8.32-3.312,1.714-8.2,1.365-9.615-.408-1.5-1.879-.72-5.27,1.818-7.585,2.45-2.234,8.086-3.376,10.278-2.167A4.061,4.061,0,0,1,362.5,1965.071Z" fill="#b8b8b8" opacity="0.585" style="mix-blend-mode: multiply;isolation: isolate"/>
        <path id="Path_624" data-name="Path 624" d="M362.5,1965.126c1.293,2.663-.916,6.414-4.282,8.128-3.3,1.683-8.1,1.3-9.485-.5-1.464-1.9-.618-5.248,1.956-7.5,2.466-2.156,7.932-3.207,10.074-1.979A3.975,3.975,0,0,1,362.5,1965.126Z" fill="#b5b5b5" opacity="0.61" style="mix-blend-mode: multiply;isolation: isolate"/>
        <path id="Path_625" data-name="Path 625" d="M362.507,1965.182c1.217,2.62-.964,6.269-4.288,7.936-3.3,1.651-8,1.235-9.354-.593-1.427-1.921-.518-5.226,2.094-7.413,2.481-2.078,7.778-3.037,9.87-1.791A3.892,3.892,0,0,1,362.507,1965.182Z" fill="#b2b2b2" opacity="0.634" style="mix-blend-mode: multiply;isolation: isolate"/>
        <path id="Path_626" data-name="Path 626" d="M362.51,1965.237c1.14,2.577-1.011,6.126-4.294,7.744s-7.895,1.17-9.223-.684c-1.391-1.943-.417-5.206,2.231-7.328,2.5-2,7.625-2.867,9.666-1.6A3.812,3.812,0,0,1,362.51,1965.237Z" fill="#afafaf" opacity="0.659" style="mix-blend-mode: multiply;isolation: isolate"/>
        <path id="Path_627" data-name="Path 627" d="M362.514,1965.292c1.062,2.535-1.06,5.982-4.3,7.552-3.281,1.589-7.8,1.106-9.092-.776-1.355-1.963-.318-5.185,2.369-7.242,2.511-1.923,7.471-2.7,9.462-1.415A3.74,3.74,0,0,1,362.514,1965.292Z" fill="#acacac" opacity="0.683" style="mix-blend-mode: multiply;isolation: isolate"/>
        <path id="Path_628" data-name="Path 628" d="M362.517,1965.347c.985,2.492-1.107,5.838-4.307,7.36-3.273,1.557-7.694,1.041-8.962-.868-1.317-1.984-.217-5.165,2.507-7.156,2.526-1.846,7.318-2.528,9.258-1.227A3.662,3.662,0,0,1,362.517,1965.347Z" fill="#a9a9a9" opacity="0.707" style="mix-blend-mode: multiply;isolation: isolate"/>
        <path id="Path_629" data-name="Path 629" d="M362.52,1965.4c.908,2.45-1.155,5.694-4.313,7.169-3.265,1.524-7.594.976-8.831-.96-1.281-2.006-.118-5.146,2.645-7.071,2.54-1.77,7.164-2.358,9.054-1.039A3.6,3.6,0,0,1,362.52,1965.4Z" fill="#a6a6a6" opacity="0.732" style="mix-blend-mode: multiply;isolation: isolate"/>
        <path id="Path_630" data-name="Path 630" d="M362.523,1965.457c.831,2.407-1.2,5.55-4.319,6.977-3.258,1.492-7.493.912-8.7-1.052-1.246-2.026-.019-5.127,2.782-6.985,2.554-1.694,7.01-2.188,8.85-.851A3.525,3.525,0,0,1,362.523,1965.457Z" fill="#a3a3a3" opacity="0.756" style="mix-blend-mode: multiply;isolation: isolate"/>
        <path id="Path_631" data-name="Path 631" d="M362.526,1965.512c.754,2.365-1.251,5.405-4.325,6.785-3.251,1.46-7.393.847-8.569-1.143-1.21-2.048.08-5.11,2.919-6.9,2.569-1.619,6.857-2.018,8.647-.663A3.462,3.462,0,0,1,362.526,1965.512Z" fill="#a0a0a0" opacity="0.78" style="mix-blend-mode: multiply;isolation: isolate"/>
        <path id="Path_632" data-name="Path 632" d="M362.529,1965.567c.677,2.322-1.3,5.26-4.331,6.594-3.244,1.426-7.293.782-8.439-1.236-1.173-2.069.179-5.093,3.058-6.815,2.582-1.544,6.7-1.848,8.442-.474A3.4,3.4,0,0,1,362.529,1965.567Z" fill="#9d9d9d" opacity="0.805" style="mix-blend-mode: multiply;isolation: isolate"/>
        <path id="Path_633" data-name="Path 633" d="M362.533,1965.622c.6,2.28-1.348,5.115-4.338,6.4-3.236,1.393-7.194.718-8.308-1.328-1.138-2.089.278-5.076,3.2-6.729,2.6-1.47,6.55-1.678,8.239-.286A3.35,3.35,0,0,1,362.533,1965.622Z" fill="#9a9a9a" opacity="0.829" style="mix-blend-mode: multiply;isolation: isolate"/>
        <path id="Path_634" data-name="Path 634" d="M362.536,1965.677c.523,2.237-1.4,4.969-4.344,6.21-3.229,1.359-7.094.654-8.177-1.419-1.1-2.111.376-5.061,3.333-6.644,2.609-1.4,6.4-1.508,8.034-.1A3.3,3.3,0,0,1,362.536,1965.677Z" fill="#979797" opacity="0.854" style="mix-blend-mode: multiply;isolation: isolate"/>
        <path id="Path_635" data-name="Path 635" d="M362.539,1965.733c.446,2.194-1.444,4.822-4.35,6.017-3.223,1.325-6.995.589-8.046-1.511-1.067-2.131.474-5.045,3.47-6.558,2.624-1.324,6.243-1.338,7.831.091A3.24,3.24,0,0,1,362.539,1965.733Z" fill="#949494" opacity="0.878" style="mix-blend-mode: multiply;isolation: isolate"/>
        <path id="Path_636" data-name="Path 636" d="M362.542,1965.788c.369,2.151-1.492,4.676-4.356,5.826-3.216,1.29-6.9.524-7.916-1.6-1.031-2.152.573-5.031,3.609-6.472,2.637-1.252,6.088-1.169,7.626.279A3.194,3.194,0,0,1,362.542,1965.788Z" fill="#919191" opacity="0.902" style="mix-blend-mode: multiply;isolation: isolate"/>
        <path id="Path_637" data-name="Path 637" d="M362.545,1965.843c.292,2.109-1.541,4.53-4.362,5.634-3.209,1.255-6.8.46-7.785-1.7-1-2.173.672-5.018,3.746-6.387,2.651-1.181,5.935-1,7.423.467A3.158,3.158,0,0,1,362.545,1965.843Z" fill="#8e8e8e" opacity="0.927" style="mix-blend-mode: multiply;isolation: isolate"/>
        <path id="Path_638" data-name="Path 638" d="M362.549,1965.9c.214,2.066-1.59,4.383-4.369,5.442-3.2,1.22-6.7.4-7.654-1.787s.77-5.005,3.884-6.3c2.665-1.11,5.781-.829,7.218.655A3.12,3.12,0,0,1,362.549,1965.9Z" fill="#8b8b8b" opacity="0.951" style="mix-blend-mode: multiply;isolation: isolate"/>
        <path id="Path_639" data-name="Path 639" d="M362.552,1965.953c.137,2.024-1.64,4.233-4.375,5.251-3.2,1.18-6.6.331-7.523-1.88s.869-4.993,4.021-6.215c2.68-1.039,5.628-.659,7.015.843A3.087,3.087,0,0,1,362.552,1965.953Z" fill="#888" opacity="0.976" style="mix-blend-mode: multiply;isolation: isolate"/>
        <path id="Path_640" data-name="Path 640" d="M362.555,1966.008c.06,1.981-1.686,4.09-4.381,5.059-3.189,1.149-6.5.266-7.393-1.971s.969-4.982,4.159-6.13c2.7-.969,5.475-.49,6.811,1.031A3.053,3.053,0,0,1,362.555,1966.008Z" fill="#858585" style="mix-blend-mode: multiply;isolation: isolate"/>
      </g>
      <path id="Path_641" data-name="Path 641" d="M357.611,1971.572c-4.249,1.365-8.289.215-9.2-2.617s1.706-6.121,5.954-7.485,8.289-.214,9.2,2.618S361.86,1970.207,357.611,1971.572Z" fill="url(#linear-gradient-7)"/>
      <path id="Path_642" data-name="Path 642" d="M362.864,1964.313c.772,2.4-1.68,5.338-5.479,6.558s-7.5.262-8.273-2.141,1.683-5.339,5.479-6.559S362.092,1961.91,362.864,1964.313Z" fill="url(#linear-gradient-8)"/>
    </g>
    <g id="Group_103" data-name="Group 103" transform="translate(80.354 101.859)">
      <path id="Path_1363" data-name="Path 1363" d="M154.954,1855.633c0,1,0,3.719-2.32,4.6-1.239.44-3.959.44-6,.44a15.587,15.587,0,0,1-4.119-.28,2.577,2.577,0,0,1-1.48-2.44c0-2.519,2.24-2.519,3.04-2.519.2,0,2.84.08,3.359.08,1.16,0,2.12,0,2.12-1.56v-9.438h-13.8a2.188,2.188,0,0,1-2.519-2.32c0-1.84.8-2.6,2.519-2.6h13.8v-4.159c0-2,1.4-2.08,2.48-2.04a28.867,28.867,0,0,0,5.159-2.479c.479-.28,1.68-.96,1.68-1.28s-.4-.32-.681-.32H138.557a2.192,2.192,0,0,1-2.52-2.279c0-1.84.84-2.56,2.52-2.56h24.635c1.161,0,4.4,0,4.4,3.2,0,1.8-1,2.88-3.4,4.44a63.206,63.206,0,0,1-9.238,5.119v2.359h13.757a2.175,2.175,0,0,1,2.52,2.32c0,1.84-.76,2.6-2.52,2.6H154.954Z" fill="#009342" stroke="#fff" stroke-linecap="round" stroke-linejoin="round" stroke-width="4"/>
      <path id="Path_1364" data-name="Path 1364" d="M190.555,1832.717c.12.6.52,2.6.8,3.6.641-.24,8.639-2.96,10.6-2.96a2.79,2.79,0,0,1,2.639,2.96,2.065,2.065,0,0,1-1.4,2.08c-.359.12-6.478,1.719-7.718,2.079-11.4,3.4-13.278,6.159-13.278,8.719,0,4.159,8.279,4.159,10.638,4.159a75.317,75.317,0,0,0,8.679-.56c2.959-.4,3.36-.44,3.6-.44a2.374,2.374,0,0,1,2.48,2.68,2.59,2.59,0,0,1-2.08,2.679c-1.959.52-8.279.84-11.758.84-5.279,0-17.157-.16-17.157-9.158,0-6.479,6.119-9.4,9.6-11.039-.2-.8-.679-2.639-1.039-4.4l-1.2-5.919a9.717,9.717,0,0,1-.16-1.439c0-1.88,1.76-2.4,3.12-2.4,2.039,0,2.359,1.2,2.6,2.639Zm14.4-2.24a1.835,1.835,0,0,1-1.919,1.76c-1.12,0-1.32-.6-1.76-1.84a26.746,26.746,0,0,0-2.12-4.4,2.184,2.184,0,0,1-.36-1.12,1.831,1.831,0,0,1,1.92-1.68,1.28,1.28,0,0,1,.6.08C202.513,1823.758,204.952,1829.637,204.952,1830.477Zm6.359-.76a1.883,1.883,0,0,1-1.879,1.76c-1.16,0-1.4-.68-1.8-1.92a20.114,20.114,0,0,0-2.04-4.439,2.033,2.033,0,0,1-.36-1.08,1.86,1.86,0,0,1,1.92-1.68,1.56,1.56,0,0,1,.64.08C208.952,1822.958,211.311,1828.8,211.311,1829.717Z" fill="#009342" stroke="#fff" stroke-linecap="round" stroke-linejoin="round" stroke-width="4"/>
      <path id="Path_1365" data-name="Path 1365" d="M228.635,1840.435c1.12-.04,6.079-.24,7.079-.24a2.346,2.346,0,0,1,2.519,2.52c.04,2.4-1.759,2.519-3.719,2.639-1.72.08-6.639.08-6.919.08a18.7,18.7,0,0,0-.32,3.36c0,2.2.72,5.479,7.6,5.479,2.359,0,8.358-.36,8.358-6.079a10.308,10.308,0,0,0-.759-3.719c-.44-1.2-.52-1.32-.52-1.72,0-1.44,1.56-2.16,2.679-2.16a2.49,2.49,0,0,1,2.4,1.56,15.442,15.442,0,0,1,1.4,6.4c0,5.879-3.52,10.638-13.478,10.638-7.879,0-12.678-3.439-12.678-10.358a22.3,22.3,0,0,1,.28-3.52c-6.079-.24-7.239-.919-7.239-2.959,0-.16,0-2.64,2.4-2.64.4,0,2.28.32,2.679.36,1.44.16,2.36.2,3.12.24l.88-4.4c-5.839-.32-7.4-.64-7.4-2.88a2.385,2.385,0,0,1,2.4-2.6c.48,0,2.52.32,2.92.36,1.52.16,2.16.2,3.08.28l.959-4.72c.161-.839.48-2.279,2.36-2.279.2,0,2.92,0,2.92,2.12,0,.04-.04.439-.12.879l-.88,4.12c1-.04,5.359-.2,6.279-.2a2.189,2.189,0,0,1,2.359,2.44c0,2.6-1.359,2.719-9.678,2.639Z" fill="#009342" stroke="#fff" stroke-linecap="round" stroke-linejoin="round" stroke-width="4"/>
      <path id="Path_1366" data-name="Path 1366" d="M264.614,1852.48c-.672,1.68-2.016,4.788-4.676,4.788-2.52,0-5.824-3.64-5.824-9.184,0-6.748,5.04-12.264,12.74-12.264,7.56,0,11.508,5.376,11.508,11.06,0,8.484-7.784,11.676-9.016,11.676a1.568,1.568,0,0,1-1.54-1.624c0-.728.224-.9,1.736-1.652,2.912-1.428,5.628-3.863,5.628-8.427,0-1.177-.112-7.309-7.337-8.205A57.316,57.316,0,0,1,264.614,1852.48Zm-7.532-4.256c0,3.164,1.512,5.824,2.744,5.824,1.092,0,1.96-2.38,2.576-4.228a54.532,54.532,0,0,0,2.408-11.031A9.317,9.317,0,0,0,257.082,1848.224Z" fill="#333" stroke="#fff" stroke-linecap="round" stroke-linejoin="round" stroke-width="4"/>
      <path id="Path_1367" data-name="Path 1367" d="M156.986,1898.284a1.416,1.416,0,1,1-2.828,0v-12.347c-.672.923-1.092,1.456-1.792,1.456a1.765,1.765,0,0,1-1.6-1.765,2.576,2.576,0,0,1,.728-1.567,26.886,26.886,0,0,0,4.368-8.316c.084-.253.392-1.456.5-1.681a1.174,1.174,0,0,1,1.148-.644c.14,0,1.568,0,1.568,1.26a24.8,24.8,0,0,1-2.1,6.216Zm2.828-9.632a1.254,1.254,0,0,1-1.456-1.316c0-1.26.952-1.344,1.456-1.344h6.636v-2.52h-3.136c-2.128,0-3.136-.7-3.136-3.107V1877.4c0-2.436,1.036-3.136,3.136-3.136h9.128c2.1,0,3.136.7,3.136,3.136v2.969c0,2.407-1.008,3.107-3.136,3.107H169.25v2.52h6.524a1.251,1.251,0,0,1,1.455,1.344c0,1.26-.951,1.316-1.455,1.316h-5.628a23.8,23.8,0,0,0,4.816,5.432c2.24,1.736,2.24,1.736,2.24,2.3a1.715,1.715,0,0,1-1.54,1.624c-.532,0-1.2-.448-2.772-2.072a28.785,28.785,0,0,1-3.64-4.592v6.944a1.252,1.252,0,0,1-1.344,1.456c-1.148,0-1.456-.56-1.456-1.456v-6.748a26.639,26.639,0,0,1-4.676,5.1c-1.736,1.484-2.072,1.484-2.408,1.484a1.629,1.629,0,0,1-1.372-1.595,1.562,1.562,0,0,1,.9-1.289,21.833,21.833,0,0,0,6.664-6.58Zm12.852-10.779c0-.757-.336-1.121-1.092-1.121h-7.392a.983.983,0,0,0-1.12,1.121v2.071c0,.756.364,1.093,1.12,1.093h7.392a.955.955,0,0,0,1.092-1.093Z" fill="#333" stroke="#fff" stroke-linecap="round" stroke-linejoin="round" stroke-width="4"/>
      <path id="Path_1368" data-name="Path 1368" d="M179.834,1877.032c0-2.324.56-2.911,2.884-2.911H184.9c1.232,0,2.884,0,2.884,1.931a10.59,10.59,0,0,1-.672,3.361c-.2.559-1.372,3.443-1.372,3.639,0,.168.056.281.252.588a11.911,11.911,0,0,1,2.016,6.636c0,2.38-.9,4.032-3.388,4.032-1.708,0-1.792-.9-1.792-1.484,0-1.232.728-1.316,1.428-1.372.532-.028,1.092-.168,1.092-1.568a11.589,11.589,0,0,0-1.4-5.124c-.588-1.064-.672-1.176-.672-1.568,0-.56,1.9-5.04,1.9-5.879,0-.5-.392-.5-.756-.5h-.952a.7.7,0,0,0-.784.784v20.887c0,.868-.28,1.344-1.512,1.344-1.344,0-1.344-.952-1.344-1.344Zm17.864,16.633H204a1.206,1.206,0,1,1,0,2.407h-6.3v2.324a1.245,1.245,0,0,1-1.316,1.457c-1.008,0-1.512-.365-1.512-1.457v-2.324h-6.524a1.206,1.206,0,1,1,0-2.407h6.524v-1.457h-3.164c-2.352,0-2.884-.588-2.884-2.884V1885.8c0-2.324.56-2.883,2.884-2.883h9.156c2.324,0,2.912.559,2.912,2.883v3.528c0,2.24-.5,2.884-2.912,2.884H197.7Zm6.328-14.084c.7,0,1.26.252,1.26,1.148,0,.783-.42,1.147-1.26,1.147H188.6c-.756,0-1.26-.308-1.26-1.147,0-.729.392-1.148,1.26-1.148h2.716c-.2-.728-.224-.869-.644-2.157h-1.26a1.092,1.092,0,0,1-1.288-1.148c0-.98.644-1.148,1.288-1.148H194.9v-.868c0-.728.532-1.035,1.288-1.035.812,0,1.512.168,1.512,1.035v.868h5.488a1.073,1.073,0,0,1,1.26,1.148c0,.98-.616,1.148-1.26,1.148h-1.428c-.224.84-.448,1.513-.673,2.157Zm-2.884,7v-.812a.7.7,0,0,0-.784-.785h-8.064a.7.7,0,0,0-.784.785v.812Zm-9.632,1.9v.869a.685.685,0,0,0,.784.783h8.064a.7.7,0,0,0,.784-.783v-.869Zm6.944-8.9c.2-.56.224-.728.616-2.157h-5.712a15.736,15.736,0,0,1,.616,2.157Z" fill="#333" stroke="#fff" stroke-linecap="round" stroke-linejoin="round" stroke-width="4"/>
      <path id="Path_1369" data-name="Path 1369" d="M210.578,1875.661a1.286,1.286,0,0,1,1.372-.925c.616,0,1.6.281,1.6,1.288a6.966,6.966,0,0,1-.14,1.121,51.941,51.941,0,0,0-1.148,10.835,35.023,35.023,0,0,0,.9,8.12,4.58,4.58,0,0,1,.14.98c0,1.036-1.176,1.26-1.6,1.26a1.429,1.429,0,0,1-1.484-.98c-.336-1.007-1.008-3.724-1.008-9.883A55.727,55.727,0,0,1,210.578,1875.661Zm16.828,14.279a21.27,21.27,0,0,1,4.312,2.156,1.648,1.648,0,0,1,.867,1.4,1.5,1.5,0,0,1-1.343,1.6c-.336,0-.617-.112-1.288-.56a16.355,16.355,0,0,0-2.548-1.4,7.1,7.1,0,0,1-.532,2.968c-.812,1.54-2.716,2.184-4.872,2.184-3.724,0-6.188-1.931-6.188-4.732,0-1.988,1.344-4.76,5.852-4.76a13.557,13.557,0,0,1,2.688.336l-.14-6.328c-1.232.056-2.016.056-3.136.056-4.452,0-5.292-.112-5.292-1.624,0-1.232.644-1.512,1.68-1.512.644,0,3.471.113,4.06.113,1.288,0,1.932-.029,2.6-.057l-.084-3.807a1.394,1.394,0,0,1,1.568-1.6c1.12,0,1.484.644,1.511,1.567l.084,3.612c.533-.028,2.969-.336,3.361-.336,1.232,0,1.26,1.288,1.26,1.513,0,1.511-.7,1.567-4.564,1.875Zm-5.8,1.54c-1.652,0-3.024.672-3.024,2.016,0,1.176,1.148,2.072,3.052,2.072,2.772,0,2.772-1.4,2.772-3.611A7.622,7.622,0,0,0,221.61,1891.48Z" fill="#333" stroke="#fff" stroke-linecap="round" stroke-linejoin="round" stroke-width="4"/>
      <path id="Path_1370" data-name="Path 1370" d="M242.862,1876.22a8.168,8.168,0,0,1,5.04-1.679c4.228,0,7.056,2.715,7.056,6.188,0,2.743-1.484,3.976-3.472,5.627-1.792,1.512-1.876,2.072-2.1,3.584-.084.56-.2,1.344-1.6,1.344-1.428,0-1.6-.84-1.6-1.512a6.125,6.125,0,0,1,2.6-4.956c2.408-1.987,2.968-2.463,2.968-4,0-2.128-1.82-3.389-4-3.389a5.324,5.324,0,0,0-3.7,1.456c-.756.756-.9.9-1.428.9a1.449,1.449,0,0,1-1.4-1.568C241.238,1877.313,242.582,1876.417,242.862,1876.22Zm7,19.321a2.1,2.1,0,1,1-2.1-2.073A2.074,2.074,0,0,1,249.862,1895.541Z" fill="#333" stroke="#fff" stroke-linecap="round" stroke-linejoin="round" stroke-width="4"/>
    </g>
    <g id="Group_104" data-name="Group 104" transform="translate(80.354 101.859)">
      <path id="Path_1371" data-name="Path 1371" d="M154.954,1855.633c0,1,0,3.719-2.32,4.6-1.239.44-3.959.44-6,.44a15.587,15.587,0,0,1-4.119-.28,2.577,2.577,0,0,1-1.48-2.44c0-2.519,2.24-2.519,3.04-2.519.2,0,2.84.08,3.359.08,1.16,0,2.12,0,2.12-1.56v-9.438h-13.8a2.188,2.188,0,0,1-2.519-2.32c0-1.84.8-2.6,2.519-2.6h13.8v-4.159c0-2,1.4-2.08,2.48-2.04a28.867,28.867,0,0,0,5.159-2.479c.479-.28,1.68-.96,1.68-1.28s-.4-.32-.681-.32H138.557a2.192,2.192,0,0,1-2.52-2.279c0-1.84.84-2.56,2.52-2.56h24.635c1.161,0,4.4,0,4.4,3.2,0,1.8-1,2.88-3.4,4.44a63.206,63.206,0,0,1-9.238,5.119v2.359h13.757a2.175,2.175,0,0,1,2.52,2.32c0,1.84-.76,2.6-2.52,2.6H154.954Z" fill="#009342"/>
      <path id="Path_1372" data-name="Path 1372" d="M190.555,1832.717c.12.6.52,2.6.8,3.6.641-.24,8.639-2.96,10.6-2.96a2.79,2.79,0,0,1,2.639,2.96,2.065,2.065,0,0,1-1.4,2.08c-.359.12-6.478,1.719-7.718,2.079-11.4,3.4-13.278,6.159-13.278,8.719,0,4.159,8.279,4.159,10.638,4.159a75.317,75.317,0,0,0,8.679-.56c2.959-.4,3.36-.44,3.6-.44a2.374,2.374,0,0,1,2.48,2.68,2.59,2.59,0,0,1-2.08,2.679c-1.959.52-8.279.84-11.758.84-5.279,0-17.157-.16-17.157-9.158,0-6.479,6.119-9.4,9.6-11.039-.2-.8-.679-2.639-1.039-4.4l-1.2-5.919a9.717,9.717,0,0,1-.16-1.439c0-1.88,1.76-2.4,3.12-2.4,2.039,0,2.359,1.2,2.6,2.639Zm14.4-2.24a1.835,1.835,0,0,1-1.919,1.76c-1.12,0-1.32-.6-1.76-1.84a26.746,26.746,0,0,0-2.12-4.4,2.184,2.184,0,0,1-.36-1.12,1.831,1.831,0,0,1,1.92-1.68,1.28,1.28,0,0,1,.6.08C202.513,1823.758,204.952,1829.637,204.952,1830.477Zm6.359-.76a1.883,1.883,0,0,1-1.879,1.76c-1.16,0-1.4-.68-1.8-1.92a20.114,20.114,0,0,0-2.04-4.439,2.033,2.033,0,0,1-.36-1.08,1.86,1.86,0,0,1,1.92-1.68,1.56,1.56,0,0,1,.64.08C208.952,1822.958,211.311,1828.8,211.311,1829.717Z" fill="#009342"/>
      <path id="Path_1373" data-name="Path 1373" d="M228.635,1840.435c1.12-.04,6.079-.24,7.079-.24a2.346,2.346,0,0,1,2.519,2.52c.04,2.4-1.759,2.519-3.719,2.639-1.72.08-6.639.08-6.919.08a18.7,18.7,0,0,0-.32,3.36c0,2.2.72,5.479,7.6,5.479,2.359,0,8.358-.36,8.358-6.079a10.308,10.308,0,0,0-.759-3.719c-.44-1.2-.52-1.32-.52-1.72,0-1.44,1.56-2.16,2.679-2.16a2.49,2.49,0,0,1,2.4,1.56,15.442,15.442,0,0,1,1.4,6.4c0,5.879-3.52,10.638-13.478,10.638-7.879,0-12.678-3.439-12.678-10.358a22.3,22.3,0,0,1,.28-3.52c-6.079-.24-7.239-.919-7.239-2.959,0-.16,0-2.64,2.4-2.64.4,0,2.28.32,2.679.36,1.44.16,2.36.2,3.12.24l.88-4.4c-5.839-.32-7.4-.64-7.4-2.88a2.385,2.385,0,0,1,2.4-2.6c.48,0,2.52.32,2.92.36,1.52.16,2.16.2,3.08.28l.959-4.72c.161-.839.48-2.279,2.36-2.279.2,0,2.92,0,2.92,2.12,0,.04-.04.439-.12.879l-.88,4.12c1-.04,5.359-.2,6.279-.2a2.189,2.189,0,0,1,2.359,2.44c0,2.6-1.359,2.719-9.678,2.639Z" fill="#009342"/>
      <path id="Path_1374" data-name="Path 1374" d="M264.614,1852.48c-.672,1.68-2.016,4.788-4.676,4.788-2.52,0-5.824-3.64-5.824-9.184,0-6.748,5.04-12.264,12.74-12.264,7.56,0,11.508,5.376,11.508,11.06,0,8.484-7.784,11.676-9.016,11.676a1.568,1.568,0,0,1-1.54-1.624c0-.728.224-.9,1.736-1.652,2.912-1.428,5.628-3.863,5.628-8.427,0-1.177-.112-7.309-7.337-8.205A57.316,57.316,0,0,1,264.614,1852.48Zm-7.532-4.256c0,3.164,1.512,5.824,2.744,5.824,1.092,0,1.96-2.38,2.576-4.228a54.532,54.532,0,0,0,2.408-11.031A9.317,9.317,0,0,0,257.082,1848.224Z" fill="#333"/>
      <path id="Path_1375" data-name="Path 1375" d="M156.986,1898.284a1.416,1.416,0,1,1-2.828,0v-12.347c-.672.923-1.092,1.456-1.792,1.456a1.765,1.765,0,0,1-1.6-1.765,2.576,2.576,0,0,1,.728-1.567,26.886,26.886,0,0,0,4.368-8.316c.084-.253.392-1.456.5-1.681a1.174,1.174,0,0,1,1.148-.644c.14,0,1.568,0,1.568,1.26a24.8,24.8,0,0,1-2.1,6.216Zm2.828-9.632a1.254,1.254,0,0,1-1.456-1.316c0-1.26.952-1.344,1.456-1.344h6.636v-2.52h-3.136c-2.128,0-3.136-.7-3.136-3.107V1877.4c0-2.436,1.036-3.136,3.136-3.136h9.128c2.1,0,3.136.7,3.136,3.136v2.969c0,2.407-1.008,3.107-3.136,3.107H169.25v2.52h6.524a1.251,1.251,0,0,1,1.455,1.344c0,1.26-.951,1.316-1.455,1.316h-5.628a23.8,23.8,0,0,0,4.816,5.432c2.24,1.736,2.24,1.736,2.24,2.3a1.715,1.715,0,0,1-1.54,1.624c-.532,0-1.2-.448-2.772-2.072a28.785,28.785,0,0,1-3.64-4.592v6.944a1.252,1.252,0,0,1-1.344,1.456c-1.148,0-1.456-.56-1.456-1.456v-6.748a26.639,26.639,0,0,1-4.676,5.1c-1.736,1.484-2.072,1.484-2.408,1.484a1.629,1.629,0,0,1-1.372-1.595,1.562,1.562,0,0,1,.9-1.289,21.833,21.833,0,0,0,6.664-6.58Zm12.852-10.779c0-.757-.336-1.121-1.092-1.121h-7.392a.983.983,0,0,0-1.12,1.121v2.071c0,.756.364,1.093,1.12,1.093h7.392a.955.955,0,0,0,1.092-1.093Z" fill="#333"/>
      <path id="Path_1376" data-name="Path 1376" d="M179.834,1877.032c0-2.324.56-2.911,2.884-2.911H184.9c1.232,0,2.884,0,2.884,1.931a10.59,10.59,0,0,1-.672,3.361c-.2.559-1.372,3.443-1.372,3.639,0,.168.056.281.252.588a11.911,11.911,0,0,1,2.016,6.636c0,2.38-.9,4.032-3.388,4.032-1.708,0-1.792-.9-1.792-1.484,0-1.232.728-1.316,1.428-1.372.532-.028,1.092-.168,1.092-1.568a11.589,11.589,0,0,0-1.4-5.124c-.588-1.064-.672-1.176-.672-1.568,0-.56,1.9-5.04,1.9-5.879,0-.5-.392-.5-.756-.5h-.952a.7.7,0,0,0-.784.784v20.887c0,.868-.28,1.344-1.512,1.344-1.344,0-1.344-.952-1.344-1.344Zm17.864,16.633H204a1.206,1.206,0,1,1,0,2.407h-6.3v2.324a1.245,1.245,0,0,1-1.316,1.457c-1.008,0-1.512-.365-1.512-1.457v-2.324h-6.524a1.206,1.206,0,1,1,0-2.407h6.524v-1.457h-3.164c-2.352,0-2.884-.588-2.884-2.884V1885.8c0-2.324.56-2.883,2.884-2.883h9.156c2.324,0,2.912.559,2.912,2.883v3.528c0,2.24-.5,2.884-2.912,2.884H197.7Zm6.328-14.084c.7,0,1.26.252,1.26,1.148,0,.783-.42,1.147-1.26,1.147H188.6c-.756,0-1.26-.308-1.26-1.147,0-.729.392-1.148,1.26-1.148h2.716c-.2-.728-.224-.869-.644-2.157h-1.26a1.092,1.092,0,0,1-1.288-1.148c0-.98.644-1.148,1.288-1.148H194.9v-.868c0-.728.532-1.035,1.288-1.035.812,0,1.512.168,1.512,1.035v.868h5.488a1.073,1.073,0,0,1,1.26,1.148c0,.98-.616,1.148-1.26,1.148h-1.428c-.224.84-.448,1.513-.673,2.157Zm-2.884,7v-.812a.7.7,0,0,0-.784-.785h-8.064a.7.7,0,0,0-.784.785v.812Zm-9.632,1.9v.869a.685.685,0,0,0,.784.783h8.064a.7.7,0,0,0,.784-.783v-.869Zm6.944-8.9c.2-.56.224-.728.616-2.157h-5.712a15.736,15.736,0,0,1,.616,2.157Z" fill="#333"/>
      <path id="Path_1377" data-name="Path 1377" d="M210.578,1875.661a1.286,1.286,0,0,1,1.372-.925c.616,0,1.6.281,1.6,1.288a6.966,6.966,0,0,1-.14,1.121,51.941,51.941,0,0,0-1.148,10.835,35.023,35.023,0,0,0,.9,8.12,4.58,4.58,0,0,1,.14.98c0,1.036-1.176,1.26-1.6,1.26a1.429,1.429,0,0,1-1.484-.98c-.336-1.007-1.008-3.724-1.008-9.883A55.727,55.727,0,0,1,210.578,1875.661Zm16.828,14.279a21.27,21.27,0,0,1,4.312,2.156,1.648,1.648,0,0,1,.867,1.4,1.5,1.5,0,0,1-1.343,1.6c-.336,0-.617-.112-1.288-.56a16.355,16.355,0,0,0-2.548-1.4,7.1,7.1,0,0,1-.532,2.968c-.812,1.54-2.716,2.184-4.872,2.184-3.724,0-6.188-1.931-6.188-4.732,0-1.988,1.344-4.76,5.852-4.76a13.557,13.557,0,0,1,2.688.336l-.14-6.328c-1.232.056-2.016.056-3.136.056-4.452,0-5.292-.112-5.292-1.624,0-1.232.644-1.512,1.68-1.512.644,0,3.471.113,4.06.113,1.288,0,1.932-.029,2.6-.057l-.084-3.807a1.394,1.394,0,0,1,1.568-1.6c1.12,0,1.484.644,1.511,1.567l.084,3.612c.533-.028,2.969-.336,3.361-.336,1.232,0,1.26,1.288,1.26,1.513,0,1.511-.7,1.567-4.564,1.875Zm-5.8,1.54c-1.652,0-3.024.672-3.024,2.016,0,1.176,1.148,2.072,3.052,2.072,2.772,0,2.772-1.4,2.772-3.611A7.622,7.622,0,0,0,221.61,1891.48Z" fill="#333"/>
      <path id="Path_1378" data-name="Path 1378" d="M242.862,1876.22a8.168,8.168,0,0,1,5.04-1.679c4.228,0,7.056,2.715,7.056,6.188,0,2.743-1.484,3.976-3.472,5.627-1.792,1.512-1.876,2.072-2.1,3.584-.084.56-.2,1.344-1.6,1.344-1.428,0-1.6-.84-1.6-1.512a6.125,6.125,0,0,1,2.6-4.956c2.408-1.987,2.968-2.463,2.968-4,0-2.128-1.82-3.389-4-3.389a5.324,5.324,0,0,0-3.7,1.456c-.756.756-.9.9-1.428.9a1.449,1.449,0,0,1-1.4-1.568C241.238,1877.313,242.582,1876.417,242.862,1876.22Zm7,19.321a2.1,2.1,0,1,1-2.1-2.073A2.074,2.074,0,0,1,249.862,1895.541Z" fill="#333"/>
    </g>
  </g>
</svg>
