<svg id="Group_472" data-name="Group 472" xmlns="http://www.w3.org/2000/svg" xmlns:xlink="http://www.w3.org/1999/xlink" width="1280" height="13320" viewBox="0 0 1280 13320">
  <defs>
    <clipPath id="clip-path">
      <rect id="Rectangle_4" data-name="Rectangle 4" width="1280" height="13320" fill="none"/>
    </clipPath>
    <linearGradient id="linear-gradient" x1="-27.53" y1="0.988" x2="-26.948" y2="0.012" gradientUnits="objectBoundingBox">
      <stop offset="0.035" stop-color="#878787"/>
      <stop offset="0.861" stop-color="#fff"/>
    </linearGradient>
    <linearGradient id="linear-gradient-2" x1="-27.782" y1="0.99" x2="-27.2" y2="0.01" gradientUnits="objectBoundingBox">
      <stop offset="0" stop-color="#fff"/>
      <stop offset="0.732" stop-color="#d1d1d1"/>
    </linearGradient>
    <linearGradient id="linear-gradient-3" x1="-239.163" y1="0.957" x2="-238.566" y2="0.043" xlink:href="#linear-gradient"/>
    <linearGradient id="linear-gradient-4" x1="-253.416" y1="0.968" x2="-252.824" y2="0.032" xlink:href="#linear-gradient-2"/>
    <linearGradient id="linear-gradient-5" x1="-186.379" y1="0.959" x2="-185.783" y2="0.041" xlink:href="#linear-gradient"/>
    <linearGradient id="linear-gradient-6" x1="-194.858" y1="0.968" x2="-194.267" y2="0.032" xlink:href="#linear-gradient-2"/>
    <linearGradient id="linear-gradient-7" x1="-391.024" y1="0.953" x2="-390.42" y2="0.048" xlink:href="#linear-gradient"/>
    <linearGradient id="linear-gradient-8" x1="-430.857" y1="0.968" x2="-430.265" y2="0.032" xlink:href="#linear-gradient-2"/>
  </defs>
  <g id="Group_3" data-name="Group 3">
    <g id="Group_2" data-name="Group 2" clip-path="url(#clip-path)">
      <g id="Group_1" data-name="Group 1">
        <path id="Path_1" data-name="Path 1" d="M-256,4867c0,177.063,390.368,321.049,875.958,324.915L640,5232l20.042-40.085C1145.632,5188.049,1536,5044.063,1536,4867" fill="#fff"/>
        <path id="Path_2" data-name="Path 2" d="M-256,4867c0,177.063,390.368,321.049,875.958,324.915L640,5224l20.042-32.085C1145.632,5188.049,1536,5044.063,1536,4867" fill="none" stroke="#b3b3b3" stroke-miterlimit="10" stroke-width="1"/>
      </g>
    </g>
  </g>
  <g id="Group_80" data-name="Group 80" style="mix-blend-mode: multiply;isolation: isolate">
    <path id="Path_819" data-name="Path 819" d="M1066.247,1608.243c96.464,71.9,121.322,124.978,53.341,191.46-25.645,25.085-119.323,91.1-274.706,5.865-119.587-65.6-79.722-159.93-43.727-194.9C813.865,1598.326,966.931,1534.221,1066.247,1608.243Z" fill="#fff" opacity="0"/>
    <path id="Path_820" data-name="Path 820" d="M802.433,1610.6c6.918-6.656,51.281-26.875,106.145-34.345,8.752-1.187,17.773-2.049,26.951-2.48,43.719-2.064,91.107,5.721,130.11,34.695,45.617,33.888,75.03,63.692,85.92,92.7,11.974,31.928,1.465,62.71-33.785,96.905a162.488,162.488,0,0,1-30.982,22.694c-.215.124-.445.251-.663.374-22.946,12.846-55.7,24.6-97.738,24.349-39.738-.24-88.227-10.981-143.836-41.621-45.419-25.043-67.434-54.535-75.318-83.191C756.653,1675.354,780.422,1631.924,802.433,1610.6Z" fill="#fcfcfc" opacity="0.024"/>
    <path id="Path_821" data-name="Path 821" d="M803.712,1610.531c7.183-6.9,51.114-26.789,105.383-34.072,8.691-1.157,17.65-1.989,26.763-2.393,43.355-1.939,90.445,5.959,129.174,34.633,45.288,33.533,74.412,63.163,85.03,92,11.675,31.762.8,62.185-34.1,95.758a169.971,169.971,0,0,1-30.888,22.369c-.211.12-.449.248-.661.368-22.977,12.695-55.6,24.256-97.179,24.007-39.609-.233-88.261-10.718-143-41.018-44.774-24.816-66.332-54.287-74.085-82.822C757.976,1674.575,781.753,1631.609,803.712,1610.531Z" fill="#f9f9f9" opacity="0.049"/>
    <path id="Path_822" data-name="Path 822" d="M804.99,1610.461c7.462-7.123,50.948-26.7,104.623-33.8,8.628-1.128,17.525-1.929,26.574-2.306,42.99-1.815,89.783,6.2,128.237,34.571,44.959,33.177,73.8,62.635,84.141,91.293,11.375,31.6.128,61.661-34.421,94.611a178.044,178.044,0,0,1-30.8,22.043c-.2.118-.452.246-.658.363-23.009,12.544-55.5,23.908-96.621,23.666-39.478-.227-88.294-10.455-142.169-40.416-44.128-24.59-65.265-54.029-72.852-82.453C759.245,1673.811,783.123,1631.335,804.99,1610.461Z" fill="#f6f6f6" opacity="0.073"/>
    <path id="Path_823" data-name="Path 823" d="M806.268,1610.391c7.74-7.351,50.782-26.616,103.862-33.526,8.566-1.1,17.4-1.87,26.387-2.219,42.625-1.691,89.12,6.436,127.3,34.509,44.631,32.821,73.179,62.107,83.252,90.588,11.076,31.431-.541,61.136-34.738,93.465-6.4,5.825-17.715,14.276-30.7,21.717-.2.114-.454.243-.655.357-23.04,12.393-55.4,23.561-96.063,23.325-39.347-.221-88.328-10.192-141.335-39.813-43.483-24.364-64.2-53.771-71.618-82.084C760.512,1673.048,784.5,1631.065,806.268,1610.391Z" fill="#f3f3f3" opacity="0.098"/>
    <path id="Path_824" data-name="Path 824" d="M807.547,1610.32c8.018-7.576,50.614-26.529,103.1-33.252,8.505-1.068,17.278-1.81,26.2-2.132,42.26-1.567,88.458,6.674,126.362,34.447,44.3,32.465,72.562,61.579,82.363,89.883,10.777,31.266-1.209,60.611-35.056,92.318-6.426,5.742-17.972,14.152-30.609,21.391-.194.111-.458.241-.653.352-23.071,12.242-55.3,23.213-95.505,22.984-39.217-.216-88.361-9.929-140.5-39.211-42.838-24.138-63.133-53.512-70.386-81.715C761.777,1672.286,785.874,1630.8,807.547,1610.32Z" fill="#f0f0f0" opacity="0.122"/>
    <path id="Path_825" data-name="Path 825" d="M808.825,1610.25c8.3-7.8,50.448-26.443,102.339-32.979,8.443-1.039,17.154-1.751,26.012-2.046,41.894-1.441,87.795,6.913,125.425,34.386,43.973,32.109,71.944,61.051,81.473,89.178,10.477,31.1-1.878,60.087-35.373,91.171-6.453,5.66-18.231,14.027-30.517,21.066-.188.108-.46.238-.65.346a201.436,201.436,0,0,1-94.947,22.643c-39.086-.21-88.394-9.667-139.666-38.609-42.193-23.911-62.067-53.253-69.153-81.345C763.04,1671.526,787.254,1630.534,808.825,1610.25Z" fill="#ededed" opacity="0.146"/>
    <path id="Path_826" data-name="Path 826" d="M810.1,1610.18c8.578-8.029,50.282-26.357,101.579-32.706,8.38-1.009,17.03-1.691,25.823-1.959,41.53-1.317,87.133,7.152,124.488,34.324,43.645,31.754,71.327,60.523,80.584,88.473,10.178,30.935-2.547,59.562-35.691,90.025-6.48,5.576-18.489,13.9-30.424,20.739-.183.1-.463.237-.648.341a202.641,202.641,0,0,1-94.388,22.3c-38.955-.2-88.427-9.4-138.832-38.005-41.548-23.686-61-52.994-67.92-80.977C764.3,1670.766,788.636,1630.272,810.1,1610.18Z" fill="#eaeaea" opacity="0.171"/>
    <path id="Path_827" data-name="Path 827" d="M811.381,1610.11c8.859-8.254,50.116-26.271,100.818-32.433,8.319-.979,16.906-1.631,25.636-1.872,41.164-1.193,86.47,7.39,123.55,34.262,43.316,31.4,70.711,59.994,79.695,87.768,9.879,30.769-3.215,59.037-36.009,88.878-6.506,5.494-18.746,13.777-30.33,20.414-.178.1-.467.234-.646.335a203.9,203.9,0,0,1-93.83,21.96,282.8,282.8,0,0,1-138-37.4c-40.9-23.459-59.939-52.733-66.686-80.608C765.559,1670.007,790.021,1630.013,811.381,1610.11Z" fill="#e7e7e7" opacity="0.195"/>
    <path id="Path_828" data-name="Path 828" d="M812.66,1610.04c9.139-8.48,49.936-26.289,100.056-32.16,8.255-.967,16.782-1.572,25.448-1.785,40.8-1.068,85.808,7.628,122.614,34.2,42.987,31.042,70.093,59.466,78.805,87.063,9.579,30.6-3.884,58.512-36.326,87.731-6.533,5.412-19.005,13.653-30.238,20.088-.172.1-.469.232-.643.33a205.223,205.223,0,0,1-93.271,21.619,280.221,280.221,0,0,1-137.165-36.8c-40.257-23.232-58.877-52.472-65.453-80.238C766.815,1669.249,791.408,1629.756,812.66,1610.04Z" fill="#e4e4e4" opacity="0.22"/>
    <path id="Path_829" data-name="Path 829" d="M813.938,1609.97c9.421-8.7,49.769-26.212,99.295-31.887,8.193-.939,16.659-1.512,25.261-1.7,40.434-.944,85.145,7.867,121.676,34.138,42.658,30.686,69.476,58.938,77.916,86.357,9.28,30.439-4.553,57.989-36.644,86.585-6.559,5.329-19.262,13.529-30.144,19.762-.167.1-.473.23-.641.325a206.6,206.6,0,0,1-92.713,21.278c-38.564-.186-88.528-8.615-136.331-36.2-39.611-23.007-57.815-52.211-64.22-79.87C768.068,1668.492,792.8,1629.5,813.938,1609.97Z" fill="#e1e1e1" opacity="0.244"/>
    <path id="Path_830" data-name="Path 830" d="M815.216,1609.9c9.7-8.928,49.6-26.134,98.534-31.614,8.131-.911,16.535-1.453,25.073-1.611,40.069-.82,84.483,8.1,120.739,34.076,42.33,30.331,68.86,58.41,77.027,85.652,8.981,30.273-5.221,57.464-36.962,85.439-6.586,5.246-19.52,13.4-30.051,19.436-.162.093-.475.227-.638.319a208.007,208.007,0,0,1-92.155,20.937c-38.434-.18-88.561-8.352-135.5-35.6-38.966-22.78-56.755-51.949-62.986-79.5C769.32,1667.735,794.188,1629.248,815.216,1609.9Z" fill="#dedede" opacity="0.268"/>
    <path id="Path_831" data-name="Path 831" d="M816.495,1609.829c9.985-9.151,49.434-26.054,97.773-31.34,8.069-.882,16.411-1.393,24.885-1.524,39.7-.7,83.82,8.343,119.8,34.014,42,29.975,68.243,57.882,76.138,84.947,8.681,30.108-5.89,56.939-37.279,84.292-6.613,5.163-19.779,13.279-29.959,19.11-.156.09-.478.225-.635.314a209.47,209.47,0,0,1-91.6,20.6c-38.3-.173-88.594-8.088-134.662-34.993-38.322-22.554-55.7-51.686-61.754-79.131C770.568,1666.98,795.58,1629,816.495,1609.829Z" fill="#dbdbdb" opacity="0.293"/>
    <path id="Path_832" data-name="Path 832" d="M817.773,1609.759c10.268-9.374,49.268-25.975,97.012-31.067,8.007-.854,16.287-1.333,24.7-1.437,39.339-.571,83.158,8.582,118.865,33.952,41.672,29.619,67.625,57.353,75.248,84.242,8.382,29.942-6.559,56.415-37.6,83.145-6.639,5.081-20.036,13.154-29.865,18.785-.151.086-.481.222-.634.308a210.982,210.982,0,0,1-91.038,20.254c-38.173-.167-88.628-7.825-133.828-34.39-37.676-22.328-54.638-51.423-60.521-78.763C771.815,1666.226,796.974,1628.747,817.773,1609.759Z" fill="#d8d8d8" opacity="0.317"/>
    <path id="Path_833" data-name="Path 833" d="M819.051,1609.689c10.552-9.6,49.1-25.9,96.251-30.794,7.945-.826,16.163-1.274,24.51-1.35,38.974-.447,82.495,8.82,117.927,33.89,41.344,29.263,67.008,56.825,74.359,83.537,8.083,29.777-7.227,55.89-37.914,82-6.667,5-20.295,13.03-29.773,18.459-.145.084-.484.22-.631.3a212.57,212.57,0,0,1-90.48,19.913c-38.042-.162-88.661-7.563-132.994-33.788-37.031-22.1-53.582-51.159-59.288-78.393C773.059,1665.472,798.369,1628.5,819.051,1609.689Z" fill="#d5d5d5" opacity="0.341"/>
    <path id="Path_834" data-name="Path 834" d="M820.33,1609.619c10.835-9.818,48.934-25.815,95.489-30.521,7.883-.8,16.04-1.214,24.322-1.264,38.609-.322,81.833,9.059,116.99,33.829,41.015,28.907,66.392,56.3,73.47,82.832,7.783,29.611-7.9,55.365-38.232,80.852-6.693,4.915-20.553,12.9-29.68,18.133-.14.08-.487.217-.628.3a214.224,214.224,0,0,1-89.922,19.572c-37.911-.156-88.748-7.209-132.16-33.186-36.431-21.8-52.526-50.9-58.054-78.024C774.3,1664.72,799.766,1628.252,820.33,1609.619Z" fill="#d2d2d2" opacity="0.366"/>
    <path id="Path_835" data-name="Path 835" d="M821.608,1609.549c11.12-10.039,48.767-25.734,94.729-30.248,7.821-.768,15.915-1.155,24.134-1.177,38.243-.2,81.17,9.3,116.053,33.767,40.686,28.552,65.774,55.769,72.58,82.127,7.484,29.446-8.565,54.841-38.55,79.705-6.719,4.833-20.81,12.78-29.586,17.807-.135.077-.49.215-.626.292a215.907,215.907,0,0,1-89.363,19.23c-37.782-.149-88.785-6.942-131.327-32.582-35.788-21.57-51.472-50.631-56.821-77.655C775.538,1663.968,801.164,1628.006,821.608,1609.549Z" fill="#cfcfcf" opacity="0.39"/>
    <path id="Path_836" data-name="Path 836" d="M822.886,1609.479c11.405-10.26,48.6-25.652,93.968-29.975,7.759-.74,15.792-1.095,23.946-1.09,37.879-.073,80.507,9.536,115.116,33.705,40.357,28.2,65.157,55.241,71.691,81.422,7.185,29.28-9.233,54.316-38.867,78.558-6.746,4.751-21.069,12.655-29.494,17.482-.129.074-.493.212-.623.286a217.687,217.687,0,0,1-88.805,18.889c-37.651-.143-88.821-6.676-130.493-31.98-35.145-21.341-50.42-50.365-55.588-77.286C776.774,1663.217,802.562,1627.762,822.886,1609.479Z" fill="#ccc" opacity="0.415"/>
    <path id="Path_837" data-name="Path 837" d="M824.164,1609.408c11.691-10.479,48.435-25.569,93.207-29.7,7.7-.711,15.668-1.035,23.758-1,37.514.051,79.845,9.774,114.179,33.643,40.029,27.84,64.594,54.7,70.8,80.717,6.945,29.1-9.9,53.791-39.185,77.412-6.773,4.667-21.327,12.53-29.4,17.155-.124.071-.5.21-.621.281a219.522,219.522,0,0,1-88.247,18.548c-37.52-.138-88.856-6.41-129.659-31.378-34.5-21.112-49.369-50.1-54.355-76.917C778.007,1662.466,803.962,1627.519,824.164,1609.408Z" fill="#c9c9c9" opacity="0.439"/>
    <path id="Path_838" data-name="Path 838" d="M825.443,1609.338c11.976-10.7,48.268-25.485,92.445-29.428,7.636-.682,15.544-.976,23.571-.916,37.149.175,79.182,10.013,113.241,33.581,39.7,27.484,63.978,54.172,69.913,80.012,6.647,28.935-10.571,53.266-39.5,76.265-6.8,4.585-21.584,12.4-29.307,16.83-.119.067-.5.208-.618.275a221.451,221.451,0,0,1-87.689,18.207c-37.39-.132-88.891-6.145-128.824-30.775-33.859-20.884-48.321-49.833-53.122-76.548C779.238,1661.717,805.363,1627.276,825.443,1609.338Z" fill="#c6c6c6" opacity="0.463"/>
    <path id="Path_839" data-name="Path 839" d="M826.721,1609.268c12.263-10.918,48.1-25.4,91.685-29.155,7.573-.653,15.42-.916,23.382-.829,36.784.3,78.52,10.251,112.3,33.519,39.371,27.129,63.361,53.644,69.023,79.307,6.348,28.77-11.239,52.742-39.82,75.118-6.826,4.5-21.843,12.281-29.215,16.5-.113.065-.5.206-.616.27a223.437,223.437,0,0,1-87.13,17.866c-37.259-.126-88.926-5.88-127.99-30.173-33.215-20.655-47.274-49.566-51.889-76.179C780.465,1660.968,806.765,1627.035,826.721,1609.268Z" fill="#c3c3c3" opacity="0.488"/>
    <path id="Path_840" data-name="Path 840" d="M828,1609.2c12.551-11.136,47.936-25.317,90.924-28.882,7.511-.624,15.3-.856,23.2-.742,36.418.424,77.857,10.489,111.367,33.457,39.043,26.773,62.745,53.116,68.134,78.6,6.05,28.6-11.908,52.217-40.138,73.971-6.852,4.42-22.1,12.157-29.121,16.178-.108.062-.505.2-.614.265-23.57,9.825-53.69,17.652-86.572,17.524-37.128-.119-88.961-5.615-127.156-29.57-32.571-20.427-46.229-49.3-50.656-75.81C781.69,1660.22,808.167,1626.8,828,1609.2Z" fill="#c1c1c1" opacity="0.512"/>
    <path id="Path_841" data-name="Path 841" d="M829.278,1609.128c12.838-11.353,47.769-25.231,90.162-28.61,7.45-.593,15.173-.8,23.007-.654,36.054.548,77.2,10.728,110.43,33.4,38.714,26.416,62.128,52.587,67.245,77.9,5.751,28.44-12.577,51.692-40.455,72.825-6.88,4.337-22.359,12.031-29.029,15.852-.1.059-.508.2-.611.259-23.6,9.674-53.59,17.3-86.014,17.183-37-.113-89-5.351-126.322-28.967-31.927-20.2-45.186-49.031-49.423-75.441C782.911,1659.473,809.57,1626.555,829.278,1609.128Z" fill="#bebebe" opacity="0.537"/>
    <path id="Path_842" data-name="Path 842" d="M830.556,1609.058c13.127-11.57,47.6-25.145,89.4-28.337,7.388-.564,15.049-.736,22.82-.567,35.688.672,76.532,10.966,109.492,33.334,38.386,26.06,61.512,52.06,66.356,77.191,5.452,28.275-13.245,51.168-40.773,71.678-6.906,4.254-22.617,11.907-28.936,15.526-.1.056-.51.2-.608.254-23.632,9.523-53.489,16.957-85.455,16.842-36.868-.108-89.031-5.088-125.489-28.365-31.283-19.973-44.145-48.762-48.189-75.072C784.13,1658.726,810.974,1626.317,830.556,1609.058Z" fill="#bbb" opacity="0.561"/>
    <path id="Path_843" data-name="Path 843" d="M831.834,1608.988c13.416-11.786,47.438-25.058,88.64-28.064,7.327-.534,14.925-.677,22.632-.481,35.324.8,75.87,11.2,108.556,33.273,38.057,25.7,60.894,51.532,65.466,76.486,5.152,28.11-13.914,50.643-41.091,70.531-6.932,4.172-22.875,11.782-28.842,15.2-.092.052-.514.2-.606.248-23.663,9.372-53.389,16.609-84.9,16.5-36.737-.1-89.065-4.825-124.655-27.762-30.638-19.747-43.106-48.494-46.956-74.7C785.345,1657.98,812.379,1626.079,831.834,1608.988Z" fill="#b8b8b8" opacity="0.585"/>
    <path id="Path_844" data-name="Path 844" d="M833.112,1608.917c13.706-12,47.273-24.969,87.88-27.79,7.264-.5,14.8-.617,22.444-.394,34.958.922,75.207,11.444,107.618,33.211,37.728,25.349,60.276,51.005,64.578,75.781,4.851,27.945-14.584,50.118-41.409,69.385-6.96,4.089-23.133,11.657-28.75,14.874-.086.05-.517.194-.6.243-23.7,9.221-53.288,16.262-84.339,16.16-36.607-.1-89.1-4.562-123.82-27.16-29.994-19.521-42.071-48.225-45.724-74.334C786.558,1657.234,813.784,1625.842,833.112,1608.917Z" fill="#b5b5b5" opacity="0.61"/>
    <path id="Path_845" data-name="Path 845" d="M834.391,1608.847c14-12.215,47.106-24.88,87.118-27.517,7.2-.474,14.677-.557,22.256-.307,34.593,1.046,74.545,11.682,106.681,33.149,37.4,24.993,59.659,50.477,63.689,75.076,4.551,27.78-15.252,49.594-41.727,68.238-6.986,4.006-23.391,11.532-28.656,14.549-.081.046-.52.191-.6.237-23.725,9.07-53.187,15.914-83.78,15.818-36.476-.089-89.132-4.3-122.986-26.557-29.349-19.295-41.037-47.955-44.49-73.965C787.767,1656.489,815.189,1625.6,834.391,1608.847Z" fill="#b2b2b2" opacity="0.634"/>
    <path id="Path_846" data-name="Path 846" d="M835.669,1608.777c14.287-12.429,46.941-24.79,86.357-27.244,7.141-.444,14.553-.5,22.069-.22,34.228,1.17,73.882,11.92,105.744,33.087,37.07,24.637,59.04,49.95,62.8,74.371,4.25,27.616-15.921,49.069-42.045,67.091-7.012,3.924-23.649,11.408-28.563,14.223-.075.043-.523.189-.6.232-23.756,8.919-53.086,15.566-83.222,15.477-36.345-.084-89.165-4.039-122.152-25.954-28.7-19.07-40.006-47.686-43.257-73.6C788.973,1655.744,816.6,1625.369,835.669,1608.777Z" fill="#afafaf" opacity="0.659"/>
    <path id="Path_847" data-name="Path 847" d="M836.947,1608.707c14.579-12.641,46.775-24.7,85.6-26.971,7.079-.414,14.43-.438,21.881-.133,33.863,1.295,73.22,12.159,104.807,33.025,36.742,24.281,58.422,49.422,61.91,73.666,3.949,27.451-16.59,48.544-42.362,65.944-7.039,3.841-23.907,11.283-28.471,13.9-.07.04-.525.186-.6.226-23.788,8.768-52.986,15.219-82.664,15.136-36.215-.078-89.2-3.778-121.318-25.352-28.058-18.845-38.978-47.415-42.024-73.227C790.175,1655,818,1625.134,836.947,1608.707Z" fill="#acacac" opacity="0.683"/>
    <path id="Path_848" data-name="Path 848" d="M838.226,1608.637c14.871-12.854,46.609-24.607,84.835-26.7,7.017-.384,14.305-.379,21.693-.046,33.5,1.419,72.557,12.4,103.869,32.963,36.414,23.926,57.8,48.9,61.021,72.961,3.648,27.286-17.258,48.019-42.68,64.8-7.066,3.758-24.165,11.158-28.377,13.571-.065.037-.529.184-.594.221-23.819,8.617-52.885,14.871-82.105,14.8-36.085-.072-89.23-3.518-120.485-24.75-27.412-18.621-37.953-47.145-40.791-72.857C791.375,1654.255,819.41,1624.9,838.226,1608.637Z" fill="#a9a9a9" opacity="0.707"/>
    <path id="Path_849" data-name="Path 849" d="M839.5,1608.567c15.165-13.065,46.444-24.515,84.074-26.425,6.955-.353,14.182-.319,21.505.041,33.133,1.543,71.9,12.635,102.932,32.9,36.085,23.57,57.137,48.373,60.132,72.256,3.293,27.128-17.927,47.495-43,63.651-7.093,3.676-24.423,11.033-28.285,13.246-.059.033-.531.182-.591.215-23.85,8.466-52.785,14.524-81.547,14.454-35.955-.066-89.262-3.259-119.651-24.147-26.765-18.4-36.932-46.875-39.557-72.489C792.571,1653.511,820.817,1624.666,839.5,1608.567Z" fill="#a6a6a6" opacity="0.732"/>
    <path id="Path_850" data-name="Path 850" d="M840.782,1608.5c15.459-13.275,46.279-24.421,83.313-26.152,6.894-.322,14.058-.259,21.318.128,32.767,1.668,71.232,12.874,101.995,32.839,35.756,23.214,56.519,47.845,59.242,71.55,2.993,26.964-18.6,46.971-43.315,62.5-7.119,3.593-24.681,10.909-28.191,12.92-.054.031-.535.18-.589.21-23.882,8.315-52.684,14.176-80.989,14.112-35.824-.059-89.293-3-118.817-23.544-26.118-18.175-35.914-46.6-38.324-72.12C793.763,1652.767,822.225,1624.432,840.782,1608.5Z" fill="#a3a3a3" opacity="0.756"/>
    <path id="Path_851" data-name="Path 851" d="M842.061,1608.426c15.753-13.484,46.112-24.325,82.551-25.878,6.832-.291,13.934-.2,21.13.215,32.4,1.792,70.57,13.112,101.058,32.777,35.427,22.858,55.9,47.317,58.353,70.845,2.694,26.8-19.264,46.446-43.633,61.358-7.146,3.511-24.939,10.785-28.1,12.594-.049.028-.538.178-.587.2-23.912,8.164-52.583,13.829-80.43,13.771-35.693-.054-89.323-2.742-117.982-22.942-25.471-17.953-34.9-46.333-37.092-71.75C794.952,1652.023,823.634,1624.2,842.061,1608.426Z" fill="#a0a0a0" opacity="0.78"/>
    <path id="Path_852" data-name="Path 852" d="M843.339,1608.356c16.048-13.692,45.947-24.23,81.791-25.6,6.77-.26,13.81-.14,20.941.3,32.038,1.917,69.908,13.351,100.121,32.716,35.1,22.5,55.286,46.789,57.464,70.14,2.4,26.633-19.933,45.922-43.95,60.212-7.173,3.427-25.2,10.659-28.006,12.268-.043.025-.54.175-.584.2-23.943,8.013-52.483,13.481-79.872,13.43-35.563-.048-89.353-2.485-117.148-22.339-24.823-17.732-33.891-46.063-35.859-71.382C796.137,1651.279,825.042,1623.967,843.339,1608.356Z" fill="#9d9d9d" opacity="0.805"/>
    <path id="Path_853" data-name="Path 853" d="M844.617,1608.286c16.345-13.9,45.782-24.133,81.03-25.332,6.708-.228,13.686-.081,20.754.388,31.672,2.041,69.245,13.59,99.183,32.654,34.77,22.147,54.669,46.26,56.575,69.435,2.095,26.467-20.6,45.4-44.268,59.065-7.2,3.345-25.455,10.535-27.912,11.942-.038.022-.544.173-.582.2-23.975,7.861-52.382,13.132-79.314,13.088-35.432-.042-89.383-2.229-116.314-21.737-24.174-17.511-32.885-45.792-34.625-71.012C797.319,1650.535,826.451,1623.735,844.617,1608.286Z" fill="#9a9a9a" opacity="0.829"/>
    <path id="Path_854" data-name="Path 854" d="M845.9,1608.216c16.642-14.106,45.616-24.035,80.269-25.059,6.647-.2,13.563-.021,20.566.475,31.308,2.166,68.583,13.828,98.247,32.592,34.441,21.791,54.051,45.732,55.685,68.73,1.8,26.3-21.27,44.872-44.586,57.918-7.225,3.263-25.713,10.41-27.819,11.617-.032.018-.546.17-.579.189-24.006,7.71-52.282,12.785-78.756,12.747-35.3-.036-89.411-1.974-115.48-21.135-23.525-17.291-31.884-45.521-33.392-70.643C798.5,1649.79,827.861,1623.5,845.9,1608.216Z" fill="#979797" opacity="0.854"/>
    <path id="Path_855" data-name="Path 855" d="M847.174,1608.146c16.939-14.312,45.45-23.936,79.507-24.786,6.585-.165,13.439.039,20.379.562,30.942,2.29,67.92,14.066,97.309,32.53,34.113,21.435,53.435,45.2,54.8,68.025,1.5,26.136-21.939,44.348-44.9,56.772-7.253,3.179-25.971,10.285-27.727,11.29-.026.016-.549.168-.576.184-24.037,7.559-52.181,12.437-78.2,12.405-35.172-.03-89.44-1.718-114.647-20.531-22.875-17.073-30.887-45.251-32.159-70.275C799.672,1649.045,829.27,1623.272,847.174,1608.146Z" fill="#949494" opacity="0.878"/>
    <path id="Path_856" data-name="Path 856" d="M848.452,1608.076c17.238-14.517,45.284-23.835,78.746-24.513,6.524-.132,13.315.1,20.191.649,30.578,2.414,67.258,14.3,96.372,32.468,33.784,21.079,52.818,44.676,53.907,67.32,1.2,25.97-22.608,43.823-45.221,55.625-7.279,3.1-26.229,10.16-27.633,10.965-.022.012-.553.165-.574.178-24.069,7.408-52.081,12.09-77.639,12.064-35.041-.024-89.466-1.465-113.813-19.929-22.224-16.854-29.9-44.981-30.926-69.9C800.843,1648.3,830.68,1623.042,848.452,1608.076Z" fill="#919191" opacity="0.902"/>
    <path id="Path_857" data-name="Path 857" d="M849.73,1608.006c17.537-14.72,45.119-23.68,77.986-24.24,6.461-.089,13.191.158,20,.736,30.212,2.538,66.6,14.543,95.435,32.406,33.455,20.724,52.2,44.148,53.017,66.615.9,25.805-23.276,43.3-45.538,54.478-7.306,3.015-26.488,10.036-27.541,10.639-.016.009-.555.163-.571.173-24.1,7.257-51.98,11.742-77.081,11.723-34.91-.018-89.463-1.252-112.979-19.327-21.544-16.673-28.911-44.712-29.692-69.536C802.009,1647.552,832.091,1622.812,849.73,1608.006Z" fill="#8e8e8e" opacity="0.927"/>
    <path id="Path_858" data-name="Path 858" d="M851.009,1607.935c17.863-14.89,44.952-23.593,77.224-23.966,6.4-.06,13.067.217,19.815.823,29.847,2.663,65.933,14.782,94.5,32.344,33.126,20.368,51.583,43.619,52.128,65.91.6,25.639-23.945,42.773-45.856,53.331-7.332,2.932-26.745,9.911-27.447,10.314-.011.006-.559.16-.57.167-24.13,7.106-51.879,11.394-76.522,11.382-34.78-.012-89.5-.989-112.144-18.724-20.9-16.447-27.933-44.444-28.46-69.168C803.173,1646.8,833.527,1622.613,851.009,1607.935Z" fill="#8b8b8b" opacity="0.951"/>
    <path id="Path_859" data-name="Path 859" d="M852.287,1607.865c18.152-15.107,44.786-23.507,76.463-23.693,6.338-.03,12.944.277,19.628.91,29.482,2.787,65.27,15.02,93.56,32.282,32.8,20.012,50.967,43.091,51.239,65.2.3,25.474-24.614,42.249-46.174,52.185-7.359,2.849-27,9.786-27.354,9.987-.005,0-.561.158-.567.162-24.162,6.955-51.778,11.047-75.964,11.041-34.649-.006-89.529-.726-111.31-18.122-20.254-16.221-26.96-44.176-27.227-68.8C804.332,1646.055,834.924,1622.368,852.287,1607.865Z" fill="#888" opacity="0.976"/>
    <path id="Path_860" data-name="Path 860" d="M1017.927,1742.792l-.564.156c-24.193,6.8-51.678,10.7-75.406,10.7-34.518,0-89.562-.462-110.476-17.519-19.609-15.994-25.994-43.909-25.994-68.429,0-22.394,30.835-45.576,48.078-59.9,18.44-15.323,44.62-23.42,75.7-23.42,6.276,0,12.82.337,19.44,1,29.117,2.911,64.608,15.258,92.623,32.22,32.47,19.656,50.35,42.563,50.35,64.5,0,25.308-25.282,41.724-46.491,51.038C1037.8,1735.9,1017.927,1742.792,1017.927,1742.792Z" fill="#858585"/>
  </g>
  <path id="Path_861" data-name="Path 861" d="M938.731,1766.764c93.923,0,170.332-45.548,170.332-101.53S1032.654,1563.7,938.731,1563.7s-170.34,45.547-170.34,101.532S844.8,1766.764,938.731,1766.764Z" fill="url(#linear-gradient)"/>
  <path id="Path_862" data-name="Path 862" d="M769.923,1665.234c0,55.328,75.579,100.182,168.808,100.182s168.8-44.854,168.8-100.182-75.577-100.186-168.8-100.186S769.923,1609.9,769.923,1665.234Z" fill="url(#linear-gradient-2)"/>
  <g id="Group_82" data-name="Group 82">
    <g id="Group_81" data-name="Group 81" style="mix-blend-mode: multiply;isolation: isolate">
      <path id="Path_863" data-name="Path 863" d="M819.194,1805.041c-4.857,11.427,5.95,21.277,18.728,25.081,10.352,3.078,23.951,1.017,28.114-3.392,4.779-5.059,4.746-15.534-2.423-23.269-7.92-8.546-30.4-9.2-37.981-4.732C825.632,1798.729,821.1,1801.178,819.194,1805.041Z" fill="#fff" opacity="0"/>
      <path id="Path_864" data-name="Path 864" d="M819.229,1805.175c-4.705,11.267,5.981,20.967,18.623,24.684,10.308,3.01,23.752.885,27.825-3.564,4.672-5.084,4.479-15.429-2.724-22.982-7.9-8.344-29.993-8.9-37.434-4.429C825.519,1798.884,821.064,1801.339,819.229,1805.175Z" fill="#fcfcfc" opacity="0.024" style="mix-blend-mode: multiply;isolation: isolate"/>
      <path id="Path_865" data-name="Path 865" d="M819.264,1805.31c-4.553,11.1,6.011,20.656,18.518,24.286,10.264,2.942,23.545.746,27.535-3.736,4.555-5.117,4.188-15.3-3.023-22.695-7.913-8.116-29.582-8.6-36.888-4.125C825.406,1799.04,821.028,1801.5,819.264,1805.31Z" fill="#f9f9f9" opacity="0.049" style="mix-blend-mode: multiply;isolation: isolate"/>
      <path id="Path_866" data-name="Path 866" d="M819.3,1805.445c-4.4,10.943,6.033,20.374,18.413,23.888,10.213,2.9,23.342.611,27.245-3.908,4.444-5.145,3.911-15.182-3.323-22.408-7.908-7.9-29.17-8.306-36.341-3.821C825.293,1799.2,820.993,1801.662,819.3,1805.445Z" fill="#f6f6f6" opacity="0.073" style="mix-blend-mode: multiply;isolation: isolate"/>
      <path id="Path_867" data-name="Path 867" d="M819.334,1805.58c-4.249,10.781,6.062,20.071,18.307,23.49,10.168,2.838,23.14.476,26.956-4.08,4.334-5.173,3.634-15.064-3.623-22.121-7.9-7.686-28.758-8.008-35.794-3.518C825.18,1799.351,820.958,1801.823,819.334,1805.58Z" fill="#f3f3f3" opacity="0.098" style="mix-blend-mode: multiply;isolation: isolate"/>
      <path id="Path_868" data-name="Path 868" d="M819.369,1805.715c-4.1,10.619,6.09,19.768,18.2,23.092,10.122,2.777,22.937.341,26.666-4.252,4.223-5.2,3.358-14.947-3.922-21.835-7.9-7.47-28.347-7.708-35.248-3.213C825.067,1799.507,820.923,1801.984,819.369,1805.715Z" fill="#f0f0f0" opacity="0.122" style="mix-blend-mode: multiply;isolation: isolate"/>
      <path id="Path_869" data-name="Path 869" d="M819.4,1805.85c-3.943,10.458,6.12,19.464,18.1,22.694,10.076,2.716,22.735.207,26.376-4.424,4.112-5.228,3.083-14.83-4.222-21.548-7.889-7.256-27.935-7.41-34.7-2.909C824.954,1799.663,820.888,1802.145,819.4,1805.85Z" fill="#ededed" opacity="0.146" style="mix-blend-mode: multiply;isolation: isolate"/>
      <path id="Path_870" data-name="Path 870" d="M819.438,1805.984c-3.791,10.3,6.149,19.161,17.993,22.3,10.031,2.655,22.532.073,26.087-4.6,4-5.255,2.807-14.712-4.522-21.261-7.882-7.041-27.524-7.111-34.155-2.606C824.841,1799.818,820.853,1802.306,819.438,1805.984Z" fill="#eaeaea" opacity="0.171" style="mix-blend-mode: multiply;isolation: isolate"/>
      <path id="Path_871" data-name="Path 871" d="M819.473,1806.119c-3.639,10.135,6.178,18.857,17.888,21.9,9.985,2.593,22.33-.06,25.8-4.767,3.89-5.283,2.534-14.6-4.822-20.975-7.873-6.827-27.112-6.813-33.607-2.3C824.729,1799.974,820.818,1802.467,819.473,1806.119Z" fill="#e7e7e7" opacity="0.195" style="mix-blend-mode: multiply;isolation: isolate"/>
      <path id="Path_872" data-name="Path 872" d="M819.508,1806.254c-3.487,9.973,6.207,18.552,17.783,21.5,9.94,2.532,22.128-.194,25.507-4.939,3.78-5.309,2.26-14.479-5.122-20.688-7.863-6.613-26.7-6.515-33.06-2C824.616,1800.129,820.783,1802.628,819.508,1806.254Z" fill="#e4e4e4" opacity="0.22" style="mix-blend-mode: multiply;isolation: isolate"/>
      <path id="Path_873" data-name="Path 873" d="M819.543,1806.389c-3.335,9.812,6.236,18.246,17.678,21.1,9.9,2.471,21.926-.326,25.217-5.11,3.67-5.335,1.988-14.362-5.421-20.4-7.853-6.4-26.289-6.216-32.514-1.695C824.5,1800.285,820.748,1802.789,819.543,1806.389Z" fill="#e1e1e1" opacity="0.244" style="mix-blend-mode: multiply;isolation: isolate"/>
      <path id="Path_874" data-name="Path 874" d="M819.578,1806.524c-3.183,9.65,6.266,17.941,17.573,20.7,9.85,2.408,21.724-.459,24.927-5.282,3.56-5.361,1.717-14.246-5.721-20.114-7.841-6.187-25.877-5.918-31.967-1.391C824.39,1800.441,820.712,1802.95,819.578,1806.524Z" fill="#dedede" opacity="0.268" style="mix-blend-mode: multiply;isolation: isolate"/>
      <path id="Path_875" data-name="Path 875" d="M819.613,1806.658c-3.031,9.489,6.3,17.635,17.468,20.307,9.8,2.345,21.522-.591,24.637-5.454,3.451-5.386,1.446-14.13-6.021-19.828-7.828-5.974-25.465-5.618-31.42-1.087C824.277,1800.6,820.677,1803.111,819.613,1806.658Z" fill="#dbdbdb" opacity="0.293" style="mix-blend-mode: multiply;isolation: isolate"/>
      <path id="Path_876" data-name="Path 876" d="M819.648,1806.793c-2.879,9.327,6.325,17.329,17.362,19.909,9.761,2.282,21.321-.723,24.348-5.626,3.342-5.411,1.176-14.014-6.32-19.541-7.815-5.762-25.054-5.32-30.874-.783C824.164,1800.752,820.642,1803.272,819.648,1806.793Z" fill="#d8d8d8" opacity="0.317" style="mix-blend-mode: multiply;isolation: isolate"/>
      <path id="Path_877" data-name="Path 877" d="M819.683,1806.928c-2.727,9.165,6.355,17.021,17.257,19.511,9.717,2.219,21.12-.855,24.059-5.8,3.232-5.436.906-13.9-6.621-19.254-7.8-5.55-24.642-5.021-30.327-.479C824.051,1800.908,820.607,1803.433,819.683,1806.928Z" fill="#d5d5d5" opacity="0.341" style="mix-blend-mode: multiply;isolation: isolate"/>
      <path id="Path_878" data-name="Path 878" d="M819.717,1807.063c-2.574,9,6.386,16.714,17.153,19.113,9.672,2.155,20.919-.987,23.769-5.97,3.123-5.461.638-13.784-6.921-18.967-7.785-5.339-24.23-4.723-29.78-.176C823.938,1801.063,820.572,1803.594,819.717,1807.063Z" fill="#d2d2d2" opacity="0.366" style="mix-blend-mode: multiply;isolation: isolate"/>
      <path id="Path_879" data-name="Path 879" d="M819.752,1807.2c-2.421,8.842,6.417,16.406,17.048,18.715,9.628,2.091,20.718-1.119,23.479-6.142,3.015-5.485.37-13.669-7.22-18.68-7.77-5.129-23.819-4.424-29.234.128C823.825,1801.219,820.537,1803.755,819.752,1807.2Z" fill="#cfcfcf" opacity="0.39" style="mix-blend-mode: multiply;isolation: isolate"/>
      <path id="Path_880" data-name="Path 880" d="M819.787,1807.332c-2.269,8.681,6.447,16.1,16.943,18.318,9.584,2.027,20.518-1.25,23.189-6.314,2.907-5.509.1-13.556-7.52-18.393-7.753-4.92-23.407-4.126-28.687.432C823.712,1801.375,820.5,1803.916,819.787,1807.332Z" fill="#ccc" opacity="0.415" style="mix-blend-mode: multiply;isolation: isolate"/>
      <path id="Path_881" data-name="Path 881" d="M819.822,1807.467c-2.117,8.519,6.478,15.789,16.838,17.92,9.539,1.962,20.318-1.381,22.9-6.486,2.8-5.533-.162-13.442-7.82-18.107-7.734-4.711-22.995-3.826-28.14.736C823.6,1801.53,820.467,1804.077,819.822,1807.467Z" fill="#c9c9c9" opacity="0.439" style="mix-blend-mode: multiply;isolation: isolate"/>
      <path id="Path_882" data-name="Path 882" d="M819.857,1807.6c-1.965,8.358,6.509,15.479,16.733,17.522,9.495,1.9,20.118-1.512,22.609-6.657,2.691-5.557-.427-13.331-8.119-17.821-7.716-4.5-22.584-3.528-27.593,1.04C823.487,1801.686,820.431,1804.238,819.857,1807.6Z" fill="#c6c6c6" opacity="0.463" style="mix-blend-mode: multiply;isolation: isolate"/>
      <path id="Path_883" data-name="Path 883" d="M819.892,1807.737c-1.813,8.2,6.54,15.169,16.628,17.124,9.452,1.831,19.918-1.643,22.32-6.829,2.583-5.581-.692-13.22-8.42-17.534-7.7-4.3-22.172-3.23-27.046,1.343C823.374,1801.841,820.4,1804.4,819.892,1807.737Z" fill="#c3c3c3" opacity="0.488" style="mix-blend-mode: multiply;isolation: isolate"/>
      <path id="Path_884" data-name="Path 884" d="M819.927,1807.872c-1.661,8.034,6.571,14.859,16.523,16.726,9.408,1.765,19.719-1.773,22.03-7,2.477-5.6-.955-13.109-8.719-17.247-7.677-4.091-21.761-2.931-26.5,1.647C823.261,1802,820.361,1804.56,819.927,1807.872Z" fill="#c1c1c1" opacity="0.512" style="mix-blend-mode: multiply;isolation: isolate"/>
      <path id="Path_885" data-name="Path 885" d="M819.962,1808.007c-1.509,7.872,6.6,14.547,16.418,16.328,9.364,1.7,19.52-1.9,21.74-7.173,2.37-5.627-1.218-13-9.019-16.96-7.655-3.886-21.349-2.633-25.953,1.951A10.728,10.728,0,0,0,819.962,1808.007Z" fill="#bebebe" opacity="0.537" style="mix-blend-mode: multiply;isolation: isolate"/>
      <path id="Path_886" data-name="Path 886" d="M820,1808.141c-1.356,7.711,6.634,14.237,16.313,15.931,9.322,1.631,19.322-2.034,21.451-7.345,2.264-5.65-1.48-12.892-9.319-16.673-7.633-3.683-20.937-2.334-25.406,2.254A10.5,10.5,0,0,0,820,1808.141Z" fill="#bbb" opacity="0.561" style="mix-blend-mode: multiply;isolation: isolate"/>
      <path id="Path_887" data-name="Path 887" d="M820.031,1808.276c-1.2,7.55,6.666,13.924,16.208,15.533,9.278,1.563,19.124-2.164,21.161-7.517,2.159-5.672-1.741-12.785-9.618-16.386-7.611-3.48-20.526-2.036-24.86,2.558A10.277,10.277,0,0,0,820.031,1808.276Z" fill="#b8b8b8" opacity="0.585" style="mix-blend-mode: multiply;isolation: isolate"/>
      <path id="Path_888" data-name="Path 888" d="M820.066,1808.411c-1.052,7.388,6.7,13.611,16.1,15.134,9.235,1.5,18.926-2.293,20.871-7.688,2.054-5.7-2-12.679-9.918-16.1-7.588-3.278-20.114-1.736-24.313,2.863A10.058,10.058,0,0,0,820.066,1808.411Z" fill="#b5b5b5" opacity="0.61" style="mix-blend-mode: multiply;isolation: isolate"/>
      <path id="Path_889" data-name="Path 889" d="M820.1,1808.546c-.9,7.226,6.729,13.3,16,14.736,9.192,1.427,18.729-2.423,20.581-7.86,1.949-5.717-2.262-12.574-10.218-15.813-7.564-3.079-19.7-1.438-23.766,3.166A9.855,9.855,0,0,0,820.1,1808.546Z" fill="#b2b2b2" opacity="0.634" style="mix-blend-mode: multiply;isolation: isolate"/>
      <path id="Path_890" data-name="Path 890" d="M820.136,1808.681c-.747,7.064,6.761,12.984,15.893,14.338,9.149,1.358,18.532-2.553,20.292-8.032,1.843-5.74-2.523-12.472-10.518-15.526-7.541-2.88-19.291-1.139-23.22,3.47A9.651,9.651,0,0,0,820.136,1808.681Z" fill="#afafaf" opacity="0.659" style="mix-blend-mode: multiply;isolation: isolate"/>
      <path id="Path_891" data-name="Path 891" d="M820.171,1808.815c-.6,6.9,6.792,12.67,15.788,13.941,9.106,1.287,18.335-2.683,20-8.2,1.739-5.762-2.782-12.37-10.818-15.239-7.516-2.684-18.879-.841-22.673,3.773A9.451,9.451,0,0,0,820.171,1808.815Z" fill="#acacac" opacity="0.683" style="mix-blend-mode: multiply;isolation: isolate"/>
      <path id="Path_892" data-name="Path 892" d="M820.206,1808.95c-.443,6.742,6.824,12.354,15.683,13.543,9.063,1.217,18.139-2.813,19.712-8.376,1.636-5.785-3.041-12.27-11.118-14.952-7.491-2.488-18.467-.542-22.126,4.077A9.264,9.264,0,0,0,820.206,1808.95Z" fill="#a9a9a9" opacity="0.707" style="mix-blend-mode: multiply;isolation: isolate"/>
      <path id="Path_893" data-name="Path 893" d="M820.241,1809.085c-.291,6.58,6.856,12.038,15.578,13.145,9.02,1.145,17.943-2.943,19.422-8.547,1.533-5.808-3.3-12.173-11.417-14.666-7.467-2.294-18.056-.244-21.579,4.381A9.082,9.082,0,0,0,820.241,1809.085Z" fill="#a6a6a6" opacity="0.732" style="mix-blend-mode: multiply;isolation: isolate"/>
      <path id="Path_894" data-name="Path 894" d="M820.275,1809.22c-.138,6.418,6.889,11.721,15.474,12.747,8.977,1.073,17.748-3.072,19.132-8.719,1.43-5.831-3.559-12.077-11.717-14.38-7.442-2.1-17.644.055-21.032,4.685A8.919,8.919,0,0,0,820.275,1809.22Z" fill="#a3a3a3" opacity="0.756" style="mix-blend-mode: multiply;isolation: isolate"/>
      <path id="Path_895" data-name="Path 895" d="M820.31,1809.355c.014,6.256,6.921,11.4,15.369,12.349,8.934,1,17.553-3.2,18.842-8.891,1.327-5.853-3.817-11.982-12.017-14.093-7.417-1.909-17.232.354-20.485,4.989A8.757,8.757,0,0,0,820.31,1809.355Z" fill="#a0a0a0" opacity="0.78" style="mix-blend-mode: multiply;isolation: isolate"/>
      <path id="Path_896" data-name="Path 896" d="M820.345,1809.49c.166,6.095,6.953,11.086,15.263,11.951,8.892.926,17.359-3.332,18.554-9.063,1.224-5.876-4.077-11.889-12.317-13.806-7.394-1.719-16.82.652-19.939,5.293A8.6,8.6,0,0,0,820.345,1809.49Z" fill="#9d9d9d" opacity="0.805" style="mix-blend-mode: multiply;isolation: isolate"/>
      <path id="Path_897" data-name="Path 897" d="M820.38,1809.624c.318,5.934,6.985,10.768,15.158,11.554,8.85.851,17.165-3.462,18.264-9.235,1.123-5.9-4.336-11.8-12.617-13.519-7.369-1.531-16.408.951-19.392,5.6A8.462,8.462,0,0,0,820.38,1809.624Z" fill="#9a9a9a" opacity="0.829" style="mix-blend-mode: multiply;isolation: isolate"/>
      <path id="Path_898" data-name="Path 898" d="M820.415,1809.759c.47,5.772,7.017,10.449,15.053,11.156,8.807.775,16.971-3.592,17.974-9.407,1.021-5.921-4.6-11.709-12.916-13.232-7.346-1.344-16,1.249-18.846,5.9A8.326,8.326,0,0,0,820.415,1809.759Z" fill="#979797" opacity="0.854" style="mix-blend-mode: multiply;isolation: isolate"/>
      <path id="Path_899" data-name="Path 899" d="M820.45,1809.894c.623,5.61,7.049,10.128,14.948,10.758,8.764.7,16.777-3.722,17.684-9.579.92-5.944-4.856-11.622-13.216-12.945-7.323-1.159-15.585,1.548-18.3,6.2A8.2,8.2,0,0,0,820.45,1809.894Z" fill="#949494" opacity="0.878" style="mix-blend-mode: multiply;isolation: isolate"/>
      <path id="Path_900" data-name="Path 900" d="M820.485,1810.029c.775,5.448,7.08,9.807,14.843,10.36,8.721.62,16.584-3.853,17.394-9.751.82-5.967-5.117-11.537-13.516-12.658-7.3-.975-15.173,1.846-17.752,6.507A8.082,8.082,0,0,0,820.485,1810.029Z" fill="#919191" opacity="0.902" style="mix-blend-mode: multiply;isolation: isolate"/>
      <path id="Path_901" data-name="Path 901" d="M820.52,1810.164c.927,5.287,7.112,9.486,14.738,9.962,8.678.541,16.391-3.983,17.1-9.923.72-5.99-5.378-11.454-13.815-12.372-7.279-.792-14.762,2.146-17.206,6.812A7.977,7.977,0,0,0,820.52,1810.164Z" fill="#8e8e8e" opacity="0.927" style="mix-blend-mode: multiply;isolation: isolate"/>
      <path id="Path_902" data-name="Path 902" d="M820.555,1810.3c1.079,5.126,7.143,9.164,14.633,9.565,8.635.461,16.2-4.114,16.815-10.1.619-6.013-5.641-11.372-14.116-12.085-7.258-.61-14.35,2.444-16.659,7.115A7.883,7.883,0,0,0,820.555,1810.3Z" fill="#8b8b8b" opacity="0.951" style="mix-blend-mode: multiply;isolation: isolate"/>
      <path id="Path_903" data-name="Path 903" d="M820.589,1810.433c1.232,4.964,7.176,8.829,14.529,9.167,8.592.366,16.014-4.244,16.525-10.267.526-6.036-5.9-11.292-14.416-11.8-7.238-.43-13.938,2.743-16.112,7.419A7.8,7.8,0,0,0,820.589,1810.433Z" fill="#888" opacity="0.976" style="mix-blend-mode: multiply;isolation: isolate"/>
      <path id="Path_904" data-name="Path 904" d="M820.624,1810.568c1.384,4.8,7.207,8.518,14.424,8.768,8.548.3,15.816-4.375,16.235-10.437s-6.169-11.219-14.715-11.512c-7.22-.254-13.527,3.041-15.565,7.723A7.723,7.723,0,0,0,820.624,1810.568Z" fill="#858585" style="mix-blend-mode: multiply;isolation: isolate"/>
    </g>
    <path id="Path_905" data-name="Path 905" d="M834.211,1819.929c10.642,0,19.3-5.653,19.3-12.606s-8.659-12.611-19.3-12.611-19.3,5.657-19.3,12.611S823.567,1819.929,834.211,1819.929Z" fill="url(#linear-gradient-3)"/>
    <path id="Path_906" data-name="Path 906" d="M815.99,1807.323c0,6.365,8.159,11.522,18.221,11.522s18.215-5.157,18.215-11.522-8.157-11.526-18.215-11.526S815.99,1800.959,815.99,1807.323Z" fill="url(#linear-gradient-4)"/>
  </g>
  <g id="Group_84" data-name="Group 84">
    <g id="Group_83" data-name="Group 83" style="mix-blend-mode: multiply;isolation: isolate">
      <path id="Path_907" data-name="Path 907" d="M840.931,1775.767c-6.349,14.936,2.513,26.935,19.211,31.9,13.525,4.021,31.615-2.135,37.057-7.9,6.241-6.612,6.249-17.439-3.116-27.55-10.352-11.163-34.841-10.541-44.737-4.7C849.346,1767.523,843.417,1770.719,840.931,1775.767Z" fill="#fff" opacity="0"/>
      <path id="Path_908" data-name="Path 908" d="M840.977,1775.943c-6.151,14.725,2.681,26.55,19.2,31.4,13.467,3.933,31.348-2.222,36.67-8.036,6.1-6.643,5.9-17.371-3.509-27.244-10.329-10.9-34.422-10.187-44.142-4.339C849.2,1767.727,843.371,1770.93,840.977,1775.943Z" fill="#fcfcfc" opacity="0.024" style="mix-blend-mode: multiply;isolation: isolate"/>
      <path id="Path_909" data-name="Path 909" d="M841.022,1776.119c-5.951,14.514,2.85,26.164,19.193,30.905,13.411,3.844,31.081-2.309,36.284-8.176,5.964-6.676,5.522-17.275-3.9-26.94-10.339-10.6-34-9.832-43.546-3.978C849.051,1767.93,843.325,1771.14,841.022,1776.119Z" fill="#f9f9f9" opacity="0.049" style="mix-blend-mode: multiply;isolation: isolate"/>
      <path id="Path_910" data-name="Path 910" d="M841.068,1776.3c-5.753,14.3,3.007,25.816,19.184,30.406,13.344,3.787,30.8-2.41,35.9-8.316,5.806-6.723,5.158-17.191-4.3-26.634-10.333-10.322-33.585-9.479-42.952-3.618C848.9,1768.133,843.279,1771.351,841.068,1776.3Z" fill="#f6f6f6" opacity="0.073" style="mix-blend-mode: multiply;isolation: isolate"/>
      <path id="Path_911" data-name="Path 911" d="M841.114,1776.472c-5.554,14.091,3.172,25.441,19.175,29.907,13.284,3.707,30.525-2.5,35.511-8.456,5.661-6.76,4.795-17.108-4.688-26.329-10.326-10.042-33.166-9.125-42.356-3.257C848.756,1768.337,843.233,1771.561,841.114,1776.472Z" fill="#f3f3f3" opacity="0.098" style="mix-blend-mode: multiply;isolation: isolate"/>
      <path id="Path_912" data-name="Path 912" d="M841.159,1776.648c-5.355,13.88,3.338,25.066,19.167,29.409,13.224,3.627,30.252-2.594,35.124-8.6,5.516-6.8,4.433-17.024-5.081-26.024-10.317-9.76-32.747-8.77-41.761-2.9C848.608,1768.54,843.187,1771.772,841.159,1776.648Z" fill="#f0f0f0" opacity="0.122" style="mix-blend-mode: multiply;isolation: isolate"/>
      <path id="Path_913" data-name="Path 913" d="M841.205,1776.824c-5.156,13.669,3.5,24.691,19.157,28.91,13.165,3.548,29.98-2.684,34.739-8.736,5.371-6.832,4.071-16.941-5.475-25.719-10.308-9.48-32.328-8.417-41.166-2.535C848.46,1768.744,843.142,1771.982,841.205,1776.824Z" fill="#ededed" opacity="0.146" style="mix-blend-mode: multiply;isolation: isolate"/>
      <path id="Path_914" data-name="Path 914" d="M841.251,1777c-4.958,13.458,3.669,24.315,19.148,28.412,13.105,3.468,29.708-2.775,34.352-8.877,5.227-6.867,3.711-16.857-5.867-25.414-10.3-9.2-31.91-8.062-40.571-2.174C848.313,1768.947,843.1,1772.193,841.251,1777Z" fill="#eaeaea" opacity="0.171" style="mix-blend-mode: multiply;isolation: isolate"/>
      <path id="Path_915" data-name="Path 915" d="M841.3,1777.176c-4.758,13.247,3.836,23.939,19.14,27.913,13.046,3.388,29.435-2.864,33.965-9.016,5.083-6.9,3.352-16.774-6.26-25.109-10.286-8.92-31.491-7.708-39.976-1.814C848.165,1769.15,843.05,1772.4,841.3,1777.176Z" fill="#e7e7e7" opacity="0.195" style="mix-blend-mode: multiply;isolation: isolate"/>
      <path id="Path_916" data-name="Path 916" d="M841.342,1777.353c-4.56,13.035,4,23.561,19.131,27.414,12.986,3.307,29.163-2.955,33.578-9.157,4.939-6.937,2.994-16.69-6.653-24.8-10.273-8.64-31.072-7.354-39.38-1.452C848.018,1769.354,843,1772.614,841.342,1777.353Z" fill="#e4e4e4" opacity="0.22" style="mix-blend-mode: multiply;isolation: isolate"/>
      <path id="Path_917" data-name="Path 917" d="M841.387,1777.529c-4.36,12.823,4.169,23.184,19.122,26.915,12.928,3.226,28.892-3.043,33.193-9.3,4.794-6.971,2.636-16.608-7.046-24.5-10.26-8.362-30.654-7-38.786-1.092C847.87,1769.557,842.958,1772.824,841.387,1777.529Z" fill="#e1e1e1" opacity="0.244" style="mix-blend-mode: multiply;isolation: isolate"/>
      <path id="Path_918" data-name="Path 918" d="M841.433,1777.7c-4.162,12.612,4.336,22.806,19.113,26.417,12.869,3.145,28.62-3.133,32.806-9.436,4.651-7.005,2.281-16.526-7.439-24.2-10.245-8.083-30.235-6.645-38.19-.731C847.723,1769.76,842.912,1773.035,841.433,1777.7Z" fill="#dedede" opacity="0.268" style="mix-blend-mode: multiply;isolation: isolate"/>
      <path id="Path_919" data-name="Path 919" d="M841.479,1777.881c-3.963,12.4,4.5,22.428,19.1,25.919,12.81,3.062,28.349-3.222,32.419-9.577,4.508-7.038,1.926-16.444-7.832-23.889-10.228-7.8-29.816-6.292-37.595-.37C847.575,1769.964,842.866,1773.245,841.479,1777.881Z" fill="#dbdbdb" opacity="0.293" style="mix-blend-mode: multiply;isolation: isolate"/>
      <path id="Path_920" data-name="Path 920" d="M841.524,1778.057c-3.764,12.19,4.671,22.049,19.1,25.42,12.752,2.981,28.078-3.31,32.032-9.716,4.366-7.072,1.572-16.363-8.225-23.585-10.211-7.528-29.4-5.937-37-.009C847.427,1770.167,842.821,1773.456,841.524,1778.057Z" fill="#d8d8d8" opacity="0.317" style="mix-blend-mode: multiply;isolation: isolate"/>
      <path id="Path_921" data-name="Path 921" d="M841.57,1778.234c-3.565,11.978,4.838,21.668,19.086,24.921,12.694,2.9,27.808-3.4,31.647-9.857,4.222-7.1,1.218-16.281-8.618-23.279-10.193-7.252-28.979-5.583-36.4.351C847.28,1770.37,842.775,1773.666,841.57,1778.234Z" fill="#d5d5d5" opacity="0.341" style="mix-blend-mode: multiply;isolation: isolate"/>
      <path id="Path_922" data-name="Path 922" d="M841.616,1778.41c-3.367,11.767,5,21.288,19.077,24.422,12.636,2.815,27.537-3.485,31.26-10,4.08-7.136.866-16.2-9.011-22.975-10.173-6.976-28.56-5.229-35.81.713C847.132,1770.574,842.729,1773.877,841.616,1778.41Z" fill="#d2d2d2" opacity="0.366" style="mix-blend-mode: multiply;isolation: isolate"/>
      <path id="Path_923" data-name="Path 923" d="M841.661,1778.586c-3.167,11.556,5.174,20.907,19.069,23.924,12.578,2.731,27.267-3.573,30.873-10.137,3.939-7.168.516-16.121-9.4-22.669-10.152-6.7-28.141-4.875-35.214,1.073C846.985,1770.777,842.683,1774.087,841.661,1778.586Z" fill="#cfcfcf" opacity="0.39" style="mix-blend-mode: multiply;isolation: isolate"/>
      <path id="Path_924" data-name="Path 924" d="M841.707,1778.762c-2.969,11.345,5.342,20.525,19.059,23.426,12.521,2.647,27-3.661,30.488-10.277,3.8-7.2.165-16.043-9.8-22.365-10.129-6.428-27.722-4.521-34.619,1.435C846.837,1770.981,842.637,1774.3,841.707,1778.762Z" fill="#ccc" opacity="0.415" style="mix-blend-mode: multiply;isolation: isolate"/>
      <path id="Path_925" data-name="Path 925" d="M841.752,1778.938c-2.769,11.134,5.511,20.143,19.051,22.927,12.463,2.563,26.728-3.747,30.1-10.417,3.656-7.23-.183-15.964-10.19-22.059-10.107-6.156-27.3-4.167-34.025,1.795C846.689,1771.184,842.591,1774.508,841.752,1778.938Z" fill="#c9c9c9" opacity="0.439" style="mix-blend-mode: multiply;isolation: isolate"/>
      <path id="Path_926" data-name="Path 926" d="M841.8,1779.114c-2.571,10.923,5.679,19.76,19.042,22.429,12.4,2.477,26.459-3.834,29.714-10.557,3.516-7.262-.53-15.888-10.583-21.755-10.082-5.884-26.885-3.812-33.429,2.156C846.542,1771.387,842.545,1774.719,841.8,1779.114Z" fill="#c6c6c6" opacity="0.463" style="mix-blend-mode: multiply;isolation: isolate"/>
      <path id="Path_927" data-name="Path 927" d="M841.844,1779.291c-2.373,10.711,5.847,19.376,19.033,21.929,12.348,2.392,26.19-3.92,29.327-10.7,3.376-7.292-.877-15.812-10.976-21.449-10.056-5.614-26.466-3.459-32.834,2.517C846.394,1771.591,842.5,1774.929,841.844,1779.291Z" fill="#c3c3c3" opacity="0.488" style="mix-blend-mode: multiply;isolation: isolate"/>
      <path id="Path_928" data-name="Path 928" d="M841.889,1779.467c-2.173,10.5,6.017,18.991,19.024,21.431,12.292,2.305,25.923-4.006,28.942-10.837,3.236-7.323-1.223-15.738-11.369-21.145-10.03-5.345-26.048-3.1-32.239,2.878C846.247,1771.794,842.454,1775.14,841.889,1779.467Z" fill="#c1c1c1" opacity="0.512" style="mix-blend-mode: multiply;isolation: isolate"/>
      <path id="Path_929" data-name="Path 929" d="M841.935,1779.643c-1.975,10.289,6.186,18.606,19.015,20.933,12.234,2.218,25.655-4.092,28.555-10.978,3.1-7.352-1.567-15.664-11.762-20.839-10-5.078-25.629-2.75-31.644,3.238C846.1,1772,842.408,1775.351,841.935,1779.643Z" fill="#bebebe" opacity="0.537" style="mix-blend-mode: multiply;isolation: isolate"/>
      <path id="Path_930" data-name="Path 930" d="M841.98,1779.819c-1.775,10.078,6.356,18.221,19.007,20.434,12.177,2.131,25.387-4.178,28.168-11.117,2.959-7.383-1.911-15.593-12.155-20.535-9.974-4.811-25.21-2.4-31.048,3.6C845.952,1772.2,842.362,1775.561,841.98,1779.819Z" fill="#bbb" opacity="0.561" style="mix-blend-mode: multiply;isolation: isolate"/>
      <path id="Path_931" data-name="Path 931" d="M842.026,1779.995c-1.577,9.867,6.525,17.834,19,19.936,12.12,2.042,25.12-4.264,27.782-11.258,2.82-7.412-2.254-15.522-12.549-20.229-9.944-4.547-24.791-2.042-30.453,3.96C845.8,1772.4,842.316,1775.772,842.026,1779.995Z" fill="#b8b8b8" opacity="0.585" style="mix-blend-mode: multiply;isolation: isolate"/>
      <path id="Path_932" data-name="Path 932" d="M842.072,1780.172c-1.378,9.655,6.694,17.446,18.988,19.436,12.065,1.954,24.855-4.348,27.4-11.4,2.682-7.442-2.6-15.455-12.941-19.925-9.915-4.284-24.373-1.687-29.859,4.321C845.656,1772.607,842.27,1775.982,842.072,1780.172Z" fill="#b5b5b5" opacity="0.61" style="mix-blend-mode: multiply;isolation: isolate"/>
      <path id="Path_933" data-name="Path 933" d="M842.117,1780.348c-1.179,9.444,6.864,17.058,18.98,18.938,12.008,1.863,24.589-4.434,27.009-11.538,2.546-7.471-2.937-15.387-13.334-19.619-9.884-4.023-23.954-1.334-29.263,4.682C845.509,1772.811,842.224,1776.193,842.117,1780.348Z" fill="#b2b2b2" opacity="0.634" style="mix-blend-mode: multiply;isolation: isolate"/>
      <path id="Path_934" data-name="Path 934" d="M842.163,1780.524c-.98,9.233,7.034,16.669,18.971,18.44,11.952,1.772,24.324-4.52,26.622-11.678,2.409-7.5-3.278-15.323-13.727-19.315-9.853-3.763-23.536-.979-28.668,5.043C845.361,1773.014,842.179,1776.4,842.163,1780.524Z" fill="#afafaf" opacity="0.659" style="mix-blend-mode: multiply;isolation: isolate"/>
      <path id="Path_935" data-name="Path 935" d="M842.209,1780.7c-.782,9.022,7.2,16.279,18.962,17.941,11.895,1.681,24.059-4.6,26.236-11.818,2.273-7.53-3.619-15.26-14.12-19.009-9.822-3.506-23.118-.625-28.073,5.4C845.214,1773.217,842.133,1776.614,842.209,1780.7Z" fill="#acacac" opacity="0.683" style="mix-blend-mode: multiply;isolation: isolate"/>
      <path id="Path_936" data-name="Path 936" d="M842.254,1780.876c-.582,8.81,7.374,15.889,18.953,17.443,11.84,1.589,23.8-4.69,25.85-11.958,2.137-7.56-3.959-15.2-14.513-18.7-9.79-3.25-22.7-.271-27.478,5.765C845.066,1773.421,842.087,1776.824,842.254,1780.876Z" fill="#a9a9a9" opacity="0.707" style="mix-blend-mode: multiply;isolation: isolate"/>
      <path id="Path_937" data-name="Path 937" d="M842.3,1781.053c-.384,8.6,7.544,15.5,18.944,16.943,11.784,1.5,23.531-4.774,25.463-12.1,2-7.589-4.3-15.141-14.906-18.4-9.757-3-22.28.083-26.882,6.125C844.919,1773.624,842.041,1777.035,842.3,1781.053Z" fill="#a6a6a6" opacity="0.732" style="mix-blend-mode: multiply;isolation: isolate"/>
      <path id="Path_938" data-name="Path 938" d="M842.345,1781.229c-.184,8.387,7.714,15.1,18.936,16.445,11.727,1.4,23.268-4.86,25.077-12.238,1.867-7.619-4.638-15.085-15.3-18.1-9.725-2.745-21.861.438-26.287,6.487C844.771,1773.828,841.995,1777.245,842.345,1781.229Z" fill="#a3a3a3" opacity="0.756" style="mix-blend-mode: multiply;isolation: isolate"/>
      <path id="Path_939" data-name="Path 939" d="M842.391,1781.405c.014,8.176,7.884,14.711,18.926,15.947,11.672,1.3,23.006-4.946,24.691-12.379,1.733-7.648-4.978-15.031-15.692-17.789-9.693-2.495-21.443.791-25.693,6.847C844.623,1774.031,841.949,1777.456,842.391,1781.405Z" fill="#a0a0a0" opacity="0.78" style="mix-blend-mode: multiply;isolation: isolate"/>
      <path id="Path_940" data-name="Path 940" d="M842.437,1781.581c.213,7.965,8.054,14.317,18.917,15.448,11.616,1.209,22.744-5.03,24.3-12.518,1.6-7.678-5.317-14.98-16.085-17.485-9.661-2.247-21.024,1.146-25.1,7.208A11.2,11.2,0,0,0,842.437,1781.581Z" fill="#9d9d9d" opacity="0.805" style="mix-blend-mode: multiply;isolation: isolate"/>
      <path id="Path_941" data-name="Path 941" d="M842.482,1781.757c.412,7.754,8.225,13.922,18.909,14.95,11.56,1.111,22.482-5.116,23.917-12.659,1.467-7.707-5.657-14.931-16.478-17.179-9.63-2-20.605,1.5-24.5,7.569A11.024,11.024,0,0,0,842.482,1781.757Z" fill="#9a9a9a" opacity="0.829" style="mix-blend-mode: multiply;isolation: isolate"/>
      <path id="Path_942" data-name="Path 942" d="M842.528,1781.934c.611,7.542,8.394,13.525,18.9,14.45,11.5,1.013,22.22-5.2,23.531-12.8,1.334-7.738-6-14.885-16.871-16.875-9.6-1.756-20.187,1.854-23.907,7.93A10.847,10.847,0,0,0,842.528,1781.934Z" fill="#979797" opacity="0.854" style="mix-blend-mode: multiply;isolation: isolate"/>
      <path id="Path_943" data-name="Path 943" d="M842.574,1782.11c.809,7.331,8.564,13.129,18.89,13.952,11.449.913,21.96-5.287,23.145-12.939,1.2-7.767-6.339-14.84-17.264-16.569-9.569-1.515-19.768,2.208-23.312,8.29A10.685,10.685,0,0,0,842.574,1782.11Z" fill="#949494" opacity="0.878" style="mix-blend-mode: multiply;isolation: isolate"/>
      <path id="Path_944" data-name="Path 944" d="M842.619,1782.286c1.009,7.12,8.734,12.731,18.882,13.454,11.392.811,21.7-5.373,22.758-13.079,1.071-7.8-6.681-14.8-17.657-16.264-9.54-1.274-19.349,2.561-22.716,8.651A10.532,10.532,0,0,0,842.619,1782.286Z" fill="#919191" opacity="0.902" style="mix-blend-mode: multiply;isolation: isolate"/>
      <path id="Path_945" data-name="Path 945" d="M842.665,1782.462c1.207,6.909,8.9,12.332,18.873,12.955,11.336.708,21.44-5.458,22.371-13.218.94-7.829-7.024-14.76-18.05-15.96-9.511-1.035-18.93,2.916-22.121,9.012A10.4,10.4,0,0,0,842.665,1782.462Z" fill="#8e8e8e" opacity="0.927" style="mix-blend-mode: multiply;isolation: isolate"/>
      <path id="Path_946" data-name="Path 946" d="M842.71,1782.638c1.407,6.7,9.074,11.933,18.865,12.457,11.279.6,21.181-5.545,21.985-13.359.808-7.859-7.369-14.723-18.443-15.654-9.485-.8-18.512,3.27-21.527,9.372A10.273,10.273,0,0,0,842.71,1782.638Z" fill="#8b8b8b" opacity="0.951" style="mix-blend-mode: multiply;isolation: isolate"/>
      <path id="Path_947" data-name="Path 947" d="M842.756,1782.815c1.605,6.486,9.243,11.516,18.855,11.957,11.224.48,20.932-5.63,21.6-13.5.687-7.89-7.714-14.689-18.836-15.35-9.459-.562-18.093,3.624-20.931,9.734A10.166,10.166,0,0,0,842.756,1782.815Z" fill="#888" opacity="0.976" style="mix-blend-mode: multiply;isolation: isolate"/>
      <path id="Path_948" data-name="Path 948" d="M842.8,1782.991c1.8,6.275,9.411,11.13,18.846,11.459,11.167.391,20.665-5.718,21.212-13.639s-8.061-14.656-19.229-15.044c-9.435-.329-17.674,3.978-20.336,10.094A10.067,10.067,0,0,0,842.8,1782.991Z" fill="#858585" style="mix-blend-mode: multiply;isolation: isolate"/>
    </g>
    <path id="Path_949" data-name="Path 949" d="M863.361,1795.521c13.745,0,24.923-7.253,24.923-16.162s-11.178-16.168-24.923-16.168-24.917,7.253-24.917,16.168S849.621,1795.521,863.361,1795.521Z" fill="url(#linear-gradient-5)"/>
    <path id="Path_950" data-name="Path 950" d="M839.527,1779.359c0,8.325,10.673,15.074,23.834,15.074s23.839-6.749,23.839-15.074-10.673-15.08-23.839-15.08S839.527,1771.028,839.527,1779.359Z" fill="url(#linear-gradient-6)"/>
  </g>
  <g id="Group_86" data-name="Group 86">
    <g id="Group_85" data-name="Group 85" style="mix-blend-mode: multiply;isolation: isolate">
      <path id="Path_951" data-name="Path 951" d="M800.515,1827.131c-2.844,6.694,4.16,14.083,11.639,16.306,6.06,1.8,16.307-.65,18.743-3.232,2.8-2.96,1.935-9.689-2.262-14.22-4.636-5-19.917-5.163-24.351-2.547A10.023,10.023,0,0,0,800.515,1827.131Z" fill="#fff" opacity="0"/>
      <path id="Path_952" data-name="Path 952" d="M800.536,1827.21c-2.756,6.6,4.161,13.861,11.561,16.033,6.034,1.763,16.135-.7,18.517-3.3,2.734-2.975,1.8-9.613-2.417-14.039-4.626-4.88-19.624-4.993-23.979-2.374A9.825,9.825,0,0,0,800.536,1827.21Z" fill="#fcfcfc" opacity="0.024" style="mix-blend-mode: multiply;isolation: isolate"/>
      <path id="Path_953" data-name="Path 953" d="M800.556,1827.289c-2.666,6.505,4.163,13.639,11.483,15.761,6.008,1.723,15.958-.749,18.292-3.372,2.666-2.995,1.652-9.525-2.571-13.856-4.631-4.748-19.333-4.824-23.608-2.2A9.631,9.631,0,0,0,800.556,1827.289Z" fill="#f9f9f9" opacity="0.049" style="mix-blend-mode: multiply;isolation: isolate"/>
      <path id="Path_954" data-name="Path 954" d="M800.577,1827.368c-2.578,6.41,4.159,13.433,11.4,15.488,5.978,1.7,15.783-.8,18.066-3.442,2.6-3.012,1.51-9.441-2.726-13.673-4.628-4.623-19.04-4.655-23.236-2.029A9.436,9.436,0,0,0,800.577,1827.368Z" fill="#f6f6f6" opacity="0.073" style="mix-blend-mode: multiply;isolation: isolate"/>
      <path id="Path_955" data-name="Path 955" d="M800.6,1827.447c-2.488,6.315,4.16,13.216,11.327,15.216,5.952,1.66,15.609-.846,17.842-3.513,2.535-3.028,1.368-9.358-2.882-13.491-4.624-4.5-18.747-4.485-22.864-1.856A9.251,9.251,0,0,0,800.6,1827.447Z" fill="#f3f3f3" opacity="0.098" style="mix-blend-mode: multiply;isolation: isolate"/>
      <path id="Path_956" data-name="Path 956" d="M800.617,1827.525c-2.4,6.222,4.161,13,11.25,14.944,5.925,1.625,15.434-.894,17.616-3.582,2.47-3.045,1.227-9.275-3.037-13.309-4.621-4.371-18.454-4.316-22.492-1.684A9.071,9.071,0,0,0,800.617,1827.525Z" fill="#f0f0f0" opacity="0.122" style="mix-blend-mode: multiply;isolation: isolate"/>
      <path id="Path_957" data-name="Path 957" d="M800.638,1827.6c-2.31,6.127,4.16,12.782,11.171,14.671,5.9,1.59,15.26-.941,17.391-3.652,2.4-3.06,1.086-9.192-3.192-13.126-4.616-4.245-18.161-4.147-22.12-1.512A8.883,8.883,0,0,0,800.638,1827.6Z" fill="#ededed" opacity="0.146" style="mix-blend-mode: multiply;isolation: isolate"/>
      <path id="Path_958" data-name="Path 958" d="M800.658,1827.683c-2.22,6.032,4.161,12.565,11.094,14.4,5.871,1.553,15.085-.99,17.165-3.723,2.341-3.076.946-9.109-3.347-12.944-4.611-4.119-17.868-3.976-21.749-1.339A8.7,8.7,0,0,0,800.658,1827.683Z" fill="#eaeaea" opacity="0.171" style="mix-blend-mode: multiply;isolation: isolate"/>
      <path id="Path_959" data-name="Path 959" d="M800.679,1827.762c-2.132,5.937,4.161,12.347,11.015,14.126,5.845,1.518,14.912-1.037,16.94-3.793,2.276-3.091.806-9.025-3.5-12.761-4.607-3.994-17.577-3.807-21.378-1.167A8.521,8.521,0,0,0,800.679,1827.762Z" fill="#e7e7e7" opacity="0.195" style="mix-blend-mode: multiply;isolation: isolate"/>
      <path id="Path_960" data-name="Path 960" d="M800.7,1827.841c-2.042,5.843,4.162,12.129,10.938,13.854,5.818,1.481,14.737-1.085,16.714-3.863,2.212-3.108.667-8.943-3.656-12.579-4.6-3.869-17.284-3.638-21.006-.994A8.333,8.333,0,0,0,800.7,1827.841Z" fill="#e4e4e4" opacity="0.22" style="mix-blend-mode: multiply;isolation: isolate"/>
      <path id="Path_961" data-name="Path 961" d="M800.719,1827.92c-1.953,5.748,4.163,11.91,10.86,13.581,5.792,1.445,14.564-1.132,16.489-3.933,2.147-3.123.528-8.86-3.811-12.4-4.6-3.744-16.991-3.468-20.634-.821A8.16,8.16,0,0,0,800.719,1827.92Z" fill="#e1e1e1" opacity="0.244" style="mix-blend-mode: multiply;isolation: isolate"/>
      <path id="Path_962" data-name="Path 962" d="M800.74,1828c-1.864,5.653,4.163,11.692,10.782,13.309,5.765,1.408,14.389-1.18,16.264-4,2.082-3.137.389-8.777-3.967-12.214-4.588-3.619-16.7-3.3-20.262-.649A7.984,7.984,0,0,0,800.74,1828Z" fill="#dedede" opacity="0.268" style="mix-blend-mode: multiply;isolation: isolate"/>
      <path id="Path_963" data-name="Path 963" d="M800.76,1828.078c-1.775,5.558,4.165,11.473,10.7,13.036,5.74,1.372,14.216-1.227,16.039-4.074,2.018-3.152.251-8.7-4.122-12.031-4.581-3.495-16.4-3.13-19.89-.477A7.817,7.817,0,0,0,800.76,1828.078Z" fill="#dbdbdb" opacity="0.293" style="mix-blend-mode: multiply;isolation: isolate"/>
      <path id="Path_964" data-name="Path 964" d="M800.781,1828.157c-1.686,5.464,4.165,11.254,10.626,12.763,5.713,1.335,14.042-1.274,15.813-4.143,1.954-3.168.114-8.613-4.277-11.849-4.573-3.372-16.112-2.961-19.518-.3A7.639,7.639,0,0,0,800.781,1828.157Z" fill="#d8d8d8" opacity="0.317" style="mix-blend-mode: multiply;isolation: isolate"/>
      <path id="Path_965" data-name="Path 965" d="M800.8,1828.236c-1.6,5.369,4.167,11.034,10.548,12.491,5.687,1.3,13.869-1.321,15.588-4.214,1.891-3.182-.023-8.531-4.431-11.667-4.565-3.247-15.82-2.791-19.147-.132A7.485,7.485,0,0,0,800.8,1828.236Z" fill="#d5d5d5" opacity="0.341" style="mix-blend-mode: multiply;isolation: isolate"/>
      <path id="Path_966" data-name="Path 966" d="M800.822,1828.315c-1.508,5.274,4.167,10.815,10.47,12.218,5.661,1.261,13.7-1.367,15.362-4.284,1.827-3.2-.16-8.449-4.586-11.484-4.556-3.124-15.528-2.622-18.775.041A7.308,7.308,0,0,0,800.822,1828.315Z" fill="#d2d2d2" opacity="0.366" style="mix-blend-mode: multiply;isolation: isolate"/>
      <path id="Path_967" data-name="Path 967" d="M800.842,1828.393c-1.418,5.18,4.169,10.6,10.392,11.947,5.635,1.223,13.522-1.414,15.137-4.355,1.764-3.21-.3-8.367-4.741-11.3-4.547-3-15.235-2.453-18.4.213A7.153,7.153,0,0,0,800.842,1828.393Z" fill="#cfcfcf" opacity="0.39" style="mix-blend-mode: multiply;isolation: isolate"/>
      <path id="Path_968" data-name="Path 968" d="M800.862,1828.472c-1.329,5.085,4.171,10.376,10.315,11.674,5.609,1.186,13.348-1.46,14.911-4.425,1.7-3.224-.431-8.286-4.9-11.119-4.537-2.878-14.942-2.282-18.032.386A7,7,0,0,0,800.862,1828.472Z" fill="#ccc" opacity="0.415" style="mix-blend-mode: multiply;isolation: isolate"/>
      <path id="Path_969" data-name="Path 969" d="M800.883,1828.551c-1.24,4.991,4.172,10.155,10.236,11.4,5.584,1.147,13.176-1.507,14.686-4.495,1.637-3.238-.566-8.206-5.051-10.937-4.526-2.756-14.649-2.113-17.66.558A6.846,6.846,0,0,0,800.883,1828.551Z" fill="#c9c9c9" opacity="0.439" style="mix-blend-mode: multiply;isolation: isolate"/>
      <path id="Path_970" data-name="Path 970" d="M800.9,1828.63c-1.151,4.9,4.174,9.934,10.159,11.129,5.557,1.109,13-1.553,14.461-4.565,1.574-3.252-.7-8.126-5.207-10.754s-14.356-1.944-17.288.73A6.693,6.693,0,0,0,800.9,1828.63Z" fill="#c6c6c6" opacity="0.463" style="mix-blend-mode: multiply;isolation: isolate"/>
      <path id="Path_971" data-name="Path 971" d="M800.924,1828.709c-1.062,4.8,4.175,9.713,10.08,10.856,5.532,1.071,12.831-1.6,14.236-4.635,1.511-3.265-.836-8.046-5.361-10.572-4.5-2.513-14.064-1.774-16.917.9A6.551,6.551,0,0,0,800.924,1828.709Z" fill="#c3c3c3" opacity="0.488" style="mix-blend-mode: multiply;isolation: isolate"/>
      <path id="Path_972" data-name="Path 972" d="M800.944,1828.788c-.973,4.706,4.177,9.492,10,10.584,5.506,1.032,12.658-1.645,14.01-4.706,1.449-3.279-.969-7.967-5.516-10.389-4.492-2.393-13.771-1.6-16.545,1.075A6.406,6.406,0,0,0,800.944,1828.788Z" fill="#c1c1c1" opacity="0.512" style="mix-blend-mode: multiply;isolation: isolate"/>
      <path id="Path_973" data-name="Path 973" d="M800.964,1828.867c-.883,4.612,4.179,9.27,9.925,10.311,5.481.993,12.486-1.691,13.785-4.775,1.386-3.293-1.1-7.889-5.671-10.207-4.48-2.274-13.479-1.436-16.173,1.248A6.267,6.267,0,0,0,800.964,1828.867Z" fill="#bebebe" opacity="0.537" style="mix-blend-mode: multiply;isolation: isolate"/>
      <path id="Path_974" data-name="Path 974" d="M800.985,1828.946c-.795,4.517,4.18,9.048,9.847,10.039,5.455.954,12.314-1.737,13.559-4.846,1.325-3.306-1.235-7.811-5.826-10.025-4.467-2.154-13.186-1.266-15.8,1.421A6.129,6.129,0,0,0,800.985,1828.946Z" fill="#bbb" opacity="0.561" style="mix-blend-mode: multiply;isolation: isolate"/>
      <path id="Path_975" data-name="Path 975" d="M801.005,1829.025c-.705,4.422,4.183,8.825,9.769,9.766,5.43.914,12.143-1.783,13.334-4.916,1.263-3.319-1.368-7.734-5.981-9.842-4.454-2.036-12.893-1.1-15.429,1.593A6,6,0,0,0,801.005,1829.025Z" fill="#b8b8b8" opacity="0.585" style="mix-blend-mode: multiply;isolation: isolate"/>
      <path id="Path_976" data-name="Path 976" d="M801.026,1829.1c-.617,4.327,4.184,8.6,9.691,9.493,5.405.875,11.971-1.828,13.108-4.986,1.2-3.332-1.5-7.657-6.136-9.659-4.44-1.919-12.6-.928-15.057,1.765A5.875,5.875,0,0,0,801.026,1829.1Z" fill="#b5b5b5" opacity="0.61" style="mix-blend-mode: multiply;isolation: isolate"/>
      <path id="Path_977" data-name="Path 977" d="M801.046,1829.182c-.527,4.234,4.186,8.38,9.613,9.222,5.38.834,11.8-1.874,12.884-5.056,1.139-3.346-1.632-7.582-6.291-9.478-4.427-1.8-12.308-.757-14.686,1.938A5.753,5.753,0,0,0,801.046,1829.182Z" fill="#b2b2b2" opacity="0.634" style="mix-blend-mode: multiply;isolation: isolate"/>
      <path id="Path_978" data-name="Path 978" d="M801.066,1829.261c-.438,4.139,4.189,8.157,9.536,8.949s11.628-1.919,12.658-5.126c1.078-3.359-1.764-7.507-6.446-9.3-4.413-1.685-12.015-.588-14.315,2.11A5.641,5.641,0,0,0,801.066,1829.261Z" fill="#afafaf" opacity="0.659" style="mix-blend-mode: multiply;isolation: isolate"/>
      <path id="Path_979" data-name="Path 979" d="M801.087,1829.34c-.349,4.044,4.191,7.933,9.457,8.677,5.329.752,11.458-1.965,12.433-5.2,1.017-3.372-1.9-7.433-6.6-9.112-4.4-1.57-11.722-.419-13.943,2.283A5.517,5.517,0,0,0,801.087,1829.34Z" fill="#acacac" opacity="0.683" style="mix-blend-mode: multiply;isolation: isolate"/>
      <path id="Path_980" data-name="Path 980" d="M801.107,1829.419c-.259,3.949,4.193,7.709,9.38,8.4,5.3.711,11.287-2.011,12.207-5.267.957-3.385-2.026-7.36-6.756-8.93-4.385-1.455-11.43-.249-13.571,2.456A5.415,5.415,0,0,0,801.107,1829.419Z" fill="#a9a9a9" opacity="0.707" style="mix-blend-mode: multiply;isolation: isolate"/>
      <path id="Path_981" data-name="Path 981" d="M801.128,1829.5c-.171,3.854,4.2,7.484,9.3,8.132,5.279.669,11.117-2.057,11.982-5.338.9-3.4-2.157-7.288-6.911-8.747-4.37-1.342-11.137-.08-13.2,2.628A5.3,5.3,0,0,0,801.128,1829.5Z" fill="#a6a6a6" opacity="0.732" style="mix-blend-mode: multiply;isolation: isolate"/>
      <path id="Path_982" data-name="Path 982" d="M801.148,1829.577c-.081,3.76,4.2,7.259,9.224,7.859,5.254.627,10.946-2.1,11.756-5.407.836-3.412-2.288-7.218-7.066-8.565-4.356-1.229-10.844.089-12.827,2.8A5.209,5.209,0,0,0,801.148,1829.577Z" fill="#a3a3a3" opacity="0.756" style="mix-blend-mode: multiply;isolation: isolate"/>
      <path id="Path_983" data-name="Path 983" d="M801.169,1829.656c.007,3.665,4.2,7.034,9.145,7.586,5.229.585,10.777-2.147,11.531-5.477.776-3.425-2.419-7.148-7.22-8.383-4.342-1.116-10.552.259-12.456,2.973A5.112,5.112,0,0,0,801.169,1829.656Z" fill="#a0a0a0" opacity="0.78" style="mix-blend-mode: multiply;isolation: isolate"/>
      <path id="Path_984" data-name="Path 984" d="M801.189,1829.735c.1,3.57,4.2,6.808,9.068,7.314,5.2.541,10.607-2.193,11.306-5.548.716-3.438-2.551-7.079-7.376-8.2-4.328-1.006-10.259.428-12.084,3.145A5.028,5.028,0,0,0,801.189,1829.735Z" fill="#9d9d9d" opacity="0.805" style="mix-blend-mode: multiply;isolation: isolate"/>
      <path id="Path_985" data-name="Path 985" d="M801.209,1829.814c.186,3.475,4.2,6.582,8.99,7.041,5.179.5,10.438-2.238,11.081-5.618.656-3.451-2.682-7.011-7.531-8.017-4.314-.9-9.966.6-11.712,3.317A4.942,4.942,0,0,0,801.209,1829.814Z" fill="#9a9a9a" opacity="0.829" style="mix-blend-mode: multiply;isolation: isolate"/>
      <path id="Path_986" data-name="Path 986" d="M801.23,1829.893c.275,3.381,4.206,6.355,8.912,6.769,5.153.452,10.268-2.285,10.855-5.688.6-3.465-2.814-6.945-7.686-7.836-4.3-.786-9.673.768-11.34,3.491A4.863,4.863,0,0,0,801.23,1829.893Z" fill="#979797" opacity="0.854" style="mix-blend-mode: multiply;isolation: isolate"/>
      <path id="Path_987" data-name="Path 987" d="M801.25,1829.971c.364,3.287,4.208,6.129,8.834,6.5,5.129.408,10.1-2.33,10.63-5.758.538-3.478-2.945-6.88-7.841-7.653-4.286-.677-9.381.937-10.968,3.663A4.787,4.787,0,0,0,801.25,1829.971Z" fill="#949494" opacity="0.878" style="mix-blend-mode: multiply;isolation: isolate"/>
      <path id="Path_988" data-name="Path 988" d="M801.271,1830.05c.453,3.192,4.21,5.9,8.756,6.225,5.1.362,9.931-2.377,10.4-5.829.479-3.492-3.077-6.815-8-7.47-4.273-.57-9.088,1.106-10.6,3.835A4.72,4.72,0,0,0,801.271,1830.05Z" fill="#919191" opacity="0.902" style="mix-blend-mode: multiply;isolation: isolate"/>
      <path id="Path_989" data-name="Path 989" d="M801.291,1830.129c.542,3.1,4.212,5.674,8.678,5.952,5.078.316,9.763-2.422,10.179-5.9.421-3.505-3.21-6.751-8.15-7.288-4.261-.462-8.8,1.276-10.226,4.008A4.661,4.661,0,0,0,801.291,1830.129Z" fill="#8e8e8e" opacity="0.927" style="mix-blend-mode: multiply;isolation: isolate"/>
      <path id="Path_990" data-name="Path 990" d="M801.311,1830.208c.632,3,4.215,5.446,8.6,5.679,5.053.27,9.594-2.468,9.953-5.968.362-3.519-3.343-6.69-8.3-7.106-4.249-.356-8.5,1.445-9.854,4.18A4.609,4.609,0,0,0,801.311,1830.208Z" fill="#8b8b8b" opacity="0.951" style="mix-blend-mode: multiply;isolation: isolate"/>
      <path id="Path_991" data-name="Path 991" d="M801.332,1830.287c.721,2.908,4.216,5.211,8.522,5.407,5.028.215,9.43-2.514,9.729-6.039s-3.477-6.628-8.461-6.923c-4.237-.251-8.21,1.614-9.482,4.352A4.555,4.555,0,0,0,801.332,1830.287Z" fill="#888" opacity="0.976" style="mix-blend-mode: multiply;isolation: isolate"/>
      <path id="Path_992" data-name="Path 992" d="M801.352,1830.366c.81,2.813,4.218,4.989,8.445,5.134,5,.176,9.257-2.56,9.5-6.109s-3.612-6.567-8.616-6.741c-4.226-.145-7.917,1.784-9.11,4.526A4.514,4.514,0,0,0,801.352,1830.366Z" fill="#858585" style="mix-blend-mode: multiply;isolation: isolate"/>
    </g>
    <path id="Path_993" data-name="Path 993" d="M810.816,1835.956c6.59,0,11.751-3.44,11.751-7.833s-5.161-7.835-11.751-7.835-11.75,3.441-11.75,7.835S804.226,1835.956,810.816,1835.956Z" fill="url(#linear-gradient-7)"/>
    <path id="Path_994" data-name="Path 994" d="M800.152,1828.123c0,3.726,4.772,6.746,10.664,6.746s10.665-3.02,10.665-6.746-4.776-6.747-10.665-6.747S800.152,1824.4,800.152,1828.123Z" fill="url(#linear-gradient-8)"/>
  </g>
  <g id="Group_107" data-name="Group 107">
    <path id="Path_1397" data-name="Path 1397" d="M816.2,1668.425a2.382,2.382,0,1,1-4.759,0v-16.037a2.778,2.778,0,0,1-1.961,1.04,2.935,2.935,0,0,1-2.638-3,4.5,4.5,0,0,1,1.24-2.759,35.944,35.944,0,0,0,5.719-12.078c.32-1.44.6-2.52,2.4-2.52.319,0,2.6.04,2.6,2.08,0,1.24-1.08,5.159-2.6,8.678Zm4-13.038a2.1,2.1,0,0,1-2.439-2.279c0-1.92,1.279-2.28,2.439-2.28h8.839v-3.079H824.8c-3.2,0-4.6-1.2-4.6-4.64v-4.279c0-3.559,1.52-4.6,4.6-4.6H838.08c2.959,0,4.6.96,4.6,4.6v4.279c0,3.52-1.481,4.64-4.6,4.64h-4.359v3.079h8.758a2.117,2.117,0,0,1,2.44,2.28c0,2.039-1.44,2.279-2.44,2.279H835.6a36.251,36.251,0,0,0,6,6.839c3.16,2.56,3.279,2.64,3.279,3.56a2.893,2.893,0,0,1-2.6,2.8c-.8,0-1.559-.44-3.159-2.119a43.973,43.973,0,0,1-5.4-6.919v8.838a2.1,2.1,0,0,1-2.24,2.44c-1.8,0-2.439-.8-2.439-2.44v-8.478c-2.72,3.759-7.519,8.718-9.479,8.718a2.749,2.749,0,0,1-2.4-2.639,2.794,2.794,0,0,1,1.56-2.24,29.091,29.091,0,0,0,8.558-8.359Zm17.557-15.637a1.207,1.207,0,0,0-1.36-1.36h-9.958a1.191,1.191,0,0,0-1.36,1.36v2.52a1.191,1.191,0,0,0,1.36,1.359H836.4a1.191,1.191,0,0,0,1.36-1.359Z" fill="#fff" stroke="#fff" stroke-linecap="round" stroke-linejoin="round" stroke-width="4"/>
    <path id="Path_1398" data-name="Path 1398" d="M866.521,1645.749a1.772,1.772,0,0,1-2.039-1.32c-1.92,1.32-2.559,1.44-3,1.44a2.68,2.68,0,0,1-2.359-2.2,35.445,35.445,0,0,0-1.239,3.6c0,.28.08.44.44.96a17,17,0,0,1,2.6,9.038c0,5.559-3.32,5.559-4.96,5.559-2.239,0-2.72-1.08-2.72-2.719,0-1.52.52-2.04,1.32-2.12.8-.04,1.76-.12,1.76-2.2a12.893,12.893,0,0,0-1.56-5.959c-.879-1.64-.959-1.8-.959-2.279a13.534,13.534,0,0,1,1-3.4,38.776,38.776,0,0,0,1.4-4.839c0-.68-.761-.68-.92-.68h-1.12c-.56,0-.959.24-.959.92v28.875c0,1.72-.721,2.44-2.4,2.44a2.088,2.088,0,0,1-2.2-2.44V1638.43c0-3.759.879-4.479,4.52-4.479h3.039c2.879,0,4.4.4,4.4,3.479a13.044,13.044,0,0,1-.558,3.68c.2-.16,1.719-1,2.639-1.48a25.507,25.507,0,0,0,6.079-5.119,4.28,4.28,0,0,1,3.519-1.64,4.159,4.159,0,0,1,3.56,1.56,25.9,25.9,0,0,0,8.078,6.439,2.352,2.352,0,0,1,1.48,2.12,2.668,2.668,0,0,1-2.4,2.8c-.52,0-1.039-.12-3.159-1.56-.239,1.48-1.36,1.52-2.079,1.52H874.48v2.24h4.44c3.68,0,4.479.8,4.479,4.479v2.84c0,3.719-.8,4.479-4.479,4.479h-3c2.12,3.639,5.119,4.959,7.76,6.079a1.994,1.994,0,0,1,1.559,2.119,2.514,2.514,0,0,1-2.319,2.68c-1.481,0-7.159-2.4-10.6-8.439-2.96,5.679-8.958,8.479-10.759,8.479a2.565,2.565,0,0,1-2.359-2.72,2.243,2.243,0,0,1,1.8-2.239c3.36-1.2,5.759-2.44,7.559-5.959H865.6c-3.72,0-4.52-.84-4.52-4.479v-2.84c0-3.679.84-4.479,4.52-4.479h4.319v-2.24Zm3.4,6.279h-3.64a.849.849,0,0,0-.96.96v1.8a.864.864,0,0,0,.96.959h3.48a21.8,21.8,0,0,0,.16-3Zm6.478-10.358a35.216,35.216,0,0,1-3.479-3.68c-.239-.24-.36-.36-.6-.36-.28,0-.319.04-.68.52a26.4,26.4,0,0,1-3.519,3.52Zm-1.92,11.078a21.509,21.509,0,0,1-.16,3h3.88a.847.847,0,0,0,.96-.959v-1.8a.849.849,0,0,0-.96-.96h-3.72Z" fill="#fff" stroke="#fff" stroke-linecap="round" stroke-linejoin="round" stroke-width="4"/>
    <path id="Path_1399" data-name="Path 1399" d="M904.522,1659.427c-1.519,4.079-3.519,7.279-7.118,7.279-4.439,0-8.638-5.919-8.638-13.118,0-10.639,7.918-17.677,18.4-17.677,11.278,0,16.557,8.078,16.557,15.8,0,11.958-10.838,16.717-12.877,16.717a2.689,2.689,0,0,1-2.64-2.8,1.966,1.966,0,0,1,1.319-2c2.84-1.28,8.8-4.039,8.8-11.958,0-3.119-1-9.8-9.6-10.958A77.216,77.216,0,0,1,904.522,1659.427Zm-10.758-5.719c0,3.919,1.679,7.479,3.48,7.479,1.239,0,2.039-2.2,2.68-3.92a75.868,75.868,0,0,0,3.719-16.357A12.7,12.7,0,0,0,893.764,1653.708Z" fill="#fff" stroke="#fff" stroke-linecap="round" stroke-linejoin="round" stroke-width="4"/>
    <path id="Path_1400" data-name="Path 1400" d="M936.564,1668.465a2.134,2.134,0,0,1-2.32,2.44c-2.2,0-2.559-1.2-2.559-2.44v-16.557a2.561,2.561,0,0,1-2.08,1.32,2.852,2.852,0,0,1-2.6-3,3.151,3.151,0,0,1,.72-2c3.319-4.879,4.959-7.279,6.6-13.4a2.059,2.059,0,0,1,2.24-1.88c1.28,0,2.639.6,2.639,2.04,0,.48-.279,2.919-2.639,8.319Zm25.915-24.715a2.158,2.158,0,0,1,2.48,2.4c0,2.08-.959,2.64-2.48,2.64h-8.638v16.037h7.479a2.159,2.159,0,0,1,2.479,2.36c0,2.159-1.08,2.6-2.479,2.6H941.443a2.16,2.16,0,0,1-2.48-2.36c0-2.119,1.08-2.6,2.48-2.6h7.279v-16.037h-8.439a2.171,2.171,0,0,1-2.479-2.4c0-2.08.96-2.639,2.479-2.639h8.439v-8.159a2.171,2.171,0,0,1,2.44-2.48c2.079,0,2.679.88,2.679,2.48v8.159Z" fill="#fff" stroke="#fff" stroke-linecap="round" stroke-linejoin="round" stroke-width="4"/>
    <path id="Path_1401" data-name="Path 1401" d="M973.725,1654.028c-1.04.08-3.6.28-4.36.28-.519,0-2.04,0-2.04-2.2a1.949,1.949,0,0,1,.8-1.8c.4-.24.641-.24,2.6-.36.56-.679,1.2-1.519,1.8-2.359a30.273,30.273,0,0,0-3.279-3.8c-1.159-1.04-1.64-1.48-1.64-2.44a2.427,2.427,0,0,1,2.28-2.44,1.594,1.594,0,0,1,1.04.32c.4-.64.8-1.28,1.8-3.2,1.359-2.52,1.519-2.84,2.679-2.84s2.6.84,2.6,2.04c0,1.08-2.96,5.679-3.92,7.039.561.64.641.72,1.2,1.4.84-1.359,1.76-2.8,3.079-5.2.561-1.04.96-1.559,2-1.559.92,0,2.64.48,2.64,2.039,0,.84-.32,1.44-1.72,3.48-1.679,2.479-3.479,4.919-5.359,7.278,1.359-.08,1.6-.12,3.68-.32a8.128,8.128,0,0,1-.44-2.039c0-1.28,1.319-1.72,2.119-1.72,1.279,0,1.6.68,2.24,2.28a23.269,23.269,0,0,1,1.6,5.439c0,2-2.12,2-2.32,2-1.6,0-1.84-.959-2.16-2.079-2.2.32-2.239.32-2.559.36V1668.7c0,1.44-.521,2.16-2.279,2.16a1.864,1.864,0,0,1-2.08-2.16Zm-6.24,12.238c0-.48.361-2.52.441-2.96.119-1,.439-2.919.76-5.839a1.6,1.6,0,0,1,1.839-1.64c1.919,0,1.919,1.4,1.919,2.04a55,55,0,0,1-1,8.279c-.16.68-.4,1.8-1.48,1.8C969.245,1667.945,967.485,1667.945,967.485,1666.266Zm18.077-1.28V1639.11c0-3.719,1.52-4.759,4.76-4.759h7.559c3.238,0,4.8,1,4.8,4.759v25.876h.8c1.76,0,1.76,1.76,1.76,2.16,0,2.4-1.28,2.519-2.2,2.519H983.8c-.68,0-2.2,0-2.2-2.32a2.74,2.74,0,0,1,.519-1.759c-1.08,0-1.72-.08-2.039-1.84-.121-.72-.881-6.319-.881-6.439,0-1.4,1.32-1.56,1.96-1.56,1.441,0,1.72.8,2,2.04a36.488,36.488,0,0,1,.92,5.919,1.615,1.615,0,0,1-.439,1.28Zm12.358-20.437v-4.159a1.205,1.205,0,0,0-1.359-1.36h-4.92a1.192,1.192,0,0,0-1.36,1.36v4.159Zm0,4.36h-7.639v5.6h7.639Zm0,10.038h-7.639v6.039h7.639Z" fill="#fff" stroke="#fff" stroke-linecap="round" stroke-linejoin="round" stroke-width="4"/>
    <path id="Path_1402" data-name="Path 1402" d="M1035.8,1646.549c.16-1.32.72-2.32,2.319-2.32,2.52,0,2.8,1.52,2.8,2.48a33.889,33.889,0,0,1-1.52,8.479,36.731,36.731,0,0,1,3.36,2.559c1.039.88,1.359,1.32,1.359,2.2,0,1.6-1.24,3.039-2.479,3.039-.92,0-1.24-.24-4.2-2.679-3,5.8-8,9.318-9.758,9.318a2.808,2.808,0,0,1-2.68-2.6c0-.959.2-1.159,2.359-2.8a19.106,19.106,0,0,0,5.8-7,34.8,34.8,0,0,0-8-4,68.68,68.68,0,0,1-3.839,6.719c-2.519,3.879-4.479,6.119-7.438,6.119-3.12,0-5.24-2.8-5.24-6.679a11.717,11.717,0,0,1,11.678-11.8,13.7,13.7,0,0,1,2.159.2c.6-1.4,1.52-3.4,2.8-7-3.04.24-6.878.44-8.318.44-1.28,0-3.12,0-3.12-2.52,0-2.559,1.84-2.559,3.48-2.559.6,0,3.2.08,3.719.08a40.251,40.251,0,0,0,5.6-.36c.359-.04,1.959-.32,2.279-.32,1.439,0,2.879,1.32,2.879,2.4,0,.44-.48,1.48-4.479,10.839a48.686,48.686,0,0,1,7.559,3.519A37.266,37.266,0,0,0,1035.8,1646.549Zm-22.6,12.838c0,.32.039,1.4.8,1.4,1.439,0,4.68-5.839,6-8.4C1015.484,1652.148,1013.205,1656.467,1013.205,1659.387Z" fill="#fff" stroke="#fff" stroke-linecap="round" stroke-linejoin="round" stroke-width="4"/>
    <path id="Path_1403" data-name="Path 1403" d="M1054.674,1650.914c.139-.785.7-3.752.867-4.872a1.427,1.427,0,0,1,1.6-1.4c.756,0,1.624.336,1.624,1.2a45.27,45.27,0,0,1-.868,4.789c5.711.028,6.944,2.575,6.944,7.532,0,7.055-1.512,10.416-6.412,10.416-1.764,0-2.969-.141-2.969-1.624,0-.841.42-1.485,1.121-1.485.336,0,.9.056,1.064.056a4.123,4.123,0,0,0,2.912-1.008c1.092-1.568,1.147-5.264,1.147-6.552,0-3.639-.84-4.676-4.508-4.424a57.307,57.307,0,0,1-3.975,11.285c-1.708,3.527-2.156,3.779-2.857,3.779-.643,0-1.791-.448-1.791-1.512,0-.364.112-.616,1.119-2.352a45.1,45.1,0,0,0,4.285-10.864c-.785.112-4.564.756-4.929.756-.951,0-1.344-.756-1.344-1.595,0-1.232.869-1.373,2.045-1.512Zm16.884,8.315c0,1.2-1.2,1.484-1.708,1.484-1.008,0-1.176-.532-1.456-1.792a17.53,17.53,0,0,0-4-8.007c-.841-.9-.952-1.092-.952-1.429a1.435,1.435,0,0,1,1.427-1.287C1066.938,1648.2,1071.558,1656.094,1071.558,1659.229Zm-.42-9.771a1.146,1.146,0,0,1-1.12,1.147c-.5,0-.7-.251-1.233-1.063a19.087,19.087,0,0,0-2.267-2.745c-.393-.391-.42-.615-.42-.783a1.171,1.171,0,0,1,1.316-1.12C1068.254,1645.033,1071.138,1648.617,1071.138,1649.458Zm2.3-4c.923,1.2,1.007,1.484,1.007,1.819a1.166,1.166,0,0,1-1.12,1.148c-.5,0-.7-.252-1.231-1.036a19.781,19.781,0,0,0-2.3-2.771,1.387,1.387,0,0,1-.392-.784,1.176,1.176,0,0,1,1.316-1.121C1071.334,1642.822,1072.426,1644.137,1073.434,1645.454Z" fill="#fff" stroke="#fff" stroke-linecap="round" stroke-linejoin="round" stroke-width="4"/>
    <path id="Path_1404" data-name="Path 1404" d="M877.638,1693.778l.028-1.653c-.84.113-3.164.448-3.893.448-.755,0-1.372-.364-1.372-1.539a1.324,1.324,0,0,1,1.372-1.456c.617-.057,3.361-.224,3.893-.28l.027-3.193c0-.9,0-2.015,1.485-2.015,1.035,0,1.456.616,1.456,1.6s-.085,5.319-.085,6.215a11.936,11.936,0,0,1,7.617-3.024c4.871,0,8.2,3.416,8.2,8.316,0,8.372-8.932,10.221-10.191,10.221a1.544,1.544,0,0,1-1.569-1.624c0-1.037.7-1.205,1.792-1.429,3.949-.812,6.8-3.668,6.8-7.195,0-2.437-1.428-5.405-5.319-5.405-2.941,0-5.349,1.68-7.392,3.669-.029,1.82,0,11.424,0,11.563-.084,1.708-1.009,1.764-1.513,1.764-1.427,0-1.4-1.175-1.4-1.9l.027-8.289c-.42.589-2.24,3.248-2.631,3.78-.533.757-.924,1.12-1.289,1.12-1.484,0-1.763-.98-1.763-1.4a1.957,1.957,0,0,1,.5-1.119Z" fill="#fff" stroke="#fff" stroke-linecap="round" stroke-linejoin="round" stroke-width="4"/>
    <path id="Path_1405" data-name="Path 1405" d="M907.233,1690.5c.168-.812.812-4.423.953-5.151a1.269,1.269,0,0,1,1.456-1.2c1.036,0,1.6.532,1.6,1.176a45.481,45.481,0,0,1-.925,4.844c6.609-.42,7.728,2.939,7.728,7.671,0,9.352-2.912,10.277-6.16,10.277-2.688,0-3.584-.477-3.584-1.708,0-.925.505-1.485,1.205-1.485.42,0,1.623.225,2.127.225,1.541,0,3.361-.252,3.361-7.393,0-2.8-.168-4.815-3.556-4.815-.533,0-1.037.028-1.821.083a59.785,59.785,0,0,1-4.676,12.74c-.839,1.569-1.232,2.268-2.043,2.268a1.623,1.623,0,0,1-1.708-1.456c0-.336.251-.783.952-2.043a49.2,49.2,0,0,0,4.368-11.173c-.784.112-4.592.728-4.928.728a1.323,1.323,0,0,1-1.289-1.483c0-1.176.756-1.373,1.765-1.484Zm14.841.225a18.636,18.636,0,0,1,2.631,7.9c0,1.007-.672,1.512-1.707,1.512-1.148,0-1.261-.393-1.541-2.156a18.73,18.73,0,0,0-3.248-7.588c-.728-.98-.867-1.2-.867-1.6a1.5,1.5,0,0,1,1.568-1.315C919.974,1687.478,921.094,1689.1,922.074,1690.726Z" fill="#fff" stroke="#fff" stroke-linecap="round" stroke-linejoin="round" stroke-width="4"/>
    <path id="Path_1406" data-name="Path 1406" d="M942.822,1693.609c5.348,0,8.119,2.857,8.119,6.609a7.213,7.213,0,0,1-5.011,6.8,20.585,20.585,0,0,1-7.729,1.148c-4.619,0-5.4-.419-5.4-1.819a1.322,1.322,0,0,1,1.373-1.429c.279,0,1.484.112,1.736.141,1.176.084,2.072.111,2.6.111,1.652,0,9.3,0,9.3-5.068,0-3.639-4.228-3.639-5.013-3.639a14.705,14.705,0,0,0-8.875,3.107c-1.205.9-1.344,1.009-1.933,1.009a1.6,1.6,0,0,1-1.708-1.6c0-1.091,1.288-7.363,1.624-8.931.224-1.064.421-1.877,1.569-1.877.7,0,1.624.281,1.624,1.2a10.131,10.131,0,0,1-.42,2.128c-.477,1.988-.672,2.827-1.065,4.984A17.893,17.893,0,0,1,942.822,1693.609Zm-6.777-9.38a37.625,37.625,0,0,1,8.064,1.625c1.4.392,2.184.644,2.184,1.708a1.4,1.4,0,0,1-1.344,1.54c-.279,0-2.015-.5-2.324-.588a66.472,66.472,0,0,0-6.635-1.4c-.841-.14-1.484-.392-1.484-1.372A1.363,1.363,0,0,1,936.045,1684.229Z" fill="#fff" stroke="#fff" stroke-linecap="round" stroke-linejoin="round" stroke-width="4"/>
    <path id="Path_1407" data-name="Path 1407" d="M960.545,1701c-1.119,2.3-1.483,2.829-2.407,2.829a1.643,1.643,0,0,1-1.737-1.485c0-.475.14-.672,1.065-2.351a72.428,72.428,0,0,0,3.723-8.513c-1.288.057-2.211.057-2.267.057-1.092,0-2.381,0-2.381-1.6,0-1.483,1.093-1.483,1.709-1.483.84,0,3.248,0,3.947-.028.168-.533.813-2.969.981-3.444a1.376,1.376,0,0,1,1.427-1.064c.7,0,1.737.336,1.737,1.26a17.427,17.427,0,0,1-.784,2.967c.475-.055,2.575-.391,3.024-.391.9,0,1.231.7,1.231,1.455,0,1.429-.5,1.54-5.264,2.045A95.733,95.733,0,0,1,960.545,1701Zm10.7-6.636a1.312,1.312,0,0,1,1.4-1.483,1.456,1.456,0,0,1,1.567,1.287c.057.673.225,4.9.252,6.1a23.259,23.259,0,0,1,4.509,2.212c.784.505,1.063.84,1.063,1.456a1.671,1.671,0,0,1-1.484,1.765c-.252,0-.588-.2-1.652-.869a26.266,26.266,0,0,0-2.352-1.288c0,1.792-.2,4.984-5.571,4.984-3.64,0-6.273-1.763-6.273-4.731,0-2.353,1.82-4.7,5.937-4.7a14.091,14.091,0,0,1,2.827.308C971.437,1698.677,971.242,1695.149,971.242,1694.365Zm-2.744,7.448c-2.185,0-3.024.925-3.024,1.96,0,1.54,1.764,2.072,3.192,2.072.812,0,2.688-.168,2.855-1.652a16.456,16.456,0,0,0,.028-1.876A10.392,10.392,0,0,0,968.5,1701.813Zm9.3-11.872c1.625.812,2.269,1.177,2.269,2.045,0,.84-.533,1.68-1.289,1.68-.476,0-.7-.084-2.379-1.064-1.064-.616-3.361-1.624-3.892-1.849a1.246,1.246,0,0,1-.924-1.2,1.511,1.511,0,0,1,1.512-1.54C973.873,1688.01,975.945,1689.018,977.793,1689.941Z" fill="#fff" stroke="#fff" stroke-linecap="round" stroke-linejoin="round" stroke-width="4"/>
    <path id="Path_1408" data-name="Path 1408" d="M988.742,1687.337c0,.392-.252,2.045-.281,2.381a40.6,40.6,0,0,0-.279,4.619c0,4.956,1.259,9.772,3.275,9.772,1.037,0,2.1-2.212,2.744-3.891.5-1.317.672-1.792,1.569-1.792a1.415,1.415,0,0,1,1.54,1.315,11.94,11.94,0,0,1-1.373,3.808c-1.316,2.548-2.715,4.088-4.62,4.088-2.967,0-6.243-4.367-6.243-13.523a46.443,46.443,0,0,1,.476-6.524c.139-.757.364-1.54,1.567-1.54C987.426,1686.05,988.742,1686.05,988.742,1687.337Zm17.975,5.32a22.625,22.625,0,0,1,1.848,8.4c0,.728,0,2.128-1.651,2.128-1.373,0-1.429-.9-1.568-2.52a21.454,21.454,0,0,0-2.969-9.576c-.644-1.008-.783-1.288-.783-1.6a1.476,1.476,0,0,1,1.484-1.372C1004.422,1688.122,1005.85,1690.669,1006.717,1692.657Z" fill="#fff" stroke="#fff" stroke-linecap="round" stroke-linejoin="round" stroke-width="4"/>
  </g>
  <g id="Group_108" data-name="Group 108">
    <path id="Path_1409" data-name="Path 1409" d="M816.2,1668.425a2.382,2.382,0,1,1-4.759,0v-16.037a2.778,2.778,0,0,1-1.961,1.04,2.935,2.935,0,0,1-2.638-3,4.5,4.5,0,0,1,1.24-2.759,35.944,35.944,0,0,0,5.719-12.078c.32-1.44.6-2.52,2.4-2.52.319,0,2.6.04,2.6,2.08,0,1.24-1.08,5.159-2.6,8.678Zm4-13.038a2.1,2.1,0,0,1-2.439-2.279c0-1.92,1.279-2.28,2.439-2.28h8.839v-3.079H824.8c-3.2,0-4.6-1.2-4.6-4.64v-4.279c0-3.559,1.52-4.6,4.6-4.6H838.08c2.959,0,4.6.96,4.6,4.6v4.279c0,3.52-1.481,4.64-4.6,4.64h-4.359v3.079h8.758a2.117,2.117,0,0,1,2.44,2.28c0,2.039-1.44,2.279-2.44,2.279H835.6a36.251,36.251,0,0,0,6,6.839c3.16,2.56,3.279,2.64,3.279,3.56a2.893,2.893,0,0,1-2.6,2.8c-.8,0-1.559-.44-3.159-2.119a43.973,43.973,0,0,1-5.4-6.919v8.838a2.1,2.1,0,0,1-2.24,2.44c-1.8,0-2.439-.8-2.439-2.44v-8.478c-2.72,3.759-7.519,8.718-9.479,8.718a2.749,2.749,0,0,1-2.4-2.639,2.794,2.794,0,0,1,1.56-2.24,29.091,29.091,0,0,0,8.558-8.359Zm17.557-15.637a1.207,1.207,0,0,0-1.36-1.36h-9.958a1.191,1.191,0,0,0-1.36,1.36v2.52a1.191,1.191,0,0,0,1.36,1.359H836.4a1.191,1.191,0,0,0,1.36-1.359Z" fill="#009342"/>
    <path id="Path_1410" data-name="Path 1410" d="M866.521,1645.749a1.772,1.772,0,0,1-2.039-1.32c-1.92,1.32-2.559,1.44-3,1.44a2.68,2.68,0,0,1-2.359-2.2,35.445,35.445,0,0,0-1.239,3.6c0,.28.08.44.44.96a17,17,0,0,1,2.6,9.038c0,5.559-3.32,5.559-4.96,5.559-2.239,0-2.72-1.08-2.72-2.719,0-1.52.52-2.04,1.32-2.12.8-.04,1.76-.12,1.76-2.2a12.893,12.893,0,0,0-1.56-5.959c-.879-1.64-.959-1.8-.959-2.279a13.534,13.534,0,0,1,1-3.4,38.776,38.776,0,0,0,1.4-4.839c0-.68-.761-.68-.92-.68h-1.12c-.56,0-.959.24-.959.92v28.875c0,1.72-.721,2.44-2.4,2.44a2.088,2.088,0,0,1-2.2-2.44V1638.43c0-3.759.879-4.479,4.52-4.479h3.039c2.879,0,4.4.4,4.4,3.479a13.044,13.044,0,0,1-.558,3.68c.2-.16,1.719-1,2.639-1.48a25.507,25.507,0,0,0,6.079-5.119,4.28,4.28,0,0,1,3.519-1.64,4.159,4.159,0,0,1,3.56,1.56,25.9,25.9,0,0,0,8.078,6.439,2.352,2.352,0,0,1,1.48,2.12,2.668,2.668,0,0,1-2.4,2.8c-.52,0-1.039-.12-3.159-1.56-.239,1.48-1.36,1.52-2.079,1.52H874.48v2.24h4.44c3.68,0,4.479.8,4.479,4.479v2.84c0,3.719-.8,4.479-4.479,4.479h-3c2.12,3.639,5.119,4.959,7.76,6.079a1.994,1.994,0,0,1,1.559,2.119,2.514,2.514,0,0,1-2.319,2.68c-1.481,0-7.159-2.4-10.6-8.439-2.96,5.679-8.958,8.479-10.759,8.479a2.565,2.565,0,0,1-2.359-2.72,2.243,2.243,0,0,1,1.8-2.239c3.36-1.2,5.759-2.44,7.559-5.959H865.6c-3.72,0-4.52-.84-4.52-4.479v-2.84c0-3.679.84-4.479,4.52-4.479h4.319v-2.24Zm3.4,6.279h-3.64a.849.849,0,0,0-.96.96v1.8a.864.864,0,0,0,.96.959h3.48a21.8,21.8,0,0,0,.16-3Zm6.478-10.358a35.216,35.216,0,0,1-3.479-3.68c-.239-.24-.36-.36-.6-.36-.28,0-.319.04-.68.52a26.4,26.4,0,0,1-3.519,3.52Zm-1.92,11.078a21.509,21.509,0,0,1-.16,3h3.88a.847.847,0,0,0,.96-.959v-1.8a.849.849,0,0,0-.96-.96h-3.72Z" fill="#009342"/>
    <path id="Path_1411" data-name="Path 1411" d="M904.522,1659.427c-1.519,4.079-3.519,7.279-7.118,7.279-4.439,0-8.638-5.919-8.638-13.118,0-10.639,7.918-17.677,18.4-17.677,11.278,0,16.557,8.078,16.557,15.8,0,11.958-10.838,16.717-12.877,16.717a2.689,2.689,0,0,1-2.64-2.8,1.966,1.966,0,0,1,1.319-2c2.84-1.28,8.8-4.039,8.8-11.958,0-3.119-1-9.8-9.6-10.958A77.216,77.216,0,0,1,904.522,1659.427Zm-10.758-5.719c0,3.919,1.679,7.479,3.48,7.479,1.239,0,2.039-2.2,2.68-3.92a75.868,75.868,0,0,0,3.719-16.357A12.7,12.7,0,0,0,893.764,1653.708Z" fill="#009342"/>
    <path id="Path_1412" data-name="Path 1412" d="M936.564,1668.465a2.134,2.134,0,0,1-2.32,2.44c-2.2,0-2.559-1.2-2.559-2.44v-16.557a2.561,2.561,0,0,1-2.08,1.32,2.852,2.852,0,0,1-2.6-3,3.151,3.151,0,0,1,.72-2c3.319-4.879,4.959-7.279,6.6-13.4a2.059,2.059,0,0,1,2.24-1.88c1.28,0,2.639.6,2.639,2.04,0,.48-.279,2.919-2.639,8.319Zm25.915-24.715a2.158,2.158,0,0,1,2.48,2.4c0,2.08-.959,2.64-2.48,2.64h-8.638v16.037h7.479a2.159,2.159,0,0,1,2.479,2.36c0,2.159-1.08,2.6-2.479,2.6H941.443a2.16,2.16,0,0,1-2.48-2.36c0-2.119,1.08-2.6,2.48-2.6h7.279v-16.037h-8.439a2.171,2.171,0,0,1-2.479-2.4c0-2.08.96-2.639,2.479-2.639h8.439v-8.159a2.171,2.171,0,0,1,2.44-2.48c2.079,0,2.679.88,2.679,2.48v8.159Z" fill="#009342"/>
    <path id="Path_1413" data-name="Path 1413" d="M973.725,1654.028c-1.04.08-3.6.28-4.36.28-.519,0-2.04,0-2.04-2.2a1.949,1.949,0,0,1,.8-1.8c.4-.24.641-.24,2.6-.36.56-.679,1.2-1.519,1.8-2.359a30.273,30.273,0,0,0-3.279-3.8c-1.159-1.04-1.64-1.48-1.64-2.44a2.427,2.427,0,0,1,2.28-2.44,1.594,1.594,0,0,1,1.04.32c.4-.64.8-1.28,1.8-3.2,1.359-2.52,1.519-2.84,2.679-2.84s2.6.84,2.6,2.04c0,1.08-2.96,5.679-3.92,7.039.561.64.641.72,1.2,1.4.84-1.359,1.76-2.8,3.079-5.2.561-1.04.96-1.559,2-1.559.92,0,2.64.48,2.64,2.039,0,.84-.32,1.44-1.72,3.48-1.679,2.479-3.479,4.919-5.359,7.278,1.359-.08,1.6-.12,3.68-.32a8.128,8.128,0,0,1-.44-2.039c0-1.28,1.319-1.72,2.119-1.72,1.279,0,1.6.68,2.24,2.28a23.269,23.269,0,0,1,1.6,5.439c0,2-2.12,2-2.32,2-1.6,0-1.84-.959-2.16-2.079-2.2.32-2.239.32-2.559.36V1668.7c0,1.44-.521,2.16-2.279,2.16a1.864,1.864,0,0,1-2.08-2.16Zm-6.24,12.238c0-.48.361-2.52.441-2.96.119-1,.439-2.919.76-5.839a1.6,1.6,0,0,1,1.839-1.64c1.919,0,1.919,1.4,1.919,2.04a55,55,0,0,1-1,8.279c-.16.68-.4,1.8-1.48,1.8C969.245,1667.945,967.485,1667.945,967.485,1666.266Zm18.077-1.28V1639.11c0-3.719,1.52-4.759,4.76-4.759h7.559c3.238,0,4.8,1,4.8,4.759v25.876h.8c1.76,0,1.76,1.76,1.76,2.16,0,2.4-1.28,2.519-2.2,2.519H983.8c-.68,0-2.2,0-2.2-2.32a2.74,2.74,0,0,1,.519-1.759c-1.08,0-1.72-.08-2.039-1.84-.121-.72-.881-6.319-.881-6.439,0-1.4,1.32-1.56,1.96-1.56,1.441,0,1.72.8,2,2.04a36.488,36.488,0,0,1,.92,5.919,1.615,1.615,0,0,1-.439,1.28Zm12.358-20.437v-4.159a1.205,1.205,0,0,0-1.359-1.36h-4.92a1.192,1.192,0,0,0-1.36,1.36v4.159Zm0,4.36h-7.639v5.6h7.639Zm0,10.038h-7.639v6.039h7.639Z" fill="#009342"/>
    <path id="Path_1414" data-name="Path 1414" d="M1035.8,1646.549c.16-1.32.72-2.32,2.319-2.32,2.52,0,2.8,1.52,2.8,2.48a33.889,33.889,0,0,1-1.52,8.479,36.731,36.731,0,0,1,3.36,2.559c1.039.88,1.359,1.32,1.359,2.2,0,1.6-1.24,3.039-2.479,3.039-.92,0-1.24-.24-4.2-2.679-3,5.8-8,9.318-9.758,9.318a2.808,2.808,0,0,1-2.68-2.6c0-.959.2-1.159,2.359-2.8a19.106,19.106,0,0,0,5.8-7,34.8,34.8,0,0,0-8-4,68.68,68.68,0,0,1-3.839,6.719c-2.519,3.879-4.479,6.119-7.438,6.119-3.12,0-5.24-2.8-5.24-6.679a11.717,11.717,0,0,1,11.678-11.8,13.7,13.7,0,0,1,2.159.2c.6-1.4,1.52-3.4,2.8-7-3.04.24-6.878.44-8.318.44-1.28,0-3.12,0-3.12-2.52,0-2.559,1.84-2.559,3.48-2.559.6,0,3.2.08,3.719.08a40.251,40.251,0,0,0,5.6-.36c.359-.04,1.959-.32,2.279-.32,1.439,0,2.879,1.32,2.879,2.4,0,.44-.48,1.48-4.479,10.839a48.686,48.686,0,0,1,7.559,3.519A37.266,37.266,0,0,0,1035.8,1646.549Zm-22.6,12.838c0,.32.039,1.4.8,1.4,1.439,0,4.68-5.839,6-8.4C1015.484,1652.148,1013.205,1656.467,1013.205,1659.387Z" fill="#009342"/>
    <path id="Path_1415" data-name="Path 1415" d="M1054.674,1650.914c.139-.785.7-3.752.867-4.872a1.427,1.427,0,0,1,1.6-1.4c.756,0,1.624.336,1.624,1.2a45.27,45.27,0,0,1-.868,4.789c5.711.028,6.944,2.575,6.944,7.532,0,7.055-1.512,10.416-6.412,10.416-1.764,0-2.969-.141-2.969-1.624,0-.841.42-1.485,1.121-1.485.336,0,.9.056,1.064.056a4.123,4.123,0,0,0,2.912-1.008c1.092-1.568,1.147-5.264,1.147-6.552,0-3.639-.84-4.676-4.508-4.424a57.307,57.307,0,0,1-3.975,11.285c-1.708,3.527-2.156,3.779-2.857,3.779-.643,0-1.791-.448-1.791-1.512,0-.364.112-.616,1.119-2.352a45.1,45.1,0,0,0,4.285-10.864c-.785.112-4.564.756-4.929.756-.951,0-1.344-.756-1.344-1.595,0-1.232.869-1.373,2.045-1.512Zm16.884,8.315c0,1.2-1.2,1.484-1.708,1.484-1.008,0-1.176-.532-1.456-1.792a17.53,17.53,0,0,0-4-8.007c-.841-.9-.952-1.092-.952-1.429a1.435,1.435,0,0,1,1.427-1.287C1066.938,1648.2,1071.558,1656.094,1071.558,1659.229Zm-.42-9.771a1.146,1.146,0,0,1-1.12,1.147c-.5,0-.7-.251-1.233-1.063a19.087,19.087,0,0,0-2.267-2.745c-.393-.391-.42-.615-.42-.783a1.171,1.171,0,0,1,1.316-1.12C1068.254,1645.033,1071.138,1648.617,1071.138,1649.458Zm2.3-4c.923,1.2,1.007,1.484,1.007,1.819a1.166,1.166,0,0,1-1.12,1.148c-.5,0-.7-.252-1.231-1.036a19.781,19.781,0,0,0-2.3-2.771,1.387,1.387,0,0,1-.392-.784,1.176,1.176,0,0,1,1.316-1.121C1071.334,1642.822,1072.426,1644.137,1073.434,1645.454Z" fill="#333"/>
    <path id="Path_1416" data-name="Path 1416" d="M877.638,1693.778l.028-1.653c-.84.113-3.164.448-3.893.448-.755,0-1.372-.364-1.372-1.539a1.324,1.324,0,0,1,1.372-1.456c.617-.057,3.361-.224,3.893-.28l.027-3.193c0-.9,0-2.015,1.485-2.015,1.035,0,1.456.616,1.456,1.6s-.085,5.319-.085,6.215a11.936,11.936,0,0,1,7.617-3.024c4.871,0,8.2,3.416,8.2,8.316,0,8.372-8.932,10.221-10.191,10.221a1.544,1.544,0,0,1-1.569-1.624c0-1.037.7-1.205,1.792-1.429,3.949-.812,6.8-3.668,6.8-7.195,0-2.437-1.428-5.405-5.319-5.405-2.941,0-5.349,1.68-7.392,3.669-.029,1.82,0,11.424,0,11.563-.084,1.708-1.009,1.764-1.513,1.764-1.427,0-1.4-1.175-1.4-1.9l.027-8.289c-.42.589-2.24,3.248-2.631,3.78-.533.757-.924,1.12-1.289,1.12-1.484,0-1.763-.98-1.763-1.4a1.957,1.957,0,0,1,.5-1.119Z" fill="#333"/>
    <path id="Path_1417" data-name="Path 1417" d="M907.233,1690.5c.168-.812.812-4.423.953-5.151a1.269,1.269,0,0,1,1.456-1.2c1.036,0,1.6.532,1.6,1.176a45.481,45.481,0,0,1-.925,4.844c6.609-.42,7.728,2.939,7.728,7.671,0,9.352-2.912,10.277-6.16,10.277-2.688,0-3.584-.477-3.584-1.708,0-.925.505-1.485,1.205-1.485.42,0,1.623.225,2.127.225,1.541,0,3.361-.252,3.361-7.393,0-2.8-.168-4.815-3.556-4.815-.533,0-1.037.028-1.821.083a59.785,59.785,0,0,1-4.676,12.74c-.839,1.569-1.232,2.268-2.043,2.268a1.623,1.623,0,0,1-1.708-1.456c0-.336.251-.783.952-2.043a49.2,49.2,0,0,0,4.368-11.173c-.784.112-4.592.728-4.928.728a1.323,1.323,0,0,1-1.289-1.483c0-1.176.756-1.373,1.765-1.484Zm14.841.225a18.636,18.636,0,0,1,2.631,7.9c0,1.007-.672,1.512-1.707,1.512-1.148,0-1.261-.393-1.541-2.156a18.73,18.73,0,0,0-3.248-7.588c-.728-.98-.867-1.2-.867-1.6a1.5,1.5,0,0,1,1.568-1.315C919.974,1687.478,921.094,1689.1,922.074,1690.726Z" fill="#333"/>
    <path id="Path_1418" data-name="Path 1418" d="M942.822,1693.609c5.348,0,8.119,2.857,8.119,6.609a7.213,7.213,0,0,1-5.011,6.8,20.585,20.585,0,0,1-7.729,1.148c-4.619,0-5.4-.419-5.4-1.819a1.322,1.322,0,0,1,1.373-1.429c.279,0,1.484.112,1.736.141,1.176.084,2.072.111,2.6.111,1.652,0,9.3,0,9.3-5.068,0-3.639-4.228-3.639-5.013-3.639a14.705,14.705,0,0,0-8.875,3.107c-1.205.9-1.344,1.009-1.933,1.009a1.6,1.6,0,0,1-1.708-1.6c0-1.091,1.288-7.363,1.624-8.931.224-1.064.421-1.877,1.569-1.877.7,0,1.624.281,1.624,1.2a10.131,10.131,0,0,1-.42,2.128c-.477,1.988-.672,2.827-1.065,4.984A17.893,17.893,0,0,1,942.822,1693.609Zm-6.777-9.38a37.625,37.625,0,0,1,8.064,1.625c1.4.392,2.184.644,2.184,1.708a1.4,1.4,0,0,1-1.344,1.54c-.279,0-2.015-.5-2.324-.588a66.472,66.472,0,0,0-6.635-1.4c-.841-.14-1.484-.392-1.484-1.372A1.363,1.363,0,0,1,936.045,1684.229Z" fill="#333"/>
    <path id="Path_1419" data-name="Path 1419" d="M960.545,1701c-1.119,2.3-1.483,2.829-2.407,2.829a1.643,1.643,0,0,1-1.737-1.485c0-.475.14-.672,1.065-2.351a72.428,72.428,0,0,0,3.723-8.513c-1.288.057-2.211.057-2.267.057-1.092,0-2.381,0-2.381-1.6,0-1.483,1.093-1.483,1.709-1.483.84,0,3.248,0,3.947-.028.168-.533.813-2.969.981-3.444a1.376,1.376,0,0,1,1.427-1.064c.7,0,1.737.336,1.737,1.26a17.427,17.427,0,0,1-.784,2.967c.475-.055,2.575-.391,3.024-.391.9,0,1.231.7,1.231,1.455,0,1.429-.5,1.54-5.264,2.045A95.733,95.733,0,0,1,960.545,1701Zm10.7-6.636a1.312,1.312,0,0,1,1.4-1.483,1.456,1.456,0,0,1,1.567,1.287c.057.673.225,4.9.252,6.1a23.259,23.259,0,0,1,4.509,2.212c.784.505,1.063.84,1.063,1.456a1.671,1.671,0,0,1-1.484,1.765c-.252,0-.588-.2-1.652-.869a26.266,26.266,0,0,0-2.352-1.288c0,1.792-.2,4.984-5.571,4.984-3.64,0-6.273-1.763-6.273-4.731,0-2.353,1.82-4.7,5.937-4.7a14.091,14.091,0,0,1,2.827.308C971.437,1698.677,971.242,1695.149,971.242,1694.365Zm-2.744,7.448c-2.185,0-3.024.925-3.024,1.96,0,1.54,1.764,2.072,3.192,2.072.812,0,2.688-.168,2.855-1.652a16.456,16.456,0,0,0,.028-1.876A10.392,10.392,0,0,0,968.5,1701.813Zm9.3-11.872c1.625.812,2.269,1.177,2.269,2.045,0,.84-.533,1.68-1.289,1.68-.476,0-.7-.084-2.379-1.064-1.064-.616-3.361-1.624-3.892-1.849a1.246,1.246,0,0,1-.924-1.2,1.511,1.511,0,0,1,1.512-1.54C973.873,1688.01,975.945,1689.018,977.793,1689.941Z" fill="#333"/>
    <path id="Path_1420" data-name="Path 1420" d="M988.742,1687.337c0,.392-.252,2.045-.281,2.381a40.6,40.6,0,0,0-.279,4.619c0,4.956,1.259,9.772,3.275,9.772,1.037,0,2.1-2.212,2.744-3.891.5-1.317.672-1.792,1.569-1.792a1.415,1.415,0,0,1,1.54,1.315,11.94,11.94,0,0,1-1.373,3.808c-1.316,2.548-2.715,4.088-4.62,4.088-2.967,0-6.243-4.367-6.243-13.523a46.443,46.443,0,0,1,.476-6.524c.139-.757.364-1.54,1.567-1.54C987.426,1686.05,988.742,1686.05,988.742,1687.337Zm17.975,5.32a22.625,22.625,0,0,1,1.848,8.4c0,.728,0,2.128-1.651,2.128-1.373,0-1.429-.9-1.568-2.52a21.454,21.454,0,0,0-2.969-9.576c-.644-1.008-.783-1.288-.783-1.6a1.476,1.476,0,0,1,1.484-1.372C1004.422,1688.122,1005.85,1690.669,1006.717,1692.657Z" fill="#333"/>
  </g>
</svg>
