<svg xmlns="http://www.w3.org/2000/svg" xmlns:xlink="http://www.w3.org/1999/xlink" width="462.242" height="280.094" viewBox="0 0 462.242 280.094">
  <defs>
    <linearGradient id="linear-gradient" x1="-28.323" y1="0.99" x2="-27.742" y2="0.01" gradientUnits="objectBoundingBox">
      <stop offset="0.035" stop-color="#878787"/>
      <stop offset="0.861" stop-color="#fff"/>
    </linearGradient>
    <linearGradient id="linear-gradient-2" x1="-28.582" y1="0.992" x2="-28.002" y2="0.008" gradientUnits="objectBoundingBox">
      <stop offset="0" stop-color="#fff"/>
      <stop offset="0.732" stop-color="#d1d1d1"/>
    </linearGradient>
    <linearGradient id="linear-gradient-3" x1="-235.589" y1="-147.23" x2="-234.68" y2="-147.828" xlink:href="#linear-gradient"/>
    <linearGradient id="linear-gradient-4" x1="-257.595" y1="-156.064" x2="-256.666" y2="-156.658" xlink:href="#linear-gradient-2"/>
    <linearGradient id="linear-gradient-5" x1="-185.558" y1="-114.964" x2="-184.645" y2="-115.561" xlink:href="#linear-gradient"/>
    <linearGradient id="linear-gradient-6" x1="-198.839" y1="-120.237" x2="-197.91" y2="-120.831" xlink:href="#linear-gradient-2"/>
    <linearGradient id="linear-gradient-7" x1="-376.224" y1="-240.534" x2="-375.325" y2="-241.139" xlink:href="#linear-gradient"/>
    <linearGradient id="linear-gradient-8" x1="-436.609" y1="-265.185" x2="-435.68" y2="-265.778" xlink:href="#linear-gradient-2"/>
  </defs>
  <g id="Group_473" data-name="Group 473" transform="translate(-709.523 -2123.906)">
    <g id="Group_94" data-name="Group 94" transform="translate(-131.271 3.204)" style="mix-blend-mode: multiply;isolation: isolate">
      <path id="Path_1171" data-name="Path 1171" d="M1210.78,2161.243c96.955,71.9,121.939,124.978,53.613,191.46-25.776,25.085-119.93,91.1-276.1,5.865-120.2-65.6-80.128-159.93-43.949-194.9C957.115,2151.326,1110.959,2087.221,1210.78,2161.243Z" fill="#fff" opacity="0"/>
      <path id="Path_1172" data-name="Path 1172" d="M945.625,2163.6c6.953-6.656,51.543-26.875,106.686-34.345,8.8-1.187,17.865-2.049,27.09-2.48,43.941-2.063,91.568,5.721,130.769,34.7,45.8,33.853,75.348,63.629,86.321,92.611,12.089,31.961,1.542,62.769-33.922,97a163.264,163.264,0,0,1-31.167,22.71c-.217.124-.448.251-.666.374-23.066,12.842-55.986,24.592-98.229,24.332-39.936-.243-88.664-10.986-144.546-41.62-45.566-25-67.7-54.428-75.657-83.036C899.559,2228.453,923.477,2184.948,945.625,2163.6Z" fill="#fcfcfc" opacity="0.024"/>
      <path id="Path_1173" data-name="Path 1173" d="M946.91,2163.531c7.221-6.9,51.375-26.789,105.921-34.072,8.735-1.157,17.741-1.989,26.9-2.393,43.574-1.939,90.9,5.96,129.827,34.633,45.471,33.5,74.73,63.1,85.428,91.909,11.787,31.794.868,62.242-34.242,95.847a170.752,170.752,0,0,1-31.073,22.384c-.211.121-.451.249-.664.369-23.1,12.691-55.885,24.244-97.667,23.991-39.8-.237-88.7-10.723-143.708-41.018-44.92-24.772-66.59-54.183-74.419-82.67C900.891,2227.671,924.815,2184.632,946.91,2163.531Z" fill="#f9f9f9" opacity="0.049"/>
      <path id="Path_1174" data-name="Path 1174" d="M948.2,2163.461c7.5-7.124,51.207-26.7,105.156-33.8,8.673-1.128,17.616-1.93,26.712-2.306,43.208-1.815,90.237,6.2,128.885,34.571,45.142,33.143,74.111,62.576,84.535,91.206,11.486,31.628.195,61.716-34.562,94.7a178.966,178.966,0,0,1-30.978,22.058c-.206.118-.454.246-.662.363-23.128,12.541-55.784,23.9-97.106,23.651-39.675-.231-88.732-10.46-142.871-40.416-44.273-24.546-65.518-53.928-73.18-82.305C902.169,2226.9,926.193,2184.358,948.2,2163.461Z" fill="#f6f6f6" opacity="0.073"/>
      <path id="Path_1175" data-name="Path 1175" d="M949.48,2163.391c7.779-7.351,51.04-26.617,104.39-33.526,8.611-1.1,17.492-1.87,26.524-2.22,42.841-1.689,89.571,6.437,127.943,34.51,44.813,32.788,73.493,62.049,83.643,90.5,11.183,31.462-.48,61.19-34.883,93.55-6.435,5.828-17.816,14.286-30.884,21.731-.2.115-.457.244-.659.358-23.159,12.389-55.683,23.55-96.545,23.31-39.544-.225-88.766-10.2-142.033-39.813-43.627-24.322-64.448-53.674-71.942-81.94C903.444,2226.139,927.575,2184.087,949.48,2163.391Z" fill="#f3f3f3" opacity="0.098"/>
      <path id="Path_1176" data-name="Path 1176" d="M950.765,2163.32c8.06-7.577,50.872-26.53,103.625-33.252,8.549-1.068,17.368-1.81,26.335-2.133,42.474-1.565,88.905,6.676,127,34.448,44.484,32.433,72.875,61.523,82.75,89.8,10.881,31.3-1.153,60.665-35.2,92.4-6.463,5.746-18.076,14.162-30.791,21.406-.2.111-.46.241-.656.352-23.191,12.238-55.582,23.2-95.985,22.969-39.412-.219-88.8-9.934-141.2-39.211-42.981-24.1-63.378-53.417-70.7-81.575C904.717,2225.374,928.96,2183.819,950.765,2163.32Z" fill="#f0f0f0" opacity="0.122"/>
      <path id="Path_1177" data-name="Path 1177" d="M952.049,2163.25c8.341-7.8,50.706-26.443,102.861-32.979,8.487-1.039,17.243-1.751,26.146-2.046,42.107-1.441,88.239,6.914,126.06,34.386,44.154,32.078,72.255,61,81.856,89.1,10.579,31.128-1.827,60.138-35.522,91.251-6.489,5.663-18.335,14.037-30.7,21.08-.19.108-.463.238-.654.346a203.294,203.294,0,0,1-95.424,22.628c-39.281-.212-88.833-9.67-140.357-38.608-42.335-23.871-62.31-53.161-69.466-81.209C905.988,2224.61,930.347,2183.554,952.049,2163.25Z" fill="#ededed" opacity="0.146"/>
      <path id="Path_1178" data-name="Path 1178" d="M953.334,2163.18c8.622-8.029,50.538-26.357,102.1-32.706,8.424-1.009,17.118-1.691,25.957-1.959,41.74-1.317,87.574,7.152,125.118,34.324,43.825,31.723,71.637,60.469,80.964,88.395,10.276,30.962-2.5,59.612-35.843,90.1-6.516,5.58-18.594,13.911-30.6,20.753-.184.1-.466.236-.652.341a204.531,204.531,0,0,1-94.862,22.287c-39.15-.206-88.867-9.408-139.52-38.005-41.688-23.647-61.241-52.9-68.227-80.845C907.257,2223.848,931.738,2183.292,953.334,2163.18Z" fill="#eaeaea" opacity="0.171"/>
      <path id="Path_1179" data-name="Path 1179" d="M954.619,2163.11c8.9-8.255,50.37-26.271,101.331-32.433,8.362-.98,16.994-1.632,25.768-1.872,41.373-1.192,86.908,7.391,124.176,34.262,43.5,31.368,71.018,59.943,80.071,87.692,9.974,30.8-3.175,59.086-36.163,88.954-6.543,5.5-18.853,13.787-30.508,20.427-.178.1-.469.234-.649.335a205.8,205.8,0,0,1-94.3,21.947,285.381,285.381,0,0,1-138.682-37.4c-41.042-23.421-60.175-52.646-66.989-80.479C908.523,2223.086,933.13,2183.032,954.619,2163.11Z" fill="#e7e7e7" opacity="0.195"/>
      <path id="Path_1180" data-name="Path 1180" d="M955.9,2163.04c9.186-8.48,50.191-26.289,100.566-32.16,8.3-.967,16.869-1.572,25.58-1.785,41.005-1.068,86.241,7.629,123.233,34.2,43.167,31.014,70.4,59.416,79.178,86.989,9.672,30.63-3.848,58.56-36.483,87.805-6.569,5.415-19.112,13.662-30.413,20.1-.174.1-.472.231-.647.33a207.144,207.144,0,0,1-93.74,21.606,282.779,282.779,0,0,1-137.845-36.8c-40.4-23.2-59.108-52.388-65.751-80.114C909.788,2222.325,934.525,2182.775,955.9,2163.04Z" fill="#e4e4e4" opacity="0.22"/>
      <path id="Path_1181" data-name="Path 1181" d="M957.189,2162.97c9.469-8.705,50.022-26.212,99.8-31.887,8.236-.939,16.745-1.512,25.392-1.7,40.639-.944,85.575,7.867,122.291,34.138,42.838,30.659,69.782,58.889,78.285,86.287,9.37,30.463-4.522,58.033-36.8,86.655-6.6,5.332-19.371,13.537-30.319,19.775-.168.095-.475.229-.644.325a208.532,208.532,0,0,1-93.18,21.265c-38.757-.189-88.969-8.619-137.006-36.2-39.749-22.972-58.044-52.13-64.513-79.749C911.049,2221.566,935.922,2182.519,957.189,2162.97Z" fill="#e1e1e1" opacity="0.244"/>
      <path id="Path_1182" data-name="Path 1182" d="M958.473,2162.9c9.753-8.929,49.855-26.134,99.036-31.614,8.173-.911,16.621-1.453,25.2-1.611,40.272-.82,84.91,8.106,121.35,34.076,42.508,30.3,69.162,58.363,77.392,85.584,9.067,30.3-5.2,57.507-37.124,85.507-6.622,5.249-19.629,13.411-30.225,19.448-.162.092-.477.227-.641.319a209.933,209.933,0,0,1-92.619,20.924c-38.626-.182-89-8.355-136.169-35.595-39.1-22.746-56.98-51.87-63.274-79.384C912.309,2220.807,937.32,2182.265,958.473,2162.9Z" fill="#dedede" opacity="0.268"/>
      <path id="Path_1183" data-name="Path 1183" d="M959.758,2162.829c10.036-9.151,49.687-26.055,98.271-31.34,8.111-.883,16.5-1.393,25.014-1.524,39.905-.7,84.244,8.344,120.408,34.014,42.179,29.949,68.544,57.836,76.5,84.881,8.765,30.131-5.87,56.981-37.443,84.358-6.65,5.166-19.889,13.287-30.131,19.122-.157.089-.481.224-.64.314a211.433,211.433,0,0,1-92.057,20.583c-38.495-.176-89.037-8.092-135.331-34.993-38.456-22.521-55.917-51.61-62.036-79.018C913.565,2220.049,938.72,2182.013,959.758,2162.829Z" fill="#dbdbdb" opacity="0.293"/>
      <path id="Path_1184" data-name="Path 1184" d="M961.043,2162.759c10.321-9.374,49.519-25.975,97.506-31.067,8.048-.854,16.371-1.334,24.825-1.437,39.538-.571,83.578,8.582,119.466,33.952,41.85,29.594,67.925,57.31,75.606,84.178,8.463,29.965-6.543,56.456-37.763,83.209-6.676,5.084-20.148,13.162-30.037,18.8-.152.086-.484.222-.637.308a212.965,212.965,0,0,1-91.5,20.243c-38.364-.17-89.071-7.829-134.494-34.39-37.809-22.3-54.855-51.351-60.8-78.654C914.82,2219.292,940.122,2181.763,961.043,2162.759Z" fill="#d8d8d8" opacity="0.317"/>
      <path id="Path_1185" data-name="Path 1185" d="M962.328,2162.689c10.6-9.6,49.351-25.9,96.741-30.794,7.986-.826,16.246-1.274,24.636-1.351,39.171-.446,82.912,8.822,118.524,33.891,41.521,29.239,67.307,56.783,74.714,83.476,8.16,29.8-7.218,55.929-38.084,82.059-6.7,5-20.407,13.037-29.943,18.47-.146.083-.486.22-.634.3a214.562,214.562,0,0,1-90.936,19.9c-38.232-.164-89.1-7.566-133.655-33.788-37.163-22.071-53.8-51.089-59.56-78.288C916.072,2218.536,941.525,2181.514,962.328,2162.689Z" fill="#d5d5d5" opacity="0.341"/>
      <path id="Path_1186" data-name="Path 1186" d="M963.613,2162.619c10.89-9.819,49.183-25.815,95.976-30.521,7.923-.8,16.122-1.214,24.447-1.264,38.8-.322,82.247,9.06,117.582,33.829,41.193,28.884,66.689,56.256,73.821,82.773,7.858,29.632-7.891,55.4-38.4,80.911-6.729,4.918-20.666,12.911-29.848,18.143-.141.08-.49.218-.632.3a216.251,216.251,0,0,1-90.375,19.561c-38.1-.158-89.193-7.211-132.818-33.186-36.562-21.768-52.737-50.827-58.321-77.923C917.321,2217.781,942.929,2181.266,963.613,2162.619Z" fill="#d2d2d2" opacity="0.366"/>
      <path id="Path_1187" data-name="Path 1187" d="M964.9,2162.549c11.177-10.04,49.016-25.734,95.211-30.248,7.862-.769,16-1.155,24.259-1.177,38.437-.2,81.581,9.3,116.64,33.767,40.864,28.529,66.07,55.73,72.928,82.07,7.556,29.466-8.565,54.877-38.724,79.762-6.756,4.835-20.925,12.787-29.754,17.817-.135.077-.493.215-.629.292a217.958,217.958,0,0,1-89.814,19.22c-37.971-.152-89.229-6.944-131.981-32.582-35.918-21.541-51.679-50.566-57.082-77.558C918.567,2217.026,944.334,2181.02,964.9,2162.549Z" fill="#cfcfcf" opacity="0.39"/>
      <path id="Path_1188" data-name="Path 1188" d="M966.182,2162.479c11.463-10.261,48.849-25.652,94.446-29.975,7.8-.74,15.873-1.095,24.07-1.09,38.071-.073,80.915,9.537,115.7,33.7,40.534,28.174,65.451,55.2,72.035,81.367,7.253,29.3-9.239,54.351-39.045,78.613-6.782,4.753-21.183,12.662-29.66,17.491-.13.074-.495.213-.627.287a219.733,219.733,0,0,1-89.252,18.879c-37.84-.146-89.266-6.678-131.143-31.98-35.274-21.312-50.624-50.3-55.844-77.193C919.811,2216.273,945.741,2180.775,966.182,2162.479Z" fill="#ccc" opacity="0.415"/>
      <path id="Path_1189" data-name="Path 1189" d="M967.467,2162.408c11.75-10.48,48.681-25.569,93.681-29.7,7.737-.711,15.749-1.035,23.881-1,37.7.051,80.249,9.775,114.757,33.643,40.2,27.82,64.833,54.676,71.142,80.665,6.951,29.133-9.913,53.824-39.364,77.464-6.81,4.669-21.443,12.536-29.566,17.164-.125.071-.5.211-.625.282a221.633,221.633,0,0,1-88.691,18.538c-37.709-.14-89.3-6.412-130.306-31.378-34.629-21.084-49.569-50.04-54.606-76.827C921.052,2215.52,947.149,2180.531,967.467,2162.408Z" fill="#c9c9c9" opacity="0.439"/>
      <path id="Path_1190" data-name="Path 1190" d="M968.752,2162.338c12.038-10.7,48.514-25.485,92.916-29.428,7.675-.682,15.624-.976,23.692-.916,37.337.176,79.584,10.013,113.815,33.581,39.876,27.465,64.266,54.138,70.249,79.962,6.708,28.953-10.587,53.3-39.684,76.315-6.836,4.587-21.7,12.412-29.472,16.838-.119.068-.5.208-.622.276a223.562,223.562,0,0,1-88.131,18.2c-37.577-.134-89.337-6.146-129.467-30.775-33.985-20.858-48.517-49.777-53.368-76.463C922.29,2214.768,948.557,2180.288,968.752,2162.338Z" fill="#c6c6c6" opacity="0.463"/>
      <path id="Path_1191" data-name="Path 1191" d="M970.037,2162.268c12.326-10.918,48.347-25.4,92.151-29.156,7.612-.652,15.5-.915,23.5-.828,36.97.3,78.918,10.252,112.873,33.519,39.547,27.11,63.649,53.611,69.356,79.259,6.407,28.787-11.26,52.772-40,75.166-6.863,4.5-21.961,12.287-29.378,16.512-.114.065-.5.206-.619.271a225.564,225.564,0,0,1-87.57,17.857c-37.446-.128-89.373-5.881-128.63-30.173-33.34-20.63-47.466-49.512-52.129-76.1C923.525,2214.017,949.966,2180.047,970.037,2162.268Z" fill="#c3c3c3" opacity="0.488"/>
      <path id="Path_1192" data-name="Path 1192" d="M971.321,2162.2c12.615-11.137,48.18-25.317,91.387-28.883,7.55-.623,15.375-.856,23.314-.741,36.6.424,78.252,10.49,111.931,33.457,39.218,26.755,63.031,53.085,68.464,78.556,6.1,28.622-11.935,52.247-40.325,74.017-6.89,4.422-22.22,12.162-29.283,16.186-.109.062-.508.2-.617.265-23.691,9.823-53.964,17.646-87.009,17.516-37.315-.121-89.408-5.616-127.792-29.57-32.7-20.4-46.418-49.247-50.891-75.732C924.757,2213.267,951.377,2179.806,971.321,2162.2Z" fill="#c1c1c1" opacity="0.512"/>
      <path id="Path_1193" data-name="Path 1193" d="M972.606,2162.128c12.9-11.354,48.013-25.231,90.621-28.61,7.489-.593,15.251-.8,23.126-.654,36.236.548,77.586,10.728,110.99,33.4,38.888,26.4,62.412,52.558,67.57,77.852,5.8,28.456-12.608,51.721-40.645,72.869-6.916,4.339-22.479,12.036-29.189,15.859-.1.059-.511.2-.614.26-23.723,9.672-53.863,17.3-86.448,17.175-37.185-.115-89.444-5.352-126.955-28.967-32.05-20.177-45.371-48.982-49.653-75.367C925.986,2212.517,952.787,2179.566,972.606,2162.128Z" fill="#bebebe" opacity="0.537"/>
      <path id="Path_1194" data-name="Path 1194" d="M973.891,2162.058c13.194-11.571,47.846-25.145,89.856-28.337,7.426-.564,15.126-.736,22.937-.568,35.869.674,76.92,10.967,110.048,33.335,38.559,26.044,61.793,52.032,66.677,77.15,5.5,28.29-13.282,51.194-40.965,71.719-6.943,4.256-22.738,11.912-29.095,15.534-.1.055-.513.2-.612.254-23.753,9.521-53.761,16.951-85.886,16.834-37.054-.109-89.479-5.088-126.117-28.365-31.405-19.951-44.328-48.716-48.415-75C927.212,2211.768,954.2,2179.326,973.891,2162.058Z" fill="#bbb" opacity="0.561"/>
      <path id="Path_1195" data-name="Path 1195" d="M975.176,2161.988c13.485-11.787,47.679-25.058,89.091-28.064,7.364-.534,15-.677,22.748-.481,35.5.8,76.255,11.206,109.106,33.273,38.23,25.689,61.175,51.506,65.785,76.447,5.2,28.124-13.956,50.668-41.286,70.57-6.969,4.174-23,11.787-29,15.208-.093.052-.517.2-.61.248-23.785,9.37-53.66,16.6-85.326,16.494-36.922-.1-89.513-4.825-125.279-27.762-30.759-19.726-43.285-48.451-47.176-74.637C928.435,2211.019,955.611,2179.088,975.176,2161.988Z" fill="#b8b8b8" opacity="0.585"/>
      <path id="Path_1196" data-name="Path 1196" d="M976.461,2161.917c13.776-12,47.512-24.969,88.326-27.79,7.3-.5,14.877-.617,22.559-.394,35.136.922,75.589,11.444,108.164,33.211,37.9,25.334,60.556,50.98,64.892,75.744,4.9,27.959-14.63,50.142-41.6,69.422-7,4.09-23.256,11.661-28.907,14.881-.087.049-.52.193-.607.243-23.816,9.219-53.559,16.256-84.765,16.153-36.791-.1-89.547-4.563-124.441-27.16-30.113-19.5-42.246-48.184-45.938-74.272C929.655,2210.271,957.024,2178.85,976.461,2161.917Z" fill="#b5b5b5" opacity="0.61"/>
      <path id="Path_1197" data-name="Path 1197" d="M977.745,2161.847c14.068-12.216,47.347-24.88,87.562-27.517,7.239-.474,14.752-.558,22.37-.307,34.769,1.046,74.923,11.682,107.222,33.149,37.572,24.979,59.936,50.454,64,75.041,4.593,27.794-15.3,49.616-41.925,68.273-7.023,4.008-23.515,11.536-28.813,14.555-.081.046-.522.191-.6.237-23.847,9.069-53.458,15.91-84.2,15.812-36.66-.091-89.581-4.3-123.6-26.557-29.467-19.276-41.209-47.917-44.7-73.906C930.871,2209.524,958.438,2178.613,977.745,2161.847Z" fill="#b2b2b2" opacity="0.634"/>
      <path id="Path_1198" data-name="Path 1198" d="M979.03,2161.777c14.361-12.429,47.18-24.79,86.8-27.244,7.177-.444,14.628-.5,22.181-.22,34.4,1.171,74.257,11.921,106.28,33.087,37.243,24.625,59.317,49.928,63.106,74.339,4.289,27.627-15.977,49.089-42.245,67.123-7.05,3.925-23.774,11.412-28.719,14.229-.075.043-.525.189-.6.232-23.879,8.917-53.357,15.562-83.643,15.471-36.529-.085-89.615-4.039-122.766-25.954-28.821-19.053-40.176-47.65-43.462-73.542C932.085,2208.777,959.852,2178.377,979.03,2161.777Z" fill="#afafaf" opacity="0.659"/>
      <path id="Path_1199" data-name="Path 1199" d="M980.315,2161.707c14.654-12.642,47.013-24.7,86.031-26.971,7.116-.414,14.5-.438,21.993-.133,34.035,1.295,73.592,12.159,105.339,33.025,36.913,24.27,58.7,49.4,62.213,73.636,3.985,27.462-16.651,48.563-42.566,65.974-7.076,3.843-24.033,11.287-28.624,13.9-.071.04-.529.187-.6.227-23.909,8.766-53.255,15.214-83.082,15.13-36.4-.079-89.647-3.778-121.928-25.352-28.173-18.829-39.144-47.382-42.223-73.176C933.295,2208.03,961.266,2178.141,980.315,2161.707Z" fill="#acacac" opacity="0.683"/>
      <path id="Path_1200" data-name="Path 1200" d="M981.6,2161.637c14.947-12.854,46.846-24.607,85.266-26.7,7.054-.384,14.379-.379,21.8-.046,33.668,1.419,72.926,12.4,104.4,32.963,36.584,23.915,58.028,48.883,61.32,72.933,3.627,27.3-17.325,48.038-42.886,64.826-7.1,3.759-24.292,11.161-28.53,13.576-.065.037-.531.184-.6.221-23.941,8.616-53.154,14.867-82.521,14.79-36.267-.073-89.68-3.518-121.09-24.75-27.527-18.606-38.117-47.114-40.985-72.811C934.5,2207.283,962.681,2177.906,981.6,2161.637Z" fill="#a9a9a9" opacity="0.707"/>
      <path id="Path_1201" data-name="Path 1201" d="M982.885,2161.567c15.242-13.066,46.68-24.515,84.5-26.425,6.991-.353,14.255-.319,21.615.041,33.3,1.543,72.26,12.636,103.455,32.9,36.255,23.56,57.41,48.356,60.427,72.23,3.325,27.138-18,47.512-43.206,63.677-7.129,3.677-24.551,11.037-28.436,13.25-.059.034-.534.182-.594.216-23.972,8.464-53.053,14.52-81.96,14.449-36.136-.067-89.712-3.259-120.253-24.147-26.878-18.384-37.092-46.847-39.746-72.446C935.7,2206.537,964.1,2177.671,982.885,2161.567Z" fill="#a6a6a6" opacity="0.732"/>
      <path id="Path_1202" data-name="Path 1202" d="M984.169,2161.5c15.538-13.276,46.514-24.421,83.737-26.152,6.929-.322,14.13-.259,21.426.128,32.935,1.668,71.594,12.874,102.513,32.839,35.926,23.205,56.791,47.829,59.535,71.528,3.022,26.971-18.673,46.985-43.527,62.527-7.156,3.594-24.809,10.912-28.341,12.924-.054.031-.538.18-.592.21-24,8.314-52.952,14.173-81.4,14.108-36.005-.06-89.744-3-119.415-23.544-26.231-18.162-36.072-46.578-38.509-72.081C936.9,2205.791,965.512,2177.437,984.169,2161.5Z" fill="#a3a3a3" opacity="0.756"/>
      <path id="Path_1203" data-name="Path 1203" d="M985.454,2161.426c15.834-13.484,46.347-24.325,82.972-25.878,6.867-.291,14.005-.2,21.238.215,32.567,1.792,70.928,13.112,101.57,32.777,35.6,22.85,56.173,47.3,58.642,70.825,2.72,26.8-19.346,46.459-43.846,61.378-7.183,3.512-25.069,10.787-28.248,12.6-.049.028-.54.177-.589.2-24.035,8.163-52.851,13.825-80.838,13.767-35.874-.055-89.776-2.742-118.578-22.942-25.582-17.941-35.055-46.31-37.27-71.715C938.1,2205.044,966.928,2177.2,985.454,2161.426Z" fill="#a0a0a0" opacity="0.78"/>
      <path id="Path_1204" data-name="Path 1204" d="M986.739,2161.356c16.13-13.693,46.181-24.23,82.207-25.6,6.8-.26,13.88-.14,21.049.3,32.2,1.917,70.262,13.352,100.629,32.716,35.267,22.495,55.554,46.776,57.748,70.122,2.418,26.639-20.02,45.933-44.166,60.23-7.21,3.428-25.328,10.661-28.154,12.271-.043.025-.543.175-.587.2-24.066,8.011-52.749,13.478-80.277,13.426-35.742-.049-89.8-2.485-117.739-22.339-24.933-17.722-34.042-46.042-36.032-71.351C939.292,2204.3,968.345,2176.971,986.739,2161.356Z" fill="#9d9d9d" opacity="0.805"/>
      <path id="Path_1205" data-name="Path 1205" d="M988.024,2161.286c16.428-13.9,46.014-24.133,81.441-25.332,6.743-.228,13.757-.081,20.861.388,31.833,2.041,69.6,13.59,99.687,32.654,34.938,22.14,54.935,46.249,56.856,69.419,2.115,26.473-20.694,45.407-44.487,59.081-7.237,3.346-25.587,10.537-28.059,11.945-.038.022-.547.173-.585.194-24.1,7.861-52.648,13.131-79.716,13.086-35.611-.043-89.835-2.229-116.9-21.737-24.283-17.5-33.033-45.773-34.793-70.985C940.48,2203.551,969.762,2176.739,988.024,2161.286Z" fill="#9a9a9a" opacity="0.829"/>
      <path id="Path_1206" data-name="Path 1206" d="M989.308,2161.216c16.727-14.107,45.848-24.035,80.677-25.059,6.681-.2,13.632-.021,20.672.475,31.466,2.166,68.93,13.828,98.745,32.592,34.609,21.786,54.317,45.723,55.963,68.717,1.813,26.306-21.368,44.88-44.807,57.931-7.263,3.263-25.846,10.412-27.965,11.619-.032.019-.549.17-.582.189-24.129,7.71-52.548,12.783-79.155,12.745-35.481-.037-89.865-1.974-116.064-21.135-23.633-17.283-32.03-45.505-33.556-70.62C941.665,2202.8,971.179,2176.507,989.308,2161.216Z" fill="#979797" opacity="0.854"/>
      <path id="Path_1207" data-name="Path 1207" d="M990.593,2161.146c17.026-14.312,45.681-23.936,79.912-24.786,6.619-.165,13.507.039,20.483.562,31.1,2.29,68.265,14.067,97.8,32.53,34.28,21.431,53.7,45.2,55.07,68.014,1.511,26.14-22.042,44.354-45.127,56.783-7.29,3.18-26.1,10.286-27.871,11.292-.027.016-.552.168-.579.184-24.16,7.558-52.447,12.436-78.594,12.4-35.35-.03-89.893-1.718-115.227-20.531-22.981-17.066-31.031-45.238-32.317-70.255C942.847,2202.057,972.6,2176.275,990.593,2161.146Z" fill="#949494" opacity="0.878"/>
      <path id="Path_1208" data-name="Path 1208" d="M991.878,2161.076c17.326-14.517,45.515-23.835,79.147-24.513,6.556-.132,13.383.1,20.294.649,30.732,2.414,67.6,14.305,96.861,32.468,33.951,21.076,53.08,44.67,54.177,67.311,1.209,25.973-22.715,43.829-45.447,55.634-7.316,3.1-26.364,10.161-27.776,10.966-.022.013-.555.166-.577.178-24.191,7.408-52.346,12.089-78.033,12.063-35.219-.024-89.921-1.465-114.389-19.929-22.329-16.849-30.038-44.971-31.079-69.89C944.024,2201.308,974.014,2176.044,991.878,2161.076Z" fill="#919191" opacity="0.902"/>
      <path id="Path_1209" data-name="Path 1209" d="M993.163,2161.006c17.626-14.72,45.348-23.68,78.382-24.24,6.494-.089,13.258.158,20.1.736,30.366,2.539,66.933,14.543,95.919,32.406,33.622,20.721,52.462,44.143,53.285,66.608.906,25.807-23.39,43.3-45.767,54.485-7.344,3.015-26.623,10.037-27.683,10.64-.016.01-.558.163-.575.173-24.222,7.257-52.244,11.741-77.472,11.722-35.087-.018-89.916-1.252-113.551-19.327-21.648-16.669-29.05-44.7-29.84-69.524C945.2,2200.559,975.432,2175.813,993.163,2161.006Z" fill="#8e8e8e" opacity="0.927"/>
      <path id="Path_1210" data-name="Path 1210" d="M994.448,2160.935c17.954-14.89,45.181-23.593,77.617-23.966,6.432-.06,13.133.217,19.916.823,30,2.663,66.267,14.782,94.978,32.344,33.292,20.366,51.842,43.616,52.391,65.906.6,25.64-24.063,42.776-46.087,53.335-7.37,2.932-26.882,9.912-27.589,10.314-.01.007-.561.161-.572.167-24.253,7.106-52.143,11.4-76.911,11.382-34.956-.012-89.95-.989-112.713-18.724-21-16.445-28.069-44.439-28.6-69.16C946.367,2199.809,976.876,2175.614,994.448,2160.935Z" fill="#8b8b8b" opacity="0.951"/>
      <path id="Path_1211" data-name="Path 1211" d="M995.732,2160.865c18.244-15.107,45.014-23.507,76.852-23.693,6.37-.03,13.01.277,19.728.91,29.632,2.787,65.6,15.02,94.036,32.282,32.963,20.011,51.224,43.09,51.5,65.2.3,25.474-24.737,42.25-46.407,52.187-7.4,2.849-27.141,9.786-27.494,9.987-.006,0-.564.159-.57.162-24.285,6.955-52.042,11.047-76.35,11.041-34.825-.007-89.984-.726-111.876-18.122-20.355-16.219-27.093-44.173-27.364-68.794C947.533,2199.058,978.281,2175.369,995.732,2160.865Z" fill="#888" opacity="0.976"/>
      <path id="Path_1212" data-name="Path 1212" d="M1162.215,2295.792l-.567.156c-24.316,6.8-51.941,10.7-75.789,10.7-34.7,0-90.018-.462-111.038-17.519-19.709-15.994-26.126-43.909-26.126-68.429,0-22.394,30.991-45.576,48.322-59.9,18.534-15.323,44.847-23.42,76.087-23.42,6.308,0,12.885.337,19.539,1,29.265,2.911,64.936,15.258,93.094,32.22,32.634,19.656,50.606,42.563,50.606,64.5,0,25.308-25.411,41.724-46.728,51.038C1182.192,2288.9,1162.215,2295.792,1162.215,2295.792Z" fill="#858585"/>
    </g>
    <path id="Path_1213" data-name="Path 1213" d="M1098.649,2323.764c94.4,0,171.2-45.548,171.2-101.53s-76.8-101.532-171.2-101.532-171.207,45.547-171.207,101.532S1004.244,2323.764,1098.649,2323.764Z" transform="translate(-131.271 3.204)" fill="url(#linear-gradient)"/>
    <path id="Path_1214" data-name="Path 1214" d="M928.982,2222.234c0,55.328,75.963,100.182,169.667,100.182s169.657-44.854,169.657-100.182-75.96-100.186-169.657-100.186S928.982,2166.9,928.982,2222.234Z" transform="translate(-131.271 3.204)" fill="url(#linear-gradient-2)"/>
    <g id="Group_96" data-name="Group 96" transform="translate(-131.271 3.204)">
      <g id="Group_95" data-name="Group 95" style="mix-blend-mode: multiply;isolation: isolate">
        <path id="Path_1215" data-name="Path 1215" d="M879.876,2155.064c-11.81-3.77-20.6,7.886-23.2,20.94-2.1,10.577,1.207,23.905,5.976,27.636,5.472,4.282,15.882,3.279,22.908-4.564,7.763-8.665,6.332-31.079,1.187-38.2C886.747,2160.88,883.892,2156.6,879.876,2155.064Z" fill="#fff" opacity="0"/>
        <path id="Path_1216" data-name="Path 1216" d="M879.746,2155.111c-11.636-3.634-20.29,7.888-22.815,20.8-2.037,10.527,1.32,23.7,6.12,27.332,5.487,4.174,15.753,3.024,22.595-4.836,7.563-8.629,6.073-30.641.936-37.624C886.582,2160.782,883.729,2156.58,879.746,2155.111Z" fill="#fcfcfc" opacity="0.024" style="mix-blend-mode: multiply;isolation: isolate"/>
        <path id="Path_1217" data-name="Path 1217" d="M879.615,2155.159c-11.461-3.5-19.977,7.888-22.428,20.657-1.975,10.477,1.438,23.476,6.263,27.028,5.509,4.055,15.6,2.747,22.282-5.107,7.335-8.618,5.815-30.205.685-37.053C886.417,2160.684,883.566,2156.56,879.615,2155.159Z" fill="#f9f9f9" opacity="0.049" style="mix-blend-mode: multiply;isolation: isolate"/>
        <path id="Path_1218" data-name="Path 1218" d="M879.484,2155.206c-11.286-3.362-19.7,7.884-22.042,20.516-1.937,10.422,1.554,23.262,6.407,26.724,5.527,3.942,15.455,2.482,21.969-5.379,7.122-8.593,5.556-29.768.434-36.481C886.252,2160.586,883.4,2156.54,879.484,2155.206Z" fill="#f6f6f6" opacity="0.073" style="mix-blend-mode: multiply;isolation: isolate"/>
        <path id="Path_1219" data-name="Path 1219" d="M879.353,2155.253c-11.111-3.225-19.392,7.885-21.656,20.375-1.881,10.371,1.669,23.048,6.551,26.42,5.545,3.829,15.313,2.218,21.657-5.65,6.908-8.568,5.3-29.331.182-35.91C886.087,2160.488,883.239,2156.52,879.353,2155.253Z" fill="#f3f3f3" opacity="0.098" style="mix-blend-mode: multiply;isolation: isolate"/>
        <path id="Path_1220" data-name="Path 1220" d="M879.222,2155.3c-10.936-3.089-19.088,7.885-21.27,20.234-1.825,10.32,1.784,22.834,6.695,26.116,5.562,3.716,15.171,1.954,21.344-5.922,6.695-8.541,5.038-28.894-.07-35.338C885.921,2160.39,883.076,2156.5,879.222,2155.3Z" fill="#f0f0f0" opacity="0.122" style="mix-blend-mode: multiply;isolation: isolate"/>
        <path id="Path_1221" data-name="Path 1221" d="M879.092,2155.347c-10.762-2.952-18.784,7.886-20.885,20.093-1.768,10.269,1.9,22.62,6.839,25.812,5.579,3.6,15.029,1.691,21.031-6.193,6.483-8.515,4.78-28.457-.321-34.766C885.756,2160.293,882.912,2156.48,879.092,2155.347Z" fill="#ededed" opacity="0.146" style="mix-blend-mode: multiply;isolation: isolate"/>
        <path id="Path_1222" data-name="Path 1222" d="M878.961,2155.394c-10.587-2.816-18.479,7.887-20.5,19.952-1.711,10.218,2.013,22.407,6.983,25.508,5.6,3.491,14.887,1.429,20.718-6.465,6.27-8.487,4.521-28.02-.572-34.194C885.591,2160.2,882.749,2156.46,878.961,2155.394Z" fill="#eaeaea" opacity="0.171" style="mix-blend-mode: multiply;isolation: isolate"/>
        <path id="Path_1223" data-name="Path 1223" d="M878.83,2155.442c-10.412-2.68-18.174,7.887-20.113,19.81-1.654,10.167,2.127,22.193,7.127,25.2,5.612,3.378,14.745,1.167,20.405-6.736,6.058-8.459,4.263-27.584-.823-33.623C885.426,2160.1,882.585,2156.44,878.83,2155.442Z" fill="#e7e7e7" opacity="0.195" style="mix-blend-mode: multiply;isolation: isolate"/>
        <path id="Path_1224" data-name="Path 1224" d="M878.7,2155.489c-10.237-2.544-17.868,7.888-19.727,19.669-1.6,10.116,2.241,21.98,7.272,24.9,5.627,3.266,14.6.906,20.092-7.008,5.846-8.429,4-27.146-1.075-33.051C885.261,2160,882.422,2156.42,878.7,2155.489Z" fill="#e4e4e4" opacity="0.22" style="mix-blend-mode: multiply;isolation: isolate"/>
        <path id="Path_1225" data-name="Path 1225" d="M878.568,2155.536c-10.063-2.407-17.561,7.889-19.341,19.528-1.54,10.066,2.354,21.767,7.416,24.6,5.643,3.154,14.462.646,19.779-7.279,5.635-8.4,3.745-26.71-1.326-32.48C885.1,2159.9,882.259,2156.4,878.568,2155.536Z" fill="#e1e1e1" opacity="0.244" style="mix-blend-mode: multiply;isolation: isolate"/>
        <path id="Path_1226" data-name="Path 1226" d="M878.438,2155.583c-9.889-2.271-17.256,7.89-18.956,19.387-1.482,10.015,2.468,21.554,7.56,24.292,5.659,3.043,14.321.387,19.466-7.55,5.424-8.368,3.486-26.273-1.578-31.909C884.93,2159.8,882.095,2156.38,878.438,2155.583Z" fill="#dedede" opacity="0.268" style="mix-blend-mode: multiply;isolation: isolate"/>
        <path id="Path_1227" data-name="Path 1227" d="M878.307,2155.63c-9.714-2.134-16.948,7.892-18.57,19.246-1.424,9.965,2.581,21.341,7.7,23.988,5.674,2.931,14.18.128,19.153-7.822,5.214-8.336,3.228-25.836-1.829-31.336C884.765,2159.706,881.932,2156.36,878.307,2155.63Z" fill="#dbdbdb" opacity="0.293" style="mix-blend-mode: multiply;isolation: isolate"/>
        <path id="Path_1228" data-name="Path 1228" d="M878.176,2155.677c-9.539-2-16.641,7.893-18.184,19.1-1.365,9.914,2.694,21.128,7.848,23.684,5.689,2.82,14.04-.129,18.84-8.093,5.005-8.3,2.969-25.4-2.08-30.765C884.6,2159.608,881.769,2156.34,878.176,2155.677Z" fill="#d8d8d8" opacity="0.317" style="mix-blend-mode: multiply;isolation: isolate"/>
        <path id="Path_1229" data-name="Path 1229" d="M878.045,2155.724c-9.364-1.861-16.333,7.895-17.8,18.964-1.306,9.864,2.806,20.916,7.992,23.38,5.7,2.709,13.9-.386,18.528-8.365,4.795-8.269,2.709-24.962-2.332-30.193C884.435,2159.51,881.6,2156.32,878.045,2155.724Z" fill="#d5d5d5" opacity="0.341" style="mix-blend-mode: multiply;isolation: isolate"/>
        <path id="Path_1230" data-name="Path 1230" d="M877.914,2155.772c-9.189-1.725-16.024,7.9-17.412,18.822-1.247,9.814,2.918,20.7,8.136,23.076,5.718,2.6,13.762-.642,18.215-8.636,4.587-8.235,2.451-24.526-2.583-29.622C884.27,2159.412,881.442,2156.3,877.914,2155.772Z" fill="#d2d2d2" opacity="0.366" style="mix-blend-mode: multiply;isolation: isolate"/>
        <path id="Path_1231" data-name="Path 1231" d="M877.784,2155.819c-9.015-1.589-15.716,7.9-17.027,18.681-1.187,9.764,3.031,20.492,8.28,22.772,5.732,2.489,13.623-.9,17.9-8.908,4.379-8.2,2.192-24.088-2.835-29.05C884.1,2159.314,881.279,2156.28,877.784,2155.819Z" fill="#cfcfcf" opacity="0.39" style="mix-blend-mode: multiply;isolation: isolate"/>
        <path id="Path_1232" data-name="Path 1232" d="M877.653,2155.866c-8.84-1.452-15.406,7.9-16.641,18.54-1.128,9.714,3.143,20.281,8.424,22.468,5.746,2.379,13.486-1.152,17.589-9.179,4.173-8.163,1.934-23.652-3.086-28.479C883.939,2159.216,881.115,2156.26,877.653,2155.866Z" fill="#ccc" opacity="0.415" style="mix-blend-mode: multiply;isolation: isolate"/>
        <path id="Path_1233" data-name="Path 1233" d="M877.522,2155.913c-8.665-1.316-15.1,7.9-16.255,18.4-1.067,9.665,3.254,20.07,8.568,22.164,5.76,2.269,13.349-1.406,17.276-9.451,3.967-8.125,1.675-23.214-3.337-27.906C883.774,2159.119,880.952,2156.24,877.522,2155.913Z" fill="#c9c9c9" opacity="0.439" style="mix-blend-mode: multiply;isolation: isolate"/>
        <path id="Path_1234" data-name="Path 1234" d="M877.391,2155.96c-8.49-1.179-14.785,7.9-15.869,18.257-1.006,9.616,3.366,19.86,8.712,21.861,5.773,2.16,13.213-1.659,16.964-9.722,3.762-8.088,1.416-22.778-3.589-27.335C883.609,2159.021,880.789,2156.22,877.391,2155.96Z" fill="#c6c6c6" opacity="0.463" style="mix-blend-mode: multiply;isolation: isolate"/>
        <path id="Path_1235" data-name="Path 1235" d="M877.261,2156.007c-8.316-1.043-14.475,7.907-15.484,18.116-.945,9.566,3.477,19.65,8.856,21.557,5.787,2.052,13.078-1.912,16.651-9.994,3.558-8.049,1.157-22.341-3.84-26.763C883.444,2158.923,880.625,2156.2,877.261,2156.007Z" fill="#c3c3c3" opacity="0.488" style="mix-blend-mode: multiply;isolation: isolate"/>
        <path id="Path_1236" data-name="Path 1236" d="M877.13,2156.055c-8.141-.907-14.163,7.908-15.1,17.974-.883,9.517,3.589,19.439,9,21.253,5.8,1.943,12.944-2.164,16.338-10.265,3.356-8.01.9-21.9-4.091-26.192C883.279,2158.825,880.462,2156.18,877.13,2156.055Z" fill="#c1c1c1" opacity="0.512" style="mix-blend-mode: multiply;isolation: isolate"/>
        <path id="Path_1237" data-name="Path 1237" d="M877,2156.1c-7.966-.771-13.851,7.91-14.712,17.833-.821,9.467,3.7,19.23,9.144,20.949,5.813,1.835,12.811-2.415,16.025-10.537,3.154-7.97.64-21.467-4.343-25.62A10.712,10.712,0,0,0,877,2156.1Z" fill="#bebebe" opacity="0.537" style="mix-blend-mode: multiply;isolation: isolate"/>
        <path id="Path_1238" data-name="Path 1238" d="M876.868,2156.149c-7.791-.634-13.538,7.913-14.326,17.692-.758,9.418,3.811,19.02,9.288,20.645,5.826,1.728,12.679-2.665,15.712-10.808,2.954-7.93.382-21.03-4.594-25.049A10.486,10.486,0,0,0,876.868,2156.149Z" fill="#bbb" opacity="0.561" style="mix-blend-mode: multiply;isolation: isolate"/>
        <path id="Path_1239" data-name="Path 1239" d="M876.737,2156.2c-7.616-.5-13.225,7.916-13.94,17.551-.7,9.369,3.922,18.811,9.432,20.341,5.839,1.62,12.548-2.915,15.4-11.08,2.754-7.888.122-20.593-4.846-24.476A10.261,10.261,0,0,0,876.737,2156.2Z" fill="#b8b8b8" opacity="0.585" style="mix-blend-mode: multiply;isolation: isolate"/>
        <path id="Path_1240" data-name="Path 1240" d="M876.607,2156.243c-7.442-.361-12.912,7.918-13.555,17.41-.631,9.319,4.033,18.6,9.576,20.037,5.852,1.514,12.419-3.165,15.087-11.351,2.557-7.847-.136-20.157-5.1-23.905A10.044,10.044,0,0,0,876.607,2156.243Z" fill="#b5b5b5" opacity="0.61" style="mix-blend-mode: multiply;isolation: isolate"/>
        <path id="Path_1241" data-name="Path 1241" d="M876.476,2156.29c-7.267-.225-12.6,7.921-13.169,17.269-.567,9.27,4.144,18.394,9.72,19.733,5.864,1.407,12.291-3.414,14.774-11.623,2.36-7.8-.4-19.719-5.348-23.333A9.837,9.837,0,0,0,876.476,2156.29Z" fill="#b2b2b2" opacity="0.634" style="mix-blend-mode: multiply;isolation: isolate"/>
        <path id="Path_1242" data-name="Path 1242" d="M876.345,2156.338c-7.092-.089-12.282,7.923-12.783,17.127-.5,9.221,4.255,18.187,9.864,19.429,5.877,1.3,12.165-3.663,14.461-11.894,2.165-7.763-.653-19.283-5.6-22.762A9.632,9.632,0,0,0,876.345,2156.338Z" fill="#afafaf" opacity="0.659" style="mix-blend-mode: multiply;isolation: isolate"/>
        <path id="Path_1243" data-name="Path 1243" d="M876.214,2156.385c-6.917.047-11.966,7.926-12.4,16.986-.436,9.171,4.366,17.979,10.008,19.125,5.89,1.195,12.04-3.911,14.148-12.166,1.972-7.72-.912-18.845-5.851-22.19A9.437,9.437,0,0,0,876.214,2156.385Z" fill="#acacac" opacity="0.683" style="mix-blend-mode: multiply;isolation: isolate"/>
        <path id="Path_1244" data-name="Path 1244" d="M876.083,2156.432c-6.742.184-11.649,7.928-12.011,16.845-.37,9.122,4.476,17.772,10.152,18.821,5.9,1.09,11.917-4.16,13.836-12.437,1.779-7.678-1.171-18.409-6.1-21.619A9.251,9.251,0,0,0,876.083,2156.432Z" fill="#a9a9a9" opacity="0.707" style="mix-blend-mode: multiply;isolation: isolate"/>
        <path id="Path_1245" data-name="Path 1245" d="M875.953,2156.479c-6.568.32-11.333,7.931-11.626,16.7-.3,9.073,4.587,17.565,10.3,18.517,5.916.985,11.8-4.408,13.523-12.709,1.588-7.635-1.43-17.971-6.354-21.046A9.07,9.07,0,0,0,875.953,2156.479Z" fill="#a6a6a6" opacity="0.732" style="mix-blend-mode: multiply;isolation: isolate"/>
        <path id="Path_1246" data-name="Path 1246" d="M875.822,2156.526c-6.394.457-11.015,7.934-11.24,16.563-.235,9.024,4.7,17.359,10.44,18.213,5.929.881,11.676-4.657,13.21-12.98,1.4-7.593-1.689-17.535-6.6-20.475A8.9,8.9,0,0,0,875.822,2156.526Z" fill="#a3a3a3" opacity="0.756" style="mix-blend-mode: multiply;isolation: isolate"/>
        <path id="Path_1247" data-name="Path 1247" d="M875.691,2156.573c-6.219.593-10.7,7.936-10.854,16.422-.166,8.974,4.809,17.153,10.584,17.909,5.941.777,11.558-4.905,12.9-13.252,1.211-7.551-1.947-17.1-6.856-19.9A8.743,8.743,0,0,0,875.691,2156.573Z" fill="#a0a0a0" opacity="0.78" style="mix-blend-mode: multiply;isolation: isolate"/>
        <path id="Path_1248" data-name="Path 1248" d="M875.56,2156.621c-6.044.729-10.377,7.938-10.468,16.28-.1,8.925,4.92,16.948,10.728,17.605,5.955.673,11.442-5.154,12.584-13.523,1.025-7.509-2.206-16.661-7.107-19.332A8.588,8.588,0,0,0,875.56,2156.621Z" fill="#9d9d9d" opacity="0.805" style="mix-blend-mode: multiply;isolation: isolate"/>
        <path id="Path_1249" data-name="Path 1249" d="M875.429,2156.668c-5.869.865-10.057,7.94-10.082,16.139-.026,8.876,5.032,16.743,10.872,17.3,5.968.57,11.328-5.4,12.272-13.795.839-7.467-2.465-16.224-7.36-18.76A8.444,8.444,0,0,0,875.429,2156.668Z" fill="#9a9a9a" opacity="0.829" style="mix-blend-mode: multiply;isolation: isolate"/>
        <path id="Path_1250" data-name="Path 1250" d="M875.3,2156.715c-5.7,1-9.738,7.943-9.7,16,.045,8.826,5.143,16.538,11.016,17,5.981.467,11.215-5.653,11.959-14.066.656-7.427-2.724-15.787-7.611-18.189A8.309,8.309,0,0,0,875.3,2156.715Z" fill="#979797" opacity="0.854" style="mix-blend-mode: multiply;isolation: isolate"/>
        <path id="Path_1251" data-name="Path 1251" d="M875.168,2156.762c-5.52,1.139-9.416,7.945-9.311,15.857.118,8.776,5.254,16.333,11.16,16.693,5.995.364,11.1-5.9,11.646-14.338.474-7.387-2.982-15.35-7.862-17.616A8.184,8.184,0,0,0,875.168,2156.762Z" fill="#949494" opacity="0.878" style="mix-blend-mode: multiply;isolation: isolate"/>
        <path id="Path_1252" data-name="Path 1252" d="M875.037,2156.809c-5.345,1.275-9.094,7.947-8.925,15.716.191,8.727,5.366,16.129,11.3,16.389,6.008.262,11-6.155,11.333-14.609.293-7.348-3.241-14.914-8.113-17.045A8.073,8.073,0,0,0,875.037,2156.809Z" fill="#919191" opacity="0.902" style="mix-blend-mode: multiply;isolation: isolate"/>
        <path id="Path_1253" data-name="Path 1253" d="M874.906,2156.856c-5.17,1.412-8.771,7.949-8.539,15.575.266,8.677,5.478,15.926,11.448,16.085,6.022.16,10.889-6.408,11.02-14.881.114-7.309-3.5-14.476-8.364-16.473A7.969,7.969,0,0,0,874.906,2156.856Z" fill="#8e8e8e" opacity="0.927" style="mix-blend-mode: multiply;isolation: isolate"/>
        <path id="Path_1254" data-name="Path 1254" d="M874.775,2156.9c-4.995,1.548-8.448,7.951-8.152,15.433.34,8.627,5.589,15.723,11.592,15.782,6.035.058,10.783-6.661,10.707-15.152-.066-7.272-3.759-14.04-8.616-15.9A7.876,7.876,0,0,0,874.775,2156.9Z" fill="#8b8b8b" opacity="0.951" style="mix-blend-mode: multiply;isolation: isolate"/>
        <path id="Path_1255" data-name="Path 1255" d="M874.645,2156.951c-4.821,1.684-8.113,7.951-7.767,15.291.431,8.576,5.7,15.528,11.736,15.478s10.679-6.916,10.394-15.424c-.243-7.235-4.017-13.6-8.868-15.33A7.784,7.784,0,0,0,874.645,2156.951Z" fill="#888" opacity="0.976" style="mix-blend-mode: multiply;isolation: isolate"/>
        <path id="Path_1256" data-name="Path 1256" d="M874.514,2157c-4.646,1.82-7.8,7.953-7.381,15.15.494,8.526,5.813,15.318,11.88,15.174s10.581-7.172,10.081-15.7c-.416-7.2-4.276-13.166-9.119-14.759A7.711,7.711,0,0,0,874.514,2157Z" fill="#858585" style="mix-blend-mode: multiply;isolation: isolate"/>
      </g>
      <path id="Path_1257" data-name="Path 1257" d="M866.466,2171.371c.986,10.58,7.408,18.665,14.319,18.021s11.735-9.776,10.75-20.356-7.411-18.668-14.325-18.024S865.481,2160.791,866.466,2171.371Z" fill="url(#linear-gradient-3)"/>
      <path id="Path_1258" data-name="Path 1258" d="M877.31,2152.09c-6.327.589-10.7,9.179-9.766,19.181s6.813,17.631,13.14,17.042,10.7-9.177,9.772-19.176S883.637,2151.5,877.31,2152.09Z" fill="url(#linear-gradient-4)"/>
    </g>
    <g id="Group_98" data-name="Group 98" transform="translate(-131.271 3.204)">
      <g id="Group_97" data-name="Group 97" style="mix-blend-mode: multiply;isolation: isolate">
        <path id="Path_1259" data-name="Path 1259" d="M910.991,2173.963c-15.436-4.929-26.544,4.992-29.935,22.052-2.745,13.818,5.049,31.232,11.281,36.108,7.15,5.592,17.915,4.6,27.1-5.649,10.138-11.324,7.252-35.612.529-44.909C919.965,2181.565,916.239,2175.966,910.991,2173.963Z" fill="#fff" opacity="0"/>
        <path id="Path_1260" data-name="Path 1260" d="M910.82,2174.024c-15.208-4.75-26.145,5.124-29.44,22-2.663,13.753,5.111,30.959,11.384,35.711,7.169,5.452,17.815,4.257,26.759-6.011,9.879-11.278,6.94-35.163.226-44.284C919.749,2181.437,916.026,2175.94,910.82,2174.024Z" fill="#fcfcfc" opacity="0.024" style="mix-blend-mode: multiply;isolation: isolate"/>
        <path id="Path_1261" data-name="Path 1261" d="M910.649,2174.086c-14.979-4.573-25.747,5.255-28.945,21.942-2.58,13.688,5.173,30.685,11.487,35.314,7.189,5.31,17.685,3.889,26.42-6.374,9.584-11.26,6.626-34.714-.077-43.659C919.534,2181.309,915.812,2175.914,910.649,2174.086Z" fill="#f9f9f9" opacity="0.049" style="mix-blend-mode: multiply;isolation: isolate"/>
        <path id="Path_1262" data-name="Path 1262" d="M910.478,2174.148c-14.751-4.4-25.385,5.379-28.451,21.887-2.528,13.616,5.249,30.393,11.592,34.916,7.221,5.15,17.567,3.536,26.08-6.736,9.3-11.228,6.313-34.265-.381-43.034C919.318,2181.181,915.6,2175.888,910.478,2174.148Z" fill="#f6f6f6" opacity="0.073" style="mix-blend-mode: multiply;isolation: isolate"/>
        <path id="Path_1263" data-name="Path 1263" d="M910.307,2174.209c-14.522-4.216-25,5.51-27.956,21.832-2.455,13.55,5.314,30.114,11.7,34.52,7.245,5,17.451,3.182,25.741-7.1,9.026-11.195,6-33.816-.685-42.409C919.1,2181.053,915.385,2175.862,910.307,2174.209Z" fill="#f3f3f3" opacity="0.098" style="mix-blend-mode: multiply;isolation: isolate"/>
        <path id="Path_1264" data-name="Path 1264" d="M910.136,2174.271c-14.294-4.038-24.61,5.639-27.461,21.777-2.382,13.483,5.38,29.835,11.8,34.122,7.268,4.855,17.335,2.831,25.4-7.461,8.748-11.16,5.687-33.367-.988-41.784C918.886,2180.925,915.172,2175.836,910.136,2174.271Z" fill="#f0f0f0" opacity="0.122" style="mix-blend-mode: multiply;isolation: isolate"/>
        <path id="Path_1265" data-name="Path 1265" d="M909.965,2174.333c-14.065-3.86-24.221,5.769-26.966,21.722-2.308,13.416,5.445,29.555,11.9,33.725,7.289,4.707,17.218,2.479,25.061-7.824,8.47-11.125,5.373-32.918-1.292-41.159C918.67,2180.8,914.958,2175.81,909.965,2174.333Z" fill="#ededed" opacity="0.146" style="mix-blend-mode: multiply;isolation: isolate"/>
        <path id="Path_1266" data-name="Path 1266" d="M909.795,2174.394c-13.838-3.682-23.833,5.9-26.472,21.667-2.234,13.35,5.509,29.277,12.005,33.328,7.311,4.561,17.1,2.129,24.722-8.186,8.192-11.089,5.06-32.468-1.6-40.533C918.454,2180.67,914.745,2175.784,909.795,2174.394Z" fill="#eaeaea" opacity="0.171" style="mix-blend-mode: multiply;isolation: isolate"/>
        <path id="Path_1267" data-name="Path 1267" d="M909.624,2174.456c-13.609-3.5-23.443,6.03-25.977,21.612-2.16,13.283,5.574,29,12.109,32.931,7.332,4.413,16.985,1.779,24.382-8.549,7.915-11.051,4.746-32.019-1.9-39.908C918.239,2180.542,914.531,2175.757,909.624,2174.456Z" fill="#e7e7e7" opacity="0.195" style="mix-blend-mode: multiply;isolation: isolate"/>
        <path id="Path_1268" data-name="Path 1268" d="M909.453,2174.518c-13.381-3.326-23.053,6.16-25.482,21.557-2.085,13.216,5.638,28.719,12.212,32.533,7.354,4.268,16.87,1.431,24.043-8.911,7.638-11.013,4.433-31.57-2.2-39.283C918.023,2180.414,914.318,2175.731,909.453,2174.518Z" fill="#e4e4e4" opacity="0.22" style="mix-blend-mode: multiply;isolation: isolate"/>
        <path id="Path_1269" data-name="Path 1269" d="M909.282,2174.579c-13.152-3.147-22.662,6.292-24.987,21.5-2.01,13.151,5.7,28.441,12.315,32.137,7.375,4.121,16.755,1.083,23.7-9.273,7.362-10.974,4.12-31.122-2.506-38.659C917.807,2180.286,914.1,2175.705,909.282,2174.579Z" fill="#e1e1e1" opacity="0.244" style="mix-blend-mode: multiply;isolation: isolate"/>
        <path id="Path_1270" data-name="Path 1270" d="M909.111,2174.641c-12.924-2.969-22.271,6.422-24.492,21.447-1.935,13.085,5.765,28.162,12.419,31.739,7.394,3.976,16.64.737,23.363-9.635,7.087-10.933,3.807-30.673-2.81-38.034C917.591,2180.158,913.89,2175.679,909.111,2174.641Z" fill="#dedede" opacity="0.268" style="mix-blend-mode: multiply;isolation: isolate"/>
        <path id="Path_1271" data-name="Path 1271" d="M908.94,2174.7c-12.7-2.792-21.879,6.553-24,21.392-1.859,13.019,5.828,27.884,12.522,31.342,7.414,3.83,16.525.391,23.024-10,6.812-10.892,3.493-30.224-3.114-37.409C917.375,2180.03,913.677,2175.653,908.94,2174.7Z" fill="#dbdbdb" opacity="0.293" style="mix-blend-mode: multiply;isolation: isolate"/>
        <path id="Path_1272" data-name="Path 1272" d="M908.769,2174.764c-12.467-2.613-21.486,6.685-23.5,21.337-1.783,12.954,5.89,27.607,12.625,30.945,7.434,3.685,16.412.047,22.685-10.36,6.538-10.849,3.18-29.775-3.418-36.784C917.159,2179.9,913.463,2175.627,908.769,2174.764Z" fill="#d8d8d8" opacity="0.317" style="mix-blend-mode: multiply;isolation: isolate"/>
        <path id="Path_1273" data-name="Path 1273" d="M908.6,2174.826c-12.239-2.435-21.093,6.816-23.008,21.282-1.705,12.888,5.954,27.33,12.73,30.548,7.453,3.54,16.3-.3,22.344-10.723,6.266-10.8,2.867-29.326-3.72-36.159C916.944,2179.774,913.25,2175.6,908.6,2174.826Z" fill="#d5d5d5" opacity="0.341" style="mix-blend-mode: multiply;isolation: isolate"/>
        <path id="Path_1274" data-name="Path 1274" d="M908.427,2174.888c-12.01-2.257-20.7,6.947-22.513,21.227-1.628,12.822,6.016,27.052,12.833,30.15,7.472,3.4,16.186-.638,22.005-11.085,5.993-10.759,2.554-28.877-4.024-35.533C916.728,2179.647,913.036,2175.575,908.427,2174.888Z" fill="#d2d2d2" opacity="0.366" style="mix-blend-mode: multiply;isolation: isolate"/>
        <path id="Path_1275" data-name="Path 1275" d="M908.256,2174.949c-11.782-2.078-20.3,7.08-22.018,21.172-1.55,12.757,6.077,26.776,12.937,29.754,7.49,3.252,16.074-.98,21.665-11.448,5.722-10.713,2.24-28.428-4.328-34.908C916.512,2179.519,912.823,2175.549,908.256,2174.949Z" fill="#cfcfcf" opacity="0.39" style="mix-blend-mode: multiply;isolation: isolate"/>
        <path id="Path_1276" data-name="Path 1276" d="M908.085,2175.011c-11.553-1.9-19.91,7.211-21.523,21.117-1.472,12.692,6.139,26.5,13.04,29.356,7.509,3.109,15.964-1.32,21.326-11.81,5.452-10.665,1.927-27.979-4.632-34.283C916.3,2179.391,912.609,2175.523,908.085,2175.011Z" fill="#ccc" opacity="0.415" style="mix-blend-mode: multiply;isolation: isolate"/>
        <path id="Path_1277" data-name="Path 1277" d="M907.914,2175.073c-11.325-1.723-19.514,7.343-21.028,21.062-1.393,12.627,6.2,26.224,13.143,28.959,7.527,2.965,15.854-1.66,20.987-12.173,5.183-10.617,1.613-27.529-4.936-33.658C916.08,2179.263,912.4,2175.5,907.914,2175.073Z" fill="#c9c9c9" opacity="0.439" style="mix-blend-mode: multiply;isolation: isolate"/>
        <path id="Path_1278" data-name="Path 1278" d="M907.743,2175.134c-11.1-1.544-19.117,7.476-20.533,21.007-1.314,12.562,6.261,25.949,13.247,28.562,7.544,2.823,15.745-2,20.646-12.535,4.916-10.568,1.3-27.08-5.239-33.033C915.864,2179.135,912.182,2175.471,907.743,2175.134Z" fill="#c6c6c6" opacity="0.463" style="mix-blend-mode: multiply;isolation: isolate"/>
        <path id="Path_1279" data-name="Path 1279" d="M907.572,2175.2c-10.868-1.366-18.72,7.608-20.038,20.952-1.234,12.5,6.322,25.674,13.35,28.165,7.562,2.681,15.638-2.336,20.307-12.9,4.65-10.517.987-26.631-5.542-32.408C915.649,2179.007,911.969,2175.444,907.572,2175.2Z" fill="#c3c3c3" opacity="0.488" style="mix-blend-mode: multiply;isolation: isolate"/>
        <path id="Path_1280" data-name="Path 1280" d="M907.4,2175.258c-10.639-1.188-18.322,7.74-19.543,20.9-1.154,12.432,6.383,25.4,13.454,27.768,7.579,2.538,15.531-2.673,19.967-13.261,4.385-10.466.674-26.182-5.846-31.783C915.433,2178.879,911.755,2175.418,907.4,2175.258Z" fill="#c1c1c1" opacity="0.512" style="mix-blend-mode: multiply;isolation: isolate"/>
        <path id="Path_1281" data-name="Path 1281" d="M907.231,2175.319c-10.412-1.01-17.925,7.873-19.049,20.842-1.073,12.368,6.443,25.126,13.557,27.371,7.6,2.4,15.427-3.009,19.628-13.623,4.121-10.414.36-25.733-6.15-31.158C915.217,2178.751,911.542,2175.392,907.231,2175.319Z" fill="#bebebe" opacity="0.537" style="mix-blend-mode: multiply;isolation: isolate"/>
        <path id="Path_1282" data-name="Path 1282" d="M907.06,2175.381c-10.183-.832-17.525,8-18.554,20.787-.991,12.3,6.5,24.852,13.66,26.974,7.613,2.257,15.325-3.344,19.289-13.986,3.859-10.361.047-25.284-6.454-30.533C915,2178.623,911.328,2175.366,907.06,2175.381Z" fill="#bbb" opacity="0.561" style="mix-blend-mode: multiply;isolation: isolate"/>
        <path id="Path_1283" data-name="Path 1283" d="M906.889,2175.443c-9.955-.654-17.125,8.138-18.059,20.732-.908,12.239,6.564,24.578,13.764,26.576,7.63,2.117,15.222-3.678,18.948-14.348,3.6-10.307-.266-24.835-6.757-29.907C914.785,2178.5,911.115,2175.34,906.889,2175.443Z" fill="#b8b8b8" opacity="0.585" style="mix-blend-mode: multiply;isolation: isolate"/>
        <path id="Path_1284" data-name="Path 1284" d="M906.718,2175.5c-9.726-.475-16.724,8.271-17.564,20.677-.825,12.175,6.624,24.306,13.867,26.18,7.647,1.977,15.123-4.012,18.609-14.711,3.341-10.253-.579-24.386-7.061-29.282C914.569,2178.368,910.9,2175.314,906.718,2175.5Z" fill="#b5b5b5" opacity="0.61" style="mix-blend-mode: multiply;isolation: isolate"/>
        <path id="Path_1285" data-name="Path 1285" d="M906.547,2175.566c-9.5-.3-16.322,8.4-17.07,20.622-.74,12.11,6.685,24.034,13.971,25.782,7.664,1.839,15.026-4.345,18.27-15.073,3.084-10.2-.893-23.937-7.364-28.657C914.354,2178.24,910.688,2175.288,906.547,2175.566Z" fill="#b2b2b2" opacity="0.634" style="mix-blend-mode: multiply;isolation: isolate"/>
        <path id="Path_1286" data-name="Path 1286" d="M906.376,2175.628c-9.269-.12-15.92,8.536-16.575,20.567s6.746,23.762,14.075,25.385c7.68,1.7,14.929-4.678,17.93-15.435,2.829-10.144-1.206-23.489-7.668-28.033C914.138,2178.112,910.474,2175.262,906.376,2175.628Z" fill="#afafaf" opacity="0.659" style="mix-blend-mode: multiply;isolation: isolate"/>
        <path id="Path_1287" data-name="Path 1287" d="M906.205,2175.69c-9.041.058-15.516,8.668-16.08,20.511-.57,11.982,6.806,23.492,14.178,24.988,7.7,1.562,14.836-5.01,17.59-15.8,2.577-10.089-1.519-23.04-7.971-27.408C913.922,2177.984,910.261,2175.236,906.205,2175.69Z" fill="#acacac" opacity="0.683" style="mix-blend-mode: multiply;isolation: isolate"/>
        <path id="Path_1288" data-name="Path 1288" d="M906.034,2175.751c-8.812.237-15.112,8.8-15.585,20.457-.483,11.917,6.866,23.221,14.282,24.591,7.713,1.424,14.743-5.343,17.25-16.16,2.325-10.033-1.832-22.59-8.275-26.783C913.706,2177.856,910.047,2175.21,906.034,2175.751Z" fill="#a9a9a9" opacity="0.707" style="mix-blend-mode: multiply;isolation: isolate"/>
        <path id="Path_1289" data-name="Path 1289" d="M905.863,2175.813c-8.584.415-14.707,8.934-15.09,20.4-.4,11.853,6.926,22.951,14.385,24.193,7.73,1.288,14.654-5.675,16.911-16.522,2.076-9.978-2.146-22.141-8.579-26.158C913.49,2177.728,909.833,2175.184,905.863,2175.813Z" fill="#a6a6a6" opacity="0.732" style="mix-blend-mode: multiply;isolation: isolate"/>
        <path id="Path_1290" data-name="Path 1290" d="M905.692,2175.875c-8.355.593-14.3,9.067-14.6,20.346-.307,11.789,6.986,22.682,14.488,23.8,7.747,1.151,14.567-6.008,16.572-16.885,1.828-9.922-2.459-21.692-8.882-25.533C913.275,2177.6,909.62,2175.157,905.692,2175.875Z" fill="#a3a3a3" opacity="0.756" style="mix-blend-mode: multiply;isolation: isolate"/>
        <path id="Path_1291" data-name="Path 1291" d="M905.521,2175.936c-8.127.771-13.894,9.2-14.1,20.292-.217,11.724,7.046,22.412,14.592,23.4,7.764,1.015,14.482-6.34,16.232-17.247,1.582-9.867-2.773-21.243-9.186-24.907C913.059,2177.473,909.406,2175.131,905.521,2175.936Z" fill="#a0a0a0" opacity="0.78" style="mix-blend-mode: multiply;isolation: isolate"/>
        <path id="Path_1292" data-name="Path 1292" d="M905.35,2176c-7.9.949-13.487,9.332-13.6,20.237-.127,11.659,7.107,22.144,14.7,23,7.781.879,14.4-6.674,15.892-17.61,1.34-9.813-3.085-20.794-9.489-24.282A11.189,11.189,0,0,0,905.35,2176Z" fill="#9d9d9d" opacity="0.805" style="mix-blend-mode: multiply;isolation: isolate"/>
        <path id="Path_1293" data-name="Path 1293" d="M905.179,2176.06c-7.67,1.127-13.078,9.465-13.11,20.181-.035,11.595,7.167,21.876,14.8,22.6,7.8.745,14.32-7.007,15.553-17.972,1.1-9.759-3.4-20.345-9.793-23.657A11,11,0,0,0,905.179,2176.06Z" fill="#9a9a9a" opacity="0.829" style="mix-blend-mode: multiply;isolation: isolate"/>
        <path id="Path_1294" data-name="Path 1294" d="M905.008,2176.121c-7.441,1.306-12.669,9.6-12.615,20.127.058,11.53,7.228,21.609,14.9,22.208,7.816.61,14.241-7.341,15.213-18.335.858-9.705-3.712-19.9-10.1-23.032A10.829,10.829,0,0,0,905.008,2176.121Z" fill="#979797" opacity="0.854" style="mix-blend-mode: multiply;isolation: isolate"/>
        <path id="Path_1295" data-name="Path 1295" d="M904.837,2176.183c-7.213,1.484-12.258,9.729-12.12,20.072.152,11.465,7.289,21.341,15.005,21.81,7.834.476,14.166-7.676,14.874-18.7.619-9.653-4.026-19.447-10.4-22.407A10.668,10.668,0,0,0,904.837,2176.183Z" fill="#949494" opacity="0.878" style="mix-blend-mode: multiply;isolation: isolate"/>
        <path id="Path_1296" data-name="Path 1296" d="M904.667,2176.245c-6.985,1.661-11.848,9.861-11.626,20.016.248,11.4,7.35,21.075,15.109,21.414,7.851.342,14.093-8.013,14.533-19.06.384-9.6-4.338-19-10.7-21.782A10.517,10.517,0,0,0,904.667,2176.245Z" fill="#919191" opacity="0.902" style="mix-blend-mode: multiply;isolation: isolate"/>
        <path id="Path_1297" data-name="Path 1297" d="M904.5,2176.306c-6.757,1.84-11.436,9.994-11.132,19.962.346,11.335,7.412,20.809,15.213,21.016,7.869.209,14.022-8.35,14.194-19.422.149-9.552-4.652-18.549-11.007-21.157A10.385,10.385,0,0,0,904.5,2176.306Z" fill="#8e8e8e" opacity="0.927" style="mix-blend-mode: multiply;isolation: isolate"/>
        <path id="Path_1298" data-name="Path 1298" d="M904.325,2176.368c-6.528,2.018-11.022,10.125-10.637,19.907.445,11.269,7.474,20.543,15.316,20.619,7.888.076,13.954-8.689,13.855-19.785-.085-9.5-4.965-18.1-11.311-20.532A10.259,10.259,0,0,0,904.325,2176.368Z" fill="#8b8b8b" opacity="0.951" style="mix-blend-mode: multiply;isolation: isolate"/>
        <path id="Path_1299" data-name="Path 1299" d="M904.154,2176.43c-6.3,2.2-10.593,10.255-10.142,19.851.563,11.2,7.536,20.288,15.42,20.222,7.906-.047,13.887-9.029,13.515-20.147-.317-9.455-5.279-17.651-11.615-19.906A10.146,10.146,0,0,0,904.154,2176.43Z" fill="#888" opacity="0.976" style="mix-blend-mode: multiply;isolation: isolate"/>
        <path id="Path_1300" data-name="Path 1300" d="M903.983,2176.491c-6.071,2.375-10.194,10.387-9.647,19.8.645,11.137,7.6,20.014,15.523,19.825s13.823-9.371,13.176-20.51c-.548-9.41-5.592-17.2-11.919-19.281A10.05,10.05,0,0,0,903.983,2176.491Z" fill="#858585" style="mix-blend-mode: multiply;isolation: isolate"/>
      </g>
      <path id="Path_1301" data-name="Path 1301" d="M893.43,2198.09c1.273,13.664,9.518,24.1,18.375,23.28s15.038-12.61,13.765-26.273-9.518-24.1-18.38-23.274S892.158,2184.431,893.43,2198.09Z" fill="url(#linear-gradient-5)"/>
      <path id="Path_1302" data-name="Path 1302" d="M907.29,2172.9c-8.276.771-14,12.006-12.779,25.09s8.918,23.074,17.193,22.3,14-12.007,12.785-25.1S915.572,2172.128,907.29,2172.9Z" fill="url(#linear-gradient-6)"/>
    </g>
    <g id="Group_100" data-name="Group 100" transform="translate(-131.271 3.204)">
      <g id="Group_99" data-name="Group 99" style="mix-blend-mode: multiply;isolation: isolate">
        <path id="Path_1303" data-name="Path 1303" d="M856.186,2138.541c-6.918-2.208-13.615,5.439-15.132,13.08-1.231,6.191,2.156,16.151,4.948,18.334,3.2,2.5,9.811,1.026,13.927-3.566,4.541-5.072,3.289-20.278.277-24.444A10,10,0,0,0,856.186,2138.541Z" fill="#fff" opacity="0"/>
        <path id="Path_1304" data-name="Path 1304" d="M856.11,2138.568c-6.817-2.128-13.394,5.421-14.869,12.978-1.194,6.162,2.186,15.976,5,18.1,3.211,2.443,9.723.9,13.732-3.7,4.423-5.051,3.147-19.972.139-24.058A9.811,9.811,0,0,0,856.11,2138.568Z" fill="#fcfcfc" opacity="0.024" style="mix-blend-mode: multiply;isolation: isolate"/>
        <path id="Path_1305" data-name="Path 1305" d="M856.033,2138.6c-6.714-2.048-13.173,5.4-14.605,12.875-1.156,6.132,2.222,15.794,5.046,17.872,3.224,2.373,9.621.76,13.536-3.839,4.292-5.043,3.006-19.666,0-23.673A9.627,9.627,0,0,0,856.033,2138.6Z" fill="#f9f9f9" opacity="0.049" style="mix-blend-mode: multiply;isolation: isolate"/>
        <path id="Path_1306" data-name="Path 1306" d="M855.956,2138.624c-6.611-1.969-12.968,5.379-14.341,12.772-1.132,6.1,2.254,15.616,5.1,17.642,3.235,2.306,9.526.626,13.34-3.977,4.167-5.029,2.865-19.359-.134-23.287A9.422,9.422,0,0,0,855.956,2138.624Z" fill="#f6f6f6" opacity="0.073" style="mix-blend-mode: multiply;isolation: isolate"/>
        <path id="Path_1307" data-name="Path 1307" d="M855.88,2138.651c-6.509-1.888-12.753,5.359-14.078,12.67-1.1,6.07,2.286,15.438,5.144,17.411,3.245,2.24,9.43.494,13.145-4.114,4.042-5.013,2.723-19.052-.272-22.9A9.235,9.235,0,0,0,855.88,2138.651Z" fill="#f3f3f3" opacity="0.098" style="mix-blend-mode: multiply;isolation: isolate"/>
        <path id="Path_1308" data-name="Path 1308" d="M855.8,2138.679c-6.406-1.809-12.537,5.339-13.814,12.567-1.067,6.04,2.318,15.26,5.193,17.18,3.255,2.174,9.334.362,12.949-4.251,3.917-5,2.582-18.745-.409-22.516A9.05,9.05,0,0,0,855.8,2138.679Z" fill="#f0f0f0" opacity="0.122" style="mix-blend-mode: multiply;isolation: isolate"/>
        <path id="Path_1309" data-name="Path 1309" d="M855.727,2138.706c-6.3-1.729-12.322,5.32-13.551,12.465-1.033,6.01,2.35,15.083,5.242,16.95,3.265,2.108,9.238.229,12.753-4.389,3.793-4.982,2.441-18.438-.545-22.13A8.865,8.865,0,0,0,855.727,2138.706Z" fill="#ededed" opacity="0.146" style="mix-blend-mode: multiply;isolation: isolate"/>
        <path id="Path_1310" data-name="Path 1310" d="M855.65,2138.734c-6.2-1.649-12.105,5.3-13.286,12.362-1,5.98,2.38,14.905,5.29,16.719,3.275,2.042,9.143.1,12.558-4.525,3.668-4.967,2.3-18.132-.683-21.745A8.685,8.685,0,0,0,855.65,2138.734Z" fill="#eaeaea" opacity="0.171" style="mix-blend-mode: multiply;isolation: isolate"/>
        <path id="Path_1311" data-name="Path 1311" d="M855.574,2138.761c-6.1-1.569-11.889,5.281-13.023,12.26-.968,5.951,2.412,14.727,5.339,16.489,3.284,1.976,9.047-.035,12.362-4.663,3.544-4.95,2.158-17.825-.82-21.36A8.507,8.507,0,0,0,855.574,2138.761Z" fill="#e7e7e7" opacity="0.195" style="mix-blend-mode: multiply;isolation: isolate"/>
        <path id="Path_1312" data-name="Path 1312" d="M855.5,2138.789c-6-1.489-11.672,5.261-12.759,12.157-.934,5.921,2.443,14.55,5.388,16.258,3.294,1.911,8.952-.165,12.166-4.8,3.421-4.932,2.017-17.519-.956-20.974A8.321,8.321,0,0,0,855.5,2138.789Z" fill="#e4e4e4" opacity="0.22" style="mix-blend-mode: multiply;isolation: isolate"/>
        <path id="Path_1313" data-name="Path 1313" d="M855.421,2138.817c-5.9-1.41-11.455,5.241-12.5,12.053-.9,5.892,2.474,14.373,5.437,16.028,3.3,1.846,8.857-.295,11.971-4.937,3.3-4.914,1.875-17.212-1.094-20.588A8.149,8.149,0,0,0,855.421,2138.817Z" fill="#e1e1e1" opacity="0.244" style="mix-blend-mode: multiply;isolation: isolate"/>
        <path id="Path_1314" data-name="Path 1314" d="M855.344,2138.844c-5.792-1.329-11.237,5.222-12.232,11.951-.866,5.862,2.505,14.2,5.486,15.8,3.312,1.78,8.762-.426,11.775-5.074,3.173-4.9,1.734-16.906-1.231-20.2A7.977,7.977,0,0,0,855.344,2138.844Z" fill="#dedede" opacity="0.268" style="mix-blend-mode: multiply;isolation: isolate"/>
        <path id="Path_1315" data-name="Path 1315" d="M855.268,2138.872c-5.691-1.25-11.02,5.2-11.969,11.848-.832,5.833,2.536,14.019,5.535,15.567,3.321,1.715,8.667-.555,11.579-5.211,3.051-4.878,1.592-16.6-1.368-19.818A7.794,7.794,0,0,0,855.268,2138.872Z" fill="#dbdbdb" opacity="0.293" style="mix-blend-mode: multiply;isolation: isolate"/>
        <path id="Path_1316" data-name="Path 1316" d="M855.191,2138.9c-5.588-1.169-10.8,5.184-11.7,11.746-.8,5.8,2.567,13.841,5.584,15.336,3.33,1.65,8.573-.684,11.384-5.348,2.927-4.858,1.45-16.292-1.505-19.432A7.639,7.639,0,0,0,855.191,2138.9Z" fill="#d8d8d8" opacity="0.317" style="mix-blend-mode: multiply;isolation: isolate"/>
        <path id="Path_1317" data-name="Path 1317" d="M855.114,2138.927c-5.485-1.09-10.584,5.164-11.441,11.643-.763,5.774,2.6,13.665,5.633,15.106,3.338,1.585,8.479-.813,11.188-5.486,2.8-4.839,1.309-15.985-1.642-19.046A7.467,7.467,0,0,0,855.114,2138.927Z" fill="#d5d5d5" opacity="0.341" style="mix-blend-mode: multiply;isolation: isolate"/>
        <path id="Path_1318" data-name="Path 1318" d="M855.038,2138.955c-5.383-1.011-10.366,5.144-11.178,11.54-.729,5.744,2.628,13.488,5.682,14.875,3.347,1.52,8.385-.941,10.992-5.623,2.684-4.818,1.168-15.678-1.779-18.661A7.3,7.3,0,0,0,855.038,2138.955Z" fill="#d2d2d2" opacity="0.366" style="mix-blend-mode: multiply;isolation: isolate"/>
        <path id="Path_1319" data-name="Path 1319" d="M854.961,2138.982c-5.28-.93-10.147,5.126-10.913,11.438-.695,5.715,2.658,13.311,5.73,14.645,3.355,1.455,8.291-1.069,10.8-5.76,2.563-4.8,1.027-15.373-1.916-18.276A7.145,7.145,0,0,0,854.961,2138.982Z" fill="#cfcfcf" opacity="0.39" style="mix-blend-mode: multiply;isolation: isolate"/>
        <path id="Path_1320" data-name="Path 1320" d="M854.885,2139.01c-5.179-.851-9.928,5.107-10.65,11.335-.659,5.686,2.688,13.135,5.779,14.414,3.363,1.392,8.2-1.2,10.6-5.9,2.441-4.777.885-15.066-2.053-17.89A6.989,6.989,0,0,0,854.885,2139.01Z" fill="#ccc" opacity="0.415" style="mix-blend-mode: multiply;isolation: isolate"/>
        <path id="Path_1321" data-name="Path 1321" d="M854.808,2139.037c-5.076-.77-9.709,5.088-10.386,11.233-.624,5.657,2.718,12.958,5.828,14.183,3.371,1.328,8.106-1.323,10.405-6.034,2.321-4.755.744-14.759-2.19-17.5A6.838,6.838,0,0,0,854.808,2139.037Z" fill="#c9c9c9" opacity="0.439" style="mix-blend-mode: multiply;isolation: isolate"/>
        <path id="Path_1322" data-name="Path 1322" d="M854.732,2139.065c-4.974-.691-9.49,5.069-10.123,11.13-.588,5.627,2.748,12.782,5.877,13.953,3.379,1.263,8.014-1.45,10.209-6.172s.6-14.452-2.327-17.119A6.686,6.686,0,0,0,854.732,2139.065Z" fill="#c6c6c6" opacity="0.463" style="mix-blend-mode: multiply;isolation: isolate"/>
        <path id="Path_1323" data-name="Path 1323" d="M854.655,2139.093c-4.871-.611-9.269,5.05-9.859,11.026-.552,5.6,2.778,12.607,5.926,13.723,3.387,1.2,7.922-1.576,10.014-6.309,2.081-4.71.461-14.145-2.465-16.733A6.534,6.534,0,0,0,854.655,2139.093Z" fill="#c3c3c3" opacity="0.488" style="mix-blend-mode: multiply;isolation: isolate"/>
        <path id="Path_1324" data-name="Path 1324" d="M854.579,2139.12c-4.769-.531-9.05,5.031-9.6,10.924-.516,5.57,2.808,12.432,5.975,13.492,3.394,1.137,7.831-1.7,9.818-6.445,1.963-4.688.32-13.839-2.6-16.348A6.4,6.4,0,0,0,854.579,2139.12Z" fill="#c1c1c1" opacity="0.512" style="mix-blend-mode: multiply;isolation: isolate"/>
        <path id="Path_1325" data-name="Path 1325" d="M854.5,2139.148c-4.666-.451-8.829,5.012-9.332,10.821-.48,5.541,2.838,12.256,6.024,13.262,3.4,1.073,7.741-1.827,9.622-6.583,1.845-4.664.179-13.532-2.738-15.962A6.254,6.254,0,0,0,854.5,2139.148Z" fill="#bebebe" opacity="0.537" style="mix-blend-mode: multiply;isolation: isolate"/>
        <path id="Path_1326" data-name="Path 1326" d="M854.426,2139.175c-4.565-.371-8.608,4.994-9.069,10.719-.443,5.512,2.867,12.081,6.073,13.031,3.41,1.011,7.651-1.951,9.427-6.72,1.727-4.64.037-13.226-2.876-15.577A6.128,6.128,0,0,0,854.426,2139.175Z" fill="#bbb" opacity="0.561" style="mix-blend-mode: multiply;isolation: isolate"/>
        <path id="Path_1327" data-name="Path 1327" d="M854.349,2139.2c-4.462-.292-8.387,4.975-8.8,10.616-.407,5.483,2.9,11.906,6.121,12.8,3.417.947,7.562-2.076,9.231-6.858,1.611-4.616-.1-12.919-3.013-15.191A5.989,5.989,0,0,0,854.349,2139.2Z" fill="#b8b8b8" opacity="0.585" style="mix-blend-mode: multiply;isolation: isolate"/>
        <path id="Path_1328" data-name="Path 1328" d="M854.272,2139.231c-4.359-.212-8.165,4.956-8.54,10.513-.369,5.454,2.926,11.731,6.17,12.57,3.425.885,7.474-2.2,9.035-6.994,1.5-4.593-.245-12.613-3.149-14.806A5.862,5.862,0,0,0,854.272,2139.231Z" fill="#b5b5b5" opacity="0.61" style="mix-blend-mode: multiply;isolation: isolate"/>
        <path id="Path_1329" data-name="Path 1329" d="M854.2,2139.258c-4.257-.132-7.943,4.938-8.277,10.411-.331,5.425,2.955,11.557,6.219,12.339,3.432.823,7.387-2.324,8.84-7.131,1.38-4.568-.387-12.306-3.287-14.421A5.747,5.747,0,0,0,854.2,2139.258Z" fill="#b2b2b2" opacity="0.634" style="mix-blend-mode: multiply;isolation: isolate"/>
        <path id="Path_1330" data-name="Path 1330" d="M854.119,2139.286c-4.154-.052-7.72,4.919-8.013,10.308s2.985,11.382,6.268,12.109c3.44.761,7.3-2.449,8.644-7.269,1.266-4.543-.528-12-3.424-14.035A5.623,5.623,0,0,0,854.119,2139.286Z" fill="#afafaf" opacity="0.659" style="mix-blend-mode: multiply;isolation: isolate"/>
        <path id="Path_1331" data-name="Path 1331" d="M854.043,2139.313c-4.053.028-7.5,4.9-7.75,10.206-.255,5.367,3.015,11.208,6.317,11.878,3.447.7,7.215-2.572,8.448-7.406,1.153-4.518-.669-11.692-3.561-13.649A5.515,5.515,0,0,0,854.043,2139.313Z" fill="#acacac" opacity="0.683" style="mix-blend-mode: multiply;isolation: isolate"/>
        <path id="Path_1332" data-name="Path 1332" d="M853.966,2139.341c-3.95.108-7.275,4.882-7.486,10.1-.216,5.338,3.044,11.034,6.367,11.648,3.454.637,7.129-2.7,8.251-7.544,1.041-4.493-.81-11.385-3.7-13.263A5.405,5.405,0,0,0,853.966,2139.341Z" fill="#a9a9a9" opacity="0.707" style="mix-blend-mode: multiply;isolation: isolate"/>
        <path id="Path_1333" data-name="Path 1333" d="M853.89,2139.369c-3.848.187-7.052,4.863-7.223,10-.176,5.309,3.074,10.861,6.416,11.417,3.461.576,7.046-2.82,8.056-7.68.929-4.469-.952-11.079-3.835-12.879A5.294,5.294,0,0,0,853.89,2139.369Z" fill="#a6a6a6" opacity="0.732" style="mix-blend-mode: multiply;isolation: isolate"/>
        <path id="Path_1334" data-name="Path 1334" d="M853.813,2139.4c-3.745.267-6.828,4.845-6.959,9.9-.136,5.281,3.1,10.688,6.465,11.187,3.469.515,6.963-2.943,7.86-7.817.818-4.444-1.093-10.773-3.972-12.493A5.2,5.2,0,0,0,853.813,2139.4Z" fill="#a3a3a3" opacity="0.756" style="mix-blend-mode: multiply;isolation: isolate"/>
        <path id="Path_1335" data-name="Path 1335" d="M853.737,2139.424c-3.643.347-6.6,4.826-6.7,9.794-.1,5.253,3.133,10.515,6.514,10.957,3.476.454,6.881-3.068,7.664-7.955.708-4.42-1.234-10.466-4.108-12.107A5.105,5.105,0,0,0,853.737,2139.424Z" fill="#a0a0a0" opacity="0.78" style="mix-blend-mode: multiply;isolation: isolate"/>
        <path id="Path_1336" data-name="Path 1336" d="M853.66,2139.451c-3.54.427-6.379,4.808-6.431,9.692-.056,5.224,3.162,10.342,6.562,10.726,3.484.394,6.8-3.191,7.469-8.092.6-4.4-1.376-10.159-4.246-11.721A5.015,5.015,0,0,0,853.66,2139.451Z" fill="#9d9d9d" opacity="0.805" style="mix-blend-mode: multiply;isolation: isolate"/>
        <path id="Path_1337" data-name="Path 1337" d="M853.583,2139.479c-3.438.507-6.154,4.789-6.167,9.589-.015,5.194,3.192,10.169,6.611,10.495,3.492.333,6.722-3.315,7.273-8.229.491-4.371-1.517-9.852-4.383-11.336A4.936,4.936,0,0,0,853.583,2139.479Z" fill="#9a9a9a" opacity="0.829" style="mix-blend-mode: multiply;isolation: isolate"/>
        <path id="Path_1338" data-name="Path 1338" d="M853.507,2139.507c-3.336.586-5.929,4.77-5.9,9.486.027,5.165,3.222,10,6.66,10.265,3.5.273,6.643-3.44,7.077-8.366.383-4.348-1.658-9.546-4.52-10.951A4.852,4.852,0,0,0,853.507,2139.507Z" fill="#979797" opacity="0.854" style="mix-blend-mode: multiply;isolation: isolate"/>
        <path id="Path_1339" data-name="Path 1339" d="M853.43,2139.534c-3.233.667-5.7,4.751-5.64,9.384.069,5.136,3.252,9.825,6.709,10.034,3.507.213,6.566-3.565,6.882-8.5.276-4.324-1.8-9.239-4.657-10.565A4.788,4.788,0,0,0,853.43,2139.534Z" fill="#949494" opacity="0.878" style="mix-blend-mode: multiply;isolation: isolate"/>
        <path id="Path_1340" data-name="Path 1340" d="M853.354,2139.562c-3.131.746-5.477,4.732-5.377,9.281.112,5.107,3.282,9.652,6.758,9.8,3.515.152,6.49-3.691,6.686-8.641.17-4.3-1.941-8.932-4.794-10.18A4.717,4.717,0,0,0,853.354,2139.562Z" fill="#919191" opacity="0.902" style="mix-blend-mode: multiply;isolation: isolate"/>
        <path id="Path_1341" data-name="Path 1341" d="M853.277,2139.589c-3.028.827-5.25,4.713-5.113,9.179.156,5.078,3.312,9.481,6.807,9.573,3.523.093,6.415-3.817,6.49-8.778.066-4.278-2.082-8.626-4.931-9.794A4.655,4.655,0,0,0,853.277,2139.589Z" fill="#8e8e8e" opacity="0.927" style="mix-blend-mode: multiply;isolation: isolate"/>
        <path id="Path_1342" data-name="Path 1342" d="M853.2,2139.617c-2.927.906-5.023,4.694-4.85,9.076.2,5.048,3.342,9.309,6.856,9.342,3.532.034,6.34-3.943,6.3-8.915-.04-4.256-2.224-8.319-5.069-9.408A4.6,4.6,0,0,0,853.2,2139.617Z" fill="#8b8b8b" opacity="0.951" style="mix-blend-mode: multiply;isolation: isolate"/>
        <path id="Path_1343" data-name="Path 1343" d="M853.124,2139.645c-2.824.985-4.79,4.674-4.586,8.973.252,5.018,3.373,9.141,6.9,9.112s6.267-4.071,6.1-9.052c-.143-4.236-2.365-8.013-5.205-9.023A4.547,4.547,0,0,0,853.124,2139.645Z" fill="#888" opacity="0.976" style="mix-blend-mode: multiply;isolation: isolate"/>
        <path id="Path_1344" data-name="Path 1344" d="M853.048,2139.672c-2.722,1.066-4.57,4.655-4.322,8.87.288,4.99,3.4,8.967,6.953,8.882s6.194-4.2,5.9-9.189c-.247-4.215-2.506-7.706-5.342-8.638A4.5,4.5,0,0,0,853.048,2139.672Z" fill="#858585" style="mix-blend-mode: multiply;isolation: isolate"/>
      </g>
      <path id="Path_1345" data-name="Path 1345" d="M848.367,2149.6c.61,6.551,4.508,11.364,8.875,10.957s7.311-5.857,6.7-12.408-4.509-11.362-8.877-10.955S847.756,2143.046,848.367,2149.6Z" fill="url(#linear-gradient-7)"/>
      <path id="Path_1346" data-name="Path 1346" d="M855.167,2138.271c-3.705.345-6.265,5.369-5.719,11.226s3.989,10.323,7.694,9.978,6.265-5.373,5.72-11.227S858.873,2137.926,855.167,2138.271Z" fill="url(#linear-gradient-8)"/>
    </g>
    <g id="Group_109" data-name="Group 109" transform="translate(-131.271 3.204)">
      <path id="Path_1421" data-name="Path 1421" d="M981.2,2220.814a4.23,4.23,0,0,1-2.558,1.4c-1.281,0-2.2-1.559-2.2-2.719,0-.92.16-1.04,2.639-3.04a33.2,33.2,0,0,0,5.719-5.959,25.281,25.281,0,0,0-1.08-3.839c-1.119,1-3.6,2.92-4.879,2.92-1.319,0-2.239-1.6-2.239-2.6s.759-1.52,1.559-2.08a33.819,33.819,0,0,0,3.48-2.479,25.219,25.219,0,0,0-2.32-3.12,2.793,2.793,0,0,1-.92-1.88,2.521,2.521,0,0,1,2.52-2.239,2.982,2.982,0,0,1,2.119,1.04,14,14,0,0,1,2.16,2.679c.2-.28,1.52-2.079,1.8-2.479.76-1.08,1.239-1.24,1.96-1.24a2.136,2.136,0,0,1,2.319,1.96c0,1.159-2.2,4.239-3.879,6a41.688,41.688,0,0,1,2.8,15.877c0,6.4-1.319,10.678-2.88,12.158-1.359,1.28-2.838,1.4-5.678,1.4-1.079,0-2.56,0-3.119-.44a2.618,2.618,0,0,1-1-2.2,2.03,2.03,0,0,1,2.28-2.24c.4,0,2.119.04,2.439,0a2.2,2.2,0,0,0,2.28-1.8,21.574,21.574,0,0,0,1.119-7c0-.92-.039-2-.119-2.72A36.967,36.967,0,0,1,981.2,2220.814Zm18.6-19.717v-3.759c0-1.72.76-2.44,2.6-2.44a2.121,2.121,0,0,1,2.319,2.44v3.759h4.159c3.08,0,4.64,1.04,4.64,4.6v7.959c0,3.679-1.68,4.639-4.64,4.639h-4.159v7.719c.8-.12,1.88-.24,3.96-.6-.121-.36-.721-2.16-.881-2.6a4.953,4.953,0,0,1-.279-1.52c0-1.519,1.719-1.759,2.359-1.759,1.32,0,1.481.4,2.48,3.159,1.16,3.2,2.2,6.879,2.2,8.079,0,1.88-2.12,1.96-2.641,1.96-1.478,0-1.639-.84-2.159-3.16a140.484,140.484,0,0,1-17.276,2.44c-.6,0-2.361,0-2.361-2.44a2.037,2.037,0,0,1,1.48-2.159c.24-.08,7.2-.76,8.2-.88v-8.239h-3.72c-2.96,0-4.6-.96-4.6-4.639V2205.7c0-3.559,1.559-4.6,4.6-4.6Zm0,12.638v-8.159h-2.959a1.045,1.045,0,0,0-1.2,1.2v5.759c0,.72.28,1.2,1.2,1.2Zm4.919,0h3.079a1.049,1.049,0,0,0,1.16-1.2v-5.759a1.045,1.045,0,0,0-1.16-1.2h-3.079Z" fill="#009342" stroke="#fff" stroke-linecap="round" stroke-linejoin="round" stroke-width="4"/>
      <path id="Path_1422" data-name="Path 1422" d="M1024.635,2225.453a62.425,62.425,0,0,0,12.959-5.679c-5.84.6-6.56.64-13,1.16-.92.08-4.64.359-5.28.359-.8,0-2.2-.079-2.2-2.4,0-.92.279-1.96,1.239-2.2.4-.08,3.32-.2,4.08-.2v-13.8c0-3.16,1.279-4.32,4.319-4.32h5.279a21.16,21.16,0,0,1,.96-2.6c.24-.4.68-.92,2.119-.92.6,0,2.84.08,2.84,1.6a7.348,7.348,0,0,1-.6,1.919h7.6c2.919,0,4.359,1,4.359,4.32v7.039c.16-.24,1.041-1.28,1.24-1.52a2.2,2.2,0,0,1,1.76-1,2.565,2.565,0,0,1,2.519,2.36,2.366,2.366,0,0,1-.559,1.479,57.689,57.689,0,0,1-4.96,5.239v11.6c0,4.639-2.479,4.639-7.239,4.639a29.054,29.054,0,0,1-4.478-.2,2.313,2.313,0,0,1-1.6-2.44c0-2.359,1.919-2.359,2.919-2.359.48,0,3.04.08,3.6.08,1.2,0,1.8-.16,1.8-1.6v-5.479a55.466,55.466,0,0,1-14.678,8.118c-3.8,1.48-8.8,2.96-9.759,2.96a2.581,2.581,0,0,1-2.4-2.8c0-.761.24-1.6,1.879-2.04C1020.557,2226.453,1023.355,2225.773,1024.635,2225.453Zm2.84-20.877h16.838v-1.119a.849.849,0,0,0-.961-.96h-14.917a.848.848,0,0,0-.96.96Zm16.838,3.52h-16.838v2.039h16.838Zm0,5.6h-16.838v2.639c7.838-.24,8.279-.28,15.918-.759.6-.52.719-.64.92-.8Z" fill="#009342" stroke="#fff" stroke-linecap="round" stroke-linejoin="round" stroke-width="4"/>
      <path id="Path_1423" data-name="Path 1423" d="M1070.754,2225.973c0,3.639-.8,4.479-4.479,4.479H1062.6c-3.639,0-4.479-.8-4.479-4.479V2201.1c0-3.68.8-4.479,4.479-4.479h3.679c3.639,0,4.479.72,4.479,4.479Zm-4.359-14.638v-9.2a.889.889,0,0,0-1-1h-1.76c-.64,0-.96.32-.96,1v9.2Zm0,4.16h-3.719v9.478a.848.848,0,0,0,.96.96h1.76c.639,0,1-.28,1-.96Zm18.918,3.919h-11.879a1.966,1.966,0,0,1-2.28-2.2c0-1.719.6-2.479,2.28-2.479h11.879v-3.28h-12.239a1.947,1.947,0,0,1-2.24-2.2c0-1.68.52-2.48,2.24-2.48h7.039V2203.1h-5.879a2.2,2.2,0,1,1,0-4.4h5.879v-1.679c0-1.44.64-2.16,2.32-2.16,1.519,0,2.6.32,2.6,2.16v1.679h6.16a2.2,2.2,0,1,1,0,4.4h-6.16v3.679h7.36a1.981,1.981,0,0,1,2.32,2.2c0,1.48-.44,2.479-2.2,2.479h-2.24v3.28h1.92a1.967,1.967,0,0,1,2.12,2.239c0,1.24-.321,2.44-2.12,2.44h-1.92v8.039c0,4.719-1.439,5.039-6.919,5.039-2.479,0-4.4,0-4.4-2.76a2.459,2.459,0,0,1,.4-1.52,3.478,3.478,0,0,1-1.081.2c-1.2,0-1.48-.479-2.279-1.839-.48-.8-1.32-2-1.68-2.48-.8-1.08-1.08-1.4-1.08-2.08,0-1.679,2-2.279,2.839-2.279,1.12,0,1.4.4,2.96,2.36.68.879,2.119,2.719,2.119,3.839a2.106,2.106,0,0,1-.8,1.6c.479-.08,2.8.04,3.28.04,1.079-.04,1.68-.281,1.68-1.84Z" fill="#009342" stroke="#fff" stroke-linecap="round" stroke-linejoin="round" stroke-width="4"/>
      <path id="Path_1424" data-name="Path 1424" d="M1106.955,2230.372c0,1.04-.28,2.44-2.279,2.44-1.84,0-2.68-.56-2.68-2.44v-16.557c-.8,1.04-1.519,2-2.76,2a2.939,2.939,0,0,1-2.719-2.839c0-1,.24-1.32,2.479-4.2a40.718,40.718,0,0,0,6.239-11.438c.64-1.64,1.04-2.4,2.4-2.4.8,0,2.84.52,2.84,2.32,0,1.559-1.6,4.919-3.52,8.6Zm24.916-25.076c2.359-.16,2.639,1.48,2.639,2.4a2.184,2.184,0,0,1-2.319,2.4l-10.279.72c.24,3.28.881,8.679,3.359,13.118.122.2,1.6,2.88,2.92,2.88,1.04,0,1.64-1.76,1.76-2.16.561-1.64.8-2.52,2.119-2.52,1.041,0,2.68.68,2.68,2.28a14.45,14.45,0,0,1-2.359,6,4.742,4.742,0,0,1-4.039,2.32c-6.68,0-10.838-10.8-11.559-21.557l-5.839.36a2.424,2.424,0,1,1-.28-4.839l5.76-.36c-.08-1.4-.561-7.4-.561-8.638a2.443,2.443,0,0,1,2.641-2.76c2.558,0,2.6,2.12,2.6,2.879,0,1.28.44,6.959.52,8.119Zm-2.279-7.159c1.279,1.12,2.638,2.28,2.638,3.32a2.8,2.8,0,0,1-2.6,2.639c-.879,0-1.119-.28-2.559-1.719-1-1-1.36-1.32-2.6-2.4a2.315,2.315,0,0,1,1.519-4.239C1126.552,2195.738,1127.191,2196.018,1129.592,2198.137Z" fill="#009342" stroke="#fff" stroke-linecap="round" stroke-linejoin="round" stroke-width="4"/>
      <path id="Path_1425" data-name="Path 1425" d="M1148.173,2224.38c-.672,1.68-2.017,4.788-4.676,4.788-2.52,0-5.824-3.64-5.824-9.184,0-6.748,5.04-12.264,12.739-12.264,7.561,0,11.509,5.376,11.509,11.06,0,8.484-7.784,11.676-9.017,11.676a1.568,1.568,0,0,1-1.539-1.624c0-.728.224-.9,1.736-1.652,2.912-1.428,5.628-3.864,5.628-8.428,0-1.176-.112-7.308-7.336-8.2A57.369,57.369,0,0,1,1148.173,2224.38Zm-7.532-4.256c0,3.164,1.511,5.824,2.744,5.824,1.092,0,1.96-2.38,2.576-4.228a54.538,54.538,0,0,0,2.408-11.032A9.318,9.318,0,0,0,1140.641,2220.124Z" fill="#333" stroke="#fff" stroke-linecap="round" stroke-linejoin="round" stroke-width="4"/>
      <path id="Path_1426" data-name="Path 1426" d="M1170.545,2230.624a1.416,1.416,0,1,1-2.828,0v-12.348c-.672.924-1.092,1.456-1.792,1.456a1.764,1.764,0,0,1-1.6-1.764,2.579,2.579,0,0,1,.728-1.568,26.857,26.857,0,0,0,4.368-8.316c.084-.252.391-1.456.5-1.68a1.173,1.173,0,0,1,1.147-.644c.141,0,1.569,0,1.569,1.26a24.81,24.81,0,0,1-2.1,6.216Zm2.828-9.632a1.254,1.254,0,0,1-1.456-1.316c0-1.26.952-1.344,1.456-1.344h6.636v-2.52h-3.136c-2.129,0-3.137-.7-3.137-3.108v-2.968c0-2.436,1.037-3.136,3.137-3.136H1186c2.1,0,3.136.7,3.136,3.136v2.968c0,2.408-1.008,3.108-3.136,3.108h-3.192v2.52h6.524a1.252,1.252,0,0,1,1.456,1.344c0,1.26-.952,1.316-1.456,1.316H1183.7a23.8,23.8,0,0,0,4.816,5.432c2.24,1.736,2.24,1.736,2.24,2.3a1.715,1.715,0,0,1-1.54,1.624c-.532,0-1.2-.448-2.772-2.072a28.783,28.783,0,0,1-3.64-4.592v6.944a1.252,1.252,0,0,1-1.344,1.456c-1.149,0-1.456-.56-1.456-1.456v-6.748a26.643,26.643,0,0,1-4.676,5.1c-1.736,1.484-2.072,1.484-2.408,1.484a1.63,1.63,0,0,1-1.372-1.6,1.562,1.562,0,0,1,.9-1.288,21.853,21.853,0,0,0,6.664-6.58Zm12.852-10.78c0-.756-.336-1.12-1.092-1.12h-7.393a.982.982,0,0,0-1.119,1.12v2.072c0,.756.363,1.092,1.119,1.092h7.393a.954.954,0,0,0,1.092-1.092Z" fill="#333" stroke="#fff" stroke-linecap="round" stroke-linejoin="round" stroke-width="4"/>
      <path id="Path_1427" data-name="Path 1427" d="M1196.277,2230.652a1.238,1.238,0,0,1-1.289,1.456c-1.035,0-1.427-.476-1.427-1.456v-21.336c0-2.324.56-2.884,2.912-2.884h2.24c1.876,0,2.8.336,2.8,2.128a11.284,11.284,0,0,1-1.008,4.032c-.168.476-1.064,2.6-1.064,2.856a1.172,1.172,0,0,0,.336.756,11.756,11.756,0,0,1,1.932,6.328c0,3.836-2.3,3.836-3.557,3.836s-1.623-.644-1.623-1.652c0-1.232.588-1.26,1.119-1.288.588-.028,1.317-.112,1.317-1.68a9.517,9.517,0,0,0-1.233-4.424c-.671-1.176-.755-1.316-.755-1.68a4.994,4.994,0,0,1,.5-1.764,24.2,24.2,0,0,0,1.4-4.2c0-.5-.588-.5-.756-.5h-1.064c-.532,0-.784.252-.784.756Zm8.736-6.468c-2.3,0-2.912-.56-2.912-2.884v-2.184c0-2.324.588-2.884,2.912-2.884h3.471V2214.3h-2.939c-.5,0-1.149-.056-1.288-.98-1.6,1.036-1.96,1.092-2.212,1.092a1.691,1.691,0,0,1-1.456-1.736,1.37,1.37,0,0,1,.924-1.288,16.978,16.978,0,0,0,6.16-4.732,2.53,2.53,0,0,1,2.128-1.036,2.4,2.4,0,0,1,2.183.98,17.153,17.153,0,0,0,5.069,4.228c1.876,1.064,2.015,1.12,2.015,1.876a1.582,1.582,0,0,1-1.427,1.652,6.037,6.037,0,0,1-2.352-1.148c-.084.924-.616,1.092-1.26,1.092H1211.2v1.932h3.528c2.324,0,2.912.56,2.912,2.884v2.184c0,2.3-.561,2.884-2.912,2.884h-2.716a10.871,10.871,0,0,0,6.048,4.872,1.223,1.223,0,0,1,.952,1.26,1.512,1.512,0,0,1-1.372,1.624c-.981,0-5.321-1.9-7.7-6.272-2.268,4.648-6.972,6.3-7.785,6.3a1.527,1.527,0,0,1-1.4-1.6c0-.924.643-1.148,1.092-1.316,2.044-.728,4.536-1.736,5.88-4.872Zm3.471-5.544h-3.051a.686.686,0,0,0-.785.784v1.568c0,.5.252.756.785.756h2.94a15.284,15.284,0,0,0,.111-2.044Zm4.928-6.8a19.874,19.874,0,0,1-3.079-3.052c-.2-.2-.28-.308-.476-.308s-.252.084-.5.392a19.14,19.14,0,0,1-3.053,2.968Zm-2.211,7.9a14.359,14.359,0,0,1-.112,2.016h3.22a.688.688,0,0,0,.784-.756v-1.568a.7.7,0,0,0-.784-.784H1211.2Z" fill="#333" stroke="#fff" stroke-linecap="round" stroke-linejoin="round" stroke-width="4"/>
      <path id="Path_1428" data-name="Path 1428" d="M1004.137,2247.561a1.286,1.286,0,0,1,1.372-.925c.616,0,1.6.281,1.6,1.288a7.073,7.073,0,0,1-.14,1.12,51.928,51.928,0,0,0-1.149,10.836,35.016,35.016,0,0,0,.9,8.12,4.675,4.675,0,0,1,.141.98c0,1.036-1.177,1.26-1.6,1.26a1.429,1.429,0,0,1-1.484-.98c-.335-1.008-1.008-3.724-1.008-9.884A55.722,55.722,0,0,1,1004.137,2247.561Zm16.828,14.279a21.194,21.194,0,0,1,4.312,2.156,1.647,1.647,0,0,1,.868,1.4,1.5,1.5,0,0,1-1.344,1.6c-.336,0-.616-.112-1.288-.56a16.275,16.275,0,0,0-2.548-1.4,7.121,7.121,0,0,1-.532,2.968c-.812,1.54-2.716,2.184-4.872,2.184-3.724,0-6.188-1.932-6.188-4.732,0-1.988,1.344-4.76,5.852-4.76a13.547,13.547,0,0,1,2.687.336l-.139-6.328c-1.232.056-2.016.056-3.136.056-4.451,0-5.292-.112-5.292-1.624,0-1.232.643-1.512,1.68-1.512.644,0,3.471.112,4.06.112,1.288,0,1.932-.028,2.6-.056l-.084-3.808a1.393,1.393,0,0,1,1.568-1.6c1.12,0,1.483.645,1.512,1.568l.084,3.612c.532-.028,2.967-.336,3.36-.336,1.232,0,1.26,1.288,1.26,1.512,0,1.512-.7,1.568-4.565,1.876Zm-5.8,1.54c-1.652,0-3.024.672-3.024,2.016,0,1.176,1.148,2.072,3.052,2.072,2.772,0,2.772-1.4,2.772-3.612A7.645,7.645,0,0,0,1015.169,2263.38Z" fill="#333" stroke="#fff" stroke-linecap="round" stroke-linejoin="round" stroke-width="4"/>
      <path id="Path_1429" data-name="Path 1429" d="M1040.313,2252.012c.167.868.419,1.988.616,2.856,1.848-.672,6.748-2.268,7.9-2.268a1.633,1.633,0,0,1,1.569,1.736,1.225,1.225,0,0,1-.868,1.26c-.336.112-4.984,1.316-5.908,1.6-8.176,2.548-9.268,4.62-9.268,6.468,0,3.192,6.356,3.192,7.979,3.192a47.388,47.388,0,0,0,6.244-.42c.42-.056,2.241-.28,2.437-.28a1.43,1.43,0,0,1,1.483,1.6,1.557,1.557,0,0,1-1.315,1.568,50.866,50.866,0,0,1-8.148.616c-4.621,0-11.957-.392-11.957-6.272,0-4.312,4.4-6.524,6.832-7.616-.307-1.12-.559-2.127-.783-3.276l-.868-4.368a5.109,5.109,0,0,1-.112-.924c0-.924.839-1.4,1.847-1.4,1.261,0,1.373.784,1.541,1.653Zm10.388-1.428a1.207,1.207,0,0,1-1.205,1.176c-.756,0-.9-.42-1.231-1.316a14.676,14.676,0,0,0-1.512-3.108,1.525,1.525,0,0,1-.28-.756,1.212,1.212,0,0,1,1.259-1.12.818.818,0,0,1,.393.084C1048.965,2245.88,1050.7,2249.94,1050.7,2250.584Zm4.424-.756a1.207,1.207,0,0,1-1.2,1.176c-.757,0-.925-.42-1.232-1.316a14.976,14.976,0,0,0-1.512-3.136,1.717,1.717,0,0,1-.252-.728,1.232,1.232,0,0,1,1.26-1.12,1.02,1.02,0,0,1,.42.084C1053.417,2245.152,1055.125,2249.212,1055.125,2249.828Z" fill="#333" stroke="#fff" stroke-linecap="round" stroke-linejoin="round" stroke-width="4"/>
      <path id="Path_1430" data-name="Path 1430" d="M1062.713,2253.972c5.74-1.372,8.092-1.512,9.519-1.512,5.881,0,8.092,3.36,8.092,7.14,0,8.764-10.723,10.864-15.063,10.864-1.148,0-1.792-.476-1.792-1.6,0-1.176.7-1.372,1.847-1.428,6.469-.364,11.789-3.024,11.789-7.784,0-3.248-2.184-4.2-4.984-4.2a42.378,42.378,0,0,0-9.156,1.68,26.173,26.173,0,0,1-2.8.728,1.562,1.562,0,0,1-1.484-1.68C1058.681,2255.008,1059.213,2254.813,1062.713,2253.972Zm2.212-7.784a16.955,16.955,0,0,1,2.212.561,45.235,45.235,0,0,0,7.168,1.483c1.343.168,1.624.616,1.624,1.428,0,.9-.365,1.569-1.428,1.569a51,51,0,0,1-8.624-1.653c-1.736-.476-2.38-.672-2.38-1.708A1.538,1.538,0,0,1,1064.925,2246.188Z" fill="#333" stroke="#fff" stroke-linecap="round" stroke-linejoin="round" stroke-width="4"/>
      <path id="Path_1431" data-name="Path 1431" d="M1089.732,2248.932c.057-1.988.084-2.828,1.653-2.828,1.736,0,1.679,1.092,1.624,2.828l-.448,11.956a13.128,13.128,0,0,0,.2,3.248c.42,1.736,2.016,3.136,4.815,3.136,4.424,0,6.916-3.052,8.821-7.588.42-1.008.839-1.288,1.511-1.288.533,0,1.737.308,1.737,1.456a12.358,12.358,0,0,1-1.821,4.284c-1.259,2.1-3.975,6.244-10.248,6.244-4.647,0-6.8-2.24-7.672-4.34a11.62,11.62,0,0,1-.587-4.956Z" fill="#333" stroke="#fff" stroke-linecap="round" stroke-linejoin="round" stroke-width="4"/>
      <path id="Path_1432" data-name="Path 1432" d="M1127.393,2260.8a31.535,31.535,0,0,1,7.587,2.94c1.821.952,2.437,1.4,2.437,2.324a1.574,1.574,0,0,1-1.429,1.624c-.42,0-.643-.168-1.4-.616a30.729,30.729,0,0,0-7.168-3.332c.056,2.576.168,6.608-6.216,6.608-4.032,0-7.141-1.96-7.141-5.208,0-3.444,3.473-5.012,7.785-5.012a17.9,17.9,0,0,1,2.464.168l-.224-12.8a1.426,1.426,0,0,1,1.567-1.68c1.457,0,1.569.98,1.569,1.652l.056,4.2c1.428-.056,2.436-.112,3.92-.28.476-.056,2.632-.392,3.08-.392a1.462,1.462,0,0,1,1.371,1.624c0,1.232-.9,1.344-2.015,1.484-1.6.2-3.78.42-6.328.532Zm-5.825,2.072c-2.828,0-4.647.812-4.647,2.324,0,1.932,2.772,2.38,4.032,2.38,3.388,0,3.388-1.4,3.388-4.48A17.47,17.47,0,0,0,1121.568,2262.876Z" fill="#333" stroke="#fff" stroke-linecap="round" stroke-linejoin="round" stroke-width="4"/>
      <path id="Path_1433" data-name="Path 1433" d="M1146.713,2253.972c5.74-1.372,8.092-1.512,9.519-1.512,5.881,0,8.092,3.36,8.092,7.14,0,8.764-10.723,10.864-15.063,10.864-1.148,0-1.792-.476-1.792-1.6,0-1.176.7-1.372,1.847-1.428,6.469-.364,11.789-3.024,11.789-7.784,0-3.248-2.184-4.2-4.984-4.2a42.378,42.378,0,0,0-9.156,1.68,26.173,26.173,0,0,1-2.8.728,1.562,1.562,0,0,1-1.484-1.68C1142.681,2255.008,1143.213,2254.813,1146.713,2253.972Zm2.212-7.784a16.955,16.955,0,0,1,2.212.561,45.235,45.235,0,0,0,7.168,1.483c1.343.168,1.624.616,1.624,1.428,0,.9-.365,1.569-1.428,1.569a51,51,0,0,1-8.624-1.653c-1.736-.476-2.38-.672-2.38-1.708A1.538,1.538,0,0,1,1148.925,2246.188Z" fill="#333" stroke="#fff" stroke-linecap="round" stroke-linejoin="round" stroke-width="4"/>
      <path id="Path_1434" data-name="Path 1434" d="M1176.421,2248.12a8.169,8.169,0,0,1,5.04-1.68c4.228,0,7.056,2.716,7.056,6.188,0,2.744-1.484,3.976-3.472,5.628-1.792,1.512-1.876,2.072-2.1,3.584-.084.56-.2,1.344-1.6,1.344-1.428,0-1.6-.84-1.6-1.512a6.122,6.122,0,0,1,2.6-4.956c2.408-1.987,2.967-2.464,2.967-4,0-2.128-1.819-3.388-4-3.388a5.318,5.318,0,0,0-3.695,1.456c-.756.756-.9.9-1.428.9a1.45,1.45,0,0,1-1.4-1.568C1174.8,2249.212,1176.141,2248.316,1176.421,2248.12Zm7,19.32a2.1,2.1,0,1,1-2.1-2.072A2.074,2.074,0,0,1,1183.421,2267.44Z" fill="#333" stroke="#fff" stroke-linecap="round" stroke-linejoin="round" stroke-width="4"/>
    </g>
    <g id="Group_110" data-name="Group 110" transform="translate(-131.271 3.204)">
      <path id="Path_1435" data-name="Path 1435" d="M981.2,2220.814a4.23,4.23,0,0,1-2.558,1.4c-1.281,0-2.2-1.559-2.2-2.719,0-.92.16-1.04,2.639-3.04a33.2,33.2,0,0,0,5.719-5.959,25.281,25.281,0,0,0-1.08-3.839c-1.119,1-3.6,2.92-4.879,2.92-1.319,0-2.239-1.6-2.239-2.6s.759-1.52,1.559-2.08a33.819,33.819,0,0,0,3.48-2.479,25.219,25.219,0,0,0-2.32-3.12,2.793,2.793,0,0,1-.92-1.88,2.521,2.521,0,0,1,2.52-2.239,2.982,2.982,0,0,1,2.119,1.04,14,14,0,0,1,2.16,2.679c.2-.28,1.52-2.079,1.8-2.479.76-1.08,1.239-1.24,1.96-1.24a2.136,2.136,0,0,1,2.319,1.96c0,1.159-2.2,4.239-3.879,6a41.688,41.688,0,0,1,2.8,15.877c0,6.4-1.319,10.678-2.88,12.158-1.359,1.28-2.838,1.4-5.678,1.4-1.079,0-2.56,0-3.119-.44a2.618,2.618,0,0,1-1-2.2,2.03,2.03,0,0,1,2.28-2.24c.4,0,2.119.04,2.439,0a2.2,2.2,0,0,0,2.28-1.8,21.574,21.574,0,0,0,1.119-7c0-.92-.039-2-.119-2.72A36.967,36.967,0,0,1,981.2,2220.814Zm18.6-19.717v-3.759c0-1.72.76-2.44,2.6-2.44a2.121,2.121,0,0,1,2.319,2.44v3.759h4.159c3.08,0,4.64,1.04,4.64,4.6v7.959c0,3.679-1.68,4.639-4.64,4.639h-4.159v7.719c.8-.12,1.88-.24,3.96-.6-.121-.36-.721-2.16-.881-2.6a4.953,4.953,0,0,1-.279-1.52c0-1.519,1.719-1.759,2.359-1.759,1.32,0,1.481.4,2.48,3.159,1.16,3.2,2.2,6.879,2.2,8.079,0,1.88-2.12,1.96-2.641,1.96-1.478,0-1.639-.84-2.159-3.16a140.484,140.484,0,0,1-17.276,2.44c-.6,0-2.361,0-2.361-2.44a2.037,2.037,0,0,1,1.48-2.159c.24-.08,7.2-.76,8.2-.88v-8.239h-3.72c-2.96,0-4.6-.96-4.6-4.639V2205.7c0-3.559,1.559-4.6,4.6-4.6Zm0,12.638v-8.159h-2.959a1.045,1.045,0,0,0-1.2,1.2v5.759c0,.72.28,1.2,1.2,1.2Zm4.919,0h3.079a1.049,1.049,0,0,0,1.16-1.2v-5.759a1.045,1.045,0,0,0-1.16-1.2h-3.079Z" fill="#009342"/>
      <path id="Path_1436" data-name="Path 1436" d="M1024.635,2225.453a62.425,62.425,0,0,0,12.959-5.679c-5.84.6-6.56.64-13,1.16-.92.08-4.64.359-5.28.359-.8,0-2.2-.079-2.2-2.4,0-.92.279-1.96,1.239-2.2.4-.08,3.32-.2,4.08-.2v-13.8c0-3.16,1.279-4.32,4.319-4.32h5.279a21.16,21.16,0,0,1,.96-2.6c.24-.4.68-.92,2.119-.92.6,0,2.84.08,2.84,1.6a7.348,7.348,0,0,1-.6,1.919h7.6c2.919,0,4.359,1,4.359,4.32v7.039c.16-.24,1.041-1.28,1.24-1.52a2.2,2.2,0,0,1,1.76-1,2.565,2.565,0,0,1,2.519,2.36,2.366,2.366,0,0,1-.559,1.479,57.689,57.689,0,0,1-4.96,5.239v11.6c0,4.639-2.479,4.639-7.239,4.639a29.054,29.054,0,0,1-4.478-.2,2.313,2.313,0,0,1-1.6-2.44c0-2.359,1.919-2.359,2.919-2.359.48,0,3.04.08,3.6.08,1.2,0,1.8-.16,1.8-1.6v-5.479a55.466,55.466,0,0,1-14.678,8.118c-3.8,1.48-8.8,2.96-9.759,2.96a2.581,2.581,0,0,1-2.4-2.8c0-.761.24-1.6,1.879-2.04C1020.557,2226.453,1023.355,2225.773,1024.635,2225.453Zm2.84-20.877h16.838v-1.119a.849.849,0,0,0-.961-.96h-14.917a.848.848,0,0,0-.96.96Zm16.838,3.52h-16.838v2.039h16.838Zm0,5.6h-16.838v2.639c7.838-.24,8.279-.28,15.918-.759.6-.52.719-.64.92-.8Z" fill="#009342"/>
      <path id="Path_1437" data-name="Path 1437" d="M1070.754,2225.973c0,3.639-.8,4.479-4.479,4.479H1062.6c-3.639,0-4.479-.8-4.479-4.479V2201.1c0-3.68.8-4.479,4.479-4.479h3.679c3.639,0,4.479.72,4.479,4.479Zm-4.359-14.638v-9.2a.889.889,0,0,0-1-1h-1.76c-.64,0-.96.32-.96,1v9.2Zm0,4.16h-3.719v9.478a.848.848,0,0,0,.96.96h1.76c.639,0,1-.28,1-.96Zm18.918,3.919h-11.879a1.966,1.966,0,0,1-2.28-2.2c0-1.719.6-2.479,2.28-2.479h11.879v-3.28h-12.239a1.947,1.947,0,0,1-2.24-2.2c0-1.68.52-2.48,2.24-2.48h7.039V2203.1h-5.879a2.2,2.2,0,1,1,0-4.4h5.879v-1.679c0-1.44.64-2.16,2.32-2.16,1.519,0,2.6.32,2.6,2.16v1.679h6.16a2.2,2.2,0,1,1,0,4.4h-6.16v3.679h7.36a1.981,1.981,0,0,1,2.32,2.2c0,1.48-.44,2.479-2.2,2.479h-2.24v3.28h1.92a1.967,1.967,0,0,1,2.12,2.239c0,1.24-.321,2.44-2.12,2.44h-1.92v8.039c0,4.719-1.439,5.039-6.919,5.039-2.479,0-4.4,0-4.4-2.76a2.459,2.459,0,0,1,.4-1.52,3.478,3.478,0,0,1-1.081.2c-1.2,0-1.48-.479-2.279-1.839-.48-.8-1.32-2-1.68-2.48-.8-1.08-1.08-1.4-1.08-2.08,0-1.679,2-2.279,2.839-2.279,1.12,0,1.4.4,2.96,2.36.68.879,2.119,2.719,2.119,3.839a2.106,2.106,0,0,1-.8,1.6c.479-.08,2.8.04,3.28.04,1.079-.04,1.68-.281,1.68-1.84Z" fill="#009342"/>
      <path id="Path_1438" data-name="Path 1438" d="M1106.955,2230.372c0,1.04-.28,2.44-2.279,2.44-1.84,0-2.68-.56-2.68-2.44v-16.557c-.8,1.04-1.519,2-2.76,2a2.939,2.939,0,0,1-2.719-2.839c0-1,.24-1.32,2.479-4.2a40.718,40.718,0,0,0,6.239-11.438c.64-1.64,1.04-2.4,2.4-2.4.8,0,2.84.52,2.84,2.32,0,1.559-1.6,4.919-3.52,8.6Zm24.916-25.076c2.359-.16,2.639,1.48,2.639,2.4a2.184,2.184,0,0,1-2.319,2.4l-10.279.72c.24,3.28.881,8.679,3.359,13.118.122.2,1.6,2.88,2.92,2.88,1.04,0,1.64-1.76,1.76-2.16.561-1.64.8-2.52,2.119-2.52,1.041,0,2.68.68,2.68,2.28a14.45,14.45,0,0,1-2.359,6,4.742,4.742,0,0,1-4.039,2.32c-6.68,0-10.838-10.8-11.559-21.557l-5.839.36a2.424,2.424,0,1,1-.28-4.839l5.76-.36c-.08-1.4-.561-7.4-.561-8.638a2.443,2.443,0,0,1,2.641-2.76c2.558,0,2.6,2.12,2.6,2.879,0,1.28.44,6.959.52,8.119Zm-2.279-7.159c1.279,1.12,2.638,2.28,2.638,3.32a2.8,2.8,0,0,1-2.6,2.639c-.879,0-1.119-.28-2.559-1.719-1-1-1.36-1.32-2.6-2.4a2.315,2.315,0,0,1,1.519-4.239C1126.552,2195.738,1127.191,2196.018,1129.592,2198.137Z" fill="#009342"/>
      <path id="Path_1439" data-name="Path 1439" d="M1148.173,2224.38c-.672,1.68-2.017,4.788-4.676,4.788-2.52,0-5.824-3.64-5.824-9.184,0-6.748,5.04-12.264,12.739-12.264,7.561,0,11.509,5.376,11.509,11.06,0,8.484-7.784,11.676-9.017,11.676a1.568,1.568,0,0,1-1.539-1.624c0-.728.224-.9,1.736-1.652,2.912-1.428,5.628-3.864,5.628-8.428,0-1.176-.112-7.308-7.336-8.2A57.369,57.369,0,0,1,1148.173,2224.38Zm-7.532-4.256c0,3.164,1.511,5.824,2.744,5.824,1.092,0,1.96-2.38,2.576-4.228a54.538,54.538,0,0,0,2.408-11.032A9.318,9.318,0,0,0,1140.641,2220.124Z" fill="#333"/>
      <path id="Path_1440" data-name="Path 1440" d="M1170.545,2230.624a1.416,1.416,0,1,1-2.828,0v-12.348c-.672.924-1.092,1.456-1.792,1.456a1.764,1.764,0,0,1-1.6-1.764,2.579,2.579,0,0,1,.728-1.568,26.857,26.857,0,0,0,4.368-8.316c.084-.252.391-1.456.5-1.68a1.173,1.173,0,0,1,1.147-.644c.141,0,1.569,0,1.569,1.26a24.81,24.81,0,0,1-2.1,6.216Zm2.828-9.632a1.254,1.254,0,0,1-1.456-1.316c0-1.26.952-1.344,1.456-1.344h6.636v-2.52h-3.136c-2.129,0-3.137-.7-3.137-3.108v-2.968c0-2.436,1.037-3.136,3.137-3.136H1186c2.1,0,3.136.7,3.136,3.136v2.968c0,2.408-1.008,3.108-3.136,3.108h-3.192v2.52h6.524a1.252,1.252,0,0,1,1.456,1.344c0,1.26-.952,1.316-1.456,1.316H1183.7a23.8,23.8,0,0,0,4.816,5.432c2.24,1.736,2.24,1.736,2.24,2.3a1.715,1.715,0,0,1-1.54,1.624c-.532,0-1.2-.448-2.772-2.072a28.783,28.783,0,0,1-3.64-4.592v6.944a1.252,1.252,0,0,1-1.344,1.456c-1.149,0-1.456-.56-1.456-1.456v-6.748a26.643,26.643,0,0,1-4.676,5.1c-1.736,1.484-2.072,1.484-2.408,1.484a1.63,1.63,0,0,1-1.372-1.6,1.562,1.562,0,0,1,.9-1.288,21.853,21.853,0,0,0,6.664-6.58Zm12.852-10.78c0-.756-.336-1.12-1.092-1.12h-7.393a.982.982,0,0,0-1.119,1.12v2.072c0,.756.363,1.092,1.119,1.092h7.393a.954.954,0,0,0,1.092-1.092Z" fill="#333"/>
      <path id="Path_1441" data-name="Path 1441" d="M1196.277,2230.652a1.238,1.238,0,0,1-1.289,1.456c-1.035,0-1.427-.476-1.427-1.456v-21.336c0-2.324.56-2.884,2.912-2.884h2.24c1.876,0,2.8.336,2.8,2.128a11.284,11.284,0,0,1-1.008,4.032c-.168.476-1.064,2.6-1.064,2.856a1.172,1.172,0,0,0,.336.756,11.756,11.756,0,0,1,1.932,6.328c0,3.836-2.3,3.836-3.557,3.836s-1.623-.644-1.623-1.652c0-1.232.588-1.26,1.119-1.288.588-.028,1.317-.112,1.317-1.68a9.517,9.517,0,0,0-1.233-4.424c-.671-1.176-.755-1.316-.755-1.68a4.994,4.994,0,0,1,.5-1.764,24.2,24.2,0,0,0,1.4-4.2c0-.5-.588-.5-.756-.5h-1.064c-.532,0-.784.252-.784.756Zm8.736-6.468c-2.3,0-2.912-.56-2.912-2.884v-2.184c0-2.324.588-2.884,2.912-2.884h3.471V2214.3h-2.939c-.5,0-1.149-.056-1.288-.98-1.6,1.036-1.96,1.092-2.212,1.092a1.691,1.691,0,0,1-1.456-1.736,1.37,1.37,0,0,1,.924-1.288,16.978,16.978,0,0,0,6.16-4.732,2.53,2.53,0,0,1,2.128-1.036,2.4,2.4,0,0,1,2.183.98,17.153,17.153,0,0,0,5.069,4.228c1.876,1.064,2.015,1.12,2.015,1.876a1.582,1.582,0,0,1-1.427,1.652,6.037,6.037,0,0,1-2.352-1.148c-.084.924-.616,1.092-1.26,1.092H1211.2v1.932h3.528c2.324,0,2.912.56,2.912,2.884v2.184c0,2.3-.561,2.884-2.912,2.884h-2.716a10.871,10.871,0,0,0,6.048,4.872,1.223,1.223,0,0,1,.952,1.26,1.512,1.512,0,0,1-1.372,1.624c-.981,0-5.321-1.9-7.7-6.272-2.268,4.648-6.972,6.3-7.785,6.3a1.527,1.527,0,0,1-1.4-1.6c0-.924.643-1.148,1.092-1.316,2.044-.728,4.536-1.736,5.88-4.872Zm3.471-5.544h-3.051a.686.686,0,0,0-.785.784v1.568c0,.5.252.756.785.756h2.94a15.284,15.284,0,0,0,.111-2.044Zm4.928-6.8a19.874,19.874,0,0,1-3.079-3.052c-.2-.2-.28-.308-.476-.308s-.252.084-.5.392a19.14,19.14,0,0,1-3.053,2.968Zm-2.211,7.9a14.359,14.359,0,0,1-.112,2.016h3.22a.688.688,0,0,0,.784-.756v-1.568a.7.7,0,0,0-.784-.784H1211.2Z" fill="#333"/>
      <path id="Path_1442" data-name="Path 1442" d="M1004.137,2247.561a1.286,1.286,0,0,1,1.372-.925c.616,0,1.6.281,1.6,1.288a7.073,7.073,0,0,1-.14,1.12,51.928,51.928,0,0,0-1.149,10.836,35.016,35.016,0,0,0,.9,8.12,4.675,4.675,0,0,1,.141.98c0,1.036-1.177,1.26-1.6,1.26a1.429,1.429,0,0,1-1.484-.98c-.335-1.008-1.008-3.724-1.008-9.884A55.722,55.722,0,0,1,1004.137,2247.561Zm16.828,14.279a21.194,21.194,0,0,1,4.312,2.156,1.647,1.647,0,0,1,.868,1.4,1.5,1.5,0,0,1-1.344,1.6c-.336,0-.616-.112-1.288-.56a16.275,16.275,0,0,0-2.548-1.4,7.121,7.121,0,0,1-.532,2.968c-.812,1.54-2.716,2.184-4.872,2.184-3.724,0-6.188-1.932-6.188-4.732,0-1.988,1.344-4.76,5.852-4.76a13.547,13.547,0,0,1,2.687.336l-.139-6.328c-1.232.056-2.016.056-3.136.056-4.451,0-5.292-.112-5.292-1.624,0-1.232.643-1.512,1.68-1.512.644,0,3.471.112,4.06.112,1.288,0,1.932-.028,2.6-.056l-.084-3.808a1.393,1.393,0,0,1,1.568-1.6c1.12,0,1.483.645,1.512,1.568l.084,3.612c.532-.028,2.967-.336,3.36-.336,1.232,0,1.26,1.288,1.26,1.512,0,1.512-.7,1.568-4.565,1.876Zm-5.8,1.54c-1.652,0-3.024.672-3.024,2.016,0,1.176,1.148,2.072,3.052,2.072,2.772,0,2.772-1.4,2.772-3.612A7.645,7.645,0,0,0,1015.169,2263.38Z" fill="#333"/>
      <path id="Path_1443" data-name="Path 1443" d="M1040.313,2252.012c.167.868.419,1.988.616,2.856,1.848-.672,6.748-2.268,7.9-2.268a1.633,1.633,0,0,1,1.569,1.736,1.225,1.225,0,0,1-.868,1.26c-.336.112-4.984,1.316-5.908,1.6-8.176,2.548-9.268,4.62-9.268,6.468,0,3.192,6.356,3.192,7.979,3.192a47.388,47.388,0,0,0,6.244-.42c.42-.056,2.241-.28,2.437-.28a1.43,1.43,0,0,1,1.483,1.6,1.557,1.557,0,0,1-1.315,1.568,50.866,50.866,0,0,1-8.148.616c-4.621,0-11.957-.392-11.957-6.272,0-4.312,4.4-6.524,6.832-7.616-.307-1.12-.559-2.127-.783-3.276l-.868-4.368a5.109,5.109,0,0,1-.112-.924c0-.924.839-1.4,1.847-1.4,1.261,0,1.373.784,1.541,1.653Zm10.388-1.428a1.207,1.207,0,0,1-1.205,1.176c-.756,0-.9-.42-1.231-1.316a14.676,14.676,0,0,0-1.512-3.108,1.525,1.525,0,0,1-.28-.756,1.212,1.212,0,0,1,1.259-1.12.818.818,0,0,1,.393.084C1048.965,2245.88,1050.7,2249.94,1050.7,2250.584Zm4.424-.756a1.207,1.207,0,0,1-1.2,1.176c-.757,0-.925-.42-1.232-1.316a14.976,14.976,0,0,0-1.512-3.136,1.717,1.717,0,0,1-.252-.728,1.232,1.232,0,0,1,1.26-1.12,1.02,1.02,0,0,1,.42.084C1053.417,2245.152,1055.125,2249.212,1055.125,2249.828Z" fill="#333"/>
      <path id="Path_1444" data-name="Path 1444" d="M1062.713,2253.972c5.74-1.372,8.092-1.512,9.519-1.512,5.881,0,8.092,3.36,8.092,7.14,0,8.764-10.723,10.864-15.063,10.864-1.148,0-1.792-.476-1.792-1.6,0-1.176.7-1.372,1.847-1.428,6.469-.364,11.789-3.024,11.789-7.784,0-3.248-2.184-4.2-4.984-4.2a42.378,42.378,0,0,0-9.156,1.68,26.173,26.173,0,0,1-2.8.728,1.562,1.562,0,0,1-1.484-1.68C1058.681,2255.008,1059.213,2254.813,1062.713,2253.972Zm2.212-7.784a16.955,16.955,0,0,1,2.212.561,45.235,45.235,0,0,0,7.168,1.483c1.343.168,1.624.616,1.624,1.428,0,.9-.365,1.569-1.428,1.569a51,51,0,0,1-8.624-1.653c-1.736-.476-2.38-.672-2.38-1.708A1.538,1.538,0,0,1,1064.925,2246.188Z" fill="#333"/>
      <path id="Path_1445" data-name="Path 1445" d="M1089.732,2248.932c.057-1.988.084-2.828,1.653-2.828,1.736,0,1.679,1.092,1.624,2.828l-.448,11.956a13.128,13.128,0,0,0,.2,3.248c.42,1.736,2.016,3.136,4.815,3.136,4.424,0,6.916-3.052,8.821-7.588.42-1.008.839-1.288,1.511-1.288.533,0,1.737.308,1.737,1.456a12.358,12.358,0,0,1-1.821,4.284c-1.259,2.1-3.975,6.244-10.248,6.244-4.647,0-6.8-2.24-7.672-4.34a11.62,11.62,0,0,1-.587-4.956Z" fill="#333"/>
      <path id="Path_1446" data-name="Path 1446" d="M1127.393,2260.8a31.535,31.535,0,0,1,7.587,2.94c1.821.952,2.437,1.4,2.437,2.324a1.574,1.574,0,0,1-1.429,1.624c-.42,0-.643-.168-1.4-.616a30.729,30.729,0,0,0-7.168-3.332c.056,2.576.168,6.608-6.216,6.608-4.032,0-7.141-1.96-7.141-5.208,0-3.444,3.473-5.012,7.785-5.012a17.9,17.9,0,0,1,2.464.168l-.224-12.8a1.426,1.426,0,0,1,1.567-1.68c1.457,0,1.569.98,1.569,1.652l.056,4.2c1.428-.056,2.436-.112,3.92-.28.476-.056,2.632-.392,3.08-.392a1.462,1.462,0,0,1,1.371,1.624c0,1.232-.9,1.344-2.015,1.484-1.6.2-3.78.42-6.328.532Zm-5.825,2.072c-2.828,0-4.647.812-4.647,2.324,0,1.932,2.772,2.38,4.032,2.38,3.388,0,3.388-1.4,3.388-4.48A17.47,17.47,0,0,0,1121.568,2262.876Z" fill="#333"/>
      <path id="Path_1447" data-name="Path 1447" d="M1146.713,2253.972c5.74-1.372,8.092-1.512,9.519-1.512,5.881,0,8.092,3.36,8.092,7.14,0,8.764-10.723,10.864-15.063,10.864-1.148,0-1.792-.476-1.792-1.6,0-1.176.7-1.372,1.847-1.428,6.469-.364,11.789-3.024,11.789-7.784,0-3.248-2.184-4.2-4.984-4.2a42.378,42.378,0,0,0-9.156,1.68,26.173,26.173,0,0,1-2.8.728,1.562,1.562,0,0,1-1.484-1.68C1142.681,2255.008,1143.213,2254.813,1146.713,2253.972Zm2.212-7.784a16.955,16.955,0,0,1,2.212.561,45.235,45.235,0,0,0,7.168,1.483c1.343.168,1.624.616,1.624,1.428,0,.9-.365,1.569-1.428,1.569a51,51,0,0,1-8.624-1.653c-1.736-.476-2.38-.672-2.38-1.708A1.538,1.538,0,0,1,1148.925,2246.188Z" fill="#333"/>
      <path id="Path_1448" data-name="Path 1448" d="M1176.421,2248.12a8.169,8.169,0,0,1,5.04-1.68c4.228,0,7.056,2.716,7.056,6.188,0,2.744-1.484,3.976-3.472,5.628-1.792,1.512-1.876,2.072-2.1,3.584-.084.56-.2,1.344-1.6,1.344-1.428,0-1.6-.84-1.6-1.512a6.122,6.122,0,0,1,2.6-4.956c2.408-1.987,2.967-2.464,2.967-4,0-2.128-1.819-3.388-4-3.388a5.318,5.318,0,0,0-3.695,1.456c-.756.756-.9.9-1.428.9a1.45,1.45,0,0,1-1.4-1.568C1174.8,2249.212,1176.141,2248.316,1176.421,2248.12Zm7,19.32a2.1,2.1,0,1,1-2.1-2.072A2.074,2.074,0,0,1,1183.421,2267.44Z" fill="#333"/>
    </g>
  </g>
</svg>
