<svg xmlns="http://www.w3.org/2000/svg" xmlns:xlink="http://www.w3.org/1999/xlink" width="403.37" height="284.094" viewBox="0 0 403.37 284.094">
  <defs>
    <linearGradient id="linear-gradient" x1="0.198" y1="0.945" x2="0.802" y2="0.055" gradientUnits="objectBoundingBox">
      <stop offset="0.035" stop-color="#878787"/>
      <stop offset="0.861" stop-color="#fff"/>
    </linearGradient>
    <linearGradient id="linear-gradient-2" x1="0.198" y1="0.946" x2="0.802" y2="0.054" gradientUnits="objectBoundingBox">
      <stop offset="0" stop-color="#fff"/>
      <stop offset="0.732" stop-color="#d1d1d1"/>
    </linearGradient>
    <linearGradient id="linear-gradient-3" x1="-249.556" y1="112.401" x2="-248.648" y2="111.802" xlink:href="#linear-gradient"/>
    <linearGradient id="linear-gradient-4" x1="-272.865" y1="119.059" x2="-271.936" y2="118.466" xlink:href="#linear-gradient-2"/>
    <linearGradient id="linear-gradient-5" x1="-194.568" y1="86.155" x2="-193.655" y2="85.558" xlink:href="#linear-gradient"/>
    <linearGradient id="linear-gradient-6" x1="-208.499" y1="90.039" x2="-207.57" y2="89.446" xlink:href="#linear-gradient-2"/>
    <linearGradient id="linear-gradient-7" x1="-401.596" y1="185.897" x2="-400.697" y2="185.293" xlink:href="#linear-gradient"/>
    <linearGradient id="linear-gradient-8" x1="-466.078" y1="204.812" x2="-465.149" y2="204.219" xlink:href="#linear-gradient-2"/>
  </defs>
  <g id="Group_474" data-name="Group 474" transform="translate(-86.374 -2123.906)">
    <g id="Group_73" data-name="Group 73" transform="translate(64.708 51.204)" style="mix-blend-mode: multiply;isolation: isolate">
      <path id="Path_643" data-name="Path 643" d="M102.226,2117.243c-84.664,71.9-106.48,124.978-46.816,191.46,22.508,25.085,104.727,91.1,241.1,5.866,104.959-65.6,69.97-159.931,38.378-194.9C323.735,2107.327,189.393,2043.221,102.226,2117.243Z" fill="#fff" opacity="0"/>
      <path id="Path_644" data-name="Path 644" d="M102.76,2117.471c-41.068,34.764-67.175,65.222-76.128,94.94-9.365,31.141.159,61.283,30.371,94.668a145.517,145.517,0,0,0,26.531,22.261c.18.119.372.241.553.359a155.774,155.774,0,0,0,85.92,24.8c34.983-.128,77.725-10.822,126.792-41.624,41.612-26.135,60.846-57.1,66.953-86.918,9.075-43.967-11.192-85.616-29.984-106.356-6.07-6.654-44.988-26.865-93.124-34.339-7.658-1.184-15.551-2.046-23.581-2.48C178.661,2080.7,137.024,2088.469,102.76,2117.471Z" fill="#fcfcfc" opacity="0.024"/>
      <path id="Path_645" data-name="Path 645" d="M103.293,2117.7c-40.753,34.386-66.6,64.655-75.329,94.179-9.131,31,.709,60.794,30.632,93.577A152.123,152.123,0,0,0,85.062,2327.4c.175.116.375.239.551.354A156.489,156.489,0,0,0,171.04,2352.2c34.866-.124,77.747-10.562,126.046-41.021,41-25.882,59.895-56.767,65.85-86.455,8.848-43.428-11.525-84.674-30.29-105.2-6.3-6.891-44.842-26.779-92.457-34.066-7.6-1.155-15.444-1.986-23.418-2.393C178.69,2081.113,137.315,2089,103.293,2117.7Z" fill="#f9f9f9" opacity="0.049"/>
      <path id="Path_646" data-name="Path 646" d="M103.826,2117.927c-40.439,34.009-66.025,64.089-74.531,93.418-8.9,30.85,1.261,60.3,30.893,92.487a159.574,159.574,0,0,0,26.4,21.631c.171.112.378.236.55.349a157.256,157.256,0,0,0,84.934,24.094c34.748-.121,77.769-10.3,125.3-40.418,40.391-25.629,58.878-56.452,64.746-85.994,8.524-42.908-11.895-83.7-30.6-104.033-6.544-7.117-44.7-26.693-91.789-33.793a233.606,233.606,0,0,0-23.256-2.306C178.719,2081.527,137.607,2089.528,103.826,2117.927Z" fill="#f6f6f6" opacity="0.073"/>
      <path id="Path_647" data-name="Path 647" d="M104.36,2118.155c-40.125,33.631-65.451,63.522-73.733,92.657-8.662,30.7,1.812,59.816,31.154,91.4a167.593,167.593,0,0,0,26.336,21.316c.166.11.381.234.548.344a158.032,158.032,0,0,0,84.44,23.742c34.632-.118,77.791-10.044,124.555-39.816,39.781-25.375,57.9-56.125,63.643-85.531,8.267-42.374-12.269-82.717-30.9-102.872-6.787-7.343-44.551-26.607-91.122-33.52a231.42,231.42,0,0,0-23.093-2.22C178.749,2081.942,137.9,2090.057,104.36,2118.155Z" fill="#f3f3f3" opacity="0.098"/>
      <path id="Path_648" data-name="Path 648" d="M104.893,2118.383c-39.81,33.253-64.876,62.956-72.934,91.9-8.428,30.558,2.362,59.327,31.414,90.3a176.633,176.633,0,0,0,26.271,21c.162.107.384.233.547.339a158.847,158.847,0,0,0,83.947,23.39c34.514-.115,77.813-9.786,123.809-39.214,39.171-25.121,56.934-55.8,62.539-85.069,8.012-41.839-12.646-81.734-31.2-101.71-7.032-7.569-44.406-26.521-90.456-33.248a229.334,229.334,0,0,0-22.93-2.132C178.778,2082.357,138.19,2090.586,104.893,2118.383Z" fill="#f0f0f0" opacity="0.122"/>
      <path id="Path_649" data-name="Path 649" d="M105.427,2118.611c-39.5,32.876-64.3,62.39-72.136,91.135-8.194,30.412,2.913,58.838,31.675,89.214,5.579,5.566,15.722,13.764,26.206,20.687.157.1.387.23.545.333a159.693,159.693,0,0,0,83.454,23.037c34.4-.111,77.835-9.526,123.063-38.61,38.561-24.868,55.963-55.473,61.435-84.607,7.759-41.3-13.026-80.75-31.51-100.55-7.276-7.793-44.26-26.434-89.789-32.974a226.827,226.827,0,0,0-22.767-2.045C178.807,2082.771,138.481,2091.115,105.427,2118.611Z" fill="#ededed" opacity="0.146"/>
      <path id="Path_650" data-name="Path 650" d="M105.96,2118.839c-39.182,32.5-63.727,61.823-71.337,90.374-7.96,30.267,3.463,58.349,31.936,88.124,5.6,5.485,15.956,13.646,26.14,20.371.153.1.391.228.544.328a160.567,160.567,0,0,0,82.96,22.685c34.28-.108,77.857-9.267,122.317-38.008,37.952-24.614,54.994-55.146,60.333-84.144,7.506-40.77-13.408-79.763-31.816-99.389-7.521-8.017-44.114-26.348-89.122-32.7a224.289,224.289,0,0,0-22.6-1.958C178.836,2083.186,138.773,2091.644,105.96,2118.839Z" fill="#eaeaea" opacity="0.171"/>
      <path id="Path_651" data-name="Path 651" d="M106.493,2119.067c-38.867,32.12-63.152,61.257-70.538,89.614-7.726,30.12,4.014,57.859,32.2,87.032,5.631,5.405,16.191,13.529,26.076,20.056.148.1.393.226.543.324a161.487,161.487,0,0,0,82.466,22.332c34.162-.1,77.879-9.009,121.571-37.406,37.342-24.36,54.024-54.819,59.229-83.682,7.255-40.234-13.793-78.774-32.121-98.227-7.766-8.242-43.956-26.358-88.455-32.428a217.537,217.537,0,0,0-22.44-1.872C178.866,2083.6,139.064,2092.173,106.493,2119.067Z" fill="#e7e7e7" opacity="0.195"/>
      <path id="Path_652" data-name="Path 652" d="M107.027,2119.295c-38.554,31.743-62.636,60.675-69.741,88.853-7.553,29.958,4.566,57.37,32.458,85.941,5.656,5.326,16.425,13.412,26.01,19.741.144.095.4.224.542.319a162.422,162.422,0,0,0,81.972,21.979,222.642,222.642,0,0,0,120.826-36.8c36.731-24.108,53.056-54.492,58.126-83.22,7.005-39.7-14.18-77.784-32.427-97.066-8.012-8.466-43.809-26.282-87.788-32.155a214.5,214.5,0,0,0-22.277-1.785C178.9,2084.015,139.356,2092.7,107.027,2119.295Z" fill="#e4e4e4" opacity="0.22"/>
      <path id="Path_653" data-name="Path 653" d="M107.56,2119.523c-38.239,31.365-62.066,60.108-68.942,88.092-7.325,29.812,5.116,56.881,32.719,84.851,5.682,5.245,16.659,13.294,25.945,19.426.139.092.4.221.54.313a163.427,163.427,0,0,0,81.479,21.627,220.552,220.552,0,0,0,120.08-36.2c36.121-23.854,52.088-54.164,57.022-82.758,6.758-39.162-14.568-76.79-32.732-95.9-8.258-8.689-43.662-26.205-87.12-31.882a211.948,211.948,0,0,0-22.115-1.7C178.924,2084.43,139.647,2093.231,107.56,2119.523Z" fill="#e1e1e1" opacity="0.244"/>
      <path id="Path_654" data-name="Path 654" d="M108.094,2119.751c-37.925,30.987-61.5,59.541-68.144,87.331-7.1,29.665,5.667,56.392,32.979,83.76,5.708,5.165,16.894,13.177,25.88,19.111.135.089.4.22.539.308a164.444,164.444,0,0,0,80.986,21.275c33.811-.1,77.945-8.232,119.334-35.6,35.511-23.6,51.121-53.836,55.918-82.295,6.512-38.625-14.958-75.8-33.037-94.743-8.5-8.913-43.516-26.127-86.453-31.61a209.092,209.092,0,0,0-21.952-1.61C178.954,2084.844,139.939,2093.76,108.094,2119.751Z" fill="#dedede" opacity="0.268"/>
      <path id="Path_655" data-name="Path 655" d="M108.627,2119.979c-37.611,30.61-60.926,58.974-67.345,86.57-6.867,29.519,6.217,55.9,33.24,82.669,5.734,5.085,17.128,13.06,25.815,18.8.13.086.406.218.537.3a165.535,165.535,0,0,0,80.492,20.922c33.694-.093,77.968-7.973,118.589-34.995,34.9-23.347,50.154-53.508,54.815-81.834,6.266-38.087-15.35-74.8-33.343-93.581-8.752-9.135-43.369-26.049-85.786-31.337a206.712,206.712,0,0,0-21.789-1.524C178.983,2085.259,140.23,2094.289,108.627,2119.979Z" fill="#dbdbdb" opacity="0.293"/>
      <path id="Path_656" data-name="Path 656" d="M109.16,2120.207c-37.3,30.232-60.355,58.407-66.546,85.809-6.637,29.372,6.768,55.415,33.5,81.578,5.759,5.006,17.362,12.944,25.749,18.482.126.083.409.215.536.3a166.635,166.635,0,0,0,80,20.569c33.577-.089,77.989-7.713,117.843-34.392,34.291-23.093,49.189-53.18,53.711-81.371,6.024-37.55-15.743-73.8-33.648-92.421-9-9.357-43.223-25.969-85.119-31.063a204.044,204.044,0,0,0-21.626-1.437C179.012,2085.674,140.522,2094.818,109.16,2120.207Z" fill="#d8d8d8" opacity="0.317"/>
      <path id="Path_657" data-name="Path 657" d="M109.694,2120.435c-36.983,29.854-59.785,57.84-65.749,85.048-6.406,29.226,7.319,54.926,33.762,80.488,5.786,4.925,17.6,12.826,25.685,18.166.121.08.412.213.534.293a167.79,167.79,0,0,0,79.5,20.217c33.46-.086,78.012-7.455,117.1-33.79,33.681-22.839,48.224-52.851,52.607-80.909,5.782-37.011-16.137-72.806-33.953-91.259-9.248-9.578-43.077-25.89-84.452-30.79a201.187,201.187,0,0,0-21.463-1.35C179.042,2086.088,140.813,2095.347,109.694,2120.435Z" fill="#d5d5d5" opacity="0.341"/>
      <path id="Path_658" data-name="Path 658" d="M110.227,2120.663c-36.668,29.477-59.213,57.274-64.95,84.287-6.176,29.08,7.87,54.437,34.023,79.4,5.811,4.845,17.832,12.709,25.62,17.851.116.077.415.211.532.288,20.477,10.8,47.638,19.953,79.012,19.865,33.343-.083,78.034-7.2,116.351-33.187,33.072-22.586,47.262-52.522,51.505-80.447,5.542-36.473-16.533-71.807-34.259-90.1-9.5-9.8-42.931-25.81-83.785-30.517a198.546,198.546,0,0,0-21.3-1.263C179.071,2086.5,141.1,2095.876,110.227,2120.663Z" fill="#d2d2d2" opacity="0.366"/>
      <path id="Path_659" data-name="Path 659" d="M110.76,2120.891c-36.353,29.1-58.641,56.707-64.151,83.526-5.945,28.935,8.421,53.948,34.284,78.306,5.837,4.766,18.066,12.592,25.554,17.536.112.074.418.209.531.283,20.506,10.648,47.55,19.6,78.519,19.512,33.225-.079,78.055-6.936,115.6-32.584,32.461-22.333,46.3-52.193,50.4-79.984,5.3-35.934-16.93-70.807-34.564-88.937-9.746-10.02-42.785-25.729-83.118-30.245a196.69,196.69,0,0,0-21.136-1.176C179.1,2086.918,141.4,2096.405,110.76,2120.891Z" fill="#cfcfcf" opacity="0.39"/>
      <path id="Path_660" data-name="Path 660" d="M111.294,2121.119c-36.04,28.721-58.069,56.141-63.353,82.765-5.714,28.789,8.971,53.459,34.544,77.215,5.863,4.686,18.3,12.475,25.49,17.222.107.071.421.207.529.278,20.535,10.494,47.463,19.241,78.025,19.159,33.108-.076,78.078-6.678,114.86-31.982,31.851-22.079,45.338-51.863,49.3-79.522,5.067-35.394-17.328-69.8-34.87-87.775-9.995-10.24-42.639-25.647-82.451-29.972a193.833,193.833,0,0,0-20.973-1.089C179.129,2087.332,141.688,2096.934,111.294,2121.119Z" fill="#ccc" opacity="0.415"/>
      <path id="Path_661" data-name="Path 661" d="M111.827,2121.348c-35.725,28.343-57.5,55.574-62.554,82-5.482,28.643,9.522,52.97,34.805,76.125,5.888,4.6,18.535,12.357,25.424,16.906.1.068.424.2.528.273,20.564,10.34,47.375,18.885,77.532,18.807,32.991-.073,78.1-6.419,114.114-31.379,31.241-21.826,44.377-51.534,48.194-79.06,4.832-34.855-17.727-68.8-35.174-86.614-10.247-10.46-42.5-25.565-81.784-29.7a191.6,191.6,0,0,0-20.811-1C179.159,2087.747,141.979,2097.463,111.827,2121.348Z" fill="#c9c9c9" opacity="0.439"/>
      <path id="Path_662" data-name="Path 662" d="M112.361,2121.576c-35.411,27.965-56.924,55.008-61.756,81.242-5.25,28.5,10.072,52.481,35.066,75.034,5.914,4.526,18.769,12.24,25.359,16.591.1.065.427.2.527.268,20.592,10.186,47.286,18.529,77.038,18.455,32.873-.07,78.121-6.16,113.368-30.777,30.631-21.572,43.418-51.2,47.09-78.6,4.6-34.314-18.126-67.8-35.479-85.453-10.5-10.678-42.349-25.481-81.117-29.425a189.037,189.037,0,0,0-20.648-.915C179.188,2088.162,142.271,2097.992,112.361,2121.576Z" fill="#c6c6c6" opacity="0.463"/>
      <path id="Path_663" data-name="Path 663" d="M112.894,2121.8c-35.1,27.587-56.35,54.442-60.958,80.481-5.017,28.352,10.624,51.992,35.327,73.943,5.94,4.446,19,12.123,25.294,16.277.094.062.431.2.526.262,20.622,10.033,47.2,18.174,76.544,18.1,32.757-.066,78.193-5.83,112.623-30.174,30.064-21.257,42.46-50.872,45.987-78.135,4.368-33.774-18.527-66.8-35.785-84.292-10.749-10.9-42.2-25.4-80.45-29.152a186.855,186.855,0,0,0-20.485-.829C179.217,2088.576,142.562,2098.521,112.894,2121.8Z" fill="#c3c3c3" opacity="0.488"/>
      <path id="Path_664" data-name="Path 664" d="M113.427,2122.032c-34.782,27.21-55.775,53.876-60.159,79.72-4.784,28.207,11.174,51.5,35.588,72.853,5.966,4.365,19.238,12.005,25.229,15.961.089.059.433.2.524.257,20.651,9.879,47.111,17.818,76.051,17.75,32.639-.064,78.216-5.571,111.877-29.571,29.455-21,41.5-50.542,44.883-77.674,4.139-33.232-18.929-65.79-36.09-83.13-11-11.115-42.058-25.313-79.783-28.879a184.469,184.469,0,0,0-20.322-.742C179.247,2088.991,142.854,2099.05,113.427,2122.032Z" fill="#c1c1c1" opacity="0.512"/>
      <path id="Path_665" data-name="Path 665" d="M113.961,2122.26c-34.468,26.832-55.2,53.31-59.361,78.959-4.551,28.062,11.725,51.014,35.848,71.762,5.992,4.286,19.473,11.888,25.164,15.646.085.056.437.2.523.253,20.68,9.725,47.023,17.461,75.557,17.4,32.523-.061,78.24-5.311,111.132-28.969,28.846-20.748,40.549-50.211,43.78-77.211,3.911-32.692-19.331-64.785-36.4-81.969-11.254-11.332-41.913-25.228-79.116-28.607a182.5,182.5,0,0,0-20.159-.654C179.276,2089.405,143.145,2099.579,113.961,2122.26Z" fill="#bebebe" opacity="0.537"/>
      <path id="Path_666" data-name="Path 666" d="M114.494,2122.488c-34.154,26.454-54.627,52.744-58.562,78.2-4.317,27.917,12.276,50.525,36.109,70.671,6.018,4.206,19.707,11.771,25.1,15.331.081.054.439.2.521.248,20.709,9.571,46.936,17.106,75.064,17.045,32.4-.058,78.262-5.052,110.385-28.367,28.238-20.494,39.6-49.88,42.677-76.749,3.686-32.15-19.734-63.778-36.7-80.807-11.507-11.549-41.768-25.142-78.449-28.334a180.488,180.488,0,0,0-20-.568C179.3,2089.82,143.437,2100.108,114.494,2122.488Z" fill="#bbb" opacity="0.561"/>
      <path id="Path_667" data-name="Path 667" d="M115.028,2122.716c-33.84,26.077-54.052,52.179-57.764,77.437-4.082,27.772,12.826,50.036,36.37,69.58,6.043,4.126,19.941,11.654,25.033,15.017.077.05.443.192.52.242,20.739,9.418,46.848,16.75,74.571,16.692,32.288-.054,78.284-4.792,109.639-27.763,27.628-20.241,38.644-49.549,41.573-76.287,3.463-31.608-20.137-62.772-37.006-79.646-11.761-11.765-41.623-25.055-77.782-28.061a178.132,178.132,0,0,0-19.832-.481C179.335,2090.235,143.728,2100.637,115.028,2122.716Z" fill="#b8b8b8" opacity="0.585"/>
      <path id="Path_668" data-name="Path 668" d="M115.561,2122.944c-33.525,25.7-53.476,51.613-56.965,76.676-3.847,27.627,13.377,49.547,36.63,68.49,6.07,4.046,20.176,11.536,24.969,14.7.072.047.446.19.518.237,20.768,9.264,46.76,16.394,74.077,16.34,32.171-.051,78.307-4.534,108.894-27.161,27.018-19.987,37.694-49.217,40.47-75.824,3.241-31.067-20.542-61.764-37.312-78.485-12.016-11.981-41.478-24.967-77.115-27.788a176.209,176.209,0,0,0-19.669-.394C179.364,2090.649,144.02,2101.166,115.561,2122.944Z" fill="#b5b5b5" opacity="0.61"/>
      <path id="Path_669" data-name="Path 669" d="M116.094,2123.172c-33.211,25.321-52.9,51.048-56.167,75.915-3.611,27.482,13.928,49.058,36.892,67.4,6.1,3.966,20.41,11.42,24.9,14.386.068.045.449.188.517.233,20.8,9.11,46.673,16.038,73.584,15.987,32.053-.048,78.329-4.276,108.148-26.559,26.408-19.734,36.745-48.885,39.366-75.362,3.022-30.524-20.946-60.756-37.617-77.324-12.271-12.194-41.333-24.877-76.447-27.514a174.093,174.093,0,0,0-19.507-.307C179.393,2091.064,144.311,2101.7,116.094,2123.172Z" fill="#b2b2b2" opacity="0.634"/>
      <path id="Path_670" data-name="Path 670" d="M116.628,2123.4c-32.9,24.944-52.323,50.482-55.369,75.154-3.375,27.338,14.479,48.569,37.153,66.308,6.121,3.886,20.644,11.3,24.838,14.072.063.041.452.185.515.227,20.826,8.956,46.585,15.682,73.09,15.634,31.937-.044,78.351-4.017,107.4-25.955,25.8-19.482,35.8-48.554,38.262-74.9,2.805-29.982-21.351-59.747-37.922-76.163-12.527-12.409-41.189-24.788-75.78-27.242a172.319,172.319,0,0,0-19.344-.22C179.422,2091.479,144.6,2102.224,116.628,2123.4Z" fill="#afafaf" opacity="0.659"/>
      <path id="Path_671" data-name="Path 671" d="M117.161,2123.628c-32.583,24.566-51.745,49.917-54.57,74.393-3.138,27.193,15.03,48.08,37.413,65.217,6.147,3.806,20.879,11.186,24.773,13.757.059.038.455.183.514.222,20.855,8.8,46.5,15.326,72.6,15.282,31.819-.041,78.373-3.76,106.657-25.353,25.187-19.229,34.853-48.222,37.159-74.438,2.589-29.439-21.757-58.737-38.228-75-12.783-12.622-41.044-24.7-75.113-26.969a170.613,170.613,0,0,0-19.181-.133C179.452,2091.893,144.894,2102.753,117.161,2123.628Z" fill="#acacac" opacity="0.683"/>
      <path id="Path_672" data-name="Path 672" d="M117.694,2123.856c-32.268,24.188-51.167,49.352-53.771,73.632-2.9,27.048,15.58,47.592,37.674,64.127,6.172,3.726,21.113,11.068,24.708,13.441.054.036.458.182.512.217,20.885,8.649,46.41,14.971,72.1,14.93,31.7-.038,78.393-3.5,105.911-24.751,24.577-18.976,33.91-47.889,36.055-73.975,2.376-28.9-22.163-57.728-38.533-73.84-13.04-12.835-40.9-24.606-74.446-26.7a168.578,168.578,0,0,0-19.018-.046C179.481,2092.308,145.186,2103.282,117.694,2123.856Z" fill="#a9a9a9" opacity="0.707"/>
      <path id="Path_673" data-name="Path 673" d="M118.228,2124.084c-31.954,23.811-50.59,48.786-52.973,72.871-2.663,26.9,16.131,47.1,37.935,63.036,6.2,3.646,21.348,10.951,24.642,13.126.05.033.462.18.511.212,20.914,8.5,46.322,14.615,71.61,14.578,31.585-.035,78.415-3.247,105.166-24.148,23.965-18.726,32.969-47.558,34.952-73.514,2.165-28.354-22.57-56.717-38.839-72.678-13.3-13.047-40.755-24.513-73.779-26.423a166.672,166.672,0,0,0-18.855.041C179.51,2092.723,145.477,2103.811,118.228,2124.084Z" fill="#a6a6a6" opacity="0.732"/>
      <path id="Path_674" data-name="Path 674" d="M118.761,2124.312c-31.64,23.433-50.01,48.221-52.175,72.11-2.424,26.759,16.682,46.614,38.2,61.945,6.224,3.566,21.583,10.834,24.578,12.812.045.029.464.177.51.207,20.942,8.341,46.233,14.258,71.116,14.224,31.468-.032,78.435-2.99,104.419-23.545,23.355-18.474,32.032-47.225,33.849-73.051,1.956-27.811-22.976-55.707-39.144-71.517-13.556-13.258-40.61-24.42-73.112-26.15a165.045,165.045,0,0,0-18.691.127C179.54,2093.137,145.769,2104.34,118.761,2124.312Z" fill="#a3a3a3" opacity="0.756"/>
      <path id="Path_675" data-name="Path 675" d="M119.295,2124.54c-31.326,23.055-49.432,47.655-51.377,71.349-2.185,26.614,17.233,46.125,38.457,60.855,6.25,3.486,21.817,10.716,24.512,12.5.041.027.468.175.509.2,20.971,8.188,46.146,13.9,70.623,13.872,31.35-.029,78.454-2.735,103.673-22.943,22.743-18.223,31.1-46.893,32.745-72.589,1.75-27.268-23.383-54.7-39.448-70.355-13.817-13.469-40.466-24.325-72.446-25.878a163.569,163.569,0,0,0-18.528.215C179.569,2093.552,146.06,2104.869,119.295,2124.54Z" fill="#a0a0a0" opacity="0.78"/>
      <path id="Path_676" data-name="Path 676" d="M119.828,2124.768c-31.011,22.678-48.851,47.09-50.578,70.588-1.945,26.47,17.783,45.636,38.718,59.764,6.275,3.406,22.051,10.6,24.447,12.181.036.024.471.173.507.2,21,8.034,46.058,13.547,70.129,13.52,31.234-.026,78.474-2.48,102.928-22.34,22.131-17.974,30.163-46.561,31.642-72.127,1.546-26.726-23.792-53.684-39.754-69.2-14.077-13.677-40.322-24.229-71.778-25.6a162,162,0,0,0-18.366.3C179.6,2093.966,146.352,2105.4,119.828,2124.768Z" fill="#9d9d9d" opacity="0.805"/>
      <path id="Path_677" data-name="Path 677" d="M120.361,2125c-30.7,22.3-48.27,46.524-49.779,69.827-1.705,26.325,18.334,45.147,38.978,58.673,6.3,3.326,22.286,10.482,24.383,11.867.031.02.473.171.505.191,21.03,7.881,45.97,13.191,69.636,13.167,31.116-.022,78.493-2.225,102.182-21.737,21.518-17.724,29.232-46.229,30.538-71.664,1.344-26.184-24.2-52.672-40.059-68.034-14.337-13.886-40.177-24.132-71.111-25.331a160.214,160.214,0,0,0-18.2.389C179.627,2094.381,146.643,2105.927,120.361,2125Z" fill="#9a9a9a" opacity="0.829"/>
      <path id="Path_678" data-name="Path 678" d="M120.895,2125.224c-30.383,21.922-47.69,45.959-48.981,69.066-1.463,26.18,18.885,44.658,39.239,57.582,6.327,3.247,22.52,10.365,24.317,11.552.027.018.477.169.5.186,21.059,7.727,45.883,12.836,69.142,12.815,31-.019,78.475-2.016,101.437-21.135,20.87-17.515,28.3-45.9,29.434-71.2,1.145-25.641-24.607-51.659-40.364-66.872-14.6-14.094-40.032-24.034-70.444-25.058a158.885,158.885,0,0,0-18.04.475C179.657,2094.8,146.935,2106.456,120.895,2125.224Z" fill="#979797" opacity="0.854"/>
      <path id="Path_679" data-name="Path 679" d="M121.428,2125.452c-30.068,21.545-47.063,45.4-48.182,68.305-1.171,26.037,19.435,44.169,39.5,56.492,6.354,3.166,22.755,10.247,24.253,11.236.022.015.479.167.5.182,21.088,7.572,45.795,12.479,68.649,12.462,30.882-.016,78.5-1.758,100.691-20.532,20.26-17.262,27.38-45.565,28.331-70.74.948-25.1-25.016-50.646-40.67-65.711-14.861-14.3-39.887-23.935-69.777-24.785a157.347,157.347,0,0,0-17.877.562C179.686,2095.21,147.226,2106.985,121.428,2125.452Z" fill="#949494" opacity="0.878"/>
      <path id="Path_680" data-name="Path 680" d="M121.961,2125.68c-29.754,21.167-46.488,44.829-47.384,67.544-.936,25.892,19.987,43.68,39.761,55.4,6.379,3.086,22.989,10.13,24.187,10.922.018.011.483.164.5.176,21.117,7.419,45.707,12.123,68.156,12.11,30.764-.013,78.518-1.5,99.945-19.93,19.65-17.008,26.459-45.233,27.227-70.278.753-24.557-25.425-49.632-40.975-64.549-15.124-14.508-39.742-23.835-69.11-24.512a156.171,156.171,0,0,0-17.714.649C179.715,2095.625,147.518,2107.514,121.961,2125.68Z" fill="#919191" opacity="0.902"/>
      <path id="Path_681" data-name="Path 681" d="M122.5,2125.908c-29.44,20.789-45.914,44.263-46.586,66.783-.7,25.746,20.537,43.191,40.022,54.31,6.4,3.007,23.223,10.013,24.122,10.607.013.009.486.162.5.171,21.147,7.265,45.62,11.768,67.662,11.757,30.648-.009,78.541-1.239,99.2-19.327,19.041-16.755,25.543-44.9,26.125-69.815.561-24.016-25.835-48.619-41.281-63.388-15.388-14.713-39.6-23.679-68.443-24.24a157.728,157.728,0,0,0-17.551.737C179.745,2096.04,147.809,2108.043,122.5,2125.908Z" fill="#8e8e8e" opacity="0.927"/>
      <path id="Path_682" data-name="Path 682" d="M123.028,2126.136c-29.126,20.412-45.339,43.7-45.787,66.022-.468,25.6,21.088,42.7,40.282,53.219,6.431,2.927,23.458,9.9,24.057,10.292.009.006.489.16.5.166,21.176,7.112,45.532,11.412,67.169,11.405,30.53-.006,78.562-.981,98.453-18.724,18.431-16.5,24.629-44.571,25.021-69.354.371-23.474-26.269-47.578-41.586-62.226-15.678-14.891-39.453-23.593-67.776-23.967a155.741,155.741,0,0,0-17.387.823C179.774,2096.454,148.1,2108.572,123.028,2126.136Z" fill="#8b8b8b" opacity="0.951"/>
      <path id="Path_683" data-name="Path 683" d="M123.562,2126.364c-28.812,20.034-44.765,43.13-44.989,65.261-.234,25.454,21.639,42.213,40.543,52.129,6.456,2.846,23.692,9.779,23.992,9.976,0,0,.492.159.5.162,21.205,6.957,45.444,11.055,66.675,11.052,30.414,0,78.585-.722,97.708-18.122,17.82-16.248,23.765-44.239,23.917-68.891.227-22.934-26.665-46.577-41.891-61.066-15.931-15.106-39.307-23.506-67.109-23.693a153.577,153.577,0,0,0-17.224.91C179.8,2096.869,148.392,2109.1,123.562,2126.364Z" fill="#888" opacity="0.976"/>
      <path id="Path_684" data-name="Path 684" d="M144.635,2251.792l.5.156c21.234,6.8,45.357,10.7,66.182,10.7,30.3,0,78.606-.462,96.962-17.519,17.21-15.994,22.814-43.909,22.814-68.429,0-22.394-27.063-45.576-42.2-59.9-16.184-15.323-39.161-23.42-66.441-23.42a151.876,151.876,0,0,0-17.062,1c-25.555,2.911-56.7,15.258-81.293,32.22-28.5,19.656-44.19,42.563-44.19,64.5,0,25.308,22.189,41.724,40.8,51.038C127.191,2244.9,144.635,2251.792,144.635,2251.792Z" fill="#858585"/>
    </g>
    <path id="Path_685" data-name="Path 685" d="M214.144,2275.764c-82.434,0-149.5-45.547-149.5-101.53S131.71,2072.7,214.144,2072.7s149.5,45.548,149.5,101.532S296.581,2275.764,214.144,2275.764Z" transform="translate(64.708 51.204)" fill="url(#linear-gradient)"/>
    <path id="Path_686" data-name="Path 686" d="M362.3,2174.234c0,55.328-66.334,100.182-148.158,100.182S65.993,2229.562,65.993,2174.234s66.331-100.186,148.151-100.186S362.3,2118.9,362.3,2174.234Z" transform="translate(64.708 51.204)" fill="url(#linear-gradient-2)"/>
    <g id="Group_75" data-name="Group 75" transform="translate(64.708 51.204)">
      <g id="Group_74" data-name="Group 74" style="mix-blend-mode: multiply;isolation: isolate">
        <path id="Path_687" data-name="Path 687" d="M396.382,2128.529c8.659-2.764,15.105,5.782,17.009,15.353,1.541,7.754-.885,17.525-4.381,20.26-4.011,3.14-11.643,2.4-16.794-3.346-5.692-6.352-4.643-22.785-.871-28A12.577,12.577,0,0,1,396.382,2128.529Z" fill="#fff" opacity="0"/>
        <path id="Path_688" data-name="Path 688" d="M396.478,2128.564c8.531-2.664,14.876,5.782,16.726,15.249,1.494,7.717-.967,17.372-4.486,20.038-4.023,3.06-11.549,2.217-16.566-3.545-5.545-6.327-4.452-22.465-.686-27.585A12.338,12.338,0,0,1,396.478,2128.564Z" fill="#fcfcfc" opacity="0.024" style="mix-blend-mode: multiply;isolation: isolate"/>
        <path id="Path_689" data-name="Path 689" d="M396.574,2128.6c8.4-2.565,14.646,5.783,16.443,15.145,1.448,7.681-1.054,17.211-4.592,19.815-4.039,2.973-11.435,2.014-16.336-3.744-5.378-6.319-4.263-22.145-.5-27.166A12.089,12.089,0,0,1,396.574,2128.6Z" fill="#f9f9f9" opacity="0.049" style="mix-blend-mode: multiply;isolation: isolate"/>
        <path id="Path_690" data-name="Path 690" d="M396.67,2128.633c8.275-2.464,14.44,5.781,16.16,15.042,1.42,7.64-1.139,17.054-4.7,19.592-4.052,2.89-11.331,1.82-16.107-3.943-5.221-6.3-4.073-21.824-.318-26.746A11.844,11.844,0,0,1,396.67,2128.633Z" fill="#f6f6f6" opacity="0.073" style="mix-blend-mode: multiply;isolation: isolate"/>
        <path id="Path_691" data-name="Path 691" d="M396.766,2128.668c8.146-2.365,14.217,5.781,15.877,14.938,1.379,7.6-1.223,16.9-4.8,19.369-4.065,2.807-11.226,1.626-15.877-4.142-5.065-6.282-3.884-21.5-.134-26.327A11.61,11.61,0,0,1,396.766,2128.668Z" fill="#f3f3f3" opacity="0.098" style="mix-blend-mode: multiply;isolation: isolate"/>
        <path id="Path_692" data-name="Path 692" d="M396.862,2128.7c8.018-2.264,13.994,5.781,15.6,14.835,1.337,7.566-1.309,16.741-4.909,19.146-4.078,2.725-11.123,1.433-15.648-4.341-4.909-6.262-3.694-21.183.051-25.908A11.373,11.373,0,0,1,396.862,2128.7Z" fill="#f0f0f0" opacity="0.122" style="mix-blend-mode: multiply;isolation: isolate"/>
        <path id="Path_693" data-name="Path 693" d="M396.958,2128.737c7.89-2.165,13.771,5.781,15.312,14.731,1.3,7.528-1.393,16.584-5.015,18.924-4.09,2.641-11.018,1.239-15.418-4.541-4.753-6.242-3.505-20.863.235-25.488A11.133,11.133,0,0,1,396.958,2128.737Z" fill="#ededed" opacity="0.146" style="mix-blend-mode: multiply;isolation: isolate"/>
        <path id="Path_694" data-name="Path 694" d="M397.054,2128.771c7.762-2.064,13.547,5.782,15.029,14.628,1.254,7.491-1.476,16.427-5.121,18.7-4.1,2.559-10.913,1.047-15.189-4.739-4.6-6.223-3.314-20.543.42-25.07A10.915,10.915,0,0,1,397.054,2128.771Z" fill="#eaeaea" opacity="0.171" style="mix-blend-mode: multiply;isolation: isolate"/>
        <path id="Path_695" data-name="Path 695" d="M397.15,2128.806c7.633-1.965,13.323,5.782,14.746,14.524,1.212,7.454-1.56,16.271-5.226,18.478-4.114,2.477-10.81.856-14.96-4.938-4.441-6.2-3.125-20.223.6-24.651A10.679,10.679,0,0,1,397.15,2128.806Z" fill="#e7e7e7" opacity="0.195" style="mix-blend-mode: multiply;isolation: isolate"/>
        <path id="Path_696" data-name="Path 696" d="M397.245,2128.841c7.506-1.865,13.1,5.783,14.464,14.42,1.17,7.417-1.643,16.115-5.332,18.255-4.126,2.395-10.706.665-14.73-5.137-4.286-6.18-2.935-19.9.788-24.232A10.45,10.45,0,0,1,397.245,2128.841Z" fill="#e4e4e4" opacity="0.22" style="mix-blend-mode: multiply;isolation: isolate"/>
        <path id="Path_697" data-name="Path 697" d="M397.341,2128.875c7.378-1.764,12.876,5.784,14.181,14.317,1.128,7.38-1.727,15.958-5.437,18.032-4.138,2.313-10.6.474-14.5-5.336-4.132-6.157-2.746-19.582.972-23.812A10.239,10.239,0,0,1,397.341,2128.875Z" fill="#e1e1e1" opacity="0.244" style="mix-blend-mode: multiply;isolation: isolate"/>
        <path id="Path_698" data-name="Path 698" d="M397.437,2128.91c7.25-1.665,12.651,5.784,13.9,14.213,1.086,7.343-1.81,15.8-5.543,17.81-4.149,2.231-10.5.284-14.271-5.536-3.977-6.134-2.556-19.262,1.156-23.393A10.017,10.017,0,0,1,397.437,2128.91Z" fill="#dedede" opacity="0.268" style="mix-blend-mode: multiply;isolation: isolate"/>
        <path id="Path_699" data-name="Path 699" d="M397.533,2128.944c7.122-1.564,12.426,5.786,13.615,14.11,1.043,7.306-1.892,15.646-5.648,17.587-4.16,2.149-10.4.094-14.043-5.735-3.822-6.111-2.366-18.941,1.341-22.974A9.8,9.8,0,0,1,397.533,2128.944Z" fill="#dbdbdb" opacity="0.293" style="mix-blend-mode: multiply;isolation: isolate"/>
        <path id="Path_700" data-name="Path 700" d="M397.629,2128.979c6.993-1.465,12.2,5.787,13.332,14.006,1,7.269-1.975,15.491-5.754,17.364-4.171,2.068-10.294-.1-13.813-5.933-3.669-6.088-2.176-18.622,1.525-22.556A9.591,9.591,0,0,1,397.629,2128.979Z" fill="#d8d8d8" opacity="0.317" style="mix-blend-mode: multiply;isolation: isolate"/>
        <path id="Path_701" data-name="Path 701" d="M397.725,2129.013c6.865-1.364,11.974,5.788,13.049,13.9.957,7.232-2.058,15.335-5.859,17.141-4.182,1.987-10.192-.283-13.584-6.132-3.516-6.063-1.987-18.3,1.709-22.136A9.384,9.384,0,0,1,397.725,2129.013Z" fill="#d5d5d5" opacity="0.341" style="mix-blend-mode: multiply;isolation: isolate"/>
        <path id="Path_702" data-name="Path 702" d="M397.821,2129.048c6.737-1.265,11.748,5.789,12.766,13.8.914,7.2-2.14,15.18-5.965,16.918-4.192,1.906-10.089-.47-13.354-6.331-3.363-6.037-1.8-17.981,1.894-21.717A9.171,9.171,0,0,1,397.821,2129.048Z" fill="#d2d2d2" opacity="0.366" style="mix-blend-mode: multiply;isolation: isolate"/>
        <path id="Path_703" data-name="Path 703" d="M397.917,2129.083c6.609-1.165,11.521,5.79,12.483,13.7.87,7.159-2.222,15.025-6.071,16.7-4.2,1.824-9.988-.658-13.124-6.531-3.211-6.011-1.608-17.66,2.078-21.3A8.969,8.969,0,0,1,397.917,2129.083Z" fill="#cfcfcf" opacity="0.39" style="mix-blend-mode: multiply;isolation: isolate"/>
        <path id="Path_704" data-name="Path 704" d="M398.013,2129.117c6.48-1.065,11.3,5.792,12.2,13.592.826,7.123-2.3,14.87-6.176,16.473-4.213,1.744-9.887-.845-12.9-6.73-3.059-5.984-1.417-17.34,2.263-20.878A8.775,8.775,0,0,1,398.013,2129.117Z" fill="#ccc" opacity="0.415" style="mix-blend-mode: multiply;isolation: isolate"/>
        <path id="Path_705" data-name="Path 705" d="M398.108,2129.152c6.353-.965,11.068,5.793,11.918,13.488.782,7.086-2.386,14.715-6.282,16.25-4.222,1.664-9.786-1.031-12.666-6.929-2.908-5.957-1.228-17.019,2.447-20.459A8.579,8.579,0,0,1,398.108,2129.152Z" fill="#c9c9c9" opacity="0.439" style="mix-blend-mode: multiply;isolation: isolate"/>
        <path id="Path_706" data-name="Path 706" d="M398.2,2129.186c6.225-.864,10.84,5.795,11.635,13.386.738,7.049-2.468,14.56-6.387,16.026-4.233,1.584-9.687-1.216-12.437-7.127-2.758-5.93-1.038-16.7,2.631-20.041A8.4,8.4,0,0,1,398.2,2129.186Z" fill="#c6c6c6" opacity="0.463" style="mix-blend-mode: multiply;isolation: isolate"/>
        <path id="Path_707" data-name="Path 707" d="M398.3,2129.221c6.1-.765,10.612,5.8,11.352,13.282.693,7.013-2.55,14.405-6.493,15.8-4.242,1.505-9.588-1.4-12.207-7.326-2.609-5.9-.849-16.379,2.815-19.622A8.21,8.21,0,0,1,398.3,2129.221Z" fill="#c3c3c3" opacity="0.488" style="mix-blend-mode: multiply;isolation: isolate"/>
        <path id="Path_708" data-name="Path 708" d="M398.4,2129.256c5.969-.665,10.384,5.8,11.069,13.178.648,6.977-2.631,14.251-6.6,15.581-4.252,1.425-9.49-1.586-11.978-7.526-2.461-5.872-.659-16.059,3-19.2A8.024,8.024,0,0,1,398.4,2129.256Z" fill="#c1c1c1" opacity="0.512" style="mix-blend-mode: multiply;isolation: isolate"/>
        <path id="Path_709" data-name="Path 709" d="M398.492,2129.29c5.84-.565,10.155,5.8,10.786,13.075.6,6.94-2.713,14.1-6.7,15.358-4.262,1.346-9.392-1.77-11.749-7.725-2.312-5.843-.469-15.738,3.184-18.783A7.86,7.86,0,0,1,398.492,2129.29Z" fill="#bebebe" opacity="0.537" style="mix-blend-mode: multiply;isolation: isolate"/>
        <path id="Path_710" data-name="Path 710" d="M398.588,2129.325c5.712-.465,9.925,5.8,10.5,12.971.556,6.9-2.794,13.944-6.809,15.135-4.272,1.267-9.3-1.954-11.52-7.924-2.165-5.813-.279-15.418,3.368-18.364A7.689,7.689,0,0,1,398.588,2129.325Z" fill="#bbb" opacity="0.561" style="mix-blend-mode: multiply;isolation: isolate"/>
        <path id="Path_711" data-name="Path 711" d="M398.684,2129.359c5.584-.365,9.7,5.8,10.22,12.868.51,6.868-2.875,13.791-6.915,14.912-4.281,1.189-9.2-2.137-11.29-8.123-2.02-5.783-.09-15.1,3.552-17.945A7.523,7.523,0,0,1,398.684,2129.359Z" fill="#b8b8b8" opacity="0.585" style="mix-blend-mode: multiply;isolation: isolate"/>
        <path id="Path_712" data-name="Path 712" d="M398.78,2129.394c5.456-.265,9.465,5.8,9.937,12.764.463,6.832-2.957,13.638-7.02,14.69-4.291,1.109-9.1-2.321-11.061-8.322-1.875-5.753.1-14.778,3.736-17.526A7.366,7.366,0,0,1,398.78,2129.394Z" fill="#b5b5b5" opacity="0.61" style="mix-blend-mode: multiply;isolation: isolate"/>
        <path id="Path_713" data-name="Path 713" d="M398.876,2129.428c5.327-.165,9.235,5.807,9.654,12.661.416,6.8-3.038,13.486-7.126,14.467-4.3,1.032-9.011-2.5-10.831-8.521-1.731-5.722.289-14.457,3.921-17.107A7.209,7.209,0,0,1,398.876,2129.428Z" fill="#b2b2b2" opacity="0.634" style="mix-blend-mode: multiply;isolation: isolate"/>
        <path id="Path_714" data-name="Path 714" d="M398.971,2129.463c5.2-.065,9.005,5.809,9.372,12.557s-3.119,13.333-7.232,14.244c-4.308.954-8.918-2.685-10.6-8.72-1.587-5.691.48-14.137,4.106-16.688A7.058,7.058,0,0,1,398.971,2129.463Z" fill="#afafaf" opacity="0.659" style="mix-blend-mode: multiply;isolation: isolate"/>
        <path id="Path_715" data-name="Path 715" d="M399.067,2129.5c5.072.034,8.773,5.81,9.089,12.453.32,6.724-3.2,13.181-7.337,14.021-4.318.877-8.827-2.867-10.373-8.919-1.445-5.66.669-13.816,4.29-16.268A6.915,6.915,0,0,1,399.067,2129.5Z" fill="#acacac" opacity="0.683" style="mix-blend-mode: multiply;isolation: isolate"/>
        <path id="Path_716" data-name="Path 716" d="M399.163,2129.532c4.944.135,8.541,5.813,8.806,12.35.271,6.688-3.281,13.03-7.443,13.8-4.327.8-8.737-3.049-10.143-9.118-1.3-5.629.859-13.5,4.474-15.849A6.78,6.78,0,0,1,399.163,2129.532Z" fill="#a9a9a9" opacity="0.707" style="mix-blend-mode: multiply;isolation: isolate"/>
        <path id="Path_717" data-name="Path 717" d="M399.259,2129.567c4.815.235,8.309,5.814,8.523,12.246.222,6.652-3.363,12.878-7.548,13.576-4.337.722-8.648-3.232-9.914-9.318-1.165-5.6,1.048-13.175,4.658-15.43A6.647,6.647,0,0,1,399.259,2129.567Z" fill="#a6a6a6" opacity="0.732" style="mix-blend-mode: multiply;isolation: isolate"/>
        <path id="Path_718" data-name="Path 718" d="M399.355,2129.6c4.687.335,8.076,5.817,8.24,12.143.172,6.616-3.444,12.727-7.654,13.353-4.346.646-8.56-3.414-9.684-9.516-1.026-5.567,1.238-12.856,4.842-15.012A6.53,6.53,0,0,1,399.355,2129.6Z" fill="#a3a3a3" opacity="0.756" style="mix-blend-mode: multiply;isolation: isolate"/>
        <path id="Path_719" data-name="Path 719" d="M399.451,2129.636c4.559.435,7.842,5.818,7.957,12.039.122,6.58-3.525,12.576-7.759,13.13-4.356.57-8.474-3.6-9.456-9.715-.888-5.536,1.428-12.536,5.027-14.592A6.406,6.406,0,0,1,399.451,2129.636Z" fill="#a0a0a0" opacity="0.78" style="mix-blend-mode: multiply;isolation: isolate"/>
        <path id="Path_720" data-name="Path 720" d="M399.547,2129.67c4.431.535,7.608,5.82,7.674,11.936.071,6.544-3.607,12.425-7.865,12.907-4.365.494-8.388-3.778-9.226-9.914-.751-5.505,1.617-12.215,5.211-14.173A6.3,6.3,0,0,1,399.547,2129.67Z" fill="#9d9d9d" opacity="0.805" style="mix-blend-mode: multiply;isolation: isolate"/>
        <path id="Path_721" data-name="Path 721" d="M399.643,2129.705c4.3.635,7.373,5.822,7.391,11.832.02,6.508-3.688,12.275-7.97,12.684-4.375.418-8.3-3.961-9-10.113-.616-5.475,1.807-11.9,5.4-13.754A6.194,6.194,0,0,1,399.643,2129.705Z" fill="#9a9a9a" opacity="0.829" style="mix-blend-mode: multiply;isolation: isolate"/>
        <path id="Path_722" data-name="Path 722" d="M399.739,2129.74c4.174.734,7.138,5.823,7.108,11.728-.033,6.471-3.77,12.125-8.076,12.462-4.385.342-8.222-4.145-8.767-10.313-.481-5.445,2-11.574,5.579-13.335A6.1,6.1,0,0,1,399.739,2129.74Z" fill="#979797" opacity="0.854" style="mix-blend-mode: multiply;isolation: isolate"/>
        <path id="Path_723" data-name="Path 723" d="M399.834,2129.774c4.047.835,6.9,5.825,6.826,11.625-.086,6.435-3.852,11.975-8.182,12.239-4.394.267-8.141-4.328-8.537-10.512-.348-5.415,2.186-11.254,5.764-12.915A6,6,0,0,1,399.834,2129.774Z" fill="#949494" opacity="0.878" style="mix-blend-mode: multiply;isolation: isolate"/>
        <path id="Path_724" data-name="Path 724" d="M399.93,2129.809c3.919.934,6.668,5.826,6.543,11.521-.139,6.4-3.933,11.826-8.287,12.016-4.4.192-8.061-4.513-8.309-10.71-.214-5.387,2.376-10.934,5.949-12.5A5.915,5.915,0,0,1,399.93,2129.809Z" fill="#919191" opacity="0.902" style="mix-blend-mode: multiply;isolation: isolate"/>
        <path id="Path_725" data-name="Path 725" d="M400.026,2129.843c3.791,1.035,6.431,5.828,6.26,11.418-.194,6.362-4.015,11.677-8.393,11.793-4.414.118-7.982-4.7-8.079-10.909-.083-5.359,2.566-10.614,6.133-12.078A5.839,5.839,0,0,1,400.026,2129.843Z" fill="#8e8e8e" opacity="0.927" style="mix-blend-mode: multiply;isolation: isolate"/>
        <path id="Path_726" data-name="Path 726" d="M400.122,2129.878c3.662,1.134,6.194,5.829,5.977,11.314-.249,6.325-4.1,11.528-8.5,11.57-4.425.043-7.906-4.883-7.85-11.108.048-5.331,2.755-10.293,6.317-11.658A5.771,5.771,0,0,1,400.122,2129.878Z" fill="#8b8b8b" opacity="0.951" style="mix-blend-mode: multiply;isolation: isolate"/>
        <path id="Path_727" data-name="Path 727" d="M400.218,2129.912c3.534,1.235,5.948,5.83,5.694,11.212-.316,6.287-4.18,11.383-8.6,11.347s-7.829-5.07-7.62-11.308c.178-5.305,2.945-9.973,6.5-11.239A5.71,5.71,0,0,1,400.218,2129.912Z" fill="#888" opacity="0.976" style="mix-blend-mode: multiply;isolation: isolate"/>
        <path id="Path_728" data-name="Path 728" d="M400.314,2129.947c3.406,1.335,5.719,5.831,5.412,11.108-.363,6.25-4.263,11.23-8.71,11.124s-7.758-5.258-7.391-11.507c.3-5.279,3.134-9.652,6.685-10.82A5.652,5.652,0,0,1,400.314,2129.947Z" fill="#858585" style="mix-blend-mode: multiply;isolation: isolate"/>
      </g>
      <path id="Path_729" data-name="Path 729" d="M406.214,2140.485c-.722,7.756-5.431,13.684-10.5,13.212s-8.6-7.168-7.881-14.924,5.433-13.686,10.5-13.214S406.937,2132.728,406.214,2140.485Z" fill="url(#linear-gradient-3)"/>
      <path id="Path_730" data-name="Path 730" d="M398.264,2126.349c4.638.432,7.843,6.729,7.16,14.062s-5,12.926-9.634,12.494-7.847-6.727-7.164-14.058S393.625,2125.917,398.264,2126.349Z" fill="url(#linear-gradient-4)"/>
    </g>
    <g id="Group_77" data-name="Group 77" transform="translate(64.708 51.204)">
      <g id="Group_76" data-name="Group 76" style="mix-blend-mode: multiply;isolation: isolate">
        <path id="Path_731" data-name="Path 731" d="M373.571,2142.385c11.317-3.614,19.461,3.66,21.947,16.167,2.012,10.131-3.7,22.9-8.271,26.473-5.242,4.1-13.134,3.37-19.867-4.142-7.433-8.3-5.318-26.109-.389-32.925C366.991,2147.958,369.723,2143.854,373.571,2142.385Z" fill="#fff" opacity="0"/>
        <path id="Path_732" data-name="Path 732" d="M373.7,2142.43c11.15-3.483,19.169,3.756,21.584,16.127,1.952,10.083-3.747,22.7-8.346,26.181-5.256,4-13.061,3.121-19.619-4.407-7.242-8.268-5.087-25.779-.165-32.467C367.15,2147.864,369.88,2143.835,373.7,2142.43Z" fill="#fcfcfc" opacity="0.024" style="mix-blend-mode: multiply;isolation: isolate"/>
        <path id="Path_733" data-name="Path 733" d="M373.821,2142.475c10.983-3.352,18.877,3.853,21.222,16.087,1.891,10.035-3.793,22.5-8.422,25.89-5.27,3.893-12.966,2.852-19.37-4.673-7.026-8.255-4.858-25.45.057-32.008C367.308,2147.771,370.036,2143.815,373.821,2142.475Z" fill="#f9f9f9" opacity="0.049" style="mix-blend-mode: multiply;isolation: isolate"/>
        <path id="Path_734" data-name="Path 734" d="M373.947,2142.52c10.814-3.221,18.611,3.945,20.858,16.047,1.854,9.983-3.847,22.283-8.5,25.6-5.294,3.775-12.879,2.592-19.12-4.939-6.822-8.232-4.629-25.121.279-31.55C367.466,2147.677,370.193,2143.8,373.947,2142.52Z" fill="#f6f6f6" opacity="0.073" style="mix-blend-mode: multiply;isolation: isolate"/>
        <path id="Path_735" data-name="Path 735" d="M374.072,2142.566c10.647-3.092,18.327,4.039,20.5,16.006,1.8,9.933-3.9,22.078-8.574,25.308-5.311,3.667-12.794,2.333-18.872-5.2-6.617-8.207-4.4-24.792.5-31.092C367.624,2147.583,370.349,2143.777,374.072,2142.566Z" fill="#f3f3f3" opacity="0.098" style="mix-blend-mode: multiply;isolation: isolate"/>
        <path id="Path_736" data-name="Path 736" d="M374.2,2142.611c10.48-2.961,18.043,4.134,20.133,15.966,1.747,9.884-3.943,21.873-8.649,25.016-5.328,3.559-12.709,2.075-18.623-5.47-6.413-8.182-4.169-24.463.725-30.634C367.783,2147.489,370.506,2143.758,374.2,2142.611Z" fill="#f0f0f0" opacity="0.122" style="mix-blend-mode: multiply;isolation: isolate"/>
        <path id="Path_737" data-name="Path 737" d="M374.323,2142.656c10.312-2.83,17.758,4.23,19.77,15.926,1.692,9.835-3.992,21.668-8.726,24.725-5.344,3.451-12.623,1.817-18.373-5.736-6.21-8.156-3.94-24.133.947-30.175C367.941,2147.4,370.662,2143.739,374.323,2142.656Z" fill="#ededed" opacity="0.146" style="mix-blend-mode: multiply;isolation: isolate"/>
        <path id="Path_738" data-name="Path 738" d="M374.448,2142.7c10.145-2.7,17.473,4.326,19.407,15.885,1.638,9.787-4.039,21.464-8.8,24.435-5.36,3.343-12.538,1.56-18.125-6-6.006-8.13-3.709-23.8,1.17-29.717C368.1,2147.3,370.819,2143.72,374.448,2142.7Z" fill="#eaeaea" opacity="0.171" style="mix-blend-mode: multiply;isolation: isolate"/>
        <path id="Path_739" data-name="Path 739" d="M374.573,2142.747c9.978-2.569,17.188,4.42,19.045,15.844,1.583,9.739-4.086,21.26-8.877,24.143-5.376,3.236-12.453,1.305-17.876-6.267-5.8-8.1-3.48-23.475,1.392-29.259C368.257,2147.208,370.975,2143.7,374.573,2142.747Z" fill="#e7e7e7" opacity="0.195" style="mix-blend-mode: multiply;isolation: isolate"/>
        <path id="Path_740" data-name="Path 740" d="M374.7,2142.792c9.81-2.439,16.9,4.516,18.682,15.8,1.528,9.69-4.134,21.055-8.954,23.852-5.391,3.128-12.368,1.049-17.626-6.533-5.6-8.074-3.251-23.146,1.615-28.8C368.416,2147.114,371.132,2143.681,374.7,2142.792Z" fill="#e4e4e4" opacity="0.22" style="mix-blend-mode: multiply;isolation: isolate"/>
        <path id="Path_741" data-name="Path 741" d="M374.824,2142.837c9.642-2.308,16.615,4.612,18.319,15.764,1.474,9.641-4.18,20.851-9.029,23.561-5.406,3.021-12.284.794-17.378-6.8-5.4-8.045-3.02-22.817,1.838-28.342C368.574,2147.021,371.289,2143.662,374.824,2142.837Z" fill="#e1e1e1" opacity="0.244" style="mix-blend-mode: multiply;isolation: isolate"/>
        <path id="Path_742" data-name="Path 742" d="M374.949,2142.882c9.475-2.177,16.328,4.709,17.957,15.724,1.418,9.593-4.227,20.647-9.105,23.27-5.422,2.914-12.2.54-17.129-7.065-5.2-8.015-2.791-22.488,2.06-27.884C368.732,2146.927,371.445,2143.643,374.949,2142.882Z" fill="#dedede" opacity="0.268" style="mix-blend-mode: multiply;isolation: isolate"/>
        <path id="Path_743" data-name="Path 743" d="M375.075,2142.927c9.307-2.046,16.04,4.8,17.593,15.684,1.363,9.545-4.273,20.443-9.181,22.978-5.435,2.808-12.115.287-16.879-7.33-4.995-7.985-2.562-22.158,2.282-27.426C368.89,2146.833,371.6,2143.624,375.075,2142.927Z" fill="#dbdbdb" opacity="0.293" style="mix-blend-mode: multiply;isolation: isolate"/>
        <path id="Path_744" data-name="Path 744" d="M375.2,2142.973c9.14-1.916,15.753,4.9,17.231,15.643,1.306,9.5-4.319,20.239-9.257,22.687-5.45,2.7-12.032.034-16.631-7.6-4.793-7.953-2.331-21.829,2.505-26.968C369.048,2146.739,371.758,2143.6,375.2,2142.973Z" fill="#d8d8d8" opacity="0.317" style="mix-blend-mode: multiply;isolation: isolate"/>
        <path id="Path_745" data-name="Path 745" d="M375.325,2143.018c8.973-1.785,15.465,5,16.868,15.6,1.25,9.448-4.364,20.036-9.332,22.4-5.464,2.595-11.949-.218-16.382-7.862-4.593-7.921-2.1-21.5,2.728-26.509C369.207,2146.646,371.915,2143.586,375.325,2143.018Z" fill="#d5d5d5" opacity="0.341" style="mix-blend-mode: multiply;isolation: isolate"/>
        <path id="Path_746" data-name="Path 746" d="M375.451,2143.063c8.805-1.655,15.175,5.094,16.505,15.562,1.193,9.4-4.41,19.834-9.409,22.1-5.478,2.49-11.866-.468-16.133-8.127-4.393-7.888-1.872-21.171,2.951-26.051C369.365,2146.552,372.071,2143.567,375.451,2143.063Z" fill="#d2d2d2" opacity="0.366" style="mix-blend-mode: multiply;isolation: isolate"/>
        <path id="Path_747" data-name="Path 747" d="M375.576,2143.108c8.638-1.524,14.887,5.19,16.142,15.522,1.137,9.353-4.455,19.631-9.484,21.814-5.491,2.384-11.785-.719-15.884-8.393-4.2-7.854-1.642-20.842,3.173-25.593C369.523,2146.458,372.228,2143.548,375.576,2143.108Z" fill="#cfcfcf" opacity="0.39" style="mix-blend-mode: multiply;isolation: isolate"/>
        <path id="Path_748" data-name="Path 748" d="M375.7,2143.153c8.47-1.393,14.6,5.287,15.78,15.482,1.079,9.3-4.5,19.428-9.56,21.523-5.505,2.279-11.7-.969-15.635-8.659-4-7.819-1.413-20.512,3.395-25.135C369.681,2146.364,372.384,2143.528,375.7,2143.153Z" fill="#ccc" opacity="0.415" style="mix-blend-mode: multiply;isolation: isolate"/>
        <path id="Path_749" data-name="Path 749" d="M375.827,2143.2c8.3-1.263,14.306,5.383,15.416,15.441,1.022,9.257-4.545,19.226-9.636,21.231-5.518,2.174-11.623-1.217-15.386-8.924-3.8-7.784-1.183-20.183,3.619-24.676C369.84,2146.271,372.541,2143.509,375.827,2143.2Z" fill="#c9c9c9" opacity="0.439" style="mix-blend-mode: multiply;isolation: isolate"/>
        <path id="Path_750" data-name="Path 750" d="M375.952,2143.244c8.135-1.132,14.016,5.48,15.054,15.4.963,9.21-4.591,19.024-9.712,20.94-5.531,2.07-11.544-1.465-15.137-9.19-3.6-7.748-.953-19.854,3.841-24.218A10.934,10.934,0,0,1,375.952,2143.244Z" fill="#c6c6c6" opacity="0.463" style="mix-blend-mode: multiply;isolation: isolate"/>
        <path id="Path_751" data-name="Path 751" d="M376.077,2143.289c7.968-1,13.725,5.578,14.691,15.361.9,9.162-4.635,18.822-9.787,20.649-5.544,1.965-11.465-1.713-14.888-9.456-3.409-7.711-.724-19.525,4.063-23.76A10.7,10.7,0,0,1,376.077,2143.289Z" fill="#c3c3c3" opacity="0.488" style="mix-blend-mode: multiply;isolation: isolate"/>
        <path id="Path_752" data-name="Path 752" d="M376.2,2143.334c7.8-.871,13.433,5.675,14.328,15.321.846,9.115-4.68,18.621-9.864,20.358-5.556,1.861-11.387-1.96-14.639-9.722-3.214-7.673-.494-19.2,4.286-23.3A10.471,10.471,0,0,1,376.2,2143.334Z" fill="#c1c1c1" opacity="0.512" style="mix-blend-mode: multiply;isolation: isolate"/>
        <path id="Path_753" data-name="Path 753" d="M376.328,2143.379c7.633-.74,13.141,5.772,13.965,15.281.787,9.067-4.724,18.42-9.939,20.066-5.569,1.758-11.31-2.205-14.39-9.987-3.022-7.635-.264-18.866,4.509-22.843A10.24,10.24,0,0,1,376.328,2143.379Z" fill="#bebebe" opacity="0.537" style="mix-blend-mode: multiply;isolation: isolate"/>
        <path id="Path_754" data-name="Path 754" d="M376.453,2143.425c7.466-.61,12.848,5.869,13.6,15.24.726,9.02-4.769,18.219-10.015,19.775-5.582,1.655-11.235-2.451-14.141-10.253-2.83-7.6-.035-18.537,4.731-22.385A10.018,10.018,0,0,1,376.453,2143.425Z" fill="#bbb" opacity="0.561" style="mix-blend-mode: multiply;isolation: isolate"/>
        <path id="Path_755" data-name="Path 755" d="M376.578,2143.47c7.3-.479,12.555,5.966,13.24,15.2.666,8.973-4.812,18.02-10.091,19.485-5.594,1.552-11.16-2.7-13.892-10.519-2.639-7.557.2-18.208,4.954-21.927A9.8,9.8,0,0,1,376.578,2143.47Z" fill="#b8b8b8" opacity="0.585" style="mix-blend-mode: multiply;isolation: isolate"/>
        <path id="Path_756" data-name="Path 756" d="M376.7,2143.515c7.13-.349,12.261,6.064,12.877,15.159.605,8.926-4.857,17.82-10.167,19.193-5.606,1.45-11.087-2.941-13.643-10.784-2.45-7.517.425-17.879,5.176-21.469A9.6,9.6,0,0,1,376.7,2143.515Z" fill="#b5b5b5" opacity="0.61" style="mix-blend-mode: multiply;isolation: isolate"/>
        <path id="Path_757" data-name="Path 757" d="M376.829,2143.56c6.963-.218,11.967,6.161,12.514,15.119.543,8.879-4.9,17.621-10.242,18.9-5.619,1.348-11.016-3.185-13.394-11.05-2.262-7.477.654-17.55,5.4-21.01A9.389,9.389,0,0,1,376.829,2143.56Z" fill="#b2b2b2" opacity="0.634" style="mix-blend-mode: multiply;isolation: isolate"/>
        <path id="Path_758" data-name="Path 758" d="M376.954,2143.606c6.8-.088,11.672,6.258,12.152,15.078s-4.945,17.421-10.319,18.611c-5.63,1.246-10.945-3.43-13.145-11.316-2.074-7.437.884-17.221,5.622-20.552A9.2,9.2,0,0,1,376.954,2143.606Z" fill="#afafaf" opacity="0.659" style="mix-blend-mode: multiply;isolation: isolate"/>
        <path id="Path_759" data-name="Path 759" d="M377.08,2143.651c6.628.043,11.376,6.355,11.788,15.038.418,8.784-4.989,17.223-10.394,18.32-5.643,1.145-10.877-3.674-12.9-11.582-1.889-7.4,1.113-16.891,5.844-20.094A9.014,9.014,0,0,1,377.08,2143.651Z" fill="#acacac" opacity="0.683" style="mix-blend-mode: multiply;isolation: isolate"/>
        <path id="Path_760" data-name="Path 760" d="M377.2,2143.7c6.461.174,11.08,6.453,11.426,15,.354,8.737-5.033,17.024-10.47,18.028-5.655,1.045-10.81-3.917-12.648-11.847-1.7-7.356,1.344-16.562,6.067-19.636A8.839,8.839,0,0,1,377.2,2143.7Z" fill="#a9a9a9" opacity="0.707" style="mix-blend-mode: multiply;isolation: isolate"/>
        <path id="Path_761" data-name="Path 761" d="M377.33,2143.741c6.294.3,10.783,6.55,11.064,14.958.29,8.69-5.078,16.826-10.547,17.737-5.667.944-10.743-4.161-12.4-12.113-1.522-7.315,1.573-16.233,6.289-19.177A8.67,8.67,0,0,1,377.33,2143.741Z" fill="#a6a6a6" opacity="0.732" style="mix-blend-mode: multiply;isolation: isolate"/>
        <path id="Path_762" data-name="Path 762" d="M377.456,2143.786c6.125.435,10.485,6.648,10.7,14.918.225,8.642-5.122,16.628-10.622,17.446-5.68.844-10.68-4.4-12.149-12.379-1.341-7.275,1.8-15.9,6.512-18.719A8.507,8.507,0,0,1,377.456,2143.786Z" fill="#a3a3a3" opacity="0.756" style="mix-blend-mode: multiply;isolation: isolate"/>
        <path id="Path_763" data-name="Path 763" d="M377.581,2143.832c5.958.565,10.187,6.745,10.338,14.877.159,8.595-5.166,16.431-10.7,17.154-5.693.745-10.618-4.648-11.9-12.644-1.16-7.234,2.033-15.575,6.735-18.261A8.352,8.352,0,0,1,377.581,2143.832Z" fill="#a0a0a0" opacity="0.78" style="mix-blend-mode: multiply;isolation: isolate"/>
        <path id="Path_764" data-name="Path 764" d="M377.706,2143.877c5.791.7,9.888,6.842,9.975,14.836.093,8.549-5.21,16.235-10.774,16.864-5.7.645-10.557-4.892-11.651-12.91-.982-7.194,2.262-15.245,6.957-17.8A8.2,8.2,0,0,1,377.706,2143.877Z" fill="#9d9d9d" opacity="0.805" style="mix-blend-mode: multiply;isolation: isolate"/>
        <path id="Path_765" data-name="Path 765" d="M377.832,2143.922c5.623.827,9.588,6.939,9.612,14.8.025,8.5-5.255,16.039-10.85,16.573-5.717.546-10.5-5.137-11.4-13.176-.8-7.155,2.491-14.916,7.179-17.344A8.066,8.066,0,0,1,377.832,2143.922Z" fill="#9a9a9a" opacity="0.829" style="mix-blend-mode: multiply;isolation: isolate"/>
        <path id="Path_766" data-name="Path 766" d="M377.957,2143.967c5.456.958,9.288,7.037,9.249,14.756-.043,8.454-5.3,15.842-10.925,16.282-5.73.447-10.441-5.382-11.154-13.442-.628-7.116,2.722-14.587,7.4-16.886A7.938,7.938,0,0,1,377.957,2143.967Z" fill="#979797" opacity="0.854" style="mix-blend-mode: multiply;isolation: isolate"/>
        <path id="Path_767" data-name="Path 767" d="M378.082,2144.012c5.289,1.088,8.988,7.134,8.887,14.716-.112,8.406-5.344,15.646-11,15.99-5.743.349-10.386-5.627-10.9-13.707-.454-7.078,2.951-14.258,7.625-16.428A7.822,7.822,0,0,1,378.082,2144.012Z" fill="#949494" opacity="0.878" style="mix-blend-mode: multiply;isolation: isolate"/>
        <path id="Path_768" data-name="Path 768" d="M378.208,2144.058c5.121,1.218,8.686,7.23,8.523,14.675-.182,8.358-5.389,15.451-11.077,15.7-5.756.251-10.332-5.874-10.655-13.973-.281-7.04,3.18-13.929,7.847-15.97A7.711,7.711,0,0,1,378.208,2144.058Z" fill="#919191" opacity="0.902" style="mix-blend-mode: multiply;isolation: isolate"/>
        <path id="Path_769" data-name="Path 769" d="M378.333,2144.1c4.953,1.349,8.384,7.326,8.161,14.635-.254,8.31-5.434,15.256-11.153,15.408-5.77.153-10.281-6.122-10.407-14.239-.109-7,3.411-13.6,8.07-15.512A7.614,7.614,0,0,1,378.333,2144.1Z" fill="#8e8e8e" opacity="0.927" style="mix-blend-mode: multiply;isolation: isolate"/>
        <path id="Path_770" data-name="Path 770" d="M378.458,2144.148c4.786,1.48,8.081,7.423,7.8,14.595-.325,8.262-5.479,15.061-11.229,15.116-5.782.056-10.23-6.369-10.157-14.5.062-6.968,3.64-13.27,8.293-15.053A7.519,7.519,0,0,1,378.458,2144.148Z" fill="#8b8b8b" opacity="0.951" style="mix-blend-mode: multiply;isolation: isolate"/>
        <path id="Path_771" data-name="Path 771" d="M378.584,2144.193c4.618,1.611,7.765,7.519,7.435,14.555-.412,8.213-5.525,14.873-11.305,14.825-5.8-.034-10.182-6.619-9.908-14.77.232-6.933,3.869-12.941,8.515-14.595A7.443,7.443,0,0,1,378.584,2144.193Z" fill="#888" opacity="0.976" style="mix-blend-mode: multiply;isolation: isolate"/>
        <path id="Path_772" data-name="Path 772" d="M378.709,2144.239c4.451,1.74,7.473,7.615,7.072,14.513-.473,8.166-5.57,14.673-11.38,14.535s-10.135-6.87-9.66-15.036c.4-6.9,4.1-12.612,8.738-14.137A7.365,7.365,0,0,1,378.709,2144.239Z" fill="#858585" style="mix-blend-mode: multiply;isolation: isolate"/>
      </g>
      <path id="Path_773" data-name="Path 773" d="M386.446,2160.074c-.933,10.017-6.978,17.672-13.472,17.067s-11.025-9.244-10.092-19.262,6.978-17.668,13.476-17.063S387.378,2150.059,386.446,2160.074Z" fill="url(#linear-gradient-5)"/>
      <path id="Path_774" data-name="Path 774" d="M376.284,2141.606c6.068.565,10.262,8.8,9.369,18.394s-6.538,16.917-12.605,16.352-10.267-8.8-9.373-18.4S370.213,2141.04,376.284,2141.606Z" fill="url(#linear-gradient-6)"/>
    </g>
    <g id="Group_79" data-name="Group 79" transform="translate(64.708 51.204)">
      <g id="Group_78" data-name="Group 78" style="mix-blend-mode: multiply;isolation: isolate">
        <path id="Path_775" data-name="Path 775" d="M413.751,2116.415c5.072-1.618,9.981,3.988,11.094,9.59.9,4.539-1.581,11.841-3.628,13.441-2.347,1.837-7.193.753-10.211-2.614-3.328-3.718-2.41-14.867-.2-17.921A7.338,7.338,0,0,1,413.751,2116.415Z" fill="#fff" opacity="0"/>
        <path id="Path_776" data-name="Path 776" d="M413.807,2116.436c5-1.561,9.82,3.974,10.9,9.514.875,4.517-1.6,11.713-3.664,13.272-2.353,1.791-7.128.659-10.067-2.714-3.243-3.7-2.307-14.643-.1-17.639A7.2,7.2,0,0,1,413.807,2116.436Z" fill="#fcfcfc" opacity="0.024" style="mix-blend-mode: multiply;isolation: isolate"/>
        <path id="Path_777" data-name="Path 777" d="M413.863,2116.456c4.922-1.5,9.658,3.96,10.708,9.439.848,4.5-1.629,11.58-3.7,13.1-2.364,1.739-7.054.557-9.924-2.815-3.146-3.7-2.2-14.417,0-17.356A7.052,7.052,0,0,1,413.863,2116.456Z" fill="#f9f9f9" opacity="0.049" style="mix-blend-mode: multiply;isolation: isolate"/>
        <path id="Path_778" data-name="Path 778" d="M413.919,2116.476c4.847-1.443,9.508,3.944,10.515,9.364.83,4.473-1.653,11.449-3.736,12.934-2.371,1.691-6.983.46-9.78-2.916-3.055-3.686-2.1-14.192.1-17.073A6.918,6.918,0,0,1,413.919,2116.476Z" fill="#f6f6f6" opacity="0.073" style="mix-blend-mode: multiply;isolation: isolate"/>
        <path id="Path_779" data-name="Path 779" d="M413.975,2116.5c4.772-1.384,9.35,3.929,10.321,9.289.807,4.451-1.675,11.319-3.771,12.765-2.379,1.642-6.913.362-9.637-3.016-2.963-3.676-2-13.968.2-16.791A6.775,6.775,0,0,1,413.975,2116.5Z" fill="#f3f3f3" opacity="0.098" style="mix-blend-mode: multiply;isolation: isolate"/>
        <path id="Path_780" data-name="Path 780" d="M414.031,2116.516c4.7-1.326,9.192,3.915,10.128,9.214.782,4.429-1.7,11.188-3.807,12.6-2.386,1.594-6.843.265-9.493-3.117-2.872-3.664-1.893-13.743.3-16.508A6.641,6.641,0,0,1,414.031,2116.516Z" fill="#f0f0f0" opacity="0.122" style="mix-blend-mode: multiply;isolation: isolate"/>
        <path id="Path_781" data-name="Path 781" d="M414.088,2116.537c4.622-1.268,9.033,3.9,9.934,9.138.758,4.407-1.722,11.058-3.843,12.427-2.394,1.545-6.773.168-9.35-3.217-2.781-3.653-1.789-13.519.4-16.226A6.494,6.494,0,0,1,414.088,2116.537Z" fill="#ededed" opacity="0.146" style="mix-blend-mode: multiply;isolation: isolate"/>
        <path id="Path_782" data-name="Path 782" d="M414.144,2116.557c4.547-1.209,8.875,3.885,9.741,9.063.733,4.385-1.746,10.928-3.879,12.258-2.4,1.5-6.7.071-9.206-3.318-2.69-3.641-1.686-13.294.5-15.943A6.372,6.372,0,0,1,414.144,2116.557Z" fill="#eaeaea" opacity="0.171" style="mix-blend-mode: multiply;isolation: isolate"/>
        <path id="Path_783" data-name="Path 783" d="M414.2,2116.577c4.472-1.15,8.716,3.871,9.548,8.988.709,4.363-1.769,10.8-3.915,12.089-2.408,1.449-6.633-.025-9.063-3.419-2.6-3.628-1.582-13.068.6-15.659A6.234,6.234,0,0,1,414.2,2116.577Z" fill="#e7e7e7" opacity="0.195" style="mix-blend-mode: multiply;isolation: isolate"/>
        <path id="Path_784" data-name="Path 784" d="M414.256,2116.6c4.4-1.092,8.557,3.857,9.354,8.913.685,4.341-1.791,10.667-3.95,11.92-2.415,1.4-6.563-.121-8.92-3.519-2.507-3.616-1.478-12.844.7-15.377A6.108,6.108,0,0,1,414.256,2116.6Z" fill="#e4e4e4" opacity="0.22" style="mix-blend-mode: multiply;isolation: isolate"/>
        <path id="Path_785" data-name="Path 785" d="M414.312,2116.618c4.322-1.034,8.4,3.842,9.161,8.837.66,4.319-1.814,10.537-3.986,11.751-2.421,1.352-6.493-.217-8.776-3.62-2.417-3.6-1.375-12.619.8-15.094A5.969,5.969,0,0,1,414.312,2116.618Z" fill="#e1e1e1" opacity="0.244" style="mix-blend-mode: multiply;isolation: isolate"/>
        <path id="Path_786" data-name="Path 786" d="M414.368,2116.638c4.247-.975,8.239,3.828,8.968,8.762.635,4.3-1.837,10.407-4.022,11.581-2.428,1.3-6.424-.312-8.633-3.72-2.326-3.589-1.271-12.394.9-14.811A5.845,5.845,0,0,1,414.368,2116.638Z" fill="#dedede" opacity="0.268" style="mix-blend-mode: multiply;isolation: isolate"/>
        <path id="Path_787" data-name="Path 787" d="M414.424,2116.658c4.172-.916,8.08,3.814,8.775,8.687.61,4.276-1.859,10.277-4.058,11.412-2.435,1.258-6.354-.407-8.489-3.82-2.237-3.576-1.168-12.17,1-14.529A5.716,5.716,0,0,1,414.424,2116.658Z" fill="#dbdbdb" opacity="0.293" style="mix-blend-mode: multiply;isolation: isolate"/>
        <path id="Path_788" data-name="Path 788" d="M414.48,2116.678c4.1-.857,7.92,3.8,8.582,8.612.585,4.254-1.882,10.147-4.094,11.243-2.441,1.21-6.285-.5-8.346-3.921-2.146-3.562-1.064-11.944,1.1-14.246A5.6,5.6,0,0,1,414.48,2116.678Z" fill="#d8d8d8" opacity="0.317" style="mix-blend-mode: multiply;isolation: isolate"/>
        <path id="Path_789" data-name="Path 789" d="M414.537,2116.7c4.021-.8,7.759,3.785,8.388,8.536.559,4.233-1.9,10.018-4.13,11.074-2.447,1.162-6.216-.6-8.2-4.022-2.057-3.547-.96-11.719,1.2-13.963A5.465,5.465,0,0,1,414.537,2116.7Z" fill="#d5d5d5" opacity="0.341" style="mix-blend-mode: multiply;isolation: isolate"/>
        <path id="Path_790" data-name="Path 790" d="M414.593,2116.719c3.946-.741,7.6,3.772,8.194,8.46.535,4.212-1.926,9.889-4.165,10.906-2.454,1.115-6.147-.69-8.059-4.122-1.967-3.533-.856-11.495,1.3-13.681A5.362,5.362,0,0,1,414.593,2116.719Z" fill="#d2d2d2" opacity="0.366" style="mix-blend-mode: multiply;isolation: isolate"/>
        <path id="Path_791" data-name="Path 791" d="M414.649,2116.739c3.871-.682,7.439,3.758,8,8.385.509,4.191-1.948,9.76-4.2,10.737-2.46,1.067-6.079-.784-7.915-4.223-1.879-3.517-.753-11.27,1.4-13.4A5.241,5.241,0,0,1,414.649,2116.739Z" fill="#cfcfcf" opacity="0.39" style="mix-blend-mode: multiply;isolation: isolate"/>
        <path id="Path_792" data-name="Path 792" d="M414.7,2116.759c3.8-.623,7.279,3.744,7.808,8.31.483,4.169-1.971,9.63-4.237,10.568-2.466,1.02-6.011-.877-7.772-4.323-1.79-3.5-.649-11.046,1.505-13.116A5.122,5.122,0,0,1,414.7,2116.759Z" fill="#ccc" opacity="0.415" style="mix-blend-mode: multiply;isolation: isolate"/>
        <path id="Path_793" data-name="Path 793" d="M414.761,2116.779c3.721-.565,7.118,3.731,7.615,8.235.457,4.148-1.993,9.5-4.273,10.4-2.471.973-5.943-.97-7.629-4.424-1.7-3.486-.545-10.82,1.606-12.833A5.014,5.014,0,0,1,414.761,2116.779Z" fill="#c9c9c9" opacity="0.439" style="mix-blend-mode: multiply;isolation: isolate"/>
        <path id="Path_794" data-name="Path 794" d="M414.817,2116.8c3.647-.507,6.957,3.716,7.422,8.159.431,4.126-2.015,9.372-4.309,10.23-2.477.926-5.875-1.063-7.485-4.525s-.442-10.595,1.706-12.55A4.895,4.895,0,0,1,414.817,2116.8Z" fill="#c6c6c6" opacity="0.463" style="mix-blend-mode: multiply;isolation: isolate"/>
        <path id="Path_795" data-name="Path 795" d="M414.873,2116.82c3.572-.448,6.8,3.7,7.228,8.084.4,4.1-2.036,9.243-4.344,10.061-2.483.88-5.808-1.155-7.342-4.625-1.526-3.454-.338-10.371,1.807-12.268A4.793,4.793,0,0,1,414.873,2116.82Z" fill="#c3c3c3" opacity="0.488" style="mix-blend-mode: multiply;isolation: isolate"/>
        <path id="Path_796" data-name="Path 796" d="M414.929,2116.84c3.5-.389,6.635,3.689,7.035,8.009.379,4.084-2.058,9.114-4.38,9.892-2.489.833-5.741-1.247-7.2-4.726-1.439-3.436-.235-10.146,1.907-11.985A4.685,4.685,0,0,1,414.929,2116.84Z" fill="#c1c1c1" opacity="0.512" style="mix-blend-mode: multiply;isolation: isolate"/>
        <path id="Path_797" data-name="Path 797" d="M414.986,2116.86c3.421-.331,6.472,3.675,6.841,7.934.352,4.062-2.08,8.986-4.416,9.723-2.494.787-5.675-1.339-7.055-4.827-1.352-3.419-.131-9.921,2.008-11.7A4.591,4.591,0,0,1,414.986,2116.86Z" fill="#bebebe" opacity="0.537" style="mix-blend-mode: multiply;isolation: isolate"/>
        <path id="Path_798" data-name="Path 798" d="M415.042,2116.881c3.346-.273,6.31,3.661,6.648,7.858.325,4.041-2.1,8.857-4.452,9.554-2.5.74-5.61-1.431-6.911-4.927-1.267-3.4-.028-9.7,2.108-11.42A4.484,4.484,0,0,1,415.042,2116.881Z" fill="#bbb" opacity="0.561" style="mix-blend-mode: multiply;isolation: isolate"/>
        <path id="Path_799" data-name="Path 799" d="M415.1,2116.9c3.271-.214,6.148,3.647,6.455,7.783.3,4.02-2.124,8.729-4.489,9.385-2.505.694-5.543-1.522-6.767-5.028-1.181-3.384.076-9.471,2.209-11.137A4.392,4.392,0,0,1,415.1,2116.9Z" fill="#b8b8b8" opacity="0.585" style="mix-blend-mode: multiply;isolation: isolate"/>
        <path id="Path_800" data-name="Path 800" d="M415.154,2116.921c3.2-.155,5.986,3.634,6.262,7.708.27,4-2.146,8.6-4.525,9.216-2.51.649-5.479-1.614-6.623-5.128-1.1-3.367.179-9.247,2.309-10.855A4.3,4.3,0,0,1,415.154,2116.921Z" fill="#b5b5b5" opacity="0.61" style="mix-blend-mode: multiply;isolation: isolate"/>
        <path id="Path_801" data-name="Path 801" d="M415.21,2116.941c3.121-.1,5.823,3.62,6.068,7.633.243,3.977-2.167,8.473-4.56,9.047-2.516.6-5.415-1.705-6.48-5.229-1.012-3.349.283-9.022,2.41-10.572A4.211,4.211,0,0,1,415.21,2116.941Z" fill="#b2b2b2" opacity="0.634" style="mix-blend-mode: multiply;isolation: isolate"/>
        <path id="Path_802" data-name="Path 802" d="M415.266,2116.962c3.046-.039,5.661,3.606,5.875,7.557s-2.188,8.345-4.6,8.877c-2.521.558-5.351-1.795-6.337-5.329-.928-3.331.387-8.8,2.511-10.289A4.117,4.117,0,0,1,415.266,2116.962Z" fill="#afafaf" opacity="0.659" style="mix-blend-mode: multiply;isolation: isolate"/>
        <path id="Path_803" data-name="Path 803" d="M415.322,2116.982c2.971.02,5.5,3.593,5.682,7.482.187,3.935-2.21,8.217-4.632,8.708-2.527.513-5.289-1.886-6.193-5.429-.845-3.313.491-8.572,2.61-10.007A4.041,4.041,0,0,1,415.322,2116.982Z" fill="#acacac" opacity="0.683" style="mix-blend-mode: multiply;isolation: isolate"/>
        <path id="Path_804" data-name="Path 804" d="M415.378,2117c2.9.079,5.334,3.579,5.489,7.407.158,3.914-2.232,8.09-4.668,8.539-2.532.468-5.227-1.976-6.05-5.53-.762-3.294.6-8.347,2.711-9.724A3.961,3.961,0,0,1,415.378,2117Z" fill="#a9a9a9" opacity="0.707" style="mix-blend-mode: multiply;isolation: isolate"/>
        <path id="Path_805" data-name="Path 805" d="M415.434,2117.022c2.821.138,5.17,3.566,5.3,7.332.129,3.893-2.254,7.962-4.7,8.37-2.538.423-5.166-2.067-5.906-5.631-.681-3.276.7-8.122,2.811-9.441A3.888,3.888,0,0,1,415.434,2117.022Z" fill="#a6a6a6" opacity="0.732" style="mix-blend-mode: multiply;isolation: isolate"/>
        <path id="Path_806" data-name="Path 806" d="M415.491,2117.043c2.745.2,5.006,3.551,5.1,7.256.1,3.871-2.275,7.835-4.739,8.2-2.543.378-5.105-2.158-5.763-5.731-.6-3.258.8-7.9,2.912-9.159A3.81,3.81,0,0,1,415.491,2117.043Z" fill="#a3a3a3" opacity="0.756" style="mix-blend-mode: multiply;isolation: isolate"/>
        <path id="Path_807" data-name="Path 807" d="M415.547,2117.063c2.67.254,4.841,3.538,4.908,7.181.071,3.85-2.3,7.708-4.775,8.032-2.549.333-5.045-2.249-5.619-5.832-.519-3.24.9-7.673,3.012-8.876A3.745,3.745,0,0,1,415.547,2117.063Z" fill="#a0a0a0" opacity="0.78" style="mix-blend-mode: multiply;isolation: isolate"/>
        <path id="Path_808" data-name="Path 808" d="M415.6,2117.083c2.6.313,4.677,3.525,4.715,7.1.041,3.83-2.318,7.583-4.811,7.864-2.554.289-4.986-2.34-5.476-5.932-.439-3.223,1.009-7.449,3.113-8.594A3.677,3.677,0,0,1,415.6,2117.083Z" fill="#9d9d9d" opacity="0.805" style="mix-blend-mode: multiply;isolation: isolate"/>
        <path id="Path_809" data-name="Path 809" d="M415.659,2117.1c2.521.372,4.512,3.511,4.522,7.03.011,3.809-2.34,7.456-4.847,7.695-2.56.244-4.928-2.431-5.332-6.033-.36-3.2,1.112-7.223,3.213-8.311A3.619,3.619,0,0,1,415.659,2117.1Z" fill="#9a9a9a" opacity="0.829" style="mix-blend-mode: multiply;isolation: isolate"/>
        <path id="Path_810" data-name="Path 810" d="M415.715,2117.123c2.446.43,4.347,3.5,4.329,6.955-.02,3.787-2.362,7.329-4.883,7.526-2.566.2-4.871-2.522-5.189-6.134-.281-3.187,1.216-7,3.314-8.028A3.558,3.558,0,0,1,415.715,2117.123Z" fill="#979797" opacity="0.854" style="mix-blend-mode: multiply;isolation: isolate"/>
        <path id="Path_811" data-name="Path 811" d="M415.771,2117.144c2.371.488,4.181,3.483,4.135,6.879-.05,3.766-2.384,7.2-4.918,7.357-2.572.156-4.814-2.614-5.045-6.234-.2-3.17,1.319-6.774,3.414-7.746A3.508,3.508,0,0,1,415.771,2117.144Z" fill="#949494" opacity="0.878" style="mix-blend-mode: multiply;isolation: isolate"/>
        <path id="Path_812" data-name="Path 812" d="M415.827,2117.164c2.3.547,4.016,3.469,3.942,6.8-.082,3.744-2.406,7.077-4.954,7.188-2.577.112-4.758-2.706-4.9-6.335-.125-3.153,1.423-6.549,3.515-7.463A3.455,3.455,0,0,1,415.827,2117.164Z" fill="#919191" opacity="0.902" style="mix-blend-mode: multiply;isolation: isolate"/>
        <path id="Path_813" data-name="Path 813" d="M415.883,2117.184c2.221.606,3.85,3.455,3.749,6.729-.114,3.723-2.428,6.951-4.99,7.019-2.583.068-4.7-2.8-4.759-6.436-.047-3.136,1.527-6.324,3.616-7.18A3.413,3.413,0,0,1,415.883,2117.184Z" fill="#8e8e8e" opacity="0.927" style="mix-blend-mode: multiply;isolation: isolate"/>
        <path id="Path_814" data-name="Path 814" d="M415.94,2117.2c2.145.665,3.682,3.442,3.555,6.654-.147,3.7-2.45,6.825-5.026,6.85s-4.649-2.891-4.615-6.536c.029-3.121,1.63-6.1,3.716-6.9A3.372,3.372,0,0,1,415.94,2117.2Z" fill="#8b8b8b" opacity="0.951" style="mix-blend-mode: multiply;isolation: isolate"/>
        <path id="Path_815" data-name="Path 815" d="M416,2117.225c2.07.722,3.511,3.426,3.362,6.578-.185,3.679-2.473,6.7-5.062,6.681s-4.6-2.985-4.472-6.637c.1-3.1,1.734-5.874,3.817-6.615A3.335,3.335,0,0,1,416,2117.225Z" fill="#888" opacity="0.976" style="mix-blend-mode: multiply;isolation: isolate"/>
        <path id="Path_816" data-name="Path 816" d="M416.052,2117.245c1.995.781,3.35,3.413,3.169,6.5-.212,3.658-2.495,6.574-5.1,6.512s-4.541-3.079-4.328-6.737c.181-3.091,1.837-5.65,3.916-6.333A3.3,3.3,0,0,1,416.052,2117.245Z" fill="#858585" style="mix-blend-mode: multiply;isolation: isolate"/>
      </g>
      <path id="Path_817" data-name="Path 817" d="M419.484,2124.522c-.448,4.8-3.305,8.331-6.508,8.033s-5.359-4.294-4.912-9.1,3.306-8.33,6.508-8.032S419.931,2119.719,419.484,2124.522Z" fill="url(#linear-gradient-7)"/>
      <path id="Path_818" data-name="Path 818" d="M414.5,2116.218c2.716.253,4.593,3.936,4.193,8.23s-2.925,7.568-5.641,7.315-4.593-3.939-4.193-8.231S411.781,2115.965,414.5,2116.218Z" fill="url(#linear-gradient-8)"/>
    </g>
    <g id="Group_105" data-name="Group 105" transform="translate(64.708 51.204)">
      <path id="Path_1379" data-name="Path 1379" d="M132.756,2153.6v-2.08H128a2.107,2.107,0,1,1,0-4.2h4.759v-1.44c0-1.68,1.36-1.84,2.24-1.84,1.2,0,2.08.56,2.08,1.84v1.44h4.919a2.1,2.1,0,1,1,0,4.2h-4.919v2.08h1.84c2.6,0,4.438.639,4.438,4.319v7.239c0,3.319-1.439,4.319-4.319,4.319h-1.959v2.12h5.159a2.182,2.182,0,1,1,0,4.359h-5.159v3.879c0,.68,0,2.16-2.16,2.16s-2.16-1.52-2.16-2.16v-3.879h-5.2c-1.039,0-2.24-.28-2.24-2.2a1.953,1.953,0,0,1,2.24-2.159h5.2v-2.12h-1.919c-2.96,0-4.319-1.08-4.319-4.319v-7.239c0-3.28,1.4-4.319,4.319-4.319Zm.12,6.278v-2.959h-1.719a.836.836,0,0,0-.92.96v2Zm0,3.08h-2.639v2a.836.836,0,0,0,.92.96h1.719Zm4.08-3.08h2.759v-2a.862.862,0,0,0-.96-.96h-1.8Zm0,3.08v2.96h1.8a.849.849,0,0,0,.96-.96v-2Zm9.078-1.12a2.38,2.38,0,1,1,0-4.759h14.677a2.38,2.38,0,0,1,0,4.759h-7.4c-.72,4.08-1.92,9.918-2.879,13.518,2.4-.28,3.919-.44,6.558-.88-.24-1-.6-2.4-1-3.759-.84-2.72-.92-3.24-.92-3.76,0-1.6,1.679-1.879,2.359-1.879,1.44,0,1.68.36,3,4.4a62.013,62.013,0,0,1,2.36,10.118,2.178,2.178,0,0,1-2.52,2.16c-1.96,0-2.12-.92-2.44-3.12-2.359.44-11.038,1.88-12.6,1.88-2.2,0-2.2-2.24-2.2-2.48,0-2.039,1.279-2.119,2.719-2.2a118.977,118.977,0,0,0,2.68-14Zm1.24-11.238a2.34,2.34,0,1,1,0-4.679h12.518a2.34,2.34,0,1,1,0,4.679Z" fill="#009342" stroke="#fff" stroke-linecap="round" stroke-linejoin="round" stroke-width="4"/>
      <path id="Path_1380" data-name="Path 1380" d="M183.475,2179.152c-3.68,0-4.48-.8-4.48-4.479v-7.839c0-3.639.76-4.479,4.48-4.479h2.6c3.639,0,4.479.8,4.479,4.479v8a28.535,28.535,0,0,0,2.2-2.2,82.469,82.469,0,0,1-1.08-11.718h-12.6a1.663,1.663,0,0,1-1.639-.84v19.8c0,.84-.121,2.08-1.92,2.08-1.4,0-2.16-.4-2.16-2.08v-4.279a53.328,53.328,0,0,1-6.439,1.48c-1.359,0-1.919-1.48-1.919-2.76,0-1.44.68-1.88,1.879-2.04v-22.436c-1.239-.12-1.639-1.16-1.639-2.239,0-2.2,1.359-2.28,2.2-2.28h9.239c.72,0,2.479,0,2.119,2.839.161-.159.48-.439,1.52-.439h2.32v-1.84a1.82,1.82,0,0,1,2.079-1.88c.84,0,2.12.24,2.12,1.88v1.84h2.56c.96,0,1.959.24,1.959,2.119,0,2-.959,2.16-1.879,2.2-.241,1.839-.32,2.319-.72,4.519h2.839c-.04-3.359-.12-7.479-.12-10.2,0-.84,0-2.32,2.16-2.32a2.061,2.061,0,0,1,1.84.76c.36.52.36.88.36,3.519v8.239h4.839c.76,0,2.439.04,2.439,2.08,0,1.559-.68,2.279-2.439,2.279h-4.719c.079,2.36.239,4.2.44,6.2.279-.64,1.519-3.6,1.759-4.079.4-.76.72-1,1.4-1,.72,0,2.559.32,2.559,1.72,0,1.12-2.039,5.879-4.679,9.718.16.6.8,2.76,1.64,2.76.4,0,.68-.4,1-1.52.24-.92.44-1.64,1.48-1.64a2.058,2.058,0,0,1,2.159,2,10.864,10.864,0,0,1-1.759,4.719,3.894,3.894,0,0,1-3.48,2.04c-2.36,0-3.68-2.08-4.479-4.2a38.2,38.2,0,0,1-4,3.4,2.29,2.29,0,0,1-3.64-1.88Zm-10.119-29.275h-2.4v4.2h2.4Zm0,8.319h-2.4v4.4h2.4Zm-2.4,13.438c.52-.081,1.279-.24,2.4-.48v-4.36h-2.4Zm9.6-15.078a36.452,36.452,0,0,0-.64-4.559c-1.959-.16-1.76-2.08-1.68-2.56a1.387,1.387,0,0,1-.8.4v7.519a1.716,1.716,0,0,1,1.639-.8Zm2.2,12.2h4v-1.64c0-.68-.32-1-.96-1h-2.08c-.6,0-.959.281-.959,1Zm0,3.559v1.88a.848.848,0,0,0,.959.96h2.08c.6,0,.96-.24.96-.96v-1.88Zm.6-20.276c.081.64.48,3.8.48,4.519h1.6a39.851,39.851,0,0,0,.56-4.519Zm16.918,3.119c-1.2,0-1.32-.48-2-2.559-.36-1.16-1.12-3.12-1.4-3.88a3.268,3.268,0,0,1-.281-1.159c0-.96,1.2-1.76,2.32-1.76,1.04,0,1.36.6,1.839,1.76a29.97,29.97,0,0,1,1.92,5.6C202.671,2154.716,201.032,2155.156,200.272,2155.156Z" fill="#009342" stroke="#fff" stroke-linecap="round" stroke-linejoin="round" stroke-width="4"/>
      <path id="Path_1381" data-name="Path 1381" d="M221.434,2163a5.2,5.2,0,1,1-5.2-5.2A5.215,5.215,0,0,1,221.434,2163Z" fill="#009342" stroke="#fff" stroke-linecap="round" stroke-linejoin="round" stroke-width="4"/>
      <path id="Path_1382" data-name="Path 1382" d="M264.751,2176.153a2.138,2.138,0,0,1,2.4,2.359,2.24,2.24,0,0,1-2.44,2.44H247.435c-2.24,0-7.279-.08-10-4.479a35.609,35.609,0,0,1-2.6,3.2c-1.24,1.32-1.72,1.8-2.8,1.8a2.928,2.928,0,0,1-2.759-3c0-1.119.519-1.519,1.68-2.439a31.379,31.379,0,0,0,3.4-3.12v-7.958c0-.28,0-1.2-.92-1.2h-1.76a2.065,2.065,0,0,1-2.32-2.24c0-1.76.681-2.559,2.48-2.559h2.84c3.679,0,4.479.8,4.479,4.479v7.439c.56,4,3.76,5.279,7.559,5.279Zm-28.515-29.635a37.306,37.306,0,0,1,3.88,3.479,2.119,2.119,0,0,1,.48,1.36,2.851,2.851,0,0,1-2.64,2.759c-.88,0-1.08-.2-3.08-2-.8-.72-2.039-1.8-2.759-2.36-1.559-1.2-2-1.68-2-2.6a2.788,2.788,0,0,1,2.479-2.64C233.2,2144.518,233.717,2144.518,236.236,2146.518Zm11.359,14.4v8.2c.559-.12,5.119-.88,5.279-.88,1.959,0,2.039,1.92,2.039,2.36,0,1.479-.919,1.839-2.12,2.159a67,67,0,0,1-9.478,1.68,2.312,2.312,0,0,1-2.4-2.519,1.844,1.844,0,0,1,1.759-2.04v-20.157c0-3.679.76-4.479,4.48-4.479h13.637c3.64,0,4.479.72,4.479,4.479v6.719c0,3.639-.759,4.479-4.479,4.479h-5.359a10.161,10.161,0,0,0,2.12,4.12c1.04-.76,3.079-2.36,3.759-3,1-.92,1.44-1.24,2.32-1.24a2.4,2.4,0,0,1,2.36,2.28c0,.64,0,1.44-5.119,4.919a38.385,38.385,0,0,0,4.639,2.44,1.943,1.943,0,0,1,1.239,1.839c0,1.04-.8,2.8-2.479,2.8-2.84,0-11.838-5.679-13.478-14.158Zm0-9.4h12.758v-1.32a.784.784,0,0,0-.88-.88h-11a.767.767,0,0,0-.88.88Zm0,3.319v2.24h11.878a.782.782,0,0,0,.88-.88v-1.36Z" fill="#009342" stroke="#fff" stroke-linecap="round" stroke-linejoin="round" stroke-width="4"/>
      <path id="Path_1383" data-name="Path 1383" d="M287.475,2179.152c-3.68,0-4.48-.8-4.48-4.479v-7.839c0-3.639.76-4.479,4.48-4.479h2.6c3.639,0,4.479.8,4.479,4.479v8a28.535,28.535,0,0,0,2.2-2.2,82.47,82.47,0,0,1-1.08-11.718h-12.6a1.663,1.663,0,0,1-1.639-.84v19.8c0,.84-.121,2.08-1.92,2.08-1.4,0-2.16-.4-2.16-2.08v-4.279a53.327,53.327,0,0,1-6.439,1.48c-1.359,0-1.919-1.48-1.919-2.76,0-1.44.68-1.88,1.879-2.04v-22.436c-1.239-.12-1.639-1.16-1.639-2.239,0-2.2,1.359-2.28,2.2-2.28h9.239c.72,0,2.479,0,2.119,2.839.161-.159.48-.439,1.52-.439h2.32v-1.84a1.82,1.82,0,0,1,2.079-1.88c.84,0,2.12.24,2.12,1.88v1.84h2.56c.96,0,1.959.24,1.959,2.119,0,2-.959,2.16-1.879,2.2-.241,1.839-.32,2.319-.72,4.519h2.839c-.04-3.359-.12-7.479-.12-10.2,0-.84,0-2.32,2.16-2.32a2.061,2.061,0,0,1,1.84.76c.36.52.36.88.36,3.519v8.239h4.839c.76,0,2.439.04,2.439,2.08,0,1.559-.68,2.279-2.439,2.279h-4.719c.079,2.36.239,4.2.44,6.2.279-.64,1.519-3.6,1.759-4.079.4-.76.72-1,1.4-1,.72,0,2.559.32,2.559,1.72,0,1.12-2.039,5.879-4.679,9.718.16.6.8,2.76,1.64,2.76.4,0,.68-.4,1-1.52.24-.92.44-1.64,1.48-1.64a2.058,2.058,0,0,1,2.159,2,10.864,10.864,0,0,1-1.759,4.719,3.894,3.894,0,0,1-3.48,2.04c-2.36,0-3.68-2.08-4.479-4.2a38.2,38.2,0,0,1-4,3.4,2.29,2.29,0,0,1-3.64-1.88Zm-10.119-29.275h-2.4v4.2h2.4Zm0,8.319h-2.4v4.4h2.4Zm-2.4,13.438c.52-.081,1.279-.24,2.4-.48v-4.36h-2.4Zm9.6-15.078a36.457,36.457,0,0,0-.64-4.559c-1.959-.16-1.76-2.08-1.68-2.56a1.387,1.387,0,0,1-.8.4v7.519a1.716,1.716,0,0,1,1.639-.8Zm2.2,12.2h4v-1.64c0-.68-.32-1-.96-1h-2.08c-.6,0-.959.281-.959,1Zm0,3.559v1.88a.848.848,0,0,0,.959.96h2.08c.6,0,.96-.24.96-.96v-1.88Zm.6-20.276c.081.64.48,3.8.48,4.519h1.6a39.841,39.841,0,0,0,.56-4.519Zm16.918,3.119c-1.2,0-1.32-.48-2-2.559-.36-1.16-1.12-3.12-1.4-3.88a3.269,3.269,0,0,1-.281-1.159c0-.96,1.2-1.76,2.32-1.76,1.04,0,1.36.6,1.839,1.76a29.97,29.97,0,0,1,1.92,5.6C306.671,2154.716,305.032,2155.156,304.272,2155.156Z" fill="#009342" stroke="#fff" stroke-linecap="round" stroke-linejoin="round" stroke-width="4"/>
      <path id="Path_1384" data-name="Path 1384" d="M178.83,2210.128a10.076,10.076,0,0,1-2.1,6.748c-1.427,1.736-4.339,3.472-5.543,3.472a1.672,1.672,0,0,1-1.6-1.624c0-.756.448-.98,1.6-1.484.672-.308,3.612-1.624,4.312-4.283a4.408,4.408,0,0,1-3.276,1.287,5.307,5.307,0,0,1-5.264-5.656,5.453,5.453,0,0,1,5.6-5.655,5.011,5.011,0,0,1,3.3,1.175l-.056-2.8-8.008.195c-.672.028-3.64.141-4.256.141-.448,0-1.652,0-1.652-1.485,0-1.008.644-1.371,1.484-1.4.644-.028,3.584-.028,4.2-.028l8.176-.168-.056-2.352c-.028-.755.223-1.54,1.512-1.54a1.346,1.346,0,0,1,1.484,1.513l.028,2.323,2.52-.055c.588,0,3.248-.169,3.808-.169.924,0,1.568.337,1.568,1.456,0,1.177-.756,1.316-1.009,1.344-.447.084-3.695.057-4.4.084l-2.463.057Zm-6.076-4.592a2.856,2.856,0,0,0-2.884,3.052,2.825,2.825,0,0,0,2.884,3.052,2.967,2.967,0,0,0,2.912-3.108A2.846,2.846,0,0,0,172.754,2205.536Z" fill="#333" stroke="#fff" stroke-linecap="round" stroke-linejoin="round" stroke-width="4"/>
      <path id="Path_1385" data-name="Path 1385" d="M195.546,2199.46c-.644,0-1.764,0-1.764-1.456,0-1.483,1.12-1.483,2.072-1.483,2.184,0,3.416,0,6.356-.141.812-.056,4.508-.42,5.1-.42,1.624,0,2.016,1.092,2.016,1.681,0,.672-.168.783-1.764,1.96-3.92,2.883-5.068,3.863-6.748,5.235a13.54,13.54,0,0,1,4.34-.812c6.1,0,8.2,4.088,8.2,7.28,0,5.1-4.4,8.456-10.052,8.456-3.276,0-7.532-1.26-7.532-4.7,0-2.072,1.624-4.088,4.844-4.088a7.58,7.58,0,0,1,5.544,2.52,8.8,8.8,0,0,1,1.456,2.464,5.1,5.1,0,0,0,2.66-4.535c0-4.9-5.292-4.9-6.132-4.9-4.172,0-7.336,2.128-9.66,4.227-1.4,1.233-1.568,1.372-2.1,1.372a1.616,1.616,0,0,1-1.54-1.568c0-.588.2-.756,1.988-2.212,3.752-3.107,7.644-6.356,11.452-9.52C201.734,2199.068,198.038,2199.46,195.546,2199.46Zm4.9,14.056c-1.456,0-1.932.924-1.932,1.54,0,1.4,2.436,2.128,4.4,2.128a9.457,9.457,0,0,0,1.988-.2C204,2214.8,202.546,2213.516,200.446,2213.516Z" fill="#333" stroke="#fff" stroke-linecap="round" stroke-linejoin="round" stroke-width="4"/>
      <path id="Path_1386" data-name="Path 1386" d="M225.226,2201.588c.168-.812.812-4.423.952-5.151a1.271,1.271,0,0,1,1.456-1.205c1.036,0,1.6.533,1.6,1.176a45.346,45.346,0,0,1-.924,4.844c6.608-.419,7.728,2.94,7.728,7.672,0,9.352-2.912,10.276-6.16,10.276-2.688,0-3.584-.476-3.584-1.708,0-.924.5-1.484,1.2-1.484.42,0,1.624.224,2.128.224,1.54,0,3.36-.252,3.36-7.392,0-2.8-.168-4.816-3.556-4.816-.532,0-1.036.028-1.82.084a59.894,59.894,0,0,1-4.676,12.74c-.84,1.569-1.232,2.268-2.044,2.268a1.623,1.623,0,0,1-1.708-1.456c0-.336.252-.784.952-2.044a49.185,49.185,0,0,0,4.368-11.172c-.784.112-4.592.728-4.928.728a1.323,1.323,0,0,1-1.288-1.484c0-1.176.756-1.372,1.764-1.483Zm14.84.225a18.642,18.642,0,0,1,2.632,7.9c0,1.008-.672,1.512-1.708,1.512-1.148,0-1.261-.392-1.54-2.156a18.755,18.755,0,0,0-3.248-7.587c-.728-.98-.869-1.205-.869-1.6a1.5,1.5,0,0,1,1.569-1.316C237.966,2198.564,239.085,2200.188,240.066,2201.813Z" fill="#333" stroke="#fff" stroke-linecap="round" stroke-linejoin="round" stroke-width="4"/>
      <path id="Path_1387" data-name="Path 1387" d="M255.27,2206.769c.588,0,1.036,0,2.968-.057.392,0,2.156-.111,2.52-.111a1.326,1.326,0,0,1,1.512,1.483c0,1.457-1.008,1.484-2.464,1.568-1.428.056-4.62.084-5.124.084a15.733,15.733,0,0,0-.252,2.577c0,2.295,1.2,4.228,5.684,4.228,1.96,0,6.216-.393,6.216-4.621a7.782,7.782,0,0,0-.644-2.94,3.317,3.317,0,0,1-.364-1.12c0-.868.924-1.288,1.6-1.288a1.531,1.531,0,0,1,1.457,1.009,10.525,10.525,0,0,1,1.036,4.535c0,4.144-2.632,7.336-9.24,7.336-4.76,0-8.708-1.82-8.708-7.168a20,20,0,0,1,.224-2.632c-4.4-.168-5.208-.56-5.208-1.848a1.385,1.385,0,0,1,1.428-1.54c.2,0,1.176.168,1.428.2a20.774,20.774,0,0,0,2.912.252l.756-3.695c-4.788-.2-5.32-.673-5.32-1.792a1.374,1.374,0,0,1,1.428-1.54c.252,0,1.344.168,1.568.195.588.084,1.9.2,2.912.252l.756-3.668c.14-.644.336-1.371,1.428-1.371s1.68.532,1.68,1.231a1.909,1.909,0,0,1-.056.532l-.728,3.36c.784,0,4.256-.168,4.984-.168a1.3,1.3,0,0,1,1.428,1.429c0,1.54-.756,1.624-5.964,1.624-.168,0-.9-.028-1.064-.028Z" fill="#333" stroke="#fff" stroke-linecap="round" stroke-linejoin="round" stroke-width="4"/>
    </g>
    <g id="Group_106" data-name="Group 106" transform="translate(64.708 51.204)">
      <path id="Path_1388" data-name="Path 1388" d="M132.756,2153.6v-2.08H128a2.107,2.107,0,1,1,0-4.2h4.759v-1.44c0-1.68,1.36-1.84,2.24-1.84,1.2,0,2.08.56,2.08,1.84v1.44h4.919a2.1,2.1,0,1,1,0,4.2h-4.919v2.08h1.84c2.6,0,4.438.639,4.438,4.319v7.239c0,3.319-1.439,4.319-4.319,4.319h-1.959v2.12h5.159a2.182,2.182,0,1,1,0,4.359h-5.159v3.879c0,.68,0,2.16-2.16,2.16s-2.16-1.52-2.16-2.16v-3.879h-5.2c-1.039,0-2.24-.28-2.24-2.2a1.953,1.953,0,0,1,2.24-2.159h5.2v-2.12h-1.919c-2.96,0-4.319-1.08-4.319-4.319v-7.239c0-3.28,1.4-4.319,4.319-4.319Zm.12,6.278v-2.959h-1.719a.836.836,0,0,0-.92.96v2Zm0,3.08h-2.639v2a.836.836,0,0,0,.92.96h1.719Zm4.08-3.08h2.759v-2a.862.862,0,0,0-.96-.96h-1.8Zm0,3.08v2.96h1.8a.849.849,0,0,0,.96-.96v-2Zm9.078-1.12a2.38,2.38,0,1,1,0-4.759h14.677a2.38,2.38,0,0,1,0,4.759h-7.4c-.72,4.08-1.92,9.918-2.879,13.518,2.4-.28,3.919-.44,6.558-.88-.24-1-.6-2.4-1-3.759-.84-2.72-.92-3.24-.92-3.76,0-1.6,1.679-1.879,2.359-1.879,1.44,0,1.68.36,3,4.4a62.013,62.013,0,0,1,2.36,10.118,2.178,2.178,0,0,1-2.52,2.16c-1.96,0-2.12-.92-2.44-3.12-2.359.44-11.038,1.88-12.6,1.88-2.2,0-2.2-2.24-2.2-2.48,0-2.039,1.279-2.119,2.719-2.2a118.977,118.977,0,0,0,2.68-14Zm1.24-11.238a2.34,2.34,0,1,1,0-4.679h12.518a2.34,2.34,0,1,1,0,4.679Z" fill="#009342"/>
      <path id="Path_1389" data-name="Path 1389" d="M183.475,2179.152c-3.68,0-4.48-.8-4.48-4.479v-7.839c0-3.639.76-4.479,4.48-4.479h2.6c3.639,0,4.479.8,4.479,4.479v8a28.535,28.535,0,0,0,2.2-2.2,82.469,82.469,0,0,1-1.08-11.718h-12.6a1.663,1.663,0,0,1-1.639-.84v19.8c0,.84-.121,2.08-1.92,2.08-1.4,0-2.16-.4-2.16-2.08v-4.279a53.328,53.328,0,0,1-6.439,1.48c-1.359,0-1.919-1.48-1.919-2.76,0-1.44.68-1.88,1.879-2.04v-22.436c-1.239-.12-1.639-1.16-1.639-2.239,0-2.2,1.359-2.28,2.2-2.28h9.239c.72,0,2.479,0,2.119,2.839.161-.159.48-.439,1.52-.439h2.32v-1.84a1.82,1.82,0,0,1,2.079-1.88c.84,0,2.12.24,2.12,1.88v1.84h2.56c.96,0,1.959.24,1.959,2.119,0,2-.959,2.16-1.879,2.2-.241,1.839-.32,2.319-.72,4.519h2.839c-.04-3.359-.12-7.479-.12-10.2,0-.84,0-2.32,2.16-2.32a2.061,2.061,0,0,1,1.84.76c.36.52.36.88.36,3.519v8.239h4.839c.76,0,2.439.04,2.439,2.08,0,1.559-.68,2.279-2.439,2.279h-4.719c.079,2.36.239,4.2.44,6.2.279-.64,1.519-3.6,1.759-4.079.4-.76.72-1,1.4-1,.72,0,2.559.32,2.559,1.72,0,1.12-2.039,5.879-4.679,9.718.16.6.8,2.76,1.64,2.76.4,0,.68-.4,1-1.52.24-.92.44-1.64,1.48-1.64a2.058,2.058,0,0,1,2.159,2,10.864,10.864,0,0,1-1.759,4.719,3.894,3.894,0,0,1-3.48,2.04c-2.36,0-3.68-2.08-4.479-4.2a38.2,38.2,0,0,1-4,3.4,2.29,2.29,0,0,1-3.64-1.88Zm-10.119-29.275h-2.4v4.2h2.4Zm0,8.319h-2.4v4.4h2.4Zm-2.4,13.438c.52-.081,1.279-.24,2.4-.48v-4.36h-2.4Zm9.6-15.078a36.452,36.452,0,0,0-.64-4.559c-1.959-.16-1.76-2.08-1.68-2.56a1.387,1.387,0,0,1-.8.4v7.519a1.716,1.716,0,0,1,1.639-.8Zm2.2,12.2h4v-1.64c0-.68-.32-1-.96-1h-2.08c-.6,0-.959.281-.959,1Zm0,3.559v1.88a.848.848,0,0,0,.959.96h2.08c.6,0,.96-.24.96-.96v-1.88Zm.6-20.276c.081.64.48,3.8.48,4.519h1.6a39.851,39.851,0,0,0,.56-4.519Zm16.918,3.119c-1.2,0-1.32-.48-2-2.559-.36-1.16-1.12-3.12-1.4-3.88a3.268,3.268,0,0,1-.281-1.159c0-.96,1.2-1.76,2.32-1.76,1.04,0,1.36.6,1.839,1.76a29.97,29.97,0,0,1,1.92,5.6C202.671,2154.716,201.032,2155.156,200.272,2155.156Z" fill="#009342"/>
      <path id="Path_1390" data-name="Path 1390" d="M221.434,2163a5.2,5.2,0,1,1-5.2-5.2A5.215,5.215,0,0,1,221.434,2163Z" fill="#009342"/>
      <path id="Path_1391" data-name="Path 1391" d="M264.751,2176.153a2.138,2.138,0,0,1,2.4,2.359,2.24,2.24,0,0,1-2.44,2.44H247.435c-2.24,0-7.279-.08-10-4.479a35.609,35.609,0,0,1-2.6,3.2c-1.24,1.32-1.72,1.8-2.8,1.8a2.928,2.928,0,0,1-2.759-3c0-1.119.519-1.519,1.68-2.439a31.379,31.379,0,0,0,3.4-3.12v-7.958c0-.28,0-1.2-.92-1.2h-1.76a2.065,2.065,0,0,1-2.32-2.24c0-1.76.681-2.559,2.48-2.559h2.84c3.679,0,4.479.8,4.479,4.479v7.439c.56,4,3.76,5.279,7.559,5.279Zm-28.515-29.635a37.306,37.306,0,0,1,3.88,3.479,2.119,2.119,0,0,1,.48,1.36,2.851,2.851,0,0,1-2.64,2.759c-.88,0-1.08-.2-3.08-2-.8-.72-2.039-1.8-2.759-2.36-1.559-1.2-2-1.68-2-2.6a2.788,2.788,0,0,1,2.479-2.64C233.2,2144.518,233.717,2144.518,236.236,2146.518Zm11.359,14.4v8.2c.559-.12,5.119-.88,5.279-.88,1.959,0,2.039,1.92,2.039,2.36,0,1.479-.919,1.839-2.12,2.159a67,67,0,0,1-9.478,1.68,2.312,2.312,0,0,1-2.4-2.519,1.844,1.844,0,0,1,1.759-2.04v-20.157c0-3.679.76-4.479,4.48-4.479h13.637c3.64,0,4.479.72,4.479,4.479v6.719c0,3.639-.759,4.479-4.479,4.479h-5.359a10.161,10.161,0,0,0,2.12,4.12c1.04-.76,3.079-2.36,3.759-3,1-.92,1.44-1.24,2.32-1.24a2.4,2.4,0,0,1,2.36,2.28c0,.64,0,1.44-5.119,4.919a38.385,38.385,0,0,0,4.639,2.44,1.943,1.943,0,0,1,1.239,1.839c0,1.04-.8,2.8-2.479,2.8-2.84,0-11.838-5.679-13.478-14.158Zm0-9.4h12.758v-1.32a.784.784,0,0,0-.88-.88h-11a.767.767,0,0,0-.88.88Zm0,3.319v2.24h11.878a.782.782,0,0,0,.88-.88v-1.36Z" fill="#009342"/>
      <path id="Path_1392" data-name="Path 1392" d="M287.475,2179.152c-3.68,0-4.48-.8-4.48-4.479v-7.839c0-3.639.76-4.479,4.48-4.479h2.6c3.639,0,4.479.8,4.479,4.479v8a28.535,28.535,0,0,0,2.2-2.2,82.47,82.47,0,0,1-1.08-11.718h-12.6a1.663,1.663,0,0,1-1.639-.84v19.8c0,.84-.121,2.08-1.92,2.08-1.4,0-2.16-.4-2.16-2.08v-4.279a53.327,53.327,0,0,1-6.439,1.48c-1.359,0-1.919-1.48-1.919-2.76,0-1.44.68-1.88,1.879-2.04v-22.436c-1.239-.12-1.639-1.16-1.639-2.239,0-2.2,1.359-2.28,2.2-2.28h9.239c.72,0,2.479,0,2.119,2.839.161-.159.48-.439,1.52-.439h2.32v-1.84a1.82,1.82,0,0,1,2.079-1.88c.84,0,2.12.24,2.12,1.88v1.84h2.56c.96,0,1.959.24,1.959,2.119,0,2-.959,2.16-1.879,2.2-.241,1.839-.32,2.319-.72,4.519h2.839c-.04-3.359-.12-7.479-.12-10.2,0-.84,0-2.32,2.16-2.32a2.061,2.061,0,0,1,1.84.76c.36.52.36.88.36,3.519v8.239h4.839c.76,0,2.439.04,2.439,2.08,0,1.559-.68,2.279-2.439,2.279h-4.719c.079,2.36.239,4.2.44,6.2.279-.64,1.519-3.6,1.759-4.079.4-.76.72-1,1.4-1,.72,0,2.559.32,2.559,1.72,0,1.12-2.039,5.879-4.679,9.718.16.6.8,2.76,1.64,2.76.4,0,.68-.4,1-1.52.24-.92.44-1.64,1.48-1.64a2.058,2.058,0,0,1,2.159,2,10.864,10.864,0,0,1-1.759,4.719,3.894,3.894,0,0,1-3.48,2.04c-2.36,0-3.68-2.08-4.479-4.2a38.2,38.2,0,0,1-4,3.4,2.29,2.29,0,0,1-3.64-1.88Zm-10.119-29.275h-2.4v4.2h2.4Zm0,8.319h-2.4v4.4h2.4Zm-2.4,13.438c.52-.081,1.279-.24,2.4-.48v-4.36h-2.4Zm9.6-15.078a36.457,36.457,0,0,0-.64-4.559c-1.959-.16-1.76-2.08-1.68-2.56a1.387,1.387,0,0,1-.8.4v7.519a1.716,1.716,0,0,1,1.639-.8Zm2.2,12.2h4v-1.64c0-.68-.32-1-.96-1h-2.08c-.6,0-.959.281-.959,1Zm0,3.559v1.88a.848.848,0,0,0,.959.96h2.08c.6,0,.96-.24.96-.96v-1.88Zm.6-20.276c.081.64.48,3.8.48,4.519h1.6a39.841,39.841,0,0,0,.56-4.519Zm16.918,3.119c-1.2,0-1.32-.48-2-2.559-.36-1.16-1.12-3.12-1.4-3.88a3.269,3.269,0,0,1-.281-1.159c0-.96,1.2-1.76,2.32-1.76,1.04,0,1.36.6,1.839,1.76a29.97,29.97,0,0,1,1.92,5.6C306.671,2154.716,305.032,2155.156,304.272,2155.156Z" fill="#009342"/>
      <path id="Path_1393" data-name="Path 1393" d="M178.83,2210.128a10.076,10.076,0,0,1-2.1,6.748c-1.427,1.736-4.339,3.472-5.543,3.472a1.672,1.672,0,0,1-1.6-1.624c0-.756.448-.98,1.6-1.484.672-.308,3.612-1.624,4.312-4.283a4.408,4.408,0,0,1-3.276,1.287,5.307,5.307,0,0,1-5.264-5.656,5.453,5.453,0,0,1,5.6-5.655,5.011,5.011,0,0,1,3.3,1.175l-.056-2.8-8.008.195c-.672.028-3.64.141-4.256.141-.448,0-1.652,0-1.652-1.485,0-1.008.644-1.371,1.484-1.4.644-.028,3.584-.028,4.2-.028l8.176-.168-.056-2.352c-.028-.755.223-1.54,1.512-1.54a1.346,1.346,0,0,1,1.484,1.513l.028,2.323,2.52-.055c.588,0,3.248-.169,3.808-.169.924,0,1.568.337,1.568,1.456,0,1.177-.756,1.316-1.009,1.344-.447.084-3.695.057-4.4.084l-2.463.057Zm-6.076-4.592a2.856,2.856,0,0,0-2.884,3.052,2.825,2.825,0,0,0,2.884,3.052,2.967,2.967,0,0,0,2.912-3.108A2.846,2.846,0,0,0,172.754,2205.536Z" fill="#333"/>
      <path id="Path_1394" data-name="Path 1394" d="M195.546,2199.46c-.644,0-1.764,0-1.764-1.456,0-1.483,1.12-1.483,2.072-1.483,2.184,0,3.416,0,6.356-.141.812-.056,4.508-.42,5.1-.42,1.624,0,2.016,1.092,2.016,1.681,0,.672-.168.783-1.764,1.96-3.92,2.883-5.068,3.863-6.748,5.235a13.54,13.54,0,0,1,4.34-.812c6.1,0,8.2,4.088,8.2,7.28,0,5.1-4.4,8.456-10.052,8.456-3.276,0-7.532-1.26-7.532-4.7,0-2.072,1.624-4.088,4.844-4.088a7.58,7.58,0,0,1,5.544,2.52,8.8,8.8,0,0,1,1.456,2.464,5.1,5.1,0,0,0,2.66-4.535c0-4.9-5.292-4.9-6.132-4.9-4.172,0-7.336,2.128-9.66,4.227-1.4,1.233-1.568,1.372-2.1,1.372a1.616,1.616,0,0,1-1.54-1.568c0-.588.2-.756,1.988-2.212,3.752-3.107,7.644-6.356,11.452-9.52C201.734,2199.068,198.038,2199.46,195.546,2199.46Zm4.9,14.056c-1.456,0-1.932.924-1.932,1.54,0,1.4,2.436,2.128,4.4,2.128a9.457,9.457,0,0,0,1.988-.2C204,2214.8,202.546,2213.516,200.446,2213.516Z" fill="#333"/>
      <path id="Path_1395" data-name="Path 1395" d="M225.226,2201.588c.168-.812.812-4.423.952-5.151a1.271,1.271,0,0,1,1.456-1.205c1.036,0,1.6.533,1.6,1.176a45.346,45.346,0,0,1-.924,4.844c6.608-.419,7.728,2.94,7.728,7.672,0,9.352-2.912,10.276-6.16,10.276-2.688,0-3.584-.476-3.584-1.708,0-.924.5-1.484,1.2-1.484.42,0,1.624.224,2.128.224,1.54,0,3.36-.252,3.36-7.392,0-2.8-.168-4.816-3.556-4.816-.532,0-1.036.028-1.82.084a59.894,59.894,0,0,1-4.676,12.74c-.84,1.569-1.232,2.268-2.044,2.268a1.623,1.623,0,0,1-1.708-1.456c0-.336.252-.784.952-2.044a49.185,49.185,0,0,0,4.368-11.172c-.784.112-4.592.728-4.928.728a1.323,1.323,0,0,1-1.288-1.484c0-1.176.756-1.372,1.764-1.483Zm14.84.225a18.642,18.642,0,0,1,2.632,7.9c0,1.008-.672,1.512-1.708,1.512-1.148,0-1.261-.392-1.54-2.156a18.755,18.755,0,0,0-3.248-7.587c-.728-.98-.869-1.205-.869-1.6a1.5,1.5,0,0,1,1.569-1.316C237.966,2198.564,239.085,2200.188,240.066,2201.813Z" fill="#333"/>
      <path id="Path_1396" data-name="Path 1396" d="M255.27,2206.769c.588,0,1.036,0,2.968-.057.392,0,2.156-.111,2.52-.111a1.326,1.326,0,0,1,1.512,1.483c0,1.457-1.008,1.484-2.464,1.568-1.428.056-4.62.084-5.124.084a15.733,15.733,0,0,0-.252,2.577c0,2.295,1.2,4.228,5.684,4.228,1.96,0,6.216-.393,6.216-4.621a7.782,7.782,0,0,0-.644-2.94,3.317,3.317,0,0,1-.364-1.12c0-.868.924-1.288,1.6-1.288a1.531,1.531,0,0,1,1.457,1.009,10.525,10.525,0,0,1,1.036,4.535c0,4.144-2.632,7.336-9.24,7.336-4.76,0-8.708-1.82-8.708-7.168a20,20,0,0,1,.224-2.632c-4.4-.168-5.208-.56-5.208-1.848a1.385,1.385,0,0,1,1.428-1.54c.2,0,1.176.168,1.428.2a20.774,20.774,0,0,0,2.912.252l.756-3.695c-4.788-.2-5.32-.673-5.32-1.792a1.374,1.374,0,0,1,1.428-1.54c.252,0,1.344.168,1.568.195.588.084,1.9.2,2.912.252l.756-3.668c.14-.644.336-1.371,1.428-1.371s1.68.532,1.68,1.231a1.909,1.909,0,0,1-.056.532l-.728,3.36c.784,0,4.256-.168,4.984-.168a1.3,1.3,0,0,1,1.428,1.429c0,1.54-.756,1.624-5.964,1.624-.168,0-.9-.028-1.064-.028Z" fill="#333"/>
    </g>
  </g>
</svg>
