<svg xmlns="http://www.w3.org/2000/svg" xmlns:xlink="http://www.w3.org/1999/xlink" width="58.379" height="53.753" viewBox="0 0 58.379 53.753">
  <defs>
    <linearGradient id="linear-gradient" x1="-159.79" y1="0.824" x2="-159.066" y2="0.079" gradientUnits="objectBoundingBox">
      <stop offset="0.035" stop-color="#878787"/>
      <stop offset="0.861" stop-color="#fff"/>
    </linearGradient>
    <linearGradient id="linear-gradient-2" x1="-161.45" y1="0.824" x2="-160.725" y2="0.079" gradientUnits="objectBoundingBox">
      <stop offset="0" stop-color="#fff"/>
      <stop offset="0.732" stop-color="#d1d1d1"/>
    </linearGradient>
  </defs>
  <g id="Group_472" data-name="Group 472" transform="translate(-160 -2649.056)">
    <g id="Group_210" data-name="Group 210">
      <g id="Group_209" data-name="Group 209">
        <g id="Group_207" data-name="Group 207" style="mix-blend-mode: multiply;isolation: isolate">
          <path id="Path_2897" data-name="Path 2897" d="M186.6,2651.337a34.977,34.977,0,0,1,13.331,2.081c6.1,2.124,12.7,6.188,16.274,13.726,2.123,4.479,2.526,10.853,1.918,16.583s-2.225,10.815-4.143,12.716c-5.531,5.482-17.361,7.723-28.28,5.442s-20.929-9.085-22.82-21.693c-.294-1.957,1.794-8.633,5.876-15.088S178.913,2652.414,186.6,2651.337Z" fill="#fff" opacity="0"/>
          <path id="Path_2898" data-name="Path 2898" d="M168.908,2665.035c4.05-6.365,10.064-12.507,17.655-13.578a33.872,33.872,0,0,1,12.59,1.84q.291.1.583.2a34.313,34.313,0,0,1,7.4,3.635,23.672,23.672,0,0,1,8.691,9.868c2.064,4.442,2.623,10.7,1.883,16.472-.728,5.676-2.205,10.7-4.15,12.585-2.5,2.441-6.217,4.183-10.563,5.228a41.254,41.254,0,0,1-17.425.079c-10.784-2.122-20.682-8.953-22.554-21.335C162.721,2678.077,164.82,2671.438,168.908,2665.035Z" fill="#fcfcfc" opacity="0.024"/>
          <path id="Path_2899" data-name="Path 2899" d="M169.062,2664.966c4.018-6.276,9.969-12.323,17.466-13.389a33.184,33.184,0,0,1,12.44,1.8c.191.063.384.128.576.2a35.457,35.457,0,0,1,7.31,3.589,22.468,22.468,0,0,1,8.6,9.692c2.005,4.4,2.722,10.55,1.848,16.361-.845,5.62-2.188,10.579-4.156,12.454-2.525,2.406-6.175,4.067-10.473,5.136-5.407,1.344-11.413,1.107-17.225.036-10.649-1.964-20.406-8.827-22.287-20.978C162.861,2677.918,164.968,2671.316,169.062,2664.966Z" fill="#f9f9f9" opacity="0.049"/>
          <path id="Path_2900" data-name="Path 2900" d="M169.215,2664.9c4-6.177,9.877-12.123,17.278-13.2a32.58,32.58,0,0,1,12.29,1.759c.189.062.379.127.568.193a37.064,37.064,0,0,1,7.219,3.542,21.4,21.4,0,0,1,8.51,9.516,29.222,29.222,0,0,1,1.814,16.251c-.959,5.563-2.17,10.46-4.163,12.323-2.54,2.373-6.13,3.961-10.382,5.044-5.435,1.385-11.307.973-17.024-.008-10.515-1.8-20.146-8.7-22.02-20.62C163,2677.76,165.131,2671.2,169.215,2664.9Z" fill="#f6f6f6" opacity="0.073"/>
          <path id="Path_2901" data-name="Path 2901" d="M169.369,2664.828c3.973-6.085,9.783-11.935,17.089-13.011a31.928,31.928,0,0,1,12.14,1.719q.28.092.56.191a38.99,38.99,0,0,1,7.128,3.494,20.379,20.379,0,0,1,8.42,9.341,28.071,28.071,0,0,1,1.779,16.139c-1.071,5.507-2.151,10.343-4.169,12.192-2.556,2.342-6.087,3.855-10.292,4.953-5.462,1.426-11.2.84-16.824-.052-10.381-1.645-19.886-8.569-21.753-20.262C163.138,2677.6,165.283,2671.084,169.369,2664.828Z" fill="#f3f3f3" opacity="0.098"/>
          <path id="Path_2902" data-name="Path 2902" d="M169.523,2664.758c3.945-5.991,9.689-11.746,16.9-12.821a31.33,31.33,0,0,1,11.99,1.678c.184.06.369.123.553.189a41.285,41.285,0,0,1,7.036,3.447,19.418,19.418,0,0,1,8.33,9.165,26.969,26.969,0,0,1,1.744,16.029c-1.179,5.448-2.132,10.225-4.176,12.061-2.571,2.309-6.042,3.749-10.2,4.861-5.49,1.467-11.1.706-16.623-.095-10.249-1.486-19.627-8.44-21.487-19.905C163.277,2677.443,165.436,2670.965,169.523,2664.758Z" fill="#f0f0f0" opacity="0.122"/>
          <path id="Path_2903" data-name="Path 2903" d="M169.676,2664.689c3.917-5.9,9.6-11.559,16.712-12.632a30.7,30.7,0,0,1,11.84,1.638q.273.088.545.186a43.928,43.928,0,0,1,6.944,3.4,18.5,18.5,0,0,1,8.241,8.989,25.927,25.927,0,0,1,1.709,15.919c-1.285,5.39-2.112,10.106-4.182,11.929-2.586,2.278-6,3.645-10.111,4.77-5.517,1.509-10.99.573-16.423-.139-10.116-1.326-19.369-8.311-21.22-19.547C163.415,2677.284,165.588,2670.846,169.676,2664.689Z" fill="#ededed" opacity="0.146"/>
          <path id="Path_2904" data-name="Path 2904" d="M169.83,2664.62c3.889-5.807,9.5-11.372,16.524-12.443a30.07,30.07,0,0,1,11.689,1.6q.27.089.537.184a47.268,47.268,0,0,1,6.853,3.353,17.638,17.638,0,0,1,8.151,8.814c1.71,4.216,3.246,9.769,1.674,15.807-1.388,5.332-2.093,9.989-4.188,11.8-2.6,2.246-5.954,3.54-10.022,4.678-5.544,1.552-10.884.441-16.221-.182-9.985-1.166-19.111-8.182-20.954-19.191C163.553,2677.126,165.74,2670.727,169.83,2664.62Z" fill="#eaeaea" opacity="0.171"/>
          <path id="Path_2905" data-name="Path 2905" d="M169.984,2664.551c3.86-5.715,9.406-11.185,16.335-12.254a29.437,29.437,0,0,1,11.539,1.556c.177.058.354.119.53.182a51.56,51.56,0,0,1,6.761,3.306,16.809,16.809,0,0,1,8.06,8.638c1.652,4.179,3.358,9.611,1.64,15.7-1.489,5.273-2.074,9.871-4.195,11.667-2.616,2.215-5.909,3.436-9.931,4.587-5.571,1.594-10.78.308-16.02-.226-9.856-1-18.855-8.052-20.688-18.833C163.692,2676.968,165.892,2670.608,169.984,2664.551Z" fill="#e7e7e7" opacity="0.195"/>
          <path id="Path_2906" data-name="Path 2906" d="M170.137,2664.482c3.832-5.623,9.313-11,16.147-12.065a28.819,28.819,0,0,1,11.389,1.516c.175.057.349.117.522.179a56.774,56.774,0,0,1,6.67,3.26,16.018,16.018,0,0,1,7.97,8.462c1.593,4.14,3.471,9.451,1.6,15.586-1.586,5.214-2.054,9.753-4.2,11.536-2.631,2.184-5.864,3.333-9.841,4.495-5.6,1.637-10.676.177-15.82-.269a22.559,22.559,0,0,1-20.421-18.476C163.83,2676.809,166.044,2670.489,170.137,2664.482Z" fill="#e4e4e4" opacity="0.22"/>
          <path id="Path_2907" data-name="Path 2907" d="M170.291,2664.413c3.8-5.531,9.218-10.813,15.958-11.876a28.222,28.222,0,0,1,11.239,1.475q.259.086.514.177a64.022,64.022,0,0,1,6.578,3.213,15.271,15.271,0,0,1,7.881,8.286c1.534,4.1,3.586,9.292,1.57,15.475-1.682,5.156-2.034,9.637-4.208,11.405-2.645,2.153-5.819,3.23-9.75,4.4-5.626,1.681-10.572.045-15.619-.313a22.1,22.1,0,0,1-20.155-18.118C163.968,2676.651,166.2,2670.37,170.291,2664.413Z" fill="#e1e1e1" opacity="0.244"/>
          <path id="Path_2908" data-name="Path 2908" d="M170.445,2664.343c3.773-5.438,9.123-10.627,15.769-11.686a27.62,27.62,0,0,1,11.089,1.435c.171.055.339.113.507.175,2.132.779,4.075,1.988,6.486,3.165a14.558,14.558,0,0,1,7.791,8.111c1.475,4.065,3.7,9.132,1.535,15.364-1.774,5.1-2.014,9.519-4.214,11.274-2.66,2.122-5.775,3.127-9.66,4.312-5.654,1.725-10.469-.086-15.419-.356a21.633,21.633,0,0,1-19.887-17.761C164.106,2676.492,166.347,2670.251,170.445,2664.343Z" fill="#dedede" opacity="0.268"/>
          <path id="Path_2909" data-name="Path 2909" d="M170.6,2664.274c3.744-5.347,9.03-10.441,15.581-11.5a27.059,27.059,0,0,1,10.939,1.394c.168.055.334.112.5.173,2.1.771,3.983,1.982,6.395,3.118,3.277,1.544,6.292,3.923,7.7,7.935,1.415,4.028,3.823,8.972,1.5,15.253-1.865,5.04-1.994,9.4-4.221,11.144-2.673,2.09-5.729,3.024-9.569,4.22-5.681,1.769-10.366-.216-15.218-.4a21.169,21.169,0,0,1-19.621-17.4C164.244,2676.334,166.5,2670.131,170.6,2664.274Z" fill="#dbdbdb" opacity="0.293"/>
          <path id="Path_2910" data-name="Path 2910" d="M170.752,2664.205c3.714-5.255,8.935-10.256,15.392-11.309a26.488,26.488,0,0,1,10.79,1.355c.165.053.328.11.49.17,2.067.763,3.892,1.976,6.3,3.071,3.256,1.479,6.261,3.785,7.61,7.759,1.357,3.99,3.946,8.813,1.466,15.143-1.953,4.982-1.974,9.285-4.227,11.012-2.687,2.06-5.685,2.923-9.479,4.129-5.708,1.814-10.264-.346-15.017-.444-9.217-.189-17.582-7.405-19.355-17.046C164.382,2676.176,166.649,2670.012,170.752,2664.205Z" fill="#d8d8d8" opacity="0.317"/>
          <path id="Path_2911" data-name="Path 2911" d="M170.906,2664.136c3.684-5.164,8.84-10.072,15.2-11.12a25.912,25.912,0,0,1,10.64,1.314c.163.053.323.109.483.168,2.033.755,3.8,1.97,6.212,3.024,3.235,1.414,6.229,3.646,7.52,7.584s4.071,8.654,1.43,15.032c-2.038,4.924-1.953,9.167-4.233,10.881-2.7,2.03-5.639,2.822-9.388,4.037-5.735,1.86-10.161-.475-14.817-.487-9.091-.024-17.329-7.276-19.088-16.689C164.52,2676.017,166.8,2669.892,170.906,2664.136Z" fill="#d5d5d5" opacity="0.341"/>
          <path id="Path_2912" data-name="Path 2912" d="M171.059,2664.067c3.654-5.073,8.746-9.887,15.015-10.931a25.348,25.348,0,0,1,10.49,1.274c.16.052.319.107.475.165,2,.747,3.707,1.965,6.12,2.977,3.215,1.349,6.2,3.508,7.431,7.408,1.239,3.915,4.2,8.5,1.4,14.921-2.122,4.868-1.933,9.051-4.239,10.75-2.715,2-5.6,2.721-9.3,3.946-5.761,1.906-10.059-.6-14.615-.531-8.967.143-17.077-7.146-18.822-16.331C164.657,2675.859,166.95,2669.772,171.059,2664.067Z" fill="#d2d2d2" opacity="0.366"/>
          <path id="Path_2913" data-name="Path 2913" d="M171.213,2664c3.623-4.982,8.651-9.7,14.827-10.742a24.771,24.771,0,0,1,10.339,1.233c.158.051.314.106.467.163,1.968.739,3.615,1.96,6.029,2.931,3.194,1.284,6.167,3.368,7.341,7.232s4.326,8.337,1.36,14.81c-2.2,4.811-1.912,8.934-4.245,10.619-2.729,1.969-5.55,2.621-9.209,3.854-5.788,1.952-9.957-.731-14.415-.574-8.843.31-16.826-7.016-18.555-15.974C164.795,2675.7,167.1,2669.652,171.213,2664Z" fill="#cfcfcf" opacity="0.39"/>
          <path id="Path_2914" data-name="Path 2914" d="M171.367,2663.929c3.592-4.891,8.556-9.519,14.638-10.553a24.218,24.218,0,0,1,10.189,1.193c.156.05.309.1.46.16,1.934.731,3.521,1.955,5.937,2.884,3.173,1.22,6.136,3.23,7.25,7.056s4.458,8.181,1.326,14.7c-2.285,4.755-1.891,8.817-4.252,10.487-2.741,1.94-5.5,2.521-9.118,3.763-5.815,2-9.856-.857-14.214-.618-8.721.479-16.576-6.886-18.289-15.616C164.933,2675.542,167.25,2669.532,171.367,2663.929Z" fill="#ccc" opacity="0.415"/>
          <path id="Path_2915" data-name="Path 2915" d="M171.52,2663.859c3.562-4.8,8.462-9.335,14.45-10.363a23.661,23.661,0,0,1,10.039,1.152q.229.074.452.159c1.9.722,3.429,1.949,5.846,2.836,3.151,1.156,6.1,3.091,7.16,6.88s4.592,8.025,1.291,14.589c-2.364,4.7-1.871,8.7-4.258,10.357-2.755,1.91-5.459,2.421-9.028,3.671-5.841,2.047-9.756-.983-14.014-.661-8.6.649-16.326-6.756-18.022-15.259C165.07,2675.383,167.4,2669.412,171.52,2663.859Z" fill="#c9c9c9" opacity="0.439"/>
          <path id="Path_2916" data-name="Path 2916" d="M171.674,2663.79c3.531-4.709,8.367-9.152,14.261-10.174a23.124,23.124,0,0,1,9.889,1.112q.227.072.444.156c1.868.714,3.336,1.945,5.754,2.789,3.13,1.092,6.074,2.953,7.071,6.7s4.727,7.87,1.256,14.478c-2.441,4.647-1.85,8.585-4.265,10.225-2.767,1.881-5.413,2.322-8.937,3.58-5.868,2.1-9.655-1.108-13.813-.7-8.477.822-16.078-6.626-17.755-14.9C165.208,2675.225,167.549,2669.292,171.674,2663.79Z" fill="#c6c6c6" opacity="0.463"/>
          <path id="Path_2917" data-name="Path 2917" d="M171.828,2663.721c3.5-4.618,8.272-8.969,14.072-9.985a22.6,22.6,0,0,1,9.739,1.071c.149.048.294.1.437.154,1.835.706,3.242,1.941,5.662,2.742,3.108,1.03,6.042,2.814,6.981,6.529s4.865,7.716,1.221,14.367c-2.517,4.595-1.829,8.469-4.271,10.095-2.781,1.851-5.367,2.223-8.847,3.488-5.894,2.144-9.555-1.232-13.612-.749-8.356,1-15.83-6.5-17.489-14.544C165.345,2675.067,167.7,2669.171,171.828,2663.721Z" fill="#c3c3c3" opacity="0.488"/>
          <path id="Path_2918" data-name="Path 2918" d="M171.981,2663.652c3.468-4.528,8.178-8.786,13.884-9.8a22.063,22.063,0,0,1,9.589,1.031c.146.046.289.1.429.151,1.8.7,3.149,1.937,5.571,2.695,3.086.967,6.01,2.676,6.891,6.354s5.005,7.564,1.186,14.256c-2.591,4.542-1.808,8.353-4.278,9.963-2.793,1.822-5.321,2.125-8.756,3.4-5.92,2.192-9.455-1.356-13.412-.793-8.235,1.171-15.582-6.365-17.222-14.187C165.482,2674.908,167.847,2669.051,171.981,2663.652Z" fill="#c1c1c1" opacity="0.512"/>
          <path id="Path_2919" data-name="Path 2919" d="M172.135,2663.583c3.436-4.438,8.083-8.6,13.7-9.607a21.539,21.539,0,0,1,9.439.99c.144.046.284.1.421.149,1.769.69,3.056,1.933,5.48,2.648,3.064.905,5.979,2.537,6.8,6.178s5.147,7.413,1.152,14.146c-2.665,4.49-1.787,8.237-4.284,9.832-2.806,1.792-5.275,2.027-8.666,3.306-5.946,2.242-9.355-1.478-13.211-.837-8.115,1.349-15.337-6.234-16.956-13.829C165.619,2674.75,168,2668.93,172.135,2663.583Z" fill="#bebebe" opacity="0.537"/>
          <path id="Path_2920" data-name="Path 2920" d="M172.289,2663.514c3.4-4.348,7.988-8.421,13.506-9.418a21.018,21.018,0,0,1,9.289.95c.142.045.279.094.414.146,1.736.682,2.962,1.93,5.388,2.6,3.041.842,5.947,2.4,6.71,6s5.291,7.263,1.117,14.034c-2.737,4.44-1.765,8.122-4.291,9.7-2.818,1.763-5.229,1.928-8.576,3.214-5.971,2.292-9.254-1.6-13.01-.88-7.994,1.529-15.09-6.1-16.689-13.472C165.756,2674.592,168.144,2668.809,172.289,2663.514Z" fill="#bbb" opacity="0.561"/>
          <path id="Path_2921" data-name="Path 2921" d="M172.442,2663.444c3.371-4.258,7.894-8.238,13.318-9.228a20.516,20.516,0,0,1,9.14.909q.207.066.4.144c1.7.674,2.869,1.927,5.3,2.555,3.02.781,5.917,2.259,6.621,5.826s5.436,7.116,1.082,13.924c-2.808,4.391-1.744,8.006-4.3,9.57-2.831,1.735-5.183,1.831-8.486,3.123-6,2.343-9.154-1.718-12.809-.924-7.875,1.711-14.846-5.972-16.423-13.114C165.893,2674.433,168.293,2668.687,172.442,2663.444Z" fill="#b8b8b8" opacity="0.585"/>
          <path id="Path_2922" data-name="Path 2922" d="M172.6,2663.375c3.338-4.168,7.8-8.056,13.13-9.04a20.022,20.022,0,0,1,8.989.87c.136.043.268.09.4.142,1.67.665,2.775,1.923,5.205,2.507,3,.72,5.885,2.121,6.531,5.65s5.583,6.97,1.047,13.814c-2.879,4.342-1.723,7.89-4.3,9.439-2.843,1.706-5.136,1.734-8.4,3.031-6.021,2.4-9.054-1.836-12.608-.967-7.755,1.9-14.6-5.842-16.157-12.757C166.03,2674.275,168.44,2668.566,172.6,2663.375Z" fill="#b5b5b5" opacity="0.61"/>
          <path id="Path_2923" data-name="Path 2923" d="M172.75,2663.306c3.3-4.079,7.7-7.875,12.941-8.851a19.548,19.548,0,0,1,8.839.829c.134.042.263.089.39.14,1.636.657,2.681,1.921,5.113,2.46,2.974.659,5.854,1.982,6.441,5.475s5.732,6.825,1.012,13.7c-2.948,4.295-1.7,7.776-4.31,9.308-2.855,1.678-5.09,1.638-8.3,2.94-6.046,2.448-8.954-1.953-12.408-1.011-7.633,2.083-14.359-5.71-15.889-12.4C166.166,2674.117,168.588,2668.444,172.75,2663.306Z" fill="#b2b2b2" opacity="0.634"/>
          <path id="Path_2924" data-name="Path 2924" d="M172.9,2663.237c3.271-3.99,7.608-7.693,12.752-8.662a19.055,19.055,0,0,1,8.689.789c.131.041.258.087.382.137,1.6.649,2.587,1.919,5.022,2.413,2.951.6,5.822,1.844,6.35,5.3s5.884,6.683.978,13.592c-3.017,4.248-1.68,7.66-4.316,9.177-2.868,1.649-5.043,1.541-8.215,2.848-6.07,2.5-8.853-2.069-12.207-1.054-7.512,2.272-14.117-5.579-15.623-12.043C166.3,2673.959,168.735,2668.322,172.9,2663.237Z" fill="#afafaf" opacity="0.659"/>
          <path id="Path_2925" data-name="Path 2925" d="M173.057,2663.168c3.238-3.9,7.514-7.512,12.564-8.473a18.564,18.564,0,0,1,8.539.748c.129.041.254.086.374.135,1.571.641,2.494,1.918,4.931,2.366,2.928.54,5.791,1.7,6.26,5.124s6.036,6.542.943,13.481c-3.085,4.2-1.658,7.545-4.323,9.045-2.88,1.622-5,1.445-8.124,2.757-6.094,2.555-8.752-2.184-12.007-1.1-7.389,2.465-13.875-5.447-15.356-11.685C166.438,2673.8,168.881,2668.2,173.057,2663.168Z" fill="#acacac" opacity="0.683"/>
          <path id="Path_2926" data-name="Path 2926" d="M173.211,2663.1c3.2-3.813,7.418-7.331,12.375-8.284a18.1,18.1,0,0,1,8.389.707c.127.04.249.085.367.133,1.537.633,2.4,1.917,4.838,2.319,2.906.48,5.76,1.567,6.171,4.948s6.19,6.4.908,13.37c-3.153,4.158-1.636,7.431-4.329,8.915-2.892,1.594-4.949,1.349-8.034,2.665-6.118,2.609-8.65-2.3-11.806-1.142-7.265,2.661-13.635-5.315-15.09-11.327C166.574,2673.642,169.028,2668.077,173.211,2663.1Z" fill="#a9a9a9" opacity="0.707"/>
          <path id="Path_2927" data-name="Path 2927" d="M173.365,2663.03c3.17-3.725,7.323-7.15,12.186-8.095a17.619,17.619,0,0,1,8.239.667c.124.039.244.082.359.13,1.505.625,2.306,1.916,4.747,2.273,2.883.421,5.729,1.427,6.081,4.771s6.345,6.268.872,13.26c-3.219,4.114-1.613,7.316-4.335,8.783-2.9,1.566-4.9,1.254-7.943,2.574-6.141,2.665-8.548-2.409-11.606-1.185-7.14,2.859-13.395-5.183-14.823-10.97C166.709,2673.484,169.174,2667.954,173.365,2663.03Z" fill="#a6a6a6" opacity="0.732"/>
          <path id="Path_2928" data-name="Path 2928" d="M173.518,2662.96c3.136-3.636,7.228-6.969,12-7.905a17.164,17.164,0,0,1,8.089.626q.183.057.351.128c1.472.617,2.212,1.916,4.656,2.226,2.86.363,5.7,1.289,5.99,4.6s6.5,6.132.838,13.148c-3.286,4.072-1.592,7.2-4.341,8.653-2.916,1.538-4.855,1.158-7.854,2.482-6.163,2.721-8.444-2.521-11.4-1.229-7.013,3.061-13.157-5.051-14.557-10.612C166.845,2673.327,169.319,2667.83,173.518,2662.96Z" fill="#a3a3a3" opacity="0.756"/>
          <path id="Path_2929" data-name="Path 2929" d="M173.672,2662.891c3.1-3.548,7.133-6.788,11.809-7.716a16.7,16.7,0,0,1,7.939.586,3.55,3.55,0,0,1,.344.126c1.438.608,2.118,1.915,4.564,2.178,2.838.305,5.666,1.15,5.9,4.42s6.661,6,.8,13.038c-3.353,4.029-1.57,7.088-4.348,8.522-2.928,1.511-4.807,1.062-7.763,2.39-6.186,2.778-8.34-2.631-11.2-1.272-6.883,3.265-12.919-4.919-14.291-10.256C166.979,2673.169,169.464,2667.706,173.672,2662.891Z" fill="#a0a0a0" opacity="0.78"/>
          <path id="Path_2930" data-name="Path 2930" d="M173.826,2662.822c3.066-3.461,7.037-6.608,11.62-7.527a16.257,16.257,0,0,1,7.789.545,3.515,3.515,0,0,1,.336.124c1.4.6,2.024,1.916,4.472,2.131,2.816.248,5.635,1.012,5.811,4.245s6.82,5.869.768,12.927c-3.419,3.988-1.548,6.974-4.354,8.39-2.94,1.484-4.759.968-7.673,2.3-6.208,2.835-8.235-2.74-11-1.316-6.75,3.473-12.681-4.786-14.024-9.9C167.114,2673.011,169.609,2667.582,173.826,2662.822Z" fill="#9d9d9d" opacity="0.805"/>
          <path id="Path_2931" data-name="Path 2931" d="M173.979,2662.753c3.031-3.374,6.942-6.428,11.433-7.338a15.82,15.82,0,0,1,7.638.5,3.145,3.145,0,0,1,.328.121c1.373.592,1.931,1.917,4.381,2.084,2.793.191,5.6.873,5.721,4.069s6.98,5.74.733,12.816c-3.485,3.949-1.526,6.861-4.361,8.26-2.951,1.457-4.711.873-7.582,2.207-6.229,2.894-8.129-2.848-10.8-1.359-6.615,3.682-12.445-4.653-13.757-9.541C167.248,2672.853,169.753,2667.457,173.979,2662.753Z" fill="#9a9a9a" opacity="0.829"/>
          <path id="Path_2932" data-name="Path 2932" d="M174.133,2662.684c3-3.287,6.847-6.248,11.244-7.149a15.394,15.394,0,0,1,7.488.464,3.18,3.18,0,0,1,.321.119c1.339.584,1.837,1.919,4.289,2.037,2.771.134,5.572.735,5.631,3.894s7.141,5.613.7,12.7c-3.551,3.91-1.5,6.747-4.367,8.128-2.964,1.43-4.663.779-7.492,2.116-6.25,2.953-8.021-2.955-10.6-1.4-6.476,3.9-12.209-4.519-13.49-9.183C167.381,2672.7,169.9,2667.332,174.133,2662.684Z" fill="#979797" opacity="0.854"/>
          <path id="Path_2933" data-name="Path 2933" d="M174.287,2662.615c2.959-3.2,6.751-6.069,11.055-6.96a14.971,14.971,0,0,1,7.339.424,3.092,3.092,0,0,1,.312.116c1.306.576,1.744,1.921,4.2,1.99,2.749.079,5.54.6,5.54,3.718s7.3,5.489.664,12.595c-3.617,3.871-1.482,6.633-4.373,8-2.976,1.4-4.616.685-7.4,2.024-6.271,3.013-7.912-3.062-10.4-1.447-6.333,4.111-11.975-4.385-13.224-8.825C167.514,2672.539,170.04,2667.206,174.287,2662.615Z" fill="#949494" opacity="0.878"/>
          <path id="Path_2934" data-name="Path 2934" d="M174.44,2662.545c2.924-3.113,6.656-5.888,10.867-6.77a14.554,14.554,0,0,1,7.189.383,2.658,2.658,0,0,1,.3.114c1.274.569,1.652,1.87,4.107,1.944,2.726.081,5.509.456,5.45,3.541s7.466,5.366.629,12.484c-3.683,3.835-1.46,6.52-4.38,7.866-2.987,1.377-4.567.591-7.311,1.933-6.291,3.075-7.8-3.168-10.2-1.49-6.187,4.328-11.742-4.251-12.958-8.468C167.647,2672.382,170.183,2667.079,174.44,2662.545Z" fill="#919191" opacity="0.902"/>
          <path id="Path_2935" data-name="Path 2935" d="M174.594,2662.476c2.888-3.027,6.56-5.709,10.678-6.582a14.146,14.146,0,0,1,7.039.344,2.492,2.492,0,0,1,.3.111c1.24.561,1.558,1.926,4.014,1.9,2.706-.033,5.478.318,5.361,3.366s7.63,5.245.594,12.373c-3.749,3.8-1.437,6.407-4.386,7.735-3,1.35-4.518.5-7.222,1.841-6.309,3.137-7.689-3.274-10-1.534-6.035,4.548-11.508-4.117-12.691-8.11C167.778,2672.225,170.325,2666.952,174.594,2662.476Z" fill="#8e8e8e" opacity="0.927"/>
          <path id="Path_2936" data-name="Path 2936" d="M174.748,2662.407c2.851-2.942,6.464-5.53,10.489-6.393a13.746,13.746,0,0,1,6.889.3,2.25,2.25,0,0,1,.289.11c1.207.552,1.465,1.929,3.923,1.849,2.685-.088,5.447.179,5.271,3.19s7.794,5.127.559,12.262c-3.815,3.763-1.415,6.295-4.393,7.6-3.011,1.325-4.469.4-7.131,1.75-6.328,3.2-7.575-3.38-9.8-1.577-5.88,4.768-11.277-3.982-12.425-7.754C167.909,2672.069,170.467,2666.824,174.748,2662.407Z" fill="#8b8b8b" opacity="0.951"/>
          <path id="Path_2937" data-name="Path 2937" d="M174.9,2662.338a21.354,21.354,0,0,1,10.3-6.2,13.324,13.324,0,0,1,6.739.263,2.075,2.075,0,0,1,.281.107c1.174.544,1.373,1.933,3.832,1.8,2.664-.142,5.415.041,5.181,3.015s7.959,5.009.524,12.151c-3.881,3.728-1.392,6.185-4.4,7.473s-4.421.311-7.041,1.658c-6.346,3.263-7.459-3.486-9.6-1.621-5.719,4.99-11.045-3.846-12.158-7.4C168.039,2671.912,170.6,2666.688,174.9,2662.338Z" fill="#888" opacity="0.976"/>
          <path id="Path_2938" data-name="Path 2938" d="M191.756,2656.476c1.407.422,1.371,2.056,4.014,1.86s5.384-.1,5.09,2.839,8.125,4.9.49,12.041c-3.948,3.694-1.371,6.069-4.406,7.342s-4.371.217-6.95,1.566c-6.363,3.328-7.342-3.593-9.4-1.664-5.554,5.211-10.815-3.711-11.891-7.039-.539-1.664,2.043-6.855,6.349-11.152S185.393,2654.567,191.756,2656.476Z" fill="#858585"/>
        </g>
        <g id="Group_208" data-name="Group 208" style="mix-blend-mode: multiply;isolation: isolate">
          <path id="Path_2939" data-name="Path 2939" d="M180.581,2684.825c1.618-1.882,8.635-10.01,13.485-7.082,31.621,19.092,15.787,27.359,6.713,24.522C185.629,2697.528,176.221,2689.9,180.581,2684.825Z" fill="#fff" opacity="0"/>
          <path id="Path_2940" data-name="Path 2940" d="M180.591,2684.8c1.608-1.885,8.574-9.955,13.384-7.045,31.318,18.915,15.7,27.249,6.69,24.413C185.621,2697.424,176.268,2689.837,180.591,2684.8Z" fill="#fefefe" opacity="0.01"/>
          <path id="Path_2941" data-name="Path 2941" d="M180.6,2684.768c1.6-1.882,8.513-9.9,13.283-7.007,31.014,18.739,15.608,27.139,6.667,24.3C185.613,2697.32,176.329,2689.787,180.6,2684.768Z" fill="#fdfdfd" opacity="0.02"/>
          <path id="Path_2942" data-name="Path 2942" d="M180.612,2684.74c1.6-1.883,8.452-9.842,13.18-6.97,30.712,18.562,15.519,27.029,6.646,24.2C185.6,2697.216,176.383,2689.732,180.612,2684.74Z" fill="#fcfcfc" opacity="0.029"/>
          <path id="Path_2943" data-name="Path 2943" d="M180.622,2684.712c1.588-1.884,8.391-9.787,13.079-6.932,30.408,18.384,15.43,26.918,6.623,24.087C185.6,2697.112,176.437,2689.676,180.622,2684.712Z" fill="#fbfbfb" opacity="0.039"/>
          <path id="Path_2944" data-name="Path 2944" d="M180.632,2684.684c1.581-1.884,8.33-9.731,12.977-6.9,30.106,18.207,15.341,26.808,6.6,23.978C185.589,2697.008,176.491,2689.62,180.632,2684.684Z" fill="#fafafa" opacity="0.049"/>
          <path id="Path_2945" data-name="Path 2945" d="M180.642,2684.656c1.573-1.885,8.262-9.664,12.876-6.858,29.759,18.1,15.252,26.7,6.579,23.869C185.581,2696.9,176.544,2689.564,180.642,2684.656Z" fill="#f9f9f9" opacity="0.059"/>
          <path id="Path_2946" data-name="Path 2946" d="M180.652,2684.627c1.566-1.885,8.2-9.606,12.775-6.82,29.449,17.936,15.162,26.588,6.556,23.761C185.573,2696.8,176.6,2689.509,180.652,2684.627Z" fill="#f8f8f8" opacity="0.069"/>
          <path id="Path_2947" data-name="Path 2947" d="M180.662,2684.6c1.559-1.886,8.139-9.548,12.673-6.783,29.139,17.771,15.074,26.478,6.534,23.652C185.565,2696.7,176.652,2689.453,180.662,2684.6Z" fill="#f7f7f7" opacity="0.078"/>
          <path id="Path_2948" data-name="Path 2948" d="M180.673,2684.571c1.551-1.887,8.076-9.491,12.571-6.746,28.829,17.606,14.985,26.368,6.511,23.544C185.557,2696.592,176.705,2689.4,180.673,2684.571Z" fill="#f6f6f6" opacity="0.088"/>
          <path id="Path_2949" data-name="Path 2949" d="M180.683,2684.543c1.544-1.888,8.014-9.433,12.469-6.708,28.519,17.44,14.9,26.257,6.49,23.434C185.549,2696.488,176.759,2689.34,180.683,2684.543Z" fill="#f5f5f5" opacity="0.098"/>
          <path id="Path_2950" data-name="Path 2950" d="M180.693,2684.515c1.536-1.888,7.952-9.376,12.368-6.671,28.208,17.275,14.807,26.148,6.467,23.326C185.54,2696.384,176.812,2689.284,180.693,2684.515Z" fill="#f4f4f4" opacity="0.108"/>
          <path id="Path_2951" data-name="Path 2951" d="M180.7,2684.486c1.529-1.888,7.89-9.317,12.267-6.633,27.9,17.109,14.717,26.038,6.444,23.217C185.532,2696.28,176.865,2689.227,180.7,2684.486Z" fill="#f3f3f3" opacity="0.118"/>
          <path id="Path_2952" data-name="Path 2952" d="M180.713,2684.458c1.522-1.889,7.828-9.26,12.165-6.6,27.588,16.944,14.623,25.944,6.422,23.109C185.515,2696.2,176.918,2689.171,180.713,2684.458Z" fill="#f2f2f2" opacity="0.127"/>
          <path id="Path_2953" data-name="Path 2953" d="M180.723,2684.43c1.515-1.89,7.766-9.2,12.064-6.559,27.278,16.778,14.533,25.836,6.4,23C185.506,2696.1,176.971,2689.114,180.723,2684.43Z" fill="#f1f1f1" opacity="0.137"/>
          <path id="Path_2954" data-name="Path 2954" d="M180.734,2684.4c1.507-1.891,7.7-9.145,11.961-6.522,26.969,16.613,14.444,25.727,6.378,22.892C185.5,2696,177.024,2689.057,180.734,2684.4Z" fill="#f0f0f0" opacity="0.147"/>
          <path id="Path_2955" data-name="Path 2955" d="M180.744,2684.374c1.5-1.892,7.641-9.087,11.86-6.484,26.658,16.446,14.354,25.617,6.355,22.782C185.488,2695.9,177.077,2689,180.744,2684.374Z" fill="#efefef" opacity="0.157"/>
          <path id="Path_2956" data-name="Path 2956" d="M180.754,2684.345c1.492-1.892,7.579-9.029,11.759-6.446,26.348,16.28,14.264,25.508,6.332,22.674C185.479,2695.8,177.13,2688.943,180.754,2684.345Z" fill="#eee" opacity="0.167"/>
          <path id="Path_2957" data-name="Path 2957" d="M180.764,2684.317c1.485-1.894,7.517-8.971,11.657-6.409,26.039,16.115,14.176,25.4,6.311,22.565C185.47,2695.694,177.182,2688.886,180.764,2684.317Z" fill="#ededed" opacity="0.176"/>
          <path id="Path_2958" data-name="Path 2958" d="M180.774,2684.289c1.478-1.9,7.455-8.914,11.556-6.372,25.728,15.949,14.086,25.291,6.288,22.457C185.462,2695.592,177.235,2688.829,180.774,2684.289Z" fill="#ececec" opacity="0.186"/>
          <path id="Path_2959" data-name="Path 2959" d="M180.784,2684.261c1.47-1.9,7.393-8.856,11.455-6.335,25.418,15.783,14,25.182,6.265,22.348C185.453,2695.49,177.287,2688.771,180.784,2684.261Z" fill="#ebebeb" opacity="0.196"/>
          <path id="Path_2960" data-name="Path 2960" d="M180.795,2684.233c1.462-1.9,7.33-8.8,11.352-6.3,25.109,15.616,13.907,25.072,6.244,22.239C185.444,2695.388,177.34,2688.714,180.795,2684.233Z" fill="#eaeaea" opacity="0.206"/>
          <path id="Path_2961" data-name="Path 2961" d="M180.8,2684.2c1.455-1.9,7.268-8.74,11.251-6.259,24.8,15.449,13.817,24.963,6.221,22.13C185.435,2695.286,177.392,2688.656,180.8,2684.2Z" fill="#e9e9e9" opacity="0.216"/>
          <path id="Path_2962" data-name="Path 2962" d="M180.815,2684.176c1.447-1.9,7.206-8.683,11.149-6.222,24.49,15.283,13.728,24.854,6.2,22.022C185.426,2695.184,177.444,2688.6,180.815,2684.176Z" fill="#e8e8e8" opacity="0.225"/>
          <path id="Path_2963" data-name="Path 2963" d="M180.825,2684.148c1.44-1.9,7.144-8.626,11.048-6.185,24.18,15.117,13.638,24.746,6.176,21.913C185.417,2695.082,177.5,2688.54,180.825,2684.148Z" fill="#e7e7e7" opacity="0.235"/>
          <path id="Path_2964" data-name="Path 2964" d="M180.835,2684.12c1.433-1.9,7.082-8.568,10.947-6.148,23.87,14.95,13.548,24.637,6.154,21.805C185.408,2694.979,177.548,2688.482,180.835,2684.12Z" fill="#e6e6e6" opacity="0.245"/>
          <path id="Path_2965" data-name="Path 2965" d="M180.845,2684.092c1.425-1.9,7.02-8.511,10.845-6.111,23.561,14.784,13.459,24.528,6.132,21.7C185.4,2694.877,177.6,2688.424,180.845,2684.092Z" fill="#e6e5e6" opacity="0.255"/>
          <path id="Path_2966" data-name="Path 2966" d="M180.856,2684.063c1.417-1.9,6.957-8.452,10.743-6.072,23.251,14.616,13.369,24.418,6.109,21.587C185.39,2694.775,177.651,2688.366,180.856,2684.063Z" fill="#e5e4e5" opacity="0.265"/>
          <path id="Path_2967" data-name="Path 2967" d="M180.866,2684.035c1.41-1.9,6.9-8.4,10.641-6.035,22.942,14.449,13.28,24.309,6.087,21.478C185.382,2694.673,177.7,2688.308,180.866,2684.035Z" fill="#e4e3e4" opacity="0.275"/>
          <path id="Path_2968" data-name="Path 2968" d="M180.876,2684.007c1.4-1.906,6.833-8.337,10.54-6,22.632,14.282,13.19,24.2,6.065,21.37C185.373,2694.57,177.754,2688.249,180.876,2684.007Z" fill="#e3e2e3" opacity="0.284"/>
          <path id="Path_2969" data-name="Path 2969" d="M180.886,2683.979c1.4-1.907,6.771-8.28,10.439-5.961,22.322,14.115,13.1,24.091,6.042,21.261C185.364,2694.468,177.8,2688.19,180.886,2683.979Z" fill="#e2e1e2" opacity="0.294"/>
          <path id="Path_2970" data-name="Path 2970" d="M180.9,2683.951c1.388-1.909,6.709-8.223,10.337-5.924,22.013,13.948,13.012,23.982,6.02,21.153C185.355,2694.365,177.857,2688.132,180.9,2683.951Z" fill="#e1e0e1" opacity="0.304"/>
          <path id="Path_2971" data-name="Path 2971" d="M180.906,2683.923c1.38-1.91,6.647-8.165,10.236-5.887,21.7,13.781,12.922,23.873,6,21.044C185.346,2694.263,177.908,2688.073,180.906,2683.923Z" fill="#e0dfe0" opacity="0.314"/>
          <path id="Path_2972" data-name="Path 2972" d="M180.917,2683.894c1.372-1.911,6.584-8.107,10.133-5.848,21.4,13.613,12.833,23.763,5.976,20.935C185.337,2694.16,177.959,2688.014,180.917,2683.894Z" fill="#dfdedf" opacity="0.324"/>
          <path id="Path_2973" data-name="Path 2973" d="M180.927,2683.866c1.364-1.912,6.522-8.049,10.032-5.811,21.085,13.445,12.743,23.654,5.953,20.826C185.328,2694.058,178.009,2687.955,180.927,2683.866Z" fill="#deddde" opacity="0.333"/>
          <path id="Path_2974" data-name="Path 2974" d="M180.937,2683.838c1.357-1.914,6.46-7.992,9.931-5.774,20.776,13.278,12.653,23.544,5.93,20.718C185.319,2693.955,178.06,2687.9,180.937,2683.838Z" fill="#dddcdd" opacity="0.343"/>
          <path id="Path_2975" data-name="Path 2975" d="M180.947,2683.81c1.349-1.916,6.4-7.935,9.829-5.737,20.467,13.11,12.564,23.435,5.909,20.609C185.31,2693.853,178.111,2687.836,180.947,2683.81Z" fill="#dcdbdc" opacity="0.353"/>
          <path id="Path_2976" data-name="Path 2976" d="M180.957,2683.782c1.342-1.918,6.336-7.877,9.728-5.7,20.158,12.942,12.474,23.326,5.886,20.5C185.3,2693.75,178.161,2687.777,180.957,2683.782Z" fill="#dbdadb" opacity="0.363"/>
          <path id="Path_2977" data-name="Path 2977" d="M180.967,2683.753c1.334-1.918,6.274-7.819,9.626-5.662,19.85,12.774,12.385,23.217,5.864,20.392C185.292,2693.647,178.212,2687.717,180.967,2683.753Z" fill="#dad9da" opacity="0.373"/>
          <path id="Path_2978" data-name="Path 2978" d="M180.978,2683.725c1.326-1.92,6.211-7.762,9.524-5.624,19.54,12.6,12.295,23.107,5.841,20.283C185.284,2693.545,178.262,2687.658,180.978,2683.725Z" fill="#d9d8d9" opacity="0.382"/>
          <path id="Path_2979" data-name="Path 2979" d="M180.988,2683.7c1.318-1.922,6.149-7.7,9.423-5.587,19.231,12.436,12.205,23,5.819,20.174C185.275,2693.442,178.312,2687.6,180.988,2683.7Z" fill="#d8d7d8" opacity="0.392"/>
          <path id="Path_2980" data-name="Path 2980" d="M181,2683.669c1.31-1.924,6.087-7.647,9.321-5.55,18.923,12.268,12.116,22.888,5.8,20.066C185.266,2693.339,178.362,2687.538,181,2683.669Z" fill="#d7d6d7" opacity="0.402"/>
          <path id="Path_2981" data-name="Path 2981" d="M181.008,2683.641c1.3-1.926,6.025-7.59,9.22-5.513,18.614,12.1,12.026,22.779,5.774,19.957C185.257,2693.236,178.412,2687.478,181.008,2683.641Z" fill="#d6d5d6" opacity="0.412"/>
          <path id="Path_2982" data-name="Path 2982" d="M181.018,2683.612c1.295-1.927,5.963-7.531,9.119-5.475,18.305,11.93,11.937,22.67,5.751,19.849C185.248,2693.133,178.461,2687.418,181.018,2683.612Z" fill="#d5d4d5" opacity="0.422"/>
          <path id="Path_2983" data-name="Path 2983" d="M181.028,2683.584c1.287-1.929,5.9-7.474,9.017-5.438,18,11.761,11.848,22.56,5.73,19.74C185.239,2693.03,178.511,2687.358,181.028,2683.584Z" fill="#d4d3d4" opacity="0.431"/>
          <path id="Path_2984" data-name="Path 2984" d="M181.039,2683.556c1.279-1.931,5.838-7.417,8.915-5.4,17.688,11.591,11.758,22.45,5.707,19.631C185.23,2692.927,178.56,2687.3,181.039,2683.556Z" fill="#d3d2d3" opacity="0.441"/>
          <path id="Path_2985" data-name="Path 2985" d="M181.049,2683.528c1.271-1.933,5.776-7.359,8.813-5.363,17.381,11.421,11.669,22.34,5.685,19.522C185.221,2692.824,178.609,2687.237,181.049,2683.528Z" fill="#d2d1d2" opacity="0.451"/>
          <path id="Path_2986" data-name="Path 2986" d="M181.059,2683.5c1.263-1.935,5.714-7.3,8.712-5.326,17.072,11.252,11.579,22.231,5.662,19.414C185.212,2692.721,178.659,2687.176,181.059,2683.5Z" fill="#d1d0d1" opacity="0.461"/>
          <path id="Path_2987" data-name="Path 2987" d="M181.069,2683.471c1.255-1.936,5.652-7.244,8.611-5.288,16.763,11.082,11.489,22.121,5.64,19.3C185.2,2692.618,178.708,2687.115,181.069,2683.471Z" fill="#d0cfd0" opacity="0.471"/>
          <path id="Path_2988" data-name="Path 2988" d="M181.079,2683.443c1.247-1.938,5.589-7.187,8.509-5.251,16.456,10.912,11.4,22.012,5.618,19.2C185.2,2692.515,178.756,2687.054,181.079,2683.443Z" fill="#cfcecf" opacity="0.48"/>
          <path id="Path_2989" data-name="Path 2989" d="M181.089,2683.415c1.239-1.941,5.527-7.129,8.408-5.213,16.148,10.74,11.31,21.9,5.6,19.087C185.186,2692.411,178.8,2686.993,181.089,2683.415Z" fill="#cecdce" opacity="0.49"/>
          <path id="Path_2990" data-name="Path 2990" d="M181.1,2683.387c1.23-1.943,5.464-7.072,8.3-5.176,15.84,10.57,11.221,21.792,5.573,18.979C185.177,2692.308,178.854,2686.932,181.1,2683.387Z" fill="#cdcdcd" opacity="0.5"/>
          <path id="Path_2991" data-name="Path 2991" d="M181.11,2683.359c1.222-1.945,5.4-7.015,8.2-5.139,15.532,10.4,11.132,21.682,5.551,18.87C185.168,2692.205,178.9,2686.871,181.11,2683.359Z" fill="#ccc" opacity="0.51"/>
          <path id="Path_2992" data-name="Path 2992" d="M181.12,2683.33c1.214-1.947,5.34-6.957,8.1-5.1,15.224,10.228,11.042,21.572,5.528,18.762C185.159,2692.1,178.95,2686.81,181.12,2683.33Z" fill="#cbcbcb" opacity="0.52"/>
          <path id="Path_2993" data-name="Path 2993" d="M181.13,2683.3c1.206-1.949,5.278-6.9,8-5.064,14.918,10.057,10.953,21.463,5.506,18.653C185.15,2692,179,2686.748,181.13,2683.3Z" fill="#cacaca" opacity="0.529"/>
          <path id="Path_2994" data-name="Path 2994" d="M181.14,2683.274c1.2-1.952,5.216-6.843,7.9-5.027,14.61,9.885,10.863,21.353,5.484,18.545C185.142,2691.894,179.047,2686.687,181.14,2683.274Z" fill="#c9c9c9" opacity="0.539"/>
          <path id="Path_2995" data-name="Path 2995" d="M181.15,2683.246c1.189-1.954,5.154-6.786,7.8-4.989,14.3,9.712,10.774,21.242,5.462,18.435C185.133,2691.79,179.094,2686.625,181.15,2683.246Z" fill="#c8c8c8" opacity="0.549"/>
          <path id="Path_2996" data-name="Path 2996" d="M181.161,2683.218c1.18-1.957,5.091-6.728,7.7-4.952,14,9.54,10.684,21.132,5.439,18.327C185.124,2691.687,179.142,2686.564,181.161,2683.218Z" fill="#c7c7c7" opacity="0.559"/>
          <path id="Path_2997" data-name="Path 2997" d="M181.171,2683.189c1.171-1.959,5.028-6.67,7.6-4.914,13.689,9.368,10.595,21.022,5.416,18.218C185.115,2691.583,179.19,2686.5,181.171,2683.189Z" fill="#c6c6c6" opacity="0.569"/>
          <path id="Path_2998" data-name="Path 2998" d="M181.181,2683.161c1.163-1.961,4.966-6.613,7.493-4.877,13.383,9.2,10.506,20.913,5.4,18.11C185.107,2691.479,179.237,2686.44,181.181,2683.161Z" fill="#c5c5c5" opacity="0.578"/>
          <path id="Path_2999" data-name="Path 2999" d="M181.191,2683.133c1.154-1.964,4.9-6.556,7.392-4.84,13.076,9.022,10.416,20.8,5.372,18C185.1,2691.375,179.284,2686.378,181.191,2683.133Z" fill="#c4c4c4" opacity="0.588"/>
          <path id="Path_3000" data-name="Path 3000" d="M181.2,2683.1c1.146-1.967,4.842-6.5,7.291-4.8,12.769,8.849,10.326,20.693,5.349,17.893C185.089,2691.271,179.331,2686.315,181.2,2683.1Z" fill="#c3c3c3" opacity="0.598"/>
          <path id="Path_3001" data-name="Path 3001" d="M181.211,2683.077c1.137-1.97,4.78-6.442,7.189-4.765,12.463,8.674,10.238,20.582,5.327,17.783C185.081,2691.167,179.378,2686.253,181.211,2683.077Z" fill="#c2c2c2" opacity="0.608"/>
          <path id="Path_3002" data-name="Path 3002" d="M181.222,2683.048c1.127-1.972,4.717-6.384,7.087-4.727,12.157,8.5,10.148,20.472,5.3,17.675C185.072,2691.063,179.425,2686.191,181.222,2683.048Z" fill="#c1c1c1" opacity="0.618"/>
          <path id="Path_3003" data-name="Path 3003" d="M181.232,2683.02c1.118-1.975,4.654-6.327,6.985-4.69,11.852,8.325,10.059,20.361,5.283,17.566C185.064,2690.959,179.471,2686.128,181.232,2683.02Z" fill="silver" opacity="0.627"/>
          <path id="Path_3004" data-name="Path 3004" d="M181.242,2682.992c1.109-1.978,4.592-6.271,6.884-4.653,11.546,8.15,9.97,20.251,5.26,17.458C185.055,2690.855,179.518,2686.066,181.242,2682.992Z" fill="#bfbfbf" opacity="0.637"/>
          <path id="Path_3005" data-name="Path 3005" d="M181.252,2682.964c1.1-1.981,4.53-6.214,6.783-4.616,11.24,7.975,9.88,20.141,5.237,17.349C185.047,2690.75,179.564,2686,181.252,2682.964Z" fill="#bebebe" opacity="0.647"/>
          <path id="Path_3006" data-name="Path 3006" d="M181.262,2682.936c1.091-1.984,4.468-6.157,6.681-4.579,10.936,7.8,9.791,20.031,5.216,17.241C185.038,2690.646,179.61,2685.94,181.262,2682.936Z" fill="#bdbdbd" opacity="0.657"/>
          <path id="Path_3007" data-name="Path 3007" d="M181.272,2682.907c1.082-1.986,4.406-6.1,6.58-4.54,10.63,7.621,9.7,19.919,5.193,17.131C185.03,2690.541,179.656,2685.877,181.272,2682.907Z" fill="#bcbcbc" opacity="0.667"/>
          <path id="Path_3008" data-name="Path 3008" d="M181.283,2682.879c1.071-1.989,4.343-6.042,6.477-4.5,10.326,7.444,9.613,19.809,5.171,17.023C185.021,2690.437,179.7,2685.814,181.283,2682.879Z" fill="#bbb" opacity="0.676"/>
          <path id="Path_3009" data-name="Path 3009" d="M181.293,2682.851c1.062-1.993,4.28-5.986,6.376-4.466,10.022,7.267,9.524,19.7,5.149,16.914C185.013,2690.332,179.747,2685.751,181.293,2682.851Z" fill="#bababa" opacity="0.686"/>
          <path id="Path_3010" data-name="Path 3010" d="M181.3,2682.823c1.052-2,4.218-5.929,6.275-4.429,9.717,7.089,9.434,19.588,5.126,16.806C185.005,2690.227,179.793,2685.688,181.3,2682.823Z" fill="#b9b9b9" opacity="0.696"/>
          <path id="Path_3011" data-name="Path 3011" d="M181.313,2682.795c1.042-2,4.156-5.872,6.173-4.392,9.414,6.91,9.346,19.478,5.1,16.7C185,2690.122,179.838,2685.625,181.313,2682.795Z" fill="#b8b8b8" opacity="0.706"/>
          <path id="Path_3012" data-name="Path 3012" d="M181.323,2682.766c1.032-2,4.094-5.815,6.072-4.354,9.111,6.731,9.256,19.367,5.081,16.589C184.988,2690.017,179.883,2685.561,181.323,2682.766Z" fill="#b7b7b7" opacity="0.716"/>
          <path id="Path_3013" data-name="Path 3013" d="M181.333,2682.738c1.022-2.006,4.032-5.758,5.97-4.316,8.808,6.551,9.168,19.255,5.06,16.479C184.98,2689.912,179.928,2685.5,181.333,2682.738Z" fill="#b6b6b6" opacity="0.725"/>
          <path id="Path_3014" data-name="Path 3014" d="M181.344,2682.71c1.011-2.01,3.968-5.7,5.868-4.279,8.5,6.37,9.078,19.145,5.037,16.371C184.972,2689.807,179.972,2685.435,181.344,2682.71Z" fill="#b5b5b5" opacity="0.735"/>
          <path id="Path_3015" data-name="Path 3015" d="M181.354,2682.682c1-2.013,3.906-5.646,5.767-4.242,8.2,6.189,8.989,19.034,5.014,16.262C184.964,2689.7,180.017,2685.371,181.354,2682.682Z" fill="#b4b4b4" opacity="0.745"/>
          <path id="Path_3016" data-name="Path 3016" d="M181.364,2682.654c.99-2.017,3.844-5.589,5.665-4.205,7.9,6.007,8.9,18.923,4.992,16.154C184.956,2689.6,180.061,2685.307,181.364,2682.654Z" fill="#b4b3b4" opacity="0.755"/>
          <path id="Path_3017" data-name="Path 3017" d="M181.374,2682.625c.979-2.02,3.782-5.532,5.564-4.167,7.6,5.824,8.811,18.812,4.97,16.045C184.949,2689.49,180.1,2685.244,181.374,2682.625Z" fill="#b3b2b3" opacity="0.765"/>
          <path id="Path_3018" data-name="Path 3018" d="M181.384,2682.6c.968-2.024,3.72-5.476,5.462-4.13,7.3,5.641,8.723,18.7,4.948,15.937C184.941,2689.385,180.149,2685.18,181.384,2682.6Z" fill="#b2b1b2" opacity="0.775"/>
          <path id="Path_3019" data-name="Path 3019" d="M181.394,2682.569c.957-2.028,3.658-5.42,5.361-4.092,7,5.455,8.634,18.589,4.925,15.827C184.933,2689.279,180.193,2685.116,181.394,2682.569Z" fill="#b1b0b1" opacity="0.784"/>
          <path id="Path_3020" data-name="Path 3020" d="M181.4,2682.541c.945-2.032,3.6-5.364,5.259-4.055,6.7,5.27,8.545,18.478,4.9,15.719C184.926,2689.173,180.236,2685.052,181.4,2682.541Z" fill="#b0afb0" opacity="0.794"/>
          <path id="Path_3021" data-name="Path 3021" d="M181.415,2682.513c.933-2.036,3.532-5.308,5.157-4.018,6.4,5.083,8.457,18.367,4.881,15.61C184.919,2689.067,180.28,2684.988,181.415,2682.513Z" fill="#afaeaf" opacity="0.804"/>
          <path id="Path_3022" data-name="Path 3022" d="M181.425,2682.484c.921-2.04,3.47-5.252,5.056-3.98,6.1,4.9,8.368,18.256,4.858,15.5C184.911,2688.961,180.323,2684.924,181.425,2682.484Z" fill="#aeadae" opacity="0.814"/>
          <path id="Path_3023" data-name="Path 3023" d="M181.435,2682.456c.909-2.044,3.409-5.2,4.955-3.943,5.805,4.708,8.279,18.145,4.835,15.393C184.9,2688.855,180.366,2684.86,181.435,2682.456Z" fill="#adacad" opacity="0.824"/>
          <path id="Path_3024" data-name="Path 3024" d="M181.445,2682.428c.9-2.048,3.347-5.141,4.853-3.905,5.508,4.517,8.191,18.033,4.814,15.284C184.9,2688.749,180.408,2684.8,181.445,2682.428Z" fill="#acabac" opacity="0.833"/>
          <path id="Path_3025" data-name="Path 3025" d="M181.455,2682.4c.885-2.053,3.285-5.086,4.752-3.868,5.212,4.326,8.1,17.921,4.791,15.175C184.89,2688.642,180.451,2684.732,181.455,2682.4Z" fill="#abaaab" opacity="0.843"/>
          <path id="Path_3026" data-name="Path 3026" d="M181.466,2682.372c.871-2.058,3.222-5.031,4.649-3.831,4.918,4.134,8.015,17.81,4.769,15.067C184.884,2688.536,180.493,2684.668,181.466,2682.372Z" fill="#aaa9aa" opacity="0.853"/>
          <path id="Path_3027" data-name="Path 3027" d="M181.476,2682.343c.857-2.061,3.161-4.975,4.548-3.793,4.623,3.94,7.926,17.7,4.746,14.958C184.877,2688.429,180.535,2684.6,181.476,2682.343Z" fill="#a9a8a9" opacity="0.863"/>
          <path id="Path_3028" data-name="Path 3028" d="M181.486,2682.315c.844-2.066,3.1-4.921,4.447-3.756,4.33,3.745,7.838,17.587,4.724,14.85C184.871,2688.322,180.577,2684.539,181.486,2682.315Z" fill="#a8a7a8" opacity="0.873"/>
          <path id="Path_3029" data-name="Path 3029" d="M181.5,2682.287c.83-2.071,3.038-4.867,4.345-3.719,4.039,3.548,7.75,17.475,4.7,14.741C184.864,2688.215,180.619,2684.475,181.5,2682.287Z" fill="#a7a6a7" opacity="0.882"/>
          <path id="Path_3030" data-name="Path 3030" d="M181.506,2682.259c.816-2.076,2.977-4.813,4.244-3.681,3.748,3.349,7.662,17.363,4.679,14.631C184.858,2688.108,180.661,2684.411,181.506,2682.259Z" fill="#a6a5a6" opacity="0.892"/>
          <path id="Path_3031" data-name="Path 3031" d="M181.516,2682.231c.8-2.081,2.917-4.76,4.142-3.644,3.46,3.148,7.575,17.251,4.657,14.523C184.852,2688,180.7,2684.347,181.516,2682.231Z" fill="#a5a4a5" opacity="0.902"/>
          <path id="Path_3032" data-name="Path 3032" d="M181.527,2682.2c.785-2.085,2.856-4.706,4.04-3.606,3.172,2.946,7.487,17.139,4.635,14.414C184.847,2687.894,180.743,2684.283,181.527,2682.2Z" fill="#a4a3a4" opacity="0.912"/>
          <path id="Path_3033" data-name="Path 3033" d="M181.537,2682.174c.77-2.09,2.8-4.654,3.939-3.569,2.886,2.742,7.4,17.028,4.612,14.306C184.841,2687.787,180.784,2684.219,181.537,2682.174Z" fill="#a3a2a3" opacity="0.922"/>
          <path id="Path_3034" data-name="Path 3034" d="M181.547,2682.146c.754-2.1,2.738-4.6,3.837-3.532,2.6,2.536,7.312,16.916,4.59,14.2C184.836,2687.679,180.824,2684.155,181.547,2682.146Z" fill="#a2a1a2" opacity="0.931"/>
          <path id="Path_3035" data-name="Path 3035" d="M181.557,2682.118c.737-2.1,2.68-4.553,3.736-3.495,2.322,2.328,7.224,16.8,4.567,14.089C184.831,2687.572,180.865,2684.09,181.557,2682.118Z" fill="#a1a0a1" opacity="0.941"/>
          <path id="Path_3036" data-name="Path 3036" d="M181.567,2682.09c.72-2.107,2.624-4.5,3.634-3.457,2.044,2.116,7.137,16.691,4.546,13.979C184.826,2687.464,180.9,2684.027,181.567,2682.09Z" fill="#a09fa0" opacity="0.951"/>
          <path id="Path_3037" data-name="Path 3037" d="M181.577,2682.061c.7-2.111,2.57-4.456,3.533-3.419,1.767,1.9,7.05,16.579,4.523,13.871C184.822,2687.356,180.945,2683.963,181.577,2682.061Z" fill="#9f9e9f" opacity="0.961"/>
          <path id="Path_3038" data-name="Path 3038" d="M181.588,2682.033c.684-2.117,2.519-4.412,3.431-3.382,1.5,1.689,6.962,16.467,4.5,13.762C184.818,2687.248,180.985,2683.9,181.588,2682.033Z" fill="#9e9d9e" opacity="0.971"/>
          <path id="Path_3039" data-name="Path 3039" d="M181.6,2682c.665-2.122,2.474-4.372,3.329-3.345,1.227,1.473,6.881,16.351,4.479,13.654C184.823,2687.132,181.024,2683.835,181.6,2682Z" fill="#9d9c9d" opacity="0.98"/>
          <path id="Path_3040" data-name="Path 3040" d="M181.608,2681.977c.646-2.128,2.437-4.337,3.228-3.308.964,1.256,6.791,16.241,4.456,13.545C184.815,2687.028,181.063,2683.772,181.608,2681.977Z" fill="#9c9b9c" opacity="0.99"/>
          <path id="Path_3041" data-name="Path 3041" d="M181.618,2681.949c.625-2.134,2.417-4.311,3.127-3.271s6.7,16.131,4.433,13.437C184.807,2686.924,181.1,2683.708,181.618,2681.949Z" fill="#9b9a9b"/>
        </g>
        <path id="Path_3042" data-name="Path 3042" d="M196.643,2697.785c.722,0,1.187-.067,1.283-.4.112-.393-.374-.714-1.394-1.347-7.034-4.36-6.3-6.572-5.241-9.054a8.338,8.338,0,0,0,9.441-6.21,8.287,8.287,0,0,0,.163-3.228,10.049,10.049,0,0,0,1.625-19.763,10.1,10.1,0,0,0-2.448-.3,9.97,9.97,0,0,0-3.072.484,10.047,10.047,0,0,0-18.4-4.338,7.149,7.149,0,0,0-11.564,7.4,8.484,8.484,0,0,0,1.455,16.841h0a8.417,8.417,0,0,0,1.51-.137,8.957,8.957,0,0,0,8.951,8.831c.131,0,.264,0,.4-.009,1.142,7.139,14.869,11.13,16.633,11.213C196.226,2697.779,196.45,2697.785,196.643,2697.785Z" fill="url(#linear-gradient)"/>
        <path id="Path_3043" data-name="Path 3043" d="M160.507,2667.386a8.228,8.228,0,0,1,6.86-6.15,6.892,6.892,0,0,1,11.282-7.213,9.792,9.792,0,0,1,18.127,4.288,9.791,9.791,0,1,1,3.82,19,8.09,8.09,0,0,1-9.46,9.387c-1.235,2.874-1.8,5.184,5.261,9.562,1.371.85,2.184,1.376-.409,1.255-2.047-.1-15.6-4.271-16.423-11.227a8.693,8.693,0,0,1-9.31-8.865,8.227,8.227,0,0,1-9.748-10.033Z" fill="url(#linear-gradient-2)"/>
      </g>
    </g>
    <g id="Group_242" data-name="Group 242">
      <path id="Path_3765" data-name="Path 3765" d="M182.022,2674.221h2.617v-8.781h-2.087v-.931a7.468,7.468,0,0,0,2.44-.835h1.124v10.547h2.36v1.219h-6.454Z" fill="#009342"/>
    </g>
  </g>
</svg>
